<?xml version="1.0" encoding="UTF-8"?>
<svg xmlns="http://www.w3.org/2000/svg" xmlns:xlink="http://www.w3.org/1999/xlink" version="1.2" >
<font id="Modern Era Mono Medium">
<font-face  font-family="Modern Era Mono" units-per-em="1000" ascent="785" descent="-215" font-style="normal" font-weight="500" font-stretch="normal" cap-height="700" x-height="495" underline-position="-50" underline-thickness="86" />
<missing-glyph  horiz-adv-x="600" d="M300 50 Q368 50 425.5 83.5 Q483 117 516.5 174.5 Q550 232 550 300 Q550 368 516.5 425.5 Q483 483 425.5 516.5 Q368 550 300 550 Q233 550 175.5 516.5 Q118 483 84 425.5 Q50 368 50 300 Q50 232 84 174.5 Q118 117 175.5 83.5 Q233 50 300 50 Z M300 505 Q356 505 403 477.5 Q450 450 478 403 Q506 356 506 300 Q506 244 478 197 Q450 150 403 122.5 Q356 95 300 95 Q244 95 197 122.5 Q150 150 122.5 197 Q95 244 95 300 Q95 356 122.5 403 Q150 450 197 477.5 Q244 505 300 505 Z M265 342 Q265 359 252.5 371.5 Q240 384 223 384 Q206 384 193 371.5 Q180 359 180 342 Q180 325 193 312.5 Q206 300 223 300 Q240 300 252.5 312.5 Q265 325 265 342 Z M420 342 Q420 359 407 371.5 Q394 384 377 384 Q360 384 347.5 371.5 Q335 359 335 342 Q335 325 347.5 312.5 Q360 300 377 300 Q394 300 407 312.5 Q420 325 420 342 Z " />
<glyph glyph-name="nonmarkingreturn" unicode="&#xd;" horiz-adv-x="600" d="" />
<glyph glyph-name="space" unicode="&#x20;" horiz-adv-x="600" d="" />
<glyph glyph-name="A" unicode="A" horiz-adv-x="600" d="M414 177 L185 177 L132 0 L32 0 L251 700 L347 700 L568 0 L468 0 L414 177 Z M387 267 L299 558 L212 267 L387 267 Z " />
<glyph glyph-name="Aacute" unicode="&#xc1;" horiz-adv-x="600" d="M414 177 L185 177 L132 0 L32 0 L251 700 L347 700 L568 0 L468 0 L414 177 Z M387 267 L299 558 L212 267 L387 267 Z M323 897 L450 897 L343 771 L256 771 L323 897 Z " />
<glyph glyph-name="Abreve" unicode="&#x102;" horiz-adv-x="600" d="M414 177 L185 177 L132 0 L32 0 L251 700 L347 700 L568 0 L468 0 L414 177 Z M387 267 L299 558 L212 267 L387 267 Z M432 901 Q430 846 393.5 810.5 Q357 775 300 775 Q244 775 207.5 810.5 Q171 846 168 901 L240 901 Q242 875 258 859 Q274 843 300 843 Q326 843 342.5 859 Q359 875 361 901 L432 901 Z " />
<glyph glyph-name="Acircumflex" unicode="&#xc2;" horiz-adv-x="600" d="M414 177 L185 177 L132 0 L32 0 L251 700 L347 700 L568 0 L468 0 L414 177 Z M387 267 L299 558 L212 267 L387 267 Z M356 771 L300 834 L244 771 L158 771 L248 897 L351 897 L441 771 L356 771 Z " />
<glyph glyph-name="Adieresis" unicode="&#xc4;" horiz-adv-x="600" d="M414 177 L185 177 L132 0 L32 0 L251 700 L347 700 L568 0 L468 0 L414 177 Z M387 267 L299 558 L212 267 L387 267 Z M213 770 Q187 770 168 789 Q149 808 149 834 Q149 860 168 879 Q187 898 213 898 Q240 898 258.5 879 Q277 860 277 834 Q277 808 258.5 789 Q240 770 213 770 Z M388 770 Q361 770 342 789 Q323 808 323 834 Q323 860 342 879 Q361 898 388 898 Q414 898 432.5 879 Q451 860 451 834 Q451 808 432.5 789 Q414 770 388 770 Z " />
<glyph glyph-name="Agrave" unicode="&#xc0;" horiz-adv-x="600" d="M414 177 L185 177 L132 0 L32 0 L251 700 L347 700 L568 0 L468 0 L414 177 Z M387 267 L299 558 L212 267 L387 267 Z M256 771 L149 897 L276 897 L343 771 L256 771 Z " />
<glyph glyph-name="Amacron" unicode="&#x100;" horiz-adv-x="600" d="M414 177 L185 177 L132 0 L32 0 L251 700 L347 700 L568 0 L468 0 L414 177 Z M387 267 L299 558 L212 267 L387 267 Z M194 872 L406 872 L406 796 L194 796 L194 872 Z " />
<glyph glyph-name="Aogonek" unicode="&#x104;" horiz-adv-x="600" d="M507 -74 Q507 -92 519 -103.5 Q531 -115 555 -115 L562 -115 L561 -183 L539 -185 Q488 -185 458 -159.5 Q428 -134 428 -94 Q428 -44 469 -5 L414 177 L185 177 L132 0 L32 0 L251 700 L347 700 L568 0 Q507 -33 507 -74 Z M387 267 L299 558 L212 267 L387 267 Z " />
<glyph glyph-name="Aring" unicode="&#xc5;" horiz-adv-x="600" d="M414 177 L185 177 L132 0 L32 0 L251 700 L347 700 L568 0 L468 0 L414 177 Z M387 267 L299 558 L212 267 L387 267 Z M209 850 Q209 887 236 914 Q263 941 300 941 Q338 941 365 914 Q392 887 392 850 Q392 813 364.5 785.5 Q337 758 300 758 Q263 758 236 785 Q209 812 209 850 Z M266 850 Q266 836 276 825.5 Q286 815 300 815 Q315 815 324.5 825 Q334 835 334 850 Q334 864 324.5 874 Q315 884 300 884 Q286 884 276 874 Q266 864 266 850 Z " />
<glyph glyph-name="Atilde" unicode="&#xc3;" horiz-adv-x="600" d="M414 177 L185 177 L132 0 L32 0 L251 700 L347 700 L568 0 L468 0 L414 177 Z M387 267 L299 558 L212 267 L387 267 Z M145 814 Q174 888 238 888 Q259 888 274.5 882.5 Q290 877 306 868 Q316 863 327.5 858.5 Q339 854 350 854 Q378 854 395 892 L451 854 Q426 780 355 780 Q336 780 321.5 785 Q307 790 289 800 Q279 805 268 809.5 Q257 814 247 814 Q218 814 201 778 L145 814 Z " />
<glyph glyph-name="AE" unicode="&#xc6;" horiz-adv-x="600" d="M413 611 L413 397 L531 397 L531 309 L413 309 L413 89 L556 89 L556 0 L315 0 L315 148 L184 148 L133 0 L38 0 L287 700 L556 700 L556 611 L413 611 Z M315 236 L315 524 L215 236 L315 236 Z " />
<glyph glyph-name="AEacute" unicode="&#x1fc;" horiz-adv-x="600" d="M413 611 L413 397 L531 397 L531 309 L413 309 L413 89 L556 89 L556 0 L315 0 L315 148 L184 148 L133 0 L38 0 L287 700 L556 700 L556 611 L413 611 Z M315 236 L315 524 L215 236 L315 236 Z M421 897 L548 897 L441 771 L354 771 L421 897 Z " />
<glyph glyph-name="B" unicode="B" horiz-adv-x="600" d="M63 700 L307 700 Q409 700 462 648.5 Q515 597 515 515 Q515 462 491.5 424.5 Q468 387 428 365 L428 363 Q473 348 506.5 308.5 Q540 269 540 200 Q540 142 513 96.5 Q486 51 436 25.5 Q386 0 318 0 L63 0 L63 700 Z M304 398 Q359 398 388 428 Q417 458 417 509 Q417 557 387 584.5 Q357 612 304 612 L163 612 L163 398 L304 398 Z M318 88 Q377 88 408.5 120.5 Q440 153 440 202 Q440 252 407.5 283 Q375 314 309 314 L163 314 L163 88 L318 88 Z " />
<glyph glyph-name="C" unicode="C" horiz-adv-x="600" d="M470 465 Q452 542 415 582 Q378 622 316 622 Q232 622 184.5 548.5 Q137 475 137 350 Q137 222 185 150 Q233 78 319 78 Q381 78 416.5 116 Q452 154 468 221 L558 190 Q500 -14 318 -14 Q234 -14 171.5 30 Q109 74 74.5 156 Q40 238 40 350 Q40 459 74.5 541.5 Q109 624 172 669 Q235 714 316 714 Q409 714 472 657.5 Q535 601 561 497 L470 465 Z " />
<glyph glyph-name="Cacute" unicode="&#x106;" horiz-adv-x="600" d="M470 465 Q452 542 415 582 Q378 622 316 622 Q232 622 184.5 548.5 Q137 475 137 350 Q137 222 185 150 Q233 78 319 78 Q381 78 416.5 116 Q452 154 468 221 L558 190 Q500 -14 318 -14 Q234 -14 171.5 30 Q109 74 74.5 156 Q40 238 40 350 Q40 459 74.5 541.5 Q109 624 172 669 Q235 714 316 714 Q409 714 472 657.5 Q535 601 561 497 L470 465 Z M339 897 L466 897 L359 771 L272 771 L339 897 Z " />
<glyph glyph-name="Ccaron" unicode="&#x10c;" horiz-adv-x="600" d="M470 465 Q452 542 415 582 Q378 622 316 622 Q232 622 184.5 548.5 Q137 475 137 350 Q137 222 185 150 Q233 78 319 78 Q381 78 416.5 116 Q452 154 468 221 L558 190 Q500 -14 318 -14 Q234 -14 171.5 30 Q109 74 74.5 156 Q40 238 40 350 Q40 459 74.5 541.5 Q109 624 172 669 Q235 714 316 714 Q409 714 472 657.5 Q535 601 561 497 L470 465 Z M458 900 L368 774 L265 774 L175 900 L261 900 L317 837 L373 900 L458 900 Z " />
<glyph glyph-name="Ccedilla" unicode="&#xc7;" horiz-adv-x="600" d="M319 78 Q381 78 416.5 116 Q452 154 468 221 L558 190 Q503 0 341 -13 L326 -42 Q365 -44 388 -65.5 Q411 -87 411 -126 Q411 -167 385 -192 Q359 -217 316 -217 Q279 -217 253 -196.5 Q227 -176 224 -146 L279 -127 Q280 -143 289.5 -152.5 Q299 -162 316 -162 Q331 -162 341 -152.5 Q351 -143 351 -127 Q351 -113 341 -103.5 Q331 -94 316 -94 Q300 -94 293 -101 L248 -69 L279 -11 Q206 -2 152 44.5 Q98 91 69 169 Q40 247 40 350 Q40 459 74.5 541.5 Q109 624 172 669 Q235 714 316 714 Q409 714 472 657.5 Q535 601 561 497 L470 465 Q452 542 415 582 Q378 622 316 622 Q232 622 184.5 548.5 Q137 475 137 350 Q137 222 185 150 Q233 78 319 78 Z " />
<glyph glyph-name="Ccircumflex" unicode="&#x108;" horiz-adv-x="600" d="M470 465 Q452 542 415 582 Q378 622 316 622 Q232 622 184.5 548.5 Q137 475 137 350 Q137 222 185 150 Q233 78 319 78 Q381 78 416.5 116 Q452 154 468 221 L558 190 Q500 -14 318 -14 Q234 -14 171.5 30 Q109 74 74.5 156 Q40 238 40 350 Q40 459 74.5 541.5 Q109 624 172 669 Q235 714 316 714 Q409 714 472 657.5 Q535 601 561 497 L470 465 Z M372 771 L316 834 L260 771 L174 771 L264 897 L367 897 L457 771 L372 771 Z " />
<glyph glyph-name="Cdotaccent" unicode="&#x10a;" horiz-adv-x="600" d="M470 465 Q452 542 415 582 Q378 622 316 622 Q232 622 184.5 548.5 Q137 475 137 350 Q137 222 185 150 Q233 78 319 78 Q381 78 416.5 116 Q452 154 468 221 L558 190 Q500 -14 318 -14 Q234 -14 171.5 30 Q109 74 74.5 156 Q40 238 40 350 Q40 459 74.5 541.5 Q109 624 172 669 Q235 714 316 714 Q409 714 472 657.5 Q535 601 561 497 L470 465 Z M249 836 Q249 864 268.5 883.5 Q288 903 316 903 Q343 903 362.5 883.5 Q382 864 382 836 Q382 808 362.5 788.5 Q343 769 316 769 Q288 769 268.5 788.5 Q249 808 249 836 Z " />
<glyph glyph-name="D" unicode="D" horiz-adv-x="600" d="M73 700 L263 700 Q362 700 425.5 652.5 Q489 605 517 527 Q545 449 545 355 Q545 256 514.5 175.5 Q484 95 422 47.5 Q360 0 271 0 L73 0 L73 700 Z M268 90 Q362 90 403.5 166 Q445 242 445 356 Q445 470 404 540 Q363 610 259 610 L173 610 L173 90 L268 90 Z " />
<glyph glyph-name="Eth" unicode="&#xd0;" horiz-adv-x="600" d="M263 700 Q362 700 425.5 652.5 Q489 605 517 527 Q545 449 545 355 Q545 256 514.5 175.5 Q484 95 422 47.5 Q360 0 271 0 L73 0 L73 306 L17 306 L17 396 L73 396 L73 700 L263 700 Z M268 90 Q362 90 403.5 166 Q445 242 445 356 Q445 470 404 540 Q363 610 259 610 L173 610 L173 396 L292 396 L292 306 L173 306 L173 90 L268 90 Z " />
<glyph glyph-name="Dcaron" unicode="&#x10e;" horiz-adv-x="600" d="M73 700 L263 700 Q362 700 425.5 652.5 Q489 605 517 527 Q545 449 545 355 Q545 256 514.5 175.5 Q484 95 422 47.5 Q360 0 271 0 L73 0 L73 700 Z M268 90 Q362 90 403.5 166 Q445 242 445 356 Q445 470 404 540 Q363 610 259 610 L173 610 L173 90 L268 90 Z M424 900 L334 774 L231 774 L141 900 L227 900 L283 837 L339 900 L424 900 Z " />
<glyph glyph-name="Dcroat" unicode="&#x110;" horiz-adv-x="600" d="M263 700 Q362 700 425.5 652.5 Q489 605 517 527 Q545 449 545 355 Q545 256 514.5 175.5 Q484 95 422 47.5 Q360 0 271 0 L73 0 L73 306 L17 306 L17 396 L73 396 L73 700 L263 700 Z M268 90 Q362 90 403.5 166 Q445 242 445 356 Q445 470 404 540 Q363 610 259 610 L173 610 L173 396 L292 396 L292 306 L173 306 L173 90 L268 90 Z " />
<glyph glyph-name="E" unicode="E" horiz-adv-x="600" d="M85 700 L517 700 L517 610 L185 610 L185 397 L475 397 L475 309 L185 309 L185 90 L517 90 L517 0 L85 0 L85 700 Z " />
<glyph glyph-name="Eacute" unicode="&#xc9;" horiz-adv-x="600" d="M85 700 L517 700 L517 610 L185 610 L185 397 L475 397 L475 309 L185 309 L185 90 L517 90 L517 0 L85 0 L85 700 Z M332 897 L459 897 L352 771 L265 771 L332 897 Z " />
<glyph glyph-name="Ebreve" unicode="&#x114;" horiz-adv-x="600" d="M85 700 L517 700 L517 610 L185 610 L185 397 L475 397 L475 309 L185 309 L185 90 L517 90 L517 0 L85 0 L85 700 Z M441 892 Q439 837 402 801.5 Q365 766 309 766 Q253 766 216 801.5 Q179 837 177 892 L249 892 Q251 866 267 850.5 Q283 835 309 835 Q336 835 352 850.5 Q368 866 370 892 L441 892 Z " />
<glyph glyph-name="Ecaron" unicode="&#x11a;" horiz-adv-x="600" d="M85 700 L517 700 L517 610 L185 610 L185 397 L475 397 L475 309 L185 309 L185 90 L517 90 L517 0 L85 0 L85 700 Z M451 900 L361 774 L258 774 L168 900 L254 900 L310 837 L366 900 L451 900 Z " />
<glyph glyph-name="Ecircumflex" unicode="&#xca;" horiz-adv-x="600" d="M85 700 L517 700 L517 610 L185 610 L185 397 L475 397 L475 309 L185 309 L185 90 L517 90 L517 0 L85 0 L85 700 Z M365 771 L309 834 L253 771 L167 771 L257 897 L360 897 L450 771 L365 771 Z " />
<glyph glyph-name="Edieresis" unicode="&#xcb;" horiz-adv-x="600" d="M85 700 L517 700 L517 610 L185 610 L185 397 L475 397 L475 309 L185 309 L185 90 L517 90 L517 0 L85 0 L85 700 Z M222 770 Q196 770 177 789 Q158 808 158 834 Q158 860 177 879 Q196 898 222 898 Q249 898 267.5 879 Q286 860 286 834 Q286 808 267.5 789 Q249 770 222 770 Z M397 770 Q370 770 351 789 Q332 808 332 834 Q332 860 351 879 Q370 898 397 898 Q423 898 441.5 879 Q460 860 460 834 Q460 808 441.5 789 Q423 770 397 770 Z " />
<glyph glyph-name="Edotaccent" unicode="&#x116;" horiz-adv-x="600" d="M85 700 L517 700 L517 610 L185 610 L185 397 L475 397 L475 309 L185 309 L185 90 L517 90 L517 0 L85 0 L85 700 Z M242 836 Q242 864 261.5 883.5 Q281 903 309 903 Q336 903 355.5 883.5 Q375 864 375 836 Q375 808 355.5 788.5 Q336 769 309 769 Q281 769 261.5 788.5 Q242 808 242 836 Z " />
<glyph glyph-name="Egrave" unicode="&#xc8;" horiz-adv-x="600" d="M85 700 L517 700 L517 610 L185 610 L185 397 L475 397 L475 309 L185 309 L185 90 L517 90 L517 0 L85 0 L85 700 Z M265 771 L158 897 L285 897 L352 771 L265 771 Z " />
<glyph glyph-name="Emacron" unicode="&#x112;" horiz-adv-x="600" d="M85 700 L517 700 L517 610 L185 610 L185 397 L475 397 L475 309 L185 309 L185 90 L517 90 L517 0 L85 0 L85 700 Z M203 872 L415 872 L415 796 L203 796 L203 872 Z " />
<glyph glyph-name="Eogonek" unicode="&#x118;" horiz-adv-x="600" d="M185 610 L185 397 L475 397 L475 309 L185 309 L185 90 L517 90 L517 0 Q456 -33 456 -74 Q456 -92 468 -103.5 Q480 -115 504 -115 L511 -115 L510 -183 L488 -185 Q437 -185 407 -159.5 Q377 -134 377 -94 Q377 -42 424 0 L85 0 L85 700 L517 700 L517 610 L185 610 Z " />
<glyph glyph-name="F" unicode="F" horiz-adv-x="600" d="M84 700 L516 700 L516 610 L184 610 L184 380 L476 380 L476 292 L184 292 L184 0 L84 0 L84 700 Z " />
<glyph glyph-name="G" unicode="G" horiz-adv-x="600" d="M480 0 L467 56 Q453 29 410.5 7.5 Q368 -14 306 -14 Q224 -14 165.5 31.5 Q107 77 76.5 159.5 Q46 242 46 350 Q46 513 112 613.5 Q178 714 306 714 Q396 714 456.5 661.5 Q517 609 540 520 L445 490 Q432 550 398 586 Q364 622 308 622 Q230 622 188.5 545.5 Q147 469 147 350 Q147 223 185 150.5 Q223 78 307 78 Q385 78 420 138.5 Q455 199 457 288 L309 288 L308 378 L554 378 L554 0 L480 0 Z " />
<glyph glyph-name="Gbreve" unicode="&#x11e;" horiz-adv-x="600" d="M480 0 L467 56 Q453 29 410.5 7.5 Q368 -14 306 -14 Q224 -14 165.5 31.5 Q107 77 76.5 159.5 Q46 242 46 350 Q46 513 112 613.5 Q178 714 306 714 Q396 714 456.5 661.5 Q517 609 540 520 L445 490 Q432 550 398 586 Q364 622 308 622 Q230 622 188.5 545.5 Q147 469 147 350 Q147 223 185 150.5 Q223 78 307 78 Q385 78 420 138.5 Q455 199 457 288 L309 288 L308 378 L554 378 L554 0 L480 0 Z M438 892 Q436 837 399 801.5 Q362 766 306 766 Q250 766 213 801.5 Q176 837 174 892 L246 892 Q248 866 264 850.5 Q280 835 306 835 Q333 835 349 850.5 Q365 866 367 892 L438 892 Z " />
<glyph glyph-name="Gcircumflex" unicode="&#x11c;" horiz-adv-x="600" d="M480 0 L467 56 Q453 29 410.5 7.5 Q368 -14 306 -14 Q224 -14 165.5 31.5 Q107 77 76.5 159.5 Q46 242 46 350 Q46 513 112 613.5 Q178 714 306 714 Q396 714 456.5 661.5 Q517 609 540 520 L445 490 Q432 550 398 586 Q364 622 308 622 Q230 622 188.5 545.5 Q147 469 147 350 Q147 223 185 150.5 Q223 78 307 78 Q385 78 420 138.5 Q455 199 457 288 L309 288 L308 378 L554 378 L554 0 L480 0 Z M362 771 L306 834 L250 771 L164 771 L254 897 L357 897 L447 771 L362 771 Z " />
<glyph glyph-name="Gcommaaccent" unicode="&#x122;" horiz-adv-x="600" d="M480 0 L467 56 Q453 29 410.5 7.5 Q368 -14 306 -14 Q224 -14 165.5 31.5 Q107 77 76.5 159.5 Q46 242 46 350 Q46 513 112 613.5 Q178 714 306 714 Q396 714 456.5 661.5 Q517 609 540 520 L445 490 Q432 550 398 586 Q364 622 308 622 Q230 622 188.5 545.5 Q147 469 147 350 Q147 223 185 150.5 Q223 78 307 78 Q385 78 420 138.5 Q455 199 457 288 L309 288 L308 378 L554 378 L554 0 L480 0 Z M309 -46 Q335 -46 352.5 -63.5 Q370 -81 370 -112 Q370 -139 353 -170.5 Q336 -202 309 -226 L273 -200 Q292 -175 298 -155 Q276 -151 264 -137.5 Q252 -124 252 -104 Q252 -79 268.5 -62.5 Q285 -46 309 -46 Z " />
<glyph glyph-name="Gdotaccent" unicode="&#x120;" horiz-adv-x="600" d="M480 0 L467 56 Q453 29 410.5 7.5 Q368 -14 306 -14 Q224 -14 165.5 31.5 Q107 77 76.5 159.5 Q46 242 46 350 Q46 513 112 613.5 Q178 714 306 714 Q396 714 456.5 661.5 Q517 609 540 520 L445 490 Q432 550 398 586 Q364 622 308 622 Q230 622 188.5 545.5 Q147 469 147 350 Q147 223 185 150.5 Q223 78 307 78 Q385 78 420 138.5 Q455 199 457 288 L309 288 L308 378 L554 378 L554 0 L480 0 Z M239 836 Q239 864 258.5 883.5 Q278 903 306 903 Q333 903 352.5 883.5 Q372 864 372 836 Q372 808 352.5 788.5 Q333 769 306 769 Q278 769 258.5 788.5 Q239 808 239 836 Z " />
<glyph glyph-name="H" unicode="H" horiz-adv-x="600" d="M69 700 L169 700 L169 403 L431 403 L431 700 L531 700 L531 0 L431 0 L431 311 L169 311 L169 0 L69 0 L69 700 Z " />
<glyph glyph-name="Hbar" unicode="&#x126;" horiz-adv-x="600" d="M577 508 L532 508 L532 0 L432 0 L432 305 L170 305 L170 0 L70 0 L70 508 L24 508 L24 598 L70 598 L70 700 L170 700 L170 598 L432 598 L432 700 L532 700 L532 598 L577 598 L577 508 Z M432 508 L170 508 L170 397 L432 397 L432 508 Z " />
<glyph glyph-name="Hcircumflex" unicode="&#x124;" horiz-adv-x="600" d="M69 700 L169 700 L169 403 L431 403 L431 700 L531 700 L531 0 L431 0 L431 311 L169 311 L169 0 L69 0 L69 700 Z M357 771 L301 834 L245 771 L159 771 L249 897 L352 897 L442 771 L357 771 Z " />
<glyph glyph-name="I" unicode="I" horiz-adv-x="600" d="M350 612 L350 88 L525 88 L525 0 L75 0 L75 88 L250 88 L250 612 L75 612 L75 700 L525 700 L525 612 L350 612 Z " />
<glyph glyph-name="Iacute" unicode="&#xcd;" horiz-adv-x="600" d="M350 612 L350 88 L525 88 L525 0 L75 0 L75 88 L250 88 L250 612 L75 612 L75 700 L525 700 L525 612 L350 612 Z M323 897 L450 897 L343 771 L256 771 L323 897 Z " />
<glyph glyph-name="Ibreve" unicode="&#x12c;" horiz-adv-x="600" d="M350 612 L350 88 L525 88 L525 0 L75 0 L75 88 L250 88 L250 612 L75 612 L75 700 L525 700 L525 612 L350 612 Z M432 892 Q430 837 393 801.5 Q356 766 300 766 Q244 766 207 801.5 Q170 837 168 892 L240 892 Q242 866 258 850.5 Q274 835 300 835 Q327 835 343 850.5 Q359 866 361 892 L432 892 Z " />
<glyph glyph-name="Icircumflex" unicode="&#xce;" horiz-adv-x="600" d="M350 612 L350 88 L525 88 L525 0 L75 0 L75 88 L250 88 L250 612 L75 612 L75 700 L525 700 L525 612 L350 612 Z M356 771 L300 834 L244 771 L158 771 L248 897 L351 897 L441 771 L356 771 Z " />
<glyph glyph-name="Idieresis" unicode="&#xcf;" horiz-adv-x="600" d="M350 612 L350 88 L525 88 L525 0 L75 0 L75 88 L250 88 L250 612 L75 612 L75 700 L525 700 L525 612 L350 612 Z M215 773 Q188 773 169 792 Q150 811 150 837 Q150 863 169 882 Q188 901 215 901 Q241 901 260 882 Q279 863 279 837 Q279 811 260 792 Q241 773 215 773 Z M383 773 Q357 773 337.5 792 Q318 811 318 837 Q318 863 337.5 882 Q357 901 383 901 Q409 901 427.5 882 Q446 863 446 837 Q446 811 427.5 792 Q409 773 383 773 Z " />
<glyph glyph-name="Idot" unicode="&#x130;" horiz-adv-x="600" d="M350 612 L350 88 L525 88 L525 0 L75 0 L75 88 L250 88 L250 612 L75 612 L75 700 L525 700 L525 612 L350 612 Z M233 836 Q233 864 252.5 883.5 Q272 903 300 903 Q327 903 346.5 883.5 Q366 864 366 836 Q366 808 346.5 788.5 Q327 769 300 769 Q272 769 252.5 788.5 Q233 808 233 836 Z " />
<glyph glyph-name="Igrave" unicode="&#xcc;" horiz-adv-x="600" d="M350 612 L350 88 L525 88 L525 0 L75 0 L75 88 L250 88 L250 612 L75 612 L75 700 L525 700 L525 612 L350 612 Z M256 771 L149 897 L276 897 L343 771 L256 771 Z " />
<glyph glyph-name="Imacron" unicode="&#x12a;" horiz-adv-x="600" d="M350 612 L350 88 L525 88 L525 0 L75 0 L75 88 L250 88 L250 612 L75 612 L75 700 L525 700 L525 612 L350 612 Z M194 872 L406 872 L406 796 L194 796 L194 872 Z " />
<glyph glyph-name="Iogonek" unicode="&#x12e;" horiz-adv-x="600" d="M350 612 L350 88 L525 88 L525 0 L346 0 Q285 -33 285 -74 Q285 -92 297 -103.5 Q309 -115 333 -115 L340 -115 L339 -183 L317 -185 Q266 -185 236 -159.5 Q206 -134 206 -94 Q206 -42 253 0 L75 0 L75 88 L250 88 L250 612 L75 612 L75 700 L525 700 L525 612 L350 612 Z " />
<glyph glyph-name="Itilde" unicode="&#x128;" horiz-adv-x="600" d="M350 612 L350 88 L525 88 L525 0 L75 0 L75 88 L250 88 L250 612 L75 612 L75 700 L525 700 L525 612 L350 612 Z M145 814 Q174 888 238 888 Q259 888 274.5 882.5 Q290 877 306 868 Q316 863 327.5 858.5 Q339 854 350 854 Q378 854 395 892 L451 854 Q426 780 355 780 Q336 780 321.5 785 Q307 790 289 800 Q279 805 268 809.5 Q257 814 247 814 Q218 814 201 778 L145 814 Z " />
<glyph glyph-name="J" unicode="J" horiz-adv-x="600" d="M507 204 Q507 97 451.5 41.5 Q396 -14 300 -14 Q210 -14 153.5 37.5 Q97 89 95 175 L95 212 L193 194 L193 183 Q193 136 221 107 Q249 78 300 78 Q352 78 379.5 110.5 Q407 143 407 201 L407 612 L138 612 L138 700 L507 700 L507 204 Z " />
<glyph glyph-name="Jcircumflex" unicode="&#x134;" horiz-adv-x="600" d="M507 204 Q507 97 451.5 41.5 Q396 -14 300 -14 Q210 -14 153.5 37.5 Q97 89 95 175 L95 212 L193 194 L193 183 Q193 136 221 107 Q249 78 300 78 Q352 78 379.5 110.5 Q407 143 407 201 L407 612 L138 612 L138 700 L507 700 L507 204 Z M396 771 L340 834 L284 771 L198 771 L288 897 L391 897 L481 771 L396 771 Z " />
<glyph glyph-name="K" unicode="K" horiz-adv-x="600" d="M219 330 L160 264 L160 0 L61 0 L61 700 L160 700 L160 402 L167 410 L164 415 L173 417 L425 700 L548 700 L286 406 L555 0 L433 0 L219 330 Z " />
<glyph glyph-name="Kcommaaccent" unicode="&#x136;" horiz-adv-x="600" d="M219 330 L160 264 L160 0 L61 0 L61 700 L160 700 L160 402 L167 410 L164 415 L173 417 L425 700 L548 700 L286 406 L555 0 L433 0 L219 330 Z M299 -46 Q325 -46 342.5 -63.5 Q360 -81 360 -112 Q360 -139 343 -170.5 Q326 -202 299 -226 L263 -200 Q282 -175 288 -155 Q266 -151 254 -137.5 Q242 -124 242 -104 Q242 -79 258.5 -62.5 Q275 -46 299 -46 Z " />
<glyph glyph-name="L" unicode="L" horiz-adv-x="600" d="M83 700 L183 700 L183 92 L508 92 L508 0 L83 0 L83 700 Z " />
<glyph glyph-name="Lacute" unicode="&#x139;" horiz-adv-x="600" d="M83 700 L183 700 L183 92 L508 92 L508 0 L83 0 L83 700 Z M158 897 L285 897 L178 771 L91 771 L158 897 Z " />
<glyph glyph-name="Lcaron" unicode="&#x13d;" horiz-adv-x="600" d="M83 700 L183 700 L183 92 L508 92 L508 0 L83 0 L83 700 Z M275 700 L381 700 L321 574 L250 574 L275 700 Z " />
<glyph glyph-name="Lcommaaccent" unicode="&#x13b;" horiz-adv-x="600" d="M83 700 L183 700 L183 92 L508 92 L508 0 L83 0 L83 700 Z M289 -46 Q315 -46 332.5 -63.5 Q350 -81 350 -112 Q350 -139 333 -170.5 Q316 -202 289 -226 L253 -200 Q272 -175 278 -155 Q256 -151 244 -137.5 Q232 -124 232 -104 Q232 -79 248.5 -62.5 Q265 -46 289 -46 Z " />
<glyph glyph-name="Ldot" unicode="&#x13f;" horiz-adv-x="600" d="M83 700 L183 700 L183 92 L508 92 L508 0 L83 0 L83 700 Z M365 394 Q365 422 385 441.5 Q405 461 433 461 Q461 461 480 441.5 Q499 422 499 394 Q499 366 480 346.5 Q461 327 433 327 Q405 327 385 346.5 Q365 366 365 394 Z " />
<glyph glyph-name="Lslash" unicode="&#x141;" horiz-adv-x="600" d="M527 92 L527 0 L143 0 L143 274 L89 247 L53 325 L143 370 L143 700 L243 700 L243 419 L367 481 L403 404 L243 324 L243 92 L527 92 Z " />
<glyph glyph-name="M" unicode="M" horiz-adv-x="600" d="M553 0 L457 0 L457 541 L344 277 L256 277 L142 542 L142 0 L46 0 L46 700 L171 700 L301 403 L429 700 L553 700 L553 0 Z " />
<glyph glyph-name="N" unicode="N" horiz-adv-x="600" d="M70 700 L170 700 L432 204 L432 700 L530 700 L530 0 L431 0 L168 493 L168 0 L70 0 L70 700 Z " />
<glyph glyph-name="Nacute" unicode="&#x143;" horiz-adv-x="600" d="M70 700 L170 700 L432 204 L432 700 L530 700 L530 0 L431 0 L168 493 L168 0 L70 0 L70 700 Z M325 897 L452 897 L345 771 L258 771 L325 897 Z " />
<glyph glyph-name="Ncaron" unicode="&#x147;" horiz-adv-x="600" d="M70 700 L170 700 L432 204 L432 700 L530 700 L530 0 L431 0 L168 493 L168 0 L70 0 L70 700 Z M444 900 L354 774 L251 774 L161 900 L247 900 L303 837 L359 900 L444 900 Z " />
<glyph glyph-name="Ncommaaccent" unicode="&#x145;" horiz-adv-x="600" d="M70 700 L170 700 L432 204 L432 700 L530 700 L530 0 L431 0 L168 493 L168 0 L70 0 L70 700 Z M307 -46 Q333 -46 350.5 -63.5 Q368 -81 368 -112 Q368 -139 351 -170.5 Q334 -202 307 -226 L271 -200 Q290 -175 296 -155 Q274 -151 262 -137.5 Q250 -124 250 -104 Q250 -79 266.5 -62.5 Q283 -46 307 -46 Z " />
<glyph glyph-name="Eng" unicode="&#x14a;" horiz-adv-x="600" d="M530 700 L530 -50 Q530 -129 480.5 -174 Q431 -219 351 -219 Q229 -219 186 -107 L270 -73 Q288 -129 349 -129 Q389 -129 410.5 -107.5 Q432 -86 432 -45 L432 0 L168 493 L168 0 L70 0 L70 700 L170 700 L432 204 L432 700 L530 700 Z " />
<glyph glyph-name="Ntilde" unicode="&#xd1;" horiz-adv-x="600" d="M70 700 L170 700 L432 204 L432 700 L530 700 L530 0 L431 0 L168 493 L168 0 L70 0 L70 700 Z M147 814 Q176 888 240 888 Q261 888 276.5 882.5 Q292 877 308 868 Q318 863 329.5 858.5 Q341 854 352 854 Q380 854 397 892 L453 854 Q428 780 357 780 Q338 780 323.5 785 Q309 790 291 800 Q281 805 270 809.5 Q259 814 249 814 Q220 814 203 778 L147 814 Z " />
<glyph glyph-name="O" unicode="O" horiz-adv-x="600" d="M52 351 Q52 527 115.5 621 Q179 715 300 715 Q421 715 484.5 621 Q548 527 548 351 Q548 179 484 83 Q420 -13 300 -13 Q180 -13 116 83 Q52 179 52 351 Z M450 351 Q450 482 412 552.5 Q374 623 300 623 Q150 623 150 351 Q150 79 300 79 Q450 79 450 351 Z " />
<glyph glyph-name="Oacute" unicode="&#xd3;" horiz-adv-x="600" d="M52 351 Q52 527 115.5 621 Q179 715 300 715 Q421 715 484.5 621 Q548 527 548 351 Q548 179 484 83 Q420 -13 300 -13 Q180 -13 116 83 Q52 179 52 351 Z M450 351 Q450 482 412 552.5 Q374 623 300 623 Q150 623 150 351 Q150 79 300 79 Q450 79 450 351 Z M323 897 L450 897 L343 771 L256 771 L323 897 Z " />
<glyph glyph-name="Obreve" unicode="&#x14e;" horiz-adv-x="600" d="M52 351 Q52 527 115.5 621 Q179 715 300 715 Q421 715 484.5 621 Q548 527 548 351 Q548 179 484 83 Q420 -13 300 -13 Q180 -13 116 83 Q52 179 52 351 Z M450 351 Q450 482 412 552.5 Q374 623 300 623 Q150 623 150 351 Q150 79 300 79 Q450 79 450 351 Z M432 892 Q430 837 393 801.5 Q356 766 300 766 Q244 766 207 801.5 Q170 837 168 892 L240 892 Q242 866 258 850.5 Q274 835 300 835 Q327 835 343 850.5 Q359 866 361 892 L432 892 Z " />
<glyph glyph-name="Ocircumflex" unicode="&#xd4;" horiz-adv-x="600" d="M52 351 Q52 527 115.5 621 Q179 715 300 715 Q421 715 484.5 621 Q548 527 548 351 Q548 179 484 83 Q420 -13 300 -13 Q180 -13 116 83 Q52 179 52 351 Z M450 351 Q450 482 412 552.5 Q374 623 300 623 Q150 623 150 351 Q150 79 300 79 Q450 79 450 351 Z M356 771 L300 834 L244 771 L158 771 L248 897 L351 897 L441 771 L356 771 Z " />
<glyph glyph-name="Odieresis" unicode="&#xd6;" horiz-adv-x="600" d="M52 351 Q52 527 115.5 621 Q179 715 300 715 Q421 715 484.5 621 Q548 527 548 351 Q548 179 484 83 Q420 -13 300 -13 Q180 -13 116 83 Q52 179 52 351 Z M450 351 Q450 482 412 552.5 Q374 623 300 623 Q150 623 150 351 Q150 79 300 79 Q450 79 450 351 Z M213 770 Q187 770 168 789 Q149 808 149 834 Q149 860 168 879 Q187 898 213 898 Q240 898 258.5 879 Q277 860 277 834 Q277 808 258.5 789 Q240 770 213 770 Z M388 770 Q361 770 342 789 Q323 808 323 834 Q323 860 342 879 Q361 898 388 898 Q414 898 432.5 879 Q451 860 451 834 Q451 808 432.5 789 Q414 770 388 770 Z " />
<glyph glyph-name="Ograve" unicode="&#xd2;" horiz-adv-x="600" d="M52 351 Q52 527 115.5 621 Q179 715 300 715 Q421 715 484.5 621 Q548 527 548 351 Q548 179 484 83 Q420 -13 300 -13 Q180 -13 116 83 Q52 179 52 351 Z M450 351 Q450 482 412 552.5 Q374 623 300 623 Q150 623 150 351 Q150 79 300 79 Q450 79 450 351 Z M256 771 L149 897 L276 897 L343 771 L256 771 Z " />
<glyph glyph-name="Ohungarumlaut" unicode="&#x150;" horiz-adv-x="600" d="M52 351 Q52 527 115.5 621 Q179 715 300 715 Q421 715 484.5 621 Q548 527 548 351 Q548 179 484 83 Q420 -13 300 -13 Q180 -13 116 83 Q52 179 52 351 Z M450 351 Q450 482 412 552.5 Q374 623 300 623 Q150 623 150 351 Q150 79 300 79 Q450 79 450 351 Z M185 771 L243 897 L356 897 L259 771 L185 771 Z M331 771 L389 897 L502 897 L405 771 L331 771 Z " />
<glyph glyph-name="Omacron" unicode="&#x14c;" horiz-adv-x="600" d="M52 351 Q52 527 115.5 621 Q179 715 300 715 Q421 715 484.5 621 Q548 527 548 351 Q548 179 484 83 Q420 -13 300 -13 Q180 -13 116 83 Q52 179 52 351 Z M450 351 Q450 482 412 552.5 Q374 623 300 623 Q150 623 150 351 Q150 79 300 79 Q450 79 450 351 Z M194 872 L406 872 L406 796 L194 796 L194 872 Z " />
<glyph glyph-name="Oslash" unicode="&#xd8;" horiz-adv-x="600" d="M495 605 Q548 513 548 351 Q548 179 484 83 Q420 -13 300 -13 Q224 -13 171 26 L139 -31 L65 10 L110 92 Q52 187 52 351 Q52 527 115.5 621 Q179 715 300 715 Q379 715 434 674 L466 732 L541 688 L495 605 Z M150 351 Q150 257 168 195 L386 588 Q351 623 300 623 Q150 623 150 351 Z M300 79 Q450 79 450 351 Q450 438 434 496 L217 109 Q250 79 300 79 Z " />
<glyph glyph-name="Oslashacute" unicode="&#x1fe;" horiz-adv-x="600" d="M495 605 Q548 513 548 351 Q548 179 484 83 Q420 -13 300 -13 Q224 -13 171 26 L139 -31 L65 10 L110 92 Q52 187 52 351 Q52 527 115.5 621 Q179 715 300 715 Q379 715 434 674 L466 732 L541 688 L495 605 Z M150 351 Q150 257 168 195 L386 588 Q351 623 300 623 Q150 623 150 351 Z M300 79 Q450 79 450 351 Q450 438 434 496 L217 109 Q250 79 300 79 Z M323 897 L450 897 L343 771 L256 771 L323 897 Z " />
<glyph glyph-name="Otilde" unicode="&#xd5;" horiz-adv-x="600" d="M52 351 Q52 527 115.5 621 Q179 715 300 715 Q421 715 484.5 621 Q548 527 548 351 Q548 179 484 83 Q420 -13 300 -13 Q180 -13 116 83 Q52 179 52 351 Z M450 351 Q450 482 412 552.5 Q374 623 300 623 Q150 623 150 351 Q150 79 300 79 Q450 79 450 351 Z M145 814 Q174 888 238 888 Q259 888 274.5 882.5 Q290 877 306 868 Q316 863 327.5 858.5 Q339 854 350 854 Q378 854 395 892 L451 854 Q426 780 355 780 Q336 780 321.5 785 Q307 790 289 800 Q279 805 268 809.5 Q257 814 247 814 Q218 814 201 778 L145 814 Z " />
<glyph glyph-name="OE" unicode="&#x152;" horiz-adv-x="600" d="M402 610 L402 397 L517 397 L517 309 L402 309 L402 90 L547 90 L547 0 L311 0 L311 72 Q273 -7 198 -7 Q117 -7 77.5 81.5 Q38 170 38 350 Q38 531 78.5 619 Q119 707 200 707 Q275 707 311 637 L311 700 L547 700 L547 610 L402 610 Z M202 90 Q242 90 260 152.5 Q278 215 278 350 Q278 483 259.5 547 Q241 611 202 611 Q166 611 149.5 548 Q133 485 133 350 Q133 215 149.5 152.5 Q166 90 202 90 Z " />
<glyph glyph-name="P" unicode="P" horiz-adv-x="600" d="M80 700 L308 700 Q411 700 474.5 644.5 Q538 589 538 483 Q538 414 508 365 Q478 316 426.5 291 Q375 266 311 266 L180 266 L180 0 L80 0 L80 700 Z M300 356 Q366 356 402 388.5 Q438 421 438 484 Q438 545 402 577.5 Q366 610 300 610 L180 610 L180 356 L300 356 Z " />
<glyph glyph-name="Thorn" unicode="&#xde;" horiz-adv-x="600" d="M87 700 L187 700 L187 570 L316 570 Q419 570 482.5 514.5 Q546 459 546 354 Q546 284 516 235 Q486 186 434.5 161 Q383 136 319 136 L187 136 L187 0 L87 0 L87 700 Z M308 226 Q374 226 410 259 Q446 292 446 354 Q446 416 410 448 Q374 480 308 480 L187 480 L187 226 L308 226 Z " />
<glyph glyph-name="Q" unicode="Q" horiz-adv-x="600" d="M483 -28 L429 26 Q377 -13 300 -13 Q180 -13 116 83 Q52 179 52 351 Q52 527 115.5 621 Q179 715 300 715 Q421 715 484.5 621 Q548 527 548 351 Q548 188 491 95 L550 36 L483 -28 Z M300 79 Q334 79 362 93 L301 154 L368 219 L422 165 Q450 231 450 351 Q450 482 412 552.5 Q374 623 300 623 Q150 623 150 351 Q150 79 300 79 Z " />
<glyph glyph-name="R" unicode="R" horiz-adv-x="600" d="M282 285 L168 285 L168 0 L68 0 L68 700 L301 700 Q371 700 421 673.5 Q471 647 496.5 600.5 Q522 554 522 496 Q522 416 482 365.5 Q442 315 383 298 L548 0 L439 0 L282 285 Z M299 373 Q356 373 389 404 Q422 435 422 492 Q422 551 387.5 580.5 Q353 610 296 610 L168 610 L168 373 L299 373 Z " />
<glyph glyph-name="Racute" unicode="&#x154;" horiz-adv-x="600" d="M282 285 L168 285 L168 0 L68 0 L68 700 L301 700 Q371 700 421 673.5 Q471 647 496.5 600.5 Q522 554 522 496 Q522 416 482 365.5 Q442 315 383 298 L548 0 L439 0 L282 285 Z M299 373 Q356 373 389 404 Q422 435 422 492 Q422 551 387.5 580.5 Q353 610 296 610 L168 610 L168 373 L299 373 Z M308 897 L435 897 L328 771 L241 771 L308 897 Z " />
<glyph glyph-name="Rcaron" unicode="&#x158;" horiz-adv-x="600" d="M282 285 L168 285 L168 0 L68 0 L68 700 L301 700 Q371 700 421 673.5 Q471 647 496.5 600.5 Q522 554 522 496 Q522 416 482 365.5 Q442 315 383 298 L548 0 L439 0 L282 285 Z M299 373 Q356 373 389 404 Q422 435 422 492 Q422 551 387.5 580.5 Q353 610 296 610 L168 610 L168 373 L299 373 Z M427 900 L337 774 L234 774 L144 900 L230 900 L286 837 L342 900 L427 900 Z " />
<glyph glyph-name="Rcommaaccent" unicode="&#x156;" horiz-adv-x="600" d="M282 285 L168 285 L168 0 L68 0 L68 700 L301 700 Q371 700 421 673.5 Q471 647 496.5 600.5 Q522 554 522 496 Q522 416 482 365.5 Q442 315 383 298 L548 0 L439 0 L282 285 Z M299 373 Q356 373 389 404 Q422 435 422 492 Q422 551 387.5 580.5 Q353 610 296 610 L168 610 L168 373 L299 373 Z M301 -46 Q327 -46 344.5 -63.5 Q362 -81 362 -112 Q362 -139 345 -170.5 Q328 -202 301 -226 L265 -200 Q284 -175 290 -155 Q268 -151 256 -137.5 Q244 -124 244 -104 Q244 -79 260.5 -62.5 Q277 -46 301 -46 Z " />
<glyph glyph-name="S" unicode="S" horiz-adv-x="600" d="M306 -13 Q206 -13 141 36 Q76 85 50 180 L143 207 Q162 142 200.5 109.5 Q239 77 306 77 Q370 77 410 107 Q450 137 450 193 Q450 234 420.5 263 Q391 292 306 309 Q190 331 130.5 379 Q71 427 71 513 Q71 573 101.5 619 Q132 665 185 690 Q238 715 304 715 Q395 715 453.5 666.5 Q512 618 535 530 L443 504 Q428 564 395.5 594.5 Q363 625 304 625 Q244 625 207 595.5 Q170 566 170 513 Q170 467 206 444 Q242 421 324 404 Q441 379 495 330 Q549 281 549 193 Q549 132 517 85 Q485 38 429.5 12.5 Q374 -13 306 -13 Z " />
<glyph glyph-name="Sacute" unicode="&#x15a;" horiz-adv-x="600" d="M306 -13 Q206 -13 141 36 Q76 85 50 180 L143 207 Q162 142 200.5 109.5 Q239 77 306 77 Q370 77 410 107 Q450 137 450 193 Q450 234 420.5 263 Q391 292 306 309 Q190 331 130.5 379 Q71 427 71 513 Q71 573 101.5 619 Q132 665 185 690 Q238 715 304 715 Q395 715 453.5 666.5 Q512 618 535 530 L443 504 Q428 564 395.5 594.5 Q363 625 304 625 Q244 625 207 595.5 Q170 566 170 513 Q170 467 206 444 Q242 421 324 404 Q441 379 495 330 Q549 281 549 193 Q549 132 517 85 Q485 38 429.5 12.5 Q374 -13 306 -13 Z M324 897 L451 897 L344 771 L257 771 L324 897 Z " />
<glyph glyph-name="Scaron" unicode="&#x160;" horiz-adv-x="600" d="M306 -13 Q206 -13 141 36 Q76 85 50 180 L143 207 Q162 142 200.5 109.5 Q239 77 306 77 Q370 77 410 107 Q450 137 450 193 Q450 234 420.5 263 Q391 292 306 309 Q190 331 130.5 379 Q71 427 71 513 Q71 573 101.5 619 Q132 665 185 690 Q238 715 304 715 Q395 715 453.5 666.5 Q512 618 535 530 L443 504 Q428 564 395.5 594.5 Q363 625 304 625 Q244 625 207 595.5 Q170 566 170 513 Q170 467 206 444 Q242 421 324 404 Q441 379 495 330 Q549 281 549 193 Q549 132 517 85 Q485 38 429.5 12.5 Q374 -13 306 -13 Z M443 900 L353 774 L250 774 L160 900 L246 900 L302 837 L358 900 L443 900 Z " />
<glyph glyph-name="Scedilla" unicode="&#x15e;" horiz-adv-x="600" d="M549 193 Q549 134 520 89 Q491 44 440.5 18 Q390 -8 327 -12 L311 -42 Q350 -44 373 -65.5 Q396 -87 396 -126 Q396 -167 370 -192 Q344 -217 301 -217 Q264 -217 238 -196.5 Q212 -176 209 -146 L264 -127 Q265 -143 274.5 -152.5 Q284 -162 301 -162 Q316 -162 326 -152.5 Q336 -143 336 -127 Q336 -113 326 -103.5 Q316 -94 301 -94 Q285 -94 278 -101 L233 -69 L265 -11 Q183 -1 128 47.5 Q73 96 50 180 L143 207 Q162 142 200.5 109.5 Q239 77 306 77 Q370 77 410 107 Q450 137 450 193 Q450 234 420.5 263 Q391 292 306 309 Q190 331 130.5 379 Q71 427 71 513 Q71 573 101.5 619 Q132 665 185 690 Q238 715 304 715 Q395 715 453.5 666.5 Q512 618 535 530 L443 504 Q428 564 395.5 594.5 Q363 625 304 625 Q244 625 207 595.5 Q170 566 170 513 Q170 467 206 444 Q242 421 324 404 Q441 379 495 330 Q549 281 549 193 Z " />
<glyph glyph-name="Scircumflex" unicode="&#x15c;" horiz-adv-x="600" d="M306 -13 Q206 -13 141 36 Q76 85 50 180 L143 207 Q162 142 200.5 109.5 Q239 77 306 77 Q370 77 410 107 Q450 137 450 193 Q450 234 420.5 263 Q391 292 306 309 Q190 331 130.5 379 Q71 427 71 513 Q71 573 101.5 619 Q132 665 185 690 Q238 715 304 715 Q395 715 453.5 666.5 Q512 618 535 530 L443 504 Q428 564 395.5 594.5 Q363 625 304 625 Q244 625 207 595.5 Q170 566 170 513 Q170 467 206 444 Q242 421 324 404 Q441 379 495 330 Q549 281 549 193 Q549 132 517 85 Q485 38 429.5 12.5 Q374 -13 306 -13 Z M357 771 L301 834 L245 771 L159 771 L249 897 L352 897 L442 771 L357 771 Z " />
<glyph glyph-name="Scommaaccent" unicode="&#x218;" horiz-adv-x="600" d="M306 -13 Q206 -13 141 36 Q76 85 50 180 L143 207 Q162 142 200.5 109.5 Q239 77 306 77 Q370 77 410 107 Q450 137 450 193 Q450 234 420.5 263 Q391 292 306 309 Q190 331 130.5 379 Q71 427 71 513 Q71 573 101.5 619 Q132 665 185 690 Q238 715 304 715 Q395 715 453.5 666.5 Q512 618 535 530 L443 504 Q428 564 395.5 594.5 Q363 625 304 625 Q244 625 207 595.5 Q170 566 170 513 Q170 467 206 444 Q242 421 324 404 Q441 379 495 330 Q549 281 549 193 Q549 132 517 85 Q485 38 429.5 12.5 Q374 -13 306 -13 Z M302 -46 Q328 -46 345.5 -63.5 Q363 -81 363 -112 Q363 -139 346 -170.5 Q329 -202 302 -226 L266 -200 Q285 -175 291 -155 Q269 -151 257 -137.5 Q245 -124 245 -104 Q245 -79 261.5 -62.5 Q278 -46 302 -46 Z " />
<glyph glyph-name="T" unicode="T" horiz-adv-x="600" d="M250 608 L51 608 L51 700 L549 700 L549 608 L350 608 L350 0 L250 0 L250 608 Z " />
<glyph glyph-name="Tbar" unicode="&#x166;" horiz-adv-x="600" d="M350 608 L350 385 L465 385 L465 295 L350 295 L350 0 L250 0 L250 295 L136 295 L136 385 L250 385 L250 608 L51 608 L51 700 L549 700 L549 608 L350 608 Z " />
<glyph glyph-name="Tcaron" unicode="&#x164;" horiz-adv-x="600" d="M250 608 L51 608 L51 700 L549 700 L549 608 L350 608 L350 0 L250 0 L250 608 Z M443 900 L353 774 L250 774 L160 900 L246 900 L302 837 L358 900 L443 900 Z " />
<glyph glyph-name="uni0162" unicode="&#x162;" horiz-adv-x="600" d="M333 0 L311 -42 Q350 -44 373 -65.5 Q396 -87 396 -126 Q396 -167 370 -192 Q344 -217 301 -217 Q264 -217 238 -196.5 Q212 -176 209 -146 L264 -127 Q265 -143 274.5 -152.5 Q284 -162 301 -162 Q316 -162 326 -152.5 Q336 -143 336 -127 Q336 -113 326 -103.5 Q316 -94 301 -94 Q285 -94 278 -101 L233 -69 L271 0 L250 0 L250 608 L51 608 L51 700 L549 700 L549 608 L350 608 L350 0 L333 0 Z " />
<glyph glyph-name="uni021A" unicode="&#x21a;" horiz-adv-x="600" d="M250 608 L51 608 L51 700 L549 700 L549 608 L350 608 L350 0 L250 0 L250 608 Z M302 -46 Q328 -46 345.5 -63.5 Q363 -81 363 -112 Q363 -139 346 -170.5 Q329 -202 302 -226 L266 -200 Q285 -175 291 -155 Q269 -151 257 -137.5 Q245 -124 245 -104 Q245 -79 261.5 -62.5 Q278 -46 302 -46 Z " />
<glyph glyph-name="U" unicode="U" horiz-adv-x="600" d="M66 700 L166 700 L166 243 Q166 78 300 78 Q435 78 435 243 L435 700 L535 700 L535 237 Q535 109 470.5 47.5 Q406 -14 300 -14 Q195 -14 130.5 48.5 Q66 111 66 238 L66 700 Z " />
<glyph glyph-name="Uacute" unicode="&#xda;" horiz-adv-x="600" d="M66 700 L166 700 L166 243 Q166 78 300 78 Q435 78 435 243 L435 700 L535 700 L535 237 Q535 109 470.5 47.5 Q406 -14 300 -14 Q195 -14 130.5 48.5 Q66 111 66 238 L66 700 Z M325 897 L452 897 L345 771 L258 771 L325 897 Z " />
<glyph glyph-name="Ubreve" unicode="&#x16c;" horiz-adv-x="600" d="M66 700 L166 700 L166 243 Q166 78 300 78 Q435 78 435 243 L435 700 L535 700 L535 237 Q535 109 470.5 47.5 Q406 -14 300 -14 Q195 -14 130.5 48.5 Q66 111 66 238 L66 700 Z M434 892 Q432 837 395 801.5 Q358 766 302 766 Q246 766 209 801.5 Q172 837 170 892 L242 892 Q244 866 260 850.5 Q276 835 302 835 Q329 835 345 850.5 Q361 866 363 892 L434 892 Z " />
<glyph glyph-name="Ucircumflex" unicode="&#xdb;" horiz-adv-x="600" d="M66 700 L166 700 L166 243 Q166 78 300 78 Q435 78 435 243 L435 700 L535 700 L535 237 Q535 109 470.5 47.5 Q406 -14 300 -14 Q195 -14 130.5 48.5 Q66 111 66 238 L66 700 Z M358 771 L302 834 L246 771 L160 771 L250 897 L353 897 L443 771 L358 771 Z " />
<glyph glyph-name="Udieresis" unicode="&#xdc;" horiz-adv-x="600" d="M66 700 L166 700 L166 243 Q166 78 300 78 Q435 78 435 243 L435 700 L535 700 L535 237 Q535 109 470.5 47.5 Q406 -14 300 -14 Q195 -14 130.5 48.5 Q66 111 66 238 L66 700 Z M215 770 Q189 770 170 789 Q151 808 151 834 Q151 860 170 879 Q189 898 215 898 Q242 898 260.5 879 Q279 860 279 834 Q279 808 260.5 789 Q242 770 215 770 Z M390 770 Q363 770 344 789 Q325 808 325 834 Q325 860 344 879 Q363 898 390 898 Q416 898 434.5 879 Q453 860 453 834 Q453 808 434.5 789 Q416 770 390 770 Z " />
<glyph glyph-name="Ugrave" unicode="&#xd9;" horiz-adv-x="600" d="M66 700 L166 700 L166 243 Q166 78 300 78 Q435 78 435 243 L435 700 L535 700 L535 237 Q535 109 470.5 47.5 Q406 -14 300 -14 Q195 -14 130.5 48.5 Q66 111 66 238 L66 700 Z M258 771 L151 897 L278 897 L345 771 L258 771 Z " />
<glyph glyph-name="Uhungarumlaut" unicode="&#x170;" horiz-adv-x="600" d="M66 700 L166 700 L166 243 Q166 78 300 78 Q435 78 435 243 L435 700 L535 700 L535 237 Q535 109 470.5 47.5 Q406 -14 300 -14 Q195 -14 130.5 48.5 Q66 111 66 238 L66 700 Z M187 771 L245 897 L358 897 L261 771 L187 771 Z M333 771 L391 897 L504 897 L407 771 L333 771 Z " />
<glyph glyph-name="Umacron" unicode="&#x16a;" horiz-adv-x="600" d="M66 700 L166 700 L166 243 Q166 78 300 78 Q435 78 435 243 L435 700 L535 700 L535 237 Q535 109 470.5 47.5 Q406 -14 300 -14 Q195 -14 130.5 48.5 Q66 111 66 238 L66 700 Z M196 872 L408 872 L408 796 L196 796 L196 872 Z " />
<glyph glyph-name="Uogonek" unicode="&#x172;" horiz-adv-x="600" d="M364 -185 Q312 -185 282 -159.5 Q252 -134 252 -94 Q252 -51 286 -13 Q187 -10 126.5 52.5 Q66 115 66 238 L66 700 L166 700 L166 243 Q166 78 300 78 Q435 78 435 243 L435 700 L535 700 L535 237 Q535 142 501 87.5 Q467 33 407 6 Q331 -27 331 -74 Q331 -92 343.5 -103.5 Q356 -115 379 -115 L386 -115 L385 -183 L364 -185 Z " />
<glyph glyph-name="Uring" unicode="&#x16e;" horiz-adv-x="600" d="M66 700 L166 700 L166 243 Q166 78 300 78 Q435 78 435 243 L435 700 L535 700 L535 237 Q535 109 470.5 47.5 Q406 -14 300 -14 Q195 -14 130.5 48.5 Q66 111 66 238 L66 700 Z M211 850 Q211 887 238 914 Q265 941 302 941 Q340 941 367 914 Q394 887 394 850 Q394 813 366.5 785.5 Q339 758 302 758 Q265 758 238 785 Q211 812 211 850 Z M268 850 Q268 836 278 825.5 Q288 815 302 815 Q317 815 326.5 825 Q336 835 336 850 Q336 864 326.5 874 Q317 884 302 884 Q288 884 278 874 Q268 864 268 850 Z " />
<glyph glyph-name="Utilde" unicode="&#x168;" horiz-adv-x="600" d="M66 700 L166 700 L166 243 Q166 78 300 78 Q435 78 435 243 L435 700 L535 700 L535 237 Q535 109 470.5 47.5 Q406 -14 300 -14 Q195 -14 130.5 48.5 Q66 111 66 238 L66 700 Z M147 814 Q176 888 240 888 Q261 888 276.5 882.5 Q292 877 308 868 Q318 863 329.5 858.5 Q341 854 352 854 Q380 854 397 892 L453 854 Q428 780 357 780 Q338 780 323.5 785 Q309 790 291 800 Q281 805 270 809.5 Q259 814 249 814 Q220 814 203 778 L147 814 Z " />
<glyph glyph-name="V" unicode="V" horiz-adv-x="600" d="M576 700 L352 0 L248 0 L23 700 L126 700 L300 143 L474 700 L576 700 Z " />
<glyph glyph-name="W" unicode="W" horiz-adv-x="600" d="M573 700 L503 0 L384 0 L301 265 L217 0 L98 0 L27 700 L122 700 L174 146 L258 417 L342 417 L427 147 L478 700 L573 700 Z " />
<glyph glyph-name="Wacute" unicode="&#x1e82;" horiz-adv-x="600" d="M573 700 L503 0 L384 0 L301 265 L217 0 L98 0 L27 700 L122 700 L174 146 L258 417 L342 417 L427 147 L478 700 L573 700 Z M326 897 L453 897 L346 771 L259 771 L326 897 Z " />
<glyph glyph-name="Wcircumflex" unicode="&#x174;" horiz-adv-x="600" d="M573 700 L503 0 L384 0 L301 265 L217 0 L98 0 L27 700 L122 700 L174 146 L258 417 L342 417 L427 147 L478 700 L573 700 Z M359 771 L303 834 L247 771 L161 771 L251 897 L354 897 L444 771 L359 771 Z " />
<glyph glyph-name="Wdieresis" unicode="&#x1e84;" horiz-adv-x="600" d="M573 700 L503 0 L384 0 L301 265 L217 0 L98 0 L27 700 L122 700 L174 146 L258 417 L342 417 L427 147 L478 700 L573 700 Z M216 770 Q190 770 171 789 Q152 808 152 834 Q152 860 171 879 Q190 898 216 898 Q243 898 261.5 879 Q280 860 280 834 Q280 808 261.5 789 Q243 770 216 770 Z M391 770 Q364 770 345 789 Q326 808 326 834 Q326 860 345 879 Q364 898 391 898 Q417 898 435.5 879 Q454 860 454 834 Q454 808 435.5 789 Q417 770 391 770 Z " />
<glyph glyph-name="Wgrave" unicode="&#x1e80;" horiz-adv-x="600" d="M573 700 L503 0 L384 0 L301 265 L217 0 L98 0 L27 700 L122 700 L174 146 L258 417 L342 417 L427 147 L478 700 L573 700 Z M259 771 L152 897 L279 897 L346 771 L259 771 Z " />
<glyph glyph-name="X" unicode="X" horiz-adv-x="600" d="M464 0 L300 272 L137 0 L23 0 L238 356 L32 700 L145 700 L300 440 L456 700 L568 700 L363 357 L577 0 L464 0 Z " />
<glyph glyph-name="uni1E8A" unicode="&#x1e8a;" horiz-adv-x="600" d="M464 0 L300 272 L137 0 L23 0 L238 356 L32 700 L145 700 L300 440 L456 700 L568 700 L363 357 L577 0 L464 0 Z M232 836 Q232 864 251.5 883.5 Q271 903 299 903 Q326 903 345.5 883.5 Q365 864 365 836 Q365 808 345.5 788.5 Q326 769 299 769 Q271 769 251.5 788.5 Q232 808 232 836 Z " />
<glyph glyph-name="Y" unicode="Y" horiz-adv-x="600" d="M350 0 L250 0 L250 278 L23 700 L132 700 L300 386 L468 700 L577 700 L350 278 L350 0 Z " />
<glyph glyph-name="Yacute" unicode="&#xdd;" horiz-adv-x="600" d="M350 0 L250 0 L250 278 L23 700 L132 700 L300 386 L468 700 L577 700 L350 278 L350 0 Z M323 897 L450 897 L343 771 L256 771 L323 897 Z " />
<glyph glyph-name="Ycircumflex" unicode="&#x176;" horiz-adv-x="600" d="M350 0 L250 0 L250 278 L23 700 L132 700 L300 386 L468 700 L577 700 L350 278 L350 0 Z M356 771 L300 834 L244 771 L158 771 L248 897 L351 897 L441 771 L356 771 Z " />
<glyph glyph-name="Ydieresis" unicode="&#x178;" horiz-adv-x="600" d="M350 0 L250 0 L250 278 L23 700 L132 700 L300 386 L468 700 L577 700 L350 278 L350 0 Z M213 770 Q187 770 168 789 Q149 808 149 834 Q149 860 168 879 Q187 898 213 898 Q240 898 258.5 879 Q277 860 277 834 Q277 808 258.5 789 Q240 770 213 770 Z M388 770 Q361 770 342 789 Q323 808 323 834 Q323 860 342 879 Q361 898 388 898 Q414 898 432.5 879 Q451 860 451 834 Q451 808 432.5 789 Q414 770 388 770 Z " />
<glyph glyph-name="Ygrave" unicode="&#x1ef2;" horiz-adv-x="600" d="M350 0 L250 0 L250 278 L23 700 L132 700 L300 386 L468 700 L577 700 L350 278 L350 0 Z M256 771 L149 897 L276 897 L343 771 L256 771 Z " />
<glyph glyph-name="Z" unicode="Z" horiz-adv-x="600" d="M56 88 L428 610 L82 610 L82 700 L546 700 L546 612 L174 90 L542 90 L542 0 L56 0 L56 88 Z " />
<glyph glyph-name="Zacute" unicode="&#x179;" horiz-adv-x="600" d="M56 88 L428 610 L82 610 L82 700 L546 700 L546 612 L174 90 L542 90 L542 0 L56 0 L56 88 Z M325 897 L452 897 L345 771 L258 771 L325 897 Z " />
<glyph glyph-name="Zcaron" unicode="&#x17d;" horiz-adv-x="600" d="M56 88 L428 610 L82 610 L82 700 L546 700 L546 612 L174 90 L542 90 L542 0 L56 0 L56 88 Z M444 900 L354 774 L251 774 L161 900 L247 900 L303 837 L359 900 L444 900 Z " />
<glyph glyph-name="Zdotaccent" unicode="&#x17b;" horiz-adv-x="600" d="M56 88 L428 610 L82 610 L82 700 L546 700 L546 612 L174 90 L542 90 L542 0 L56 0 L56 88 Z M235 836 Q235 864 254.5 883.5 Q274 903 302 903 Q329 903 348.5 883.5 Q368 864 368 836 Q368 808 348.5 788.5 Q329 769 302 769 Q274 769 254.5 788.5 Q235 808 235 836 Z " />
<glyph glyph-name="uni01B5" unicode="&#x1b5;" horiz-adv-x="600" d="M546 612 L391 395 L502 395 L502 305 L327 305 L174 90 L542 90 L542 0 L56 0 L56 88 L211 305 L114 305 L114 395 L275 395 L428 610 L82 610 L82 700 L546 700 L546 612 Z " />
<glyph glyph-name="a" unicode="a" horiz-adv-x="600" d="M98 358 Q134 509 303 509 Q396 509 452.5 463 Q509 417 509 328 L509 0 L428 0 L416 49 Q370 -14 264 -14 Q186 -14 138 28.5 Q90 71 90 137 Q90 201 135.5 242 Q181 283 288 298 L411 315 L411 326 Q411 429 301 429 Q198 429 185 337 L98 358 Z M411 242 L296 226 Q240 218 212.5 199 Q185 180 185 143 Q185 108 212.5 88 Q240 68 289 68 Q341 68 376 95.5 Q411 123 411 176 L411 242 Z " />
<glyph glyph-name="aacute" unicode="&#xe1;" horiz-adv-x="600" d="M98 358 Q134 509 303 509 Q396 509 452.5 463 Q509 417 509 328 L509 0 L428 0 L416 49 Q370 -14 264 -14 Q186 -14 138 28.5 Q90 71 90 137 Q90 201 135.5 242 Q181 283 288 298 L411 315 L411 326 Q411 429 301 429 Q198 429 185 337 L98 358 Z M411 242 L296 226 Q240 218 212.5 199 Q185 180 185 143 Q185 108 212.5 88 Q240 68 289 68 Q341 68 376 95.5 Q411 123 411 176 L411 242 Z M330 695 L457 695 L350 569 L263 569 L330 695 Z " />
<glyph glyph-name="abreve" unicode="&#x103;" horiz-adv-x="600" d="M98 358 Q134 509 303 509 Q396 509 452.5 463 Q509 417 509 328 L509 0 L428 0 L416 49 Q370 -14 264 -14 Q186 -14 138 28.5 Q90 71 90 137 Q90 201 135.5 242 Q181 283 288 298 L411 315 L411 326 Q411 429 301 429 Q198 429 185 337 L98 358 Z M411 242 L296 226 Q240 218 212.5 199 Q185 180 185 143 Q185 108 212.5 88 Q240 68 289 68 Q341 68 376 95.5 Q411 123 411 176 L411 242 Z M434 696 Q432 641 395.5 605.5 Q359 570 302 570 Q246 570 209.5 605.5 Q173 641 170 696 L242 696 Q244 670 260 654 Q276 638 302 638 Q328 638 344.5 654 Q361 670 363 696 L434 696 Z " />
<glyph glyph-name="acircumflex" unicode="&#xe2;" horiz-adv-x="600" d="M98 358 Q134 509 303 509 Q396 509 452.5 463 Q509 417 509 328 L509 0 L428 0 L416 49 Q370 -14 264 -14 Q186 -14 138 28.5 Q90 71 90 137 Q90 201 135.5 242 Q181 283 288 298 L411 315 L411 326 Q411 429 301 429 Q198 429 185 337 L98 358 Z M411 242 L296 226 Q240 218 212.5 199 Q185 180 185 143 Q185 108 212.5 88 Q240 68 289 68 Q341 68 376 95.5 Q411 123 411 176 L411 242 Z M359 569 L303 632 L247 569 L161 569 L251 695 L354 695 L444 569 L359 569 Z " />
<glyph glyph-name="adieresis" unicode="&#xe4;" horiz-adv-x="600" d="M98 358 Q134 509 303 509 Q396 509 452.5 463 Q509 417 509 328 L509 0 L428 0 L416 49 Q370 -14 264 -14 Q186 -14 138 28.5 Q90 71 90 137 Q90 201 135.5 242 Q181 283 288 298 L411 315 L411 326 Q411 429 301 429 Q198 429 185 337 L98 358 Z M411 242 L296 226 Q240 218 212.5 199 Q185 180 185 143 Q185 108 212.5 88 Q240 68 289 68 Q341 68 376 95.5 Q411 123 411 176 L411 242 Z M217 568 Q190 568 171 587 Q152 606 152 632 Q152 658 171 677 Q190 696 217 696 Q243 696 262 677 Q281 658 281 632 Q281 606 262 587 Q243 568 217 568 Z M385 568 Q359 568 339.5 587 Q320 606 320 632 Q320 658 339.5 677 Q359 696 385 696 Q411 696 429.5 677 Q448 658 448 632 Q448 606 429.5 587 Q411 568 385 568 Z " />
<glyph glyph-name="agrave" unicode="&#xe0;" horiz-adv-x="600" d="M98 358 Q134 509 303 509 Q396 509 452.5 463 Q509 417 509 328 L509 0 L428 0 L416 49 Q370 -14 264 -14 Q186 -14 138 28.5 Q90 71 90 137 Q90 201 135.5 242 Q181 283 288 298 L411 315 L411 326 Q411 429 301 429 Q198 429 185 337 L98 358 Z M411 242 L296 226 Q240 218 212.5 199 Q185 180 185 143 Q185 108 212.5 88 Q240 68 289 68 Q341 68 376 95.5 Q411 123 411 176 L411 242 Z M258 569 L151 695 L278 695 L345 569 L258 569 Z " />
<glyph glyph-name="amacron" unicode="&#x101;" horiz-adv-x="600" d="M98 358 Q134 509 303 509 Q396 509 452.5 463 Q509 417 509 328 L509 0 L428 0 L416 49 Q370 -14 264 -14 Q186 -14 138 28.5 Q90 71 90 137 Q90 201 135.5 242 Q181 283 288 298 L411 315 L411 326 Q411 429 301 429 Q198 429 185 337 L98 358 Z M411 242 L296 226 Q240 218 212.5 199 Q185 180 185 143 Q185 108 212.5 88 Q240 68 289 68 Q341 68 376 95.5 Q411 123 411 176 L411 242 Z M197 670 L409 670 L409 594 L197 594 L197 670 Z " />
<glyph glyph-name="aogonek" unicode="&#x105;" horiz-adv-x="600" d="M303 509 Q396 509 452.5 463 Q509 417 509 328 L509 0 L504 0 Q443 -33 443 -74 Q443 -92 455.5 -103.5 Q468 -115 491 -115 L498 -115 L497 -183 L476 -185 Q424 -185 394 -159.5 Q364 -134 364 -94 Q364 -32 425 11 L416 49 Q370 -14 264 -14 Q186 -14 138 28.5 Q90 71 90 137 Q90 201 135.5 242 Q181 283 288 298 L411 315 L411 326 Q411 429 301 429 Q198 429 185 337 L98 358 Q134 509 303 509 Z M411 242 L296 226 Q240 218 212.5 199 Q185 180 185 143 Q185 108 212.5 88 Q240 68 289 68 Q341 68 376 95.5 Q411 123 411 176 L411 242 Z " />
<glyph glyph-name="aring" unicode="&#xe5;" horiz-adv-x="600" d="M98 358 Q134 509 303 509 Q396 509 452.5 463 Q509 417 509 328 L509 0 L428 0 L416 49 Q370 -14 264 -14 Q186 -14 138 28.5 Q90 71 90 137 Q90 201 135.5 242 Q181 283 288 298 L411 315 L411 326 Q411 429 301 429 Q198 429 185 337 L98 358 Z M411 242 L296 226 Q240 218 212.5 199 Q185 180 185 143 Q185 108 212.5 88 Q240 68 289 68 Q341 68 376 95.5 Q411 123 411 176 L411 242 Z M211 649 Q211 686 238 713 Q265 740 302 740 Q340 740 367 713 Q394 686 394 649 Q394 612 366.5 584.5 Q339 557 302 557 Q265 557 238 584 Q211 611 211 649 Z M268 649 Q268 635 278 624.5 Q288 614 302 614 Q317 614 326.5 624 Q336 634 336 649 Q336 663 326.5 673 Q317 683 302 683 Q288 683 278 673 Q268 663 268 649 Z " />
<glyph glyph-name="atilde" unicode="&#xe3;" horiz-adv-x="600" d="M98 358 Q134 509 303 509 Q396 509 452.5 463 Q509 417 509 328 L509 0 L428 0 L416 49 Q370 -14 264 -14 Q186 -14 138 28.5 Q90 71 90 137 Q90 201 135.5 242 Q181 283 288 298 L411 315 L411 326 Q411 429 301 429 Q198 429 185 337 L98 358 Z M411 242 L296 226 Q240 218 212.5 199 Q185 180 185 143 Q185 108 212.5 88 Q240 68 289 68 Q341 68 376 95.5 Q411 123 411 176 L411 242 Z M149 613 Q178 687 244 687 Q264 687 278.5 682 Q293 677 310 668 Q325 660 334.5 656.5 Q344 653 355 653 Q382 653 399 691 L456 653 Q443 616 417.5 597.5 Q392 579 360 579 Q341 579 327 583.5 Q313 588 294 598 Q284 603 273 607.5 Q262 612 251 612 Q222 612 206 577 L149 613 Z " />
<glyph glyph-name="ae" unicode="&#xe6;" horiz-adv-x="600" d="M559 219 L338 219 Q338 68 404 68 Q433 68 446.5 91.5 Q460 115 465 155 L549 138 Q541 70 506.5 28 Q472 -14 406 -14 Q330 -14 292 46 Q250 -14 178 -14 Q114 -14 77 25.5 Q40 65 40 131 Q40 257 198 284 L248 292 L248 322 Q248 375 236 401.5 Q224 428 194 428 Q137 428 132 338 L46 357 Q56 430 94 469.5 Q132 509 193 509 Q268 509 302 448 Q343 509 412 509 Q559 509 559 262 L559 219 Z M469 293 Q467 428 404 428 Q370 428 354 391.5 Q338 355 337 293 L469 293 Z M248 220 L206 213 Q169 205 151.5 189 Q134 173 134 140 Q134 68 186 68 Q248 68 248 163 L248 220 Z " />
<glyph glyph-name="aeacute" unicode="&#x1fd;" horiz-adv-x="600" d="M559 219 L338 219 Q338 68 404 68 Q433 68 446.5 91.5 Q460 115 465 155 L549 138 Q541 70 506.5 28 Q472 -14 406 -14 Q330 -14 292 46 Q250 -14 178 -14 Q114 -14 77 25.5 Q40 65 40 131 Q40 257 198 284 L248 292 L248 322 Q248 375 236 401.5 Q224 428 194 428 Q137 428 132 338 L46 357 Q56 430 94 469.5 Q132 509 193 509 Q268 509 302 448 Q343 509 412 509 Q559 509 559 262 L559 219 Z M469 293 Q467 428 404 428 Q370 428 354 391.5 Q338 355 337 293 L469 293 Z M248 220 L206 213 Q169 205 151.5 189 Q134 173 134 140 Q134 68 186 68 Q248 68 248 163 L248 220 Z M330 705 L457 705 L350 579 L263 579 L330 705 Z " />
<glyph glyph-name="b" unicode="b" horiz-adv-x="600" d="M152 700 L152 431 Q178 466 219 487.5 Q260 509 315 509 Q387 509 441 473 Q495 437 523.5 377.5 Q552 318 552 248 Q552 180 522 120 Q492 60 438 23.5 Q384 -13 315 -13 Q256 -13 214.5 9.5 Q173 32 148 67 L135 0 L54 0 L54 700 L152 700 Z M151 248 Q151 198 170 159 Q189 120 223.5 97.5 Q258 75 302 75 Q346 75 380.5 97.5 Q415 120 434.5 159.5 Q454 199 454 248 Q454 298 434.5 337.5 Q415 377 380.5 399 Q346 421 302 421 Q235 421 193 372.5 Q151 324 151 248 Z " />
<glyph glyph-name="c" unicode="c" horiz-adv-x="600" d="M534 139 Q508 70 451.5 28 Q395 -14 316 -14 Q240 -14 182.5 21.5 Q125 57 94 117 Q63 177 63 247 Q63 318 94.5 378 Q126 438 183.5 473.5 Q241 509 316 509 Q398 509 455 466.5 Q512 424 535 355 L446 325 Q431 369 397 394 Q363 419 316 419 Q271 419 236 397 Q201 375 181 335.5 Q161 296 161 247 Q161 198 181 159 Q201 120 236 98 Q271 76 316 76 Q362 76 396 101 Q430 126 445 169 L534 139 Z " />
<glyph glyph-name="cacute" unicode="&#x107;" horiz-adv-x="600" d="M534 139 Q508 70 451.5 28 Q395 -14 316 -14 Q240 -14 182.5 21.5 Q125 57 94 117 Q63 177 63 247 Q63 318 94.5 378 Q126 438 183.5 473.5 Q241 509 316 509 Q398 509 455 466.5 Q512 424 535 355 L446 325 Q431 369 397 394 Q363 419 316 419 Q271 419 236 397 Q201 375 181 335.5 Q161 296 161 247 Q161 198 181 159 Q201 120 236 98 Q271 76 316 76 Q362 76 396 101 Q430 126 445 169 L534 139 Z M338 695 L465 695 L358 569 L271 569 L338 695 Z " />
<glyph glyph-name="ccaron" unicode="&#x10d;" horiz-adv-x="600" d="M534 139 Q508 70 451.5 28 Q395 -14 316 -14 Q240 -14 182.5 21.5 Q125 57 94 117 Q63 177 63 247 Q63 318 94.5 378 Q126 438 183.5 473.5 Q241 509 316 509 Q398 509 455 466.5 Q512 424 535 355 L446 325 Q431 369 397 394 Q363 419 316 419 Q271 419 236 397 Q201 375 181 335.5 Q161 296 161 247 Q161 198 181 159 Q201 120 236 98 Q271 76 316 76 Q362 76 396 101 Q430 126 445 169 L534 139 Z M452 695 L362 569 L259 569 L169 695 L255 695 L311 632 L367 695 L452 695 Z " />
<glyph glyph-name="ccedilla" unicode="&#xe7;" horiz-adv-x="600" d="M316 76 Q362 76 396 101 Q430 126 445 169 L534 139 Q510 75 459 34 Q408 -7 337 -13 L321 -42 Q360 -44 383 -65.5 Q406 -87 406 -126 Q406 -167 380 -192 Q354 -217 311 -217 Q274 -217 248 -196.5 Q222 -176 219 -146 L275 -127 Q275 -143 284.5 -152.5 Q294 -162 311 -162 Q326 -162 336 -152.5 Q346 -143 346 -127 Q346 -113 336 -103.5 Q326 -94 311 -94 Q296 -94 288 -101 L243 -69 L275 -11 Q211 -1 162.5 36 Q114 73 88.5 128.5 Q63 184 63 247 Q63 318 94.5 378 Q126 438 183.5 473.5 Q241 509 316 509 Q398 509 455 466.5 Q512 424 535 355 L446 325 Q431 369 397 394 Q363 419 316 419 Q271 419 236 397 Q201 375 181 335.5 Q161 296 161 247 Q161 198 181 159 Q201 120 236 98 Q271 76 316 76 Z " />
<glyph glyph-name="ccircumflex" unicode="&#x109;" horiz-adv-x="600" d="M534 139 Q508 70 451.5 28 Q395 -14 316 -14 Q240 -14 182.5 21.5 Q125 57 94 117 Q63 177 63 247 Q63 318 94.5 378 Q126 438 183.5 473.5 Q241 509 316 509 Q398 509 455 466.5 Q512 424 535 355 L446 325 Q431 369 397 394 Q363 419 316 419 Q271 419 236 397 Q201 375 181 335.5 Q161 296 161 247 Q161 198 181 159 Q201 120 236 98 Q271 76 316 76 Q362 76 396 101 Q430 126 445 169 L534 139 Z M367 569 L311 632 L255 569 L169 569 L259 695 L362 695 L452 569 L367 569 Z " />
<glyph glyph-name="cdotaccent" unicode="&#x10b;" horiz-adv-x="600" d="M534 139 Q508 70 451.5 28 Q395 -14 316 -14 Q240 -14 182.5 21.5 Q125 57 94 117 Q63 177 63 247 Q63 318 94.5 378 Q126 438 183.5 473.5 Q241 509 316 509 Q398 509 455 466.5 Q512 424 535 355 L446 325 Q431 369 397 394 Q363 419 316 419 Q271 419 236 397 Q201 375 181 335.5 Q161 296 161 247 Q161 198 181 159 Q201 120 236 98 Q271 76 316 76 Q362 76 396 101 Q430 126 445 169 L534 139 Z M244 632 Q244 660 263.5 679.5 Q283 699 311 699 Q338 699 357.5 679.5 Q377 660 377 632 Q377 604 357.5 584.5 Q338 565 311 565 Q283 565 263.5 584.5 Q244 604 244 632 Z " />
<glyph glyph-name="d" unicode="d" horiz-adv-x="600" d="M544 0 L463 0 L450 67 Q425 33 383 10 Q341 -13 283 -13 Q214 -13 159.5 23.5 Q105 60 75 120 Q45 180 45 248 Q45 318 73.5 377.5 Q102 437 156 473 Q210 509 282 509 Q337 509 379 487 Q421 465 446 431 L446 700 L544 700 L544 0 Z M447 248 Q447 324 404.5 372.5 Q362 421 295 421 Q252 421 217 399 Q182 377 162.5 337.5 Q143 298 143 248 Q143 199 162.5 159.5 Q182 120 217 97.5 Q252 75 295 75 Q362 75 404.5 124 Q447 173 447 248 Z " />
<glyph glyph-name="eth" unicode="&#xf0;" horiz-adv-x="600" d="M426 625 Q555 475 555 282 Q555 193 524 126 Q493 59 435 22.5 Q377 -14 298 -14 Q220 -14 162 22 Q104 58 73.5 117 Q43 176 43 244 Q43 310 75 368.5 Q107 427 165.5 463 Q224 499 298 499 Q379 499 436 451 Q407 527 345 594 L218 546 L194 607 L292 644 Q261 669 205 706 L259 764 Q327 722 377 676 L488 718 L511 657 L426 625 Z M298 74 Q344 74 380 96.5 Q416 119 436 158.5 Q456 198 456 248 Q456 294 436 332 Q416 370 380 391.5 Q344 413 298 413 Q253 413 217 391 Q181 369 161 330.5 Q141 292 141 244 Q141 196 161 157 Q181 118 217 96 Q253 74 298 74 Z " />
<glyph glyph-name="dcaron" unicode="&#x10f;" horiz-adv-x="600" d="M513 0 L432 0 L419 67 Q395 30 356 8.5 Q317 -13 264 -13 Q197 -13 147.5 23 Q98 59 71.5 119 Q45 179 45 248 Q45 319 71 378.5 Q97 438 146.5 473.5 Q196 509 264 509 Q359 509 415 431 L415 700 L513 700 L513 0 Z M560 700 L656 700 L611 574 L547 574 L560 700 Z M416 249 Q416 322 378 371.5 Q340 421 279 421 Q216 421 179.5 372.5 Q143 324 143 245 Q143 172 179 123.5 Q215 75 278 75 Q317 75 348.5 97 Q380 119 398 158.5 Q416 198 416 249 Z " />
<glyph glyph-name="dslash" unicode="&#x111;" horiz-adv-x="600" d="M597 557 L544 557 L544 0 L463 0 L450 67 Q425 33 383 10 Q341 -13 283 -13 Q214 -13 159.5 23.5 Q105 60 75 120 Q45 180 45 248 Q45 318 73.5 377.5 Q102 437 156 473 Q210 509 282 509 Q337 509 379 487 Q421 465 446 431 L446 557 L299 557 L299 631 L446 631 L446 700 L544 700 L544 631 L597 631 L597 557 Z M295 75 Q362 75 404.5 124 Q447 173 447 248 Q447 324 404.5 372.5 Q362 421 295 421 Q252 421 217 399 Q182 377 162.5 337.5 Q143 298 143 248 Q143 199 162.5 159.5 Q182 120 217 97.5 Q252 75 295 75 Z " />
<glyph glyph-name="e" unicode="e" horiz-adv-x="600" d="M527 128 Q505 66 449 26 Q393 -14 308 -14 Q236 -14 179 20 Q122 54 90.5 114 Q59 174 59 247 Q59 319 91.5 379 Q124 439 181 474 Q238 509 307 509 Q377 509 429.5 477.5 Q482 446 511 389 Q540 332 540 257 L540 219 L154 219 Q158 155 200.5 111.5 Q243 68 308 68 Q360 68 395.5 93 Q431 118 443 153 L527 128 Z M452 293 Q449 328 431.5 359 Q414 390 382 409 Q350 428 308 428 Q244 428 204 389.5 Q164 351 155 293 L452 293 Z " />
<glyph glyph-name="eacute" unicode="&#xe9;" horiz-adv-x="600" d="M527 128 Q505 66 449 26 Q393 -14 308 -14 Q236 -14 179 20 Q122 54 90.5 114 Q59 174 59 247 Q59 319 91.5 379 Q124 439 181 474 Q238 509 307 509 Q377 509 429.5 477.5 Q482 446 511 389 Q540 332 540 257 L540 219 L154 219 Q158 155 200.5 111.5 Q243 68 308 68 Q360 68 395.5 93 Q431 118 443 153 L527 128 Z M452 293 Q449 328 431.5 359 Q414 390 382 409 Q350 428 308 428 Q244 428 204 389.5 Q164 351 155 293 L452 293 Z M335 695 L462 695 L355 569 L268 569 L335 695 Z " />
<glyph glyph-name="ebreve" unicode="&#x115;" horiz-adv-x="600" d="M527 128 Q505 66 449 26 Q393 -14 308 -14 Q236 -14 179 20 Q122 54 90.5 114 Q59 174 59 247 Q59 319 91.5 379 Q124 439 181 474 Q238 509 307 509 Q377 509 429.5 477.5 Q482 446 511 389 Q540 332 540 257 L540 219 L154 219 Q158 155 200.5 111.5 Q243 68 308 68 Q360 68 395.5 93 Q431 118 443 153 L527 128 Z M452 293 Q449 328 431.5 359 Q414 390 382 409 Q350 428 308 428 Q244 428 204 389.5 Q164 351 155 293 L452 293 Z M439 696 Q437 641 400.5 605.5 Q364 570 307 570 Q251 570 214.5 605.5 Q178 641 175 696 L247 696 Q249 670 265 654 Q281 638 307 638 Q333 638 349.5 654 Q366 670 368 696 L439 696 Z " />
<glyph glyph-name="ecaron" unicode="&#x11b;" horiz-adv-x="600" d="M527 128 Q505 66 449 26 Q393 -14 308 -14 Q236 -14 179 20 Q122 54 90.5 114 Q59 174 59 247 Q59 319 91.5 379 Q124 439 181 474 Q238 509 307 509 Q377 509 429.5 477.5 Q482 446 511 389 Q540 332 540 257 L540 219 L154 219 Q158 155 200.5 111.5 Q243 68 308 68 Q360 68 395.5 93 Q431 118 443 153 L527 128 Z M452 293 Q449 328 431.5 359 Q414 390 382 409 Q350 428 308 428 Q244 428 204 389.5 Q164 351 155 293 L452 293 Z M449 695 L359 569 L256 569 L166 695 L252 695 L308 632 L364 695 L449 695 Z " />
<glyph glyph-name="ecircumflex" unicode="&#xea;" horiz-adv-x="600" d="M527 128 Q505 66 449 26 Q393 -14 308 -14 Q236 -14 179 20 Q122 54 90.5 114 Q59 174 59 247 Q59 319 91.5 379 Q124 439 181 474 Q238 509 307 509 Q377 509 429.5 477.5 Q482 446 511 389 Q540 332 540 257 L540 219 L154 219 Q158 155 200.5 111.5 Q243 68 308 68 Q360 68 395.5 93 Q431 118 443 153 L527 128 Z M452 293 Q449 328 431.5 359 Q414 390 382 409 Q350 428 308 428 Q244 428 204 389.5 Q164 351 155 293 L452 293 Z M364 569 L308 632 L252 569 L166 569 L256 695 L359 695 L449 569 L364 569 Z " />
<glyph glyph-name="edieresis" unicode="&#xeb;" horiz-adv-x="600" d="M527 128 Q505 66 449 26 Q393 -14 308 -14 Q236 -14 179 20 Q122 54 90.5 114 Q59 174 59 247 Q59 319 91.5 379 Q124 439 181 474 Q238 509 307 509 Q377 509 429.5 477.5 Q482 446 511 389 Q540 332 540 257 L540 219 L154 219 Q158 155 200.5 111.5 Q243 68 308 68 Q360 68 395.5 93 Q431 118 443 153 L527 128 Z M452 293 Q449 328 431.5 359 Q414 390 382 409 Q350 428 308 428 Q244 428 204 389.5 Q164 351 155 293 L452 293 Z M222 568 Q195 568 176 587 Q157 606 157 632 Q157 658 176 677 Q195 696 222 696 Q248 696 267 677 Q286 658 286 632 Q286 606 267 587 Q248 568 222 568 Z M390 568 Q364 568 344.5 587 Q325 606 325 632 Q325 658 344.5 677 Q364 696 390 696 Q416 696 434.5 677 Q453 658 453 632 Q453 606 434.5 587 Q416 568 390 568 Z " />
<glyph glyph-name="edotaccent" unicode="&#x117;" horiz-adv-x="600" d="M527 128 Q505 66 449 26 Q393 -14 308 -14 Q236 -14 179 20 Q122 54 90.5 114 Q59 174 59 247 Q59 319 91.5 379 Q124 439 181 474 Q238 509 307 509 Q377 509 429.5 477.5 Q482 446 511 389 Q540 332 540 257 L540 219 L154 219 Q158 155 200.5 111.5 Q243 68 308 68 Q360 68 395.5 93 Q431 118 443 153 L527 128 Z M452 293 Q449 328 431.5 359 Q414 390 382 409 Q350 428 308 428 Q244 428 204 389.5 Q164 351 155 293 L452 293 Z M241 632 Q241 660 260.5 679.5 Q280 699 308 699 Q335 699 354.5 679.5 Q374 660 374 632 Q374 604 354.5 584.5 Q335 565 308 565 Q280 565 260.5 584.5 Q241 604 241 632 Z " />
<glyph glyph-name="egrave" unicode="&#xe8;" horiz-adv-x="600" d="M527 128 Q505 66 449 26 Q393 -14 308 -14 Q236 -14 179 20 Q122 54 90.5 114 Q59 174 59 247 Q59 319 91.5 379 Q124 439 181 474 Q238 509 307 509 Q377 509 429.5 477.5 Q482 446 511 389 Q540 332 540 257 L540 219 L154 219 Q158 155 200.5 111.5 Q243 68 308 68 Q360 68 395.5 93 Q431 118 443 153 L527 128 Z M452 293 Q449 328 431.5 359 Q414 390 382 409 Q350 428 308 428 Q244 428 204 389.5 Q164 351 155 293 L452 293 Z M263 569 L156 695 L283 695 L350 569 L263 569 Z " />
<glyph glyph-name="emacron" unicode="&#x113;" horiz-adv-x="600" d="M527 128 Q505 66 449 26 Q393 -14 308 -14 Q236 -14 179 20 Q122 54 90.5 114 Q59 174 59 247 Q59 319 91.5 379 Q124 439 181 474 Q238 509 307 509 Q377 509 429.5 477.5 Q482 446 511 389 Q540 332 540 257 L540 219 L154 219 Q158 155 200.5 111.5 Q243 68 308 68 Q360 68 395.5 93 Q431 118 443 153 L527 128 Z M452 293 Q449 328 431.5 359 Q414 390 382 409 Q350 428 308 428 Q244 428 204 389.5 Q164 351 155 293 L452 293 Z M202 670 L414 670 L414 594 L202 594 L202 670 Z " />
<glyph glyph-name="eogonek" unicode="&#x119;" horiz-adv-x="600" d="M59 247 Q59 319 91.5 379 Q124 439 181 474 Q238 509 307 509 Q377 509 429.5 477.5 Q482 446 511 389 Q540 332 540 257 L540 219 L154 219 Q158 155 200.5 111.5 Q243 68 308 68 Q360 68 395.5 93 Q431 118 443 153 L527 128 Q512 86 481.5 54.5 Q451 23 409 5 Q336 -27 336 -74 Q336 -92 348 -103.5 Q360 -115 384 -115 L391 -115 L390 -183 L368 -185 Q317 -185 287 -159.5 Q257 -134 257 -94 Q257 -49 290 -13 Q222 -9 169.5 26 Q117 61 88 119 Q59 177 59 247 Z M452 293 Q449 328 431.5 359 Q414 390 382 409 Q350 428 308 428 Q244 428 204 389.5 Q164 351 155 293 L452 293 Z " />
<glyph glyph-name="f" unicode="f" horiz-adv-x="600" d="M297 409 L297 88 L420 88 L420 0 L86 0 L86 88 L199 88 L199 409 L79 409 L79 495 L199 495 L199 570 Q199 638 243 678 Q287 718 362 718 Q432 718 466.5 680.5 Q501 643 515 602 L430 570 Q422 594 408 611 Q394 628 363 628 Q297 628 297 562 L297 495 L524 495 L524 409 L297 409 Z " />
<glyph glyph-name="g" unicode="g" horiz-adv-x="600" d="M287 0 Q215 0 161.5 34.5 Q108 69 79.5 127 Q51 185 51 253 Q51 321 80.5 379.5 Q110 438 163.5 473.5 Q217 509 286 509 Q343 509 383.5 486.5 Q424 464 447 430 L464 495 L545 495 L545 9 Q545 -55 518 -106.5 Q491 -158 435 -188 Q379 -218 298 -218 Q205 -218 149.5 -175 Q94 -132 74 -59 L166 -37 Q177 -83 209.5 -108.5 Q242 -134 298 -134 Q371 -134 409 -97 Q447 -60 447 7 L447 81 Q426 46 384.5 23 Q343 0 287 0 Z M300 88 Q365 88 406 133.5 Q447 179 447 253 Q447 328 405.5 374.5 Q364 421 298 421 Q232 421 190.5 374.5 Q149 328 149 253 Q149 179 191 133.5 Q233 88 300 88 Z " />
<glyph glyph-name="gbreve" unicode="&#x11f;" horiz-adv-x="600" d="M287 0 Q215 0 161.5 34.5 Q108 69 79.5 127 Q51 185 51 253 Q51 321 80.5 379.5 Q110 438 163.5 473.5 Q217 509 286 509 Q343 509 383.5 486.5 Q424 464 447 430 L464 495 L545 495 L545 9 Q545 -55 518 -106.5 Q491 -158 435 -188 Q379 -218 298 -218 Q205 -218 149.5 -175 Q94 -132 74 -59 L166 -37 Q177 -83 209.5 -108.5 Q242 -134 298 -134 Q371 -134 409 -97 Q447 -60 447 7 L447 81 Q426 46 384.5 23 Q343 0 287 0 Z M300 88 Q365 88 406 133.5 Q447 179 447 253 Q447 328 405.5 374.5 Q364 421 298 421 Q232 421 190.5 374.5 Q149 328 149 253 Q149 179 191 133.5 Q233 88 300 88 Z M423 696 Q421 641 384.5 605.5 Q348 570 291 570 Q235 570 198.5 605.5 Q162 641 159 696 L231 696 Q233 670 249 654 Q265 638 291 638 Q317 638 333.5 654 Q350 670 352 696 L423 696 Z " />
<glyph glyph-name="gcircumflex" unicode="&#x11d;" horiz-adv-x="600" d="M287 0 Q215 0 161.5 34.5 Q108 69 79.5 127 Q51 185 51 253 Q51 321 80.5 379.5 Q110 438 163.5 473.5 Q217 509 286 509 Q343 509 383.5 486.5 Q424 464 447 430 L464 495 L545 495 L545 9 Q545 -55 518 -106.5 Q491 -158 435 -188 Q379 -218 298 -218 Q205 -218 149.5 -175 Q94 -132 74 -59 L166 -37 Q177 -83 209.5 -108.5 Q242 -134 298 -134 Q371 -134 409 -97 Q447 -60 447 7 L447 81 Q426 46 384.5 23 Q343 0 287 0 Z M300 88 Q365 88 406 133.5 Q447 179 447 253 Q447 328 405.5 374.5 Q364 421 298 421 Q232 421 190.5 374.5 Q149 328 149 253 Q149 179 191 133.5 Q233 88 300 88 Z M348 569 L292 632 L236 569 L150 569 L240 695 L343 695 L433 569 L348 569 Z " />
<glyph glyph-name="gcommaaccent" unicode="&#x123;" horiz-adv-x="600" d="M287 0 Q215 0 161.5 34.5 Q108 69 79.5 127 Q51 185 51 253 Q51 321 80.5 379.5 Q110 438 163.5 473.5 Q217 509 286 509 Q343 509 383.5 486.5 Q424 464 447 430 L464 495 L545 495 L545 9 Q545 -55 518 -106.5 Q491 -158 435 -188 Q379 -218 298 -218 Q205 -218 149.5 -175 Q94 -132 74 -59 L166 -37 Q177 -83 209.5 -108.5 Q242 -134 298 -134 Q371 -134 409 -97 Q447 -60 447 7 L447 81 Q426 46 384.5 23 Q343 0 287 0 Z M300 88 Q365 88 406 133.5 Q447 179 447 253 Q447 328 405.5 374.5 Q364 421 298 421 Q232 421 190.5 374.5 Q149 328 149 253 Q149 179 191 133.5 Q233 88 300 88 Z M293 566 Q267 566 249.5 583.5 Q232 601 232 632 Q232 659 249 690.5 Q266 722 293 746 L329 720 Q310 695 304 675 Q326 671 338 657.5 Q350 644 350 624 Q350 599 333.5 582.5 Q317 566 293 566 Z " />
<glyph glyph-name="gdotaccent" unicode="&#x121;" horiz-adv-x="600" d="M287 0 Q215 0 161.5 34.5 Q108 69 79.5 127 Q51 185 51 253 Q51 321 80.5 379.5 Q110 438 163.5 473.5 Q217 509 286 509 Q343 509 383.5 486.5 Q424 464 447 430 L464 495 L545 495 L545 9 Q545 -55 518 -106.5 Q491 -158 435 -188 Q379 -218 298 -218 Q205 -218 149.5 -175 Q94 -132 74 -59 L166 -37 Q177 -83 209.5 -108.5 Q242 -134 298 -134 Q371 -134 409 -97 Q447 -60 447 7 L447 81 Q426 46 384.5 23 Q343 0 287 0 Z M300 88 Q365 88 406 133.5 Q447 179 447 253 Q447 328 405.5 374.5 Q364 421 298 421 Q232 421 190.5 374.5 Q149 328 149 253 Q149 179 191 133.5 Q233 88 300 88 Z M225 632 Q225 660 244.5 679.5 Q264 699 292 699 Q319 699 338.5 679.5 Q358 660 358 632 Q358 604 338.5 584.5 Q319 565 292 565 Q264 565 244.5 584.5 Q225 604 225 632 Z " />
<glyph glyph-name="h" unicode="h" horiz-adv-x="600" d="M415 294 Q415 362 387 389.5 Q359 417 309 417 Q257 417 220.5 379 Q184 341 184 275 L184 0 L87 0 L87 700 L184 700 L184 435 Q240 509 340 509 Q421 509 467 460 Q513 411 513 311 L513 0 L415 0 L415 294 Z " />
<glyph glyph-name="hbar" unicode="&#x127;" horiz-adv-x="600" d="M342 509 Q423 509 469 460 Q515 411 515 311 L515 0 L417 0 L417 294 Q417 362 389 389.5 Q361 417 311 417 Q259 417 222.5 379 Q186 341 186 275 L186 0 L89 0 L89 557 L38 557 L38 631 L89 631 L89 700 L186 700 L186 631 L336 631 L336 557 L186 557 L186 435 Q242 509 342 509 Z " />
<glyph glyph-name="hcircumflex" unicode="&#x125;" horiz-adv-x="600" d="M141 834 L85 771 L-1 771 L89 897 L192 897 L282 771 L197 771 L141 834 Z M340 509 Q421 509 467 460 Q513 411 513 311 L513 0 L415 0 L415 294 Q415 362 387 389.5 Q359 417 309 417 Q257 417 220.5 379 Q184 341 184 275 L184 0 L87 0 L87 700 L184 700 L184 435 Q240 509 340 509 Z " />
<glyph glyph-name="i" unicode="i" horiz-adv-x="600" d="M521 87 L521 0 L80 0 L80 87 L252 87 L252 407 L123 407 L123 495 L350 495 L350 87 L521 87 Z M230 632 Q230 660 249.5 679.5 Q269 699 297 699 Q324 699 343.5 679.5 Q363 660 363 632 Q363 604 343.5 584.5 Q324 565 297 565 Q269 565 249.5 584.5 Q230 604 230 632 Z " />
<glyph glyph-name="dotlessi" unicode="&#x131;" horiz-adv-x="600" d="M521 87 L521 0 L80 0 L80 87 L252 87 L252 407 L123 407 L123 495 L350 495 L350 87 L521 87 Z " />
<glyph glyph-name="iacute" unicode="&#xed;" horiz-adv-x="600" d="M521 87 L521 0 L80 0 L80 87 L252 87 L252 407 L123 407 L123 495 L350 495 L350 87 L521 87 Z M324 695 L451 695 L344 569 L257 569 L324 695 Z " />
<glyph glyph-name="ibreve" unicode="&#x12d;" horiz-adv-x="600" d="M521 87 L521 0 L80 0 L80 87 L252 87 L252 407 L123 407 L123 495 L350 495 L350 87 L521 87 Z M428 696 Q426 641 389.5 605.5 Q353 570 296 570 Q240 570 203.5 605.5 Q167 641 164 696 L236 696 Q238 670 254 654 Q270 638 296 638 Q322 638 338.5 654 Q355 670 357 696 L428 696 Z " />
<glyph glyph-name="icircumflex" unicode="&#xee;" horiz-adv-x="600" d="M521 87 L521 0 L80 0 L80 87 L252 87 L252 407 L123 407 L123 495 L350 495 L350 87 L521 87 Z M353 569 L297 632 L241 569 L155 569 L245 695 L348 695 L438 569 L353 569 Z " />
<glyph glyph-name="idieresis" unicode="&#xef;" horiz-adv-x="600" d="M521 87 L521 0 L80 0 L80 87 L252 87 L252 407 L123 407 L123 495 L350 495 L350 87 L521 87 Z M211 568 Q184 568 165 587 Q146 606 146 632 Q146 658 165 677 Q184 696 211 696 Q237 696 256 677 Q275 658 275 632 Q275 606 256 587 Q237 568 211 568 Z M379 568 Q353 568 333.5 587 Q314 606 314 632 Q314 658 333.5 677 Q353 696 379 696 Q405 696 423.5 677 Q442 658 442 632 Q442 606 423.5 587 Q405 568 379 568 Z " />
<glyph glyph-name="igrave" unicode="&#xec;" horiz-adv-x="600" d="M521 87 L521 0 L80 0 L80 87 L252 87 L252 407 L123 407 L123 495 L350 495 L350 87 L521 87 Z M252 569 L145 695 L272 695 L339 569 L252 569 Z " />
<glyph glyph-name="ij" unicode="&#x133;" horiz-adv-x="600" d="M205 568 Q178 568 159.5 586.5 Q141 605 141 632 Q141 658 159.5 677 Q178 696 205 696 Q231 696 250 677 Q269 658 269 632 Q269 605 250 586.5 Q231 568 205 568 Z M478 568 Q451 568 432.5 586.5 Q414 605 414 632 Q414 658 432.5 677 Q451 696 478 696 Q504 696 523 677 Q542 658 542 632 Q542 605 523 586.5 Q504 568 478 568 Z M46 0 L46 87 L157 87 L157 407 L46 407 L46 495 L254 495 L254 87 L346 87 L346 0 L46 0 Z M329 495 L537 495 L537 -46 Q537 -127 487.5 -173 Q438 -219 357 -219 Q235 -219 194 -109 L278 -75 Q297 -129 358 -129 Q397 -129 418.5 -108 Q440 -87 440 -45 L440 407 L329 407 L329 495 Z " />
<glyph glyph-name="imacron" unicode="&#x12b;" horiz-adv-x="600" d="M521 87 L521 0 L80 0 L80 87 L252 87 L252 407 L123 407 L123 495 L350 495 L350 87 L521 87 Z M191 670 L403 670 L403 594 L191 594 L191 670 Z " />
<glyph glyph-name="iogonek" unicode="&#x12f;" horiz-adv-x="600" d="M297 565 Q269 565 249.5 584.5 Q230 604 230 632 Q230 660 249.5 679.5 Q269 699 297 699 Q324 699 343.5 679.5 Q363 660 363 632 Q363 604 343.5 584.5 Q324 565 297 565 Z M521 87 L521 0 L351 0 Q290 -33 290 -74 Q290 -92 302.5 -103.5 Q315 -115 338 -115 L345 -115 L344 -183 L323 -185 Q271 -185 241 -159.5 Q211 -134 211 -94 Q211 -42 258 0 L80 0 L80 87 L252 87 L252 407 L123 407 L123 495 L350 495 L350 87 L521 87 Z " />
<glyph glyph-name="itilde" unicode="&#x129;" horiz-adv-x="600" d="M521 87 L521 0 L80 0 L80 87 L252 87 L252 407 L123 407 L123 495 L350 495 L350 87 L521 87 Z M143 613 Q172 687 238 687 Q258 687 272.5 682 Q287 677 304 668 Q319 660 328.5 656.5 Q338 653 349 653 Q376 653 393 691 L450 653 Q437 616 411.5 597.5 Q386 579 354 579 Q335 579 321 583.5 Q307 588 288 598 Q278 603 267 607.5 Q256 612 245 612 Q216 612 200 577 L143 613 Z " />
<glyph glyph-name="j" unicode="j" horiz-adv-x="600" d="M467 495 L467 -50 Q467 -129 417.5 -174 Q368 -219 288 -219 Q166 -219 123 -107 L207 -73 Q225 -129 286 -129 Q326 -129 347.5 -107.5 Q369 -86 369 -45 L369 407 L138 407 L138 495 L467 495 Z M346 632 Q346 660 365.5 679.5 Q385 699 413 699 Q440 699 459.5 679.5 Q479 660 479 632 Q479 604 459.5 584.5 Q440 565 413 565 Q385 565 365.5 584.5 Q346 604 346 632 Z " />
<glyph glyph-name="uni0237" unicode="&#x237;" horiz-adv-x="600" d="M467 495 L467 -50 Q467 -129 417.5 -174 Q368 -219 288 -219 Q166 -219 123 -107 L207 -73 Q225 -129 286 -129 Q326 -129 347.5 -107.5 Q369 -86 369 -45 L369 407 L138 407 L138 495 L467 495 Z " />
<glyph glyph-name="jcircumflex" unicode="&#x135;" horiz-adv-x="600" d="M256 566 L170 566 L260 692 L363 692 L453 566 L368 566 L312 629 L256 566 Z M467 495 L467 -50 Q467 -129 417.5 -174 Q368 -219 288 -219 Q166 -219 123 -107 L207 -73 Q225 -129 286 -129 Q326 -129 347.5 -107.5 Q369 -86 369 -45 L369 407 L138 407 L138 495 L467 495 Z " />
<glyph glyph-name="k" unicode="k" horiz-adv-x="600" d="M249 230 L184 162 L184 0 L86 0 L86 700 L184 700 L184 291 L385 495 L506 495 L315 298 L530 0 L416 0 L249 230 Z " />
<glyph glyph-name="kcommaaccent" unicode="&#x137;" horiz-adv-x="600" d="M249 230 L184 162 L184 0 L86 0 L86 700 L184 700 L184 291 L385 495 L506 495 L315 298 L530 0 L416 0 L249 230 Z M289 -46 Q315 -46 332.5 -63.5 Q350 -81 350 -112 Q350 -139 333 -170.5 Q316 -202 289 -226 L253 -200 Q272 -175 278 -155 Q256 -151 244 -137.5 Q232 -124 232 -104 Q232 -79 248.5 -62.5 Q265 -46 289 -46 Z " />
<glyph glyph-name="kgreenlandic" unicode="&#x138;" horiz-adv-x="600" d="M249 230 L184 162 L184 0 L86 0 L86 495 L184 495 L184 291 L385 495 L506 495 L315 298 L530 0 L416 0 L249 230 Z " />
<glyph glyph-name="l" unicode="l" horiz-adv-x="600" d="M538 98 Q494 -14 373 -14 Q293 -14 243.5 31.5 Q194 77 194 156 L194 613 L62 613 L62 700 L292 700 L292 160 Q292 119 313.5 98 Q335 77 375 77 Q436 77 454 132 L538 98 Z " />
<glyph glyph-name="lacute" unicode="&#x13a;" horiz-adv-x="600" d="M538 98 Q494 -14 373 -14 Q293 -14 243.5 31.5 Q194 77 194 156 L194 613 L62 613 L62 700 L292 700 L292 160 Q292 119 313.5 98 Q335 77 375 77 Q436 77 454 132 L538 98 Z M271 897 L398 897 L291 771 L204 771 L271 897 Z " />
<glyph glyph-name="lcaron" unicode="&#x13e;" horiz-adv-x="600" d="M538 98 Q494 -14 373 -14 Q293 -14 243.5 31.5 Q194 77 194 156 L194 613 L62 613 L62 700 L292 700 L292 160 Q292 119 313.5 98 Q335 77 375 77 Q436 77 454 132 L538 98 Z M390 574 L326 574 L339 700 L435 700 L390 574 Z " />
<glyph glyph-name="lcommaaccent" unicode="&#x13c;" horiz-adv-x="600" d="M538 98 Q494 -14 373 -14 Q293 -14 243.5 31.5 Q194 77 194 156 L194 613 L62 613 L62 700 L292 700 L292 160 Q292 119 313.5 98 Q335 77 375 77 Q436 77 454 132 L538 98 Z M345 -46 Q371 -46 388.5 -63.5 Q406 -81 406 -112 Q406 -139 389 -170.5 Q372 -202 345 -226 L309 -200 Q328 -175 334 -155 Q312 -151 300 -137.5 Q288 -124 288 -104 Q288 -79 304.5 -62.5 Q321 -46 345 -46 Z " />
<glyph glyph-name="ldot" unicode="&#x140;" horiz-adv-x="600" d="M538 98 Q494 -14 373 -14 Q293 -14 243.5 31.5 Q194 77 194 156 L194 613 L62 613 L62 700 L292 700 L292 160 Q292 119 313.5 98 Q335 77 375 77 Q436 77 454 132 L538 98 Z M475 387 Q475 415 495 434.5 Q515 454 543 454 Q571 454 590 434.5 Q609 415 609 387 Q609 359 590 339.5 Q571 320 543 320 Q515 320 495 339.5 Q475 359 475 387 Z " />
<glyph glyph-name="lslash" unicode="&#x142;" horiz-adv-x="600" d="M538 98 Q494 -14 373 -14 Q293 -14 243.5 31.5 Q194 77 194 156 L194 291 L102 249 L71 321 L194 378 L194 613 L62 613 L62 700 L292 700 L292 423 L393 469 L424 397 L292 336 L292 160 Q292 119 313.5 98 Q335 77 375 77 Q436 77 454 132 L538 98 Z " />
<glyph glyph-name="m" unicode="m" horiz-adv-x="600" d="M124 495 L136 453 Q145 474 169 491.5 Q193 509 229 509 Q268 509 290 490.5 Q312 472 321 443 Q333 470 362 489.5 Q391 509 431 509 Q487 509 518.5 473 Q550 437 550 363 L550 0 L457 0 L457 354 Q457 418 408 418 Q380 418 363.5 396 Q347 374 347 326 L347 0 L255 0 L255 354 Q255 418 203 418 Q177 418 160 396 Q143 374 143 326 L143 0 L52 0 L52 495 L124 495 Z " />
<glyph glyph-name="n" unicode="n" horiz-adv-x="600" d="M416 294 Q416 362 388 389.5 Q360 417 310 417 Q257 417 221 379.5 Q185 342 185 276 L185 0 L87 0 L87 495 L168 495 L183 432 Q240 509 340 509 Q422 509 468 460 Q514 411 514 311 L514 0 L416 0 L416 294 Z " />
<glyph glyph-name="nacute" unicode="&#x144;" horiz-adv-x="600" d="M416 294 Q416 362 388 389.5 Q360 417 310 417 Q257 417 221 379.5 Q185 342 185 276 L185 0 L87 0 L87 495 L168 495 L183 432 Q240 509 340 509 Q422 509 468 460 Q514 411 514 311 L514 0 L416 0 L416 294 Z M347 695 L474 695 L367 569 L280 569 L347 695 Z " />
<glyph glyph-name="napostrophe" unicode="&#x149;" horiz-adv-x="600" d="M88 716 Q114 716 131.5 699 Q149 682 149 651 Q149 624 132.5 592.5 Q116 561 88 537 L52 563 Q71 585 77 608 Q56 613 44 626 Q32 639 32 659 Q32 684 48 700 Q64 716 88 716 Z M416 294 Q416 362 388 389.5 Q360 417 310 417 Q257 417 221 379.5 Q185 342 185 276 L185 0 L87 0 L87 495 L168 495 L183 432 Q240 509 340 509 Q422 509 468 460 Q514 411 514 311 L514 0 L416 0 L416 294 Z " />
<glyph glyph-name="ncaron" unicode="&#x148;" horiz-adv-x="600" d="M416 294 Q416 362 388 389.5 Q360 417 310 417 Q257 417 221 379.5 Q185 342 185 276 L185 0 L87 0 L87 495 L168 495 L183 432 Q240 509 340 509 Q422 509 468 460 Q514 411 514 311 L514 0 L416 0 L416 294 Z M461 695 L371 569 L268 569 L178 695 L264 695 L320 632 L376 695 L461 695 Z " />
<glyph glyph-name="ncommaaccent" unicode="&#x146;" horiz-adv-x="600" d="M416 294 Q416 362 388 389.5 Q360 417 310 417 Q257 417 221 379.5 Q185 342 185 276 L185 0 L87 0 L87 495 L168 495 L183 432 Q240 509 340 509 Q422 509 468 460 Q514 411 514 311 L514 0 L416 0 L416 294 Z M303 -46 Q329 -46 346.5 -63.5 Q364 -81 364 -112 Q364 -139 347 -170.5 Q330 -202 303 -226 L267 -200 Q286 -175 292 -155 Q270 -151 258 -137.5 Q246 -124 246 -104 Q246 -79 262.5 -62.5 Q279 -46 303 -46 Z " />
<glyph glyph-name="eng" unicode="&#x14b;" horiz-adv-x="600" d="M340 509 Q422 509 468 460 Q514 411 514 311 L514 -80 Q514 -143 476 -181 Q438 -219 381 -219 Q313 -219 275 -181 L319 -111 Q337 -129 366 -129 Q416 -129 416 -69 L416 294 Q416 362 388 389.5 Q360 417 310 417 Q257 417 221 379.5 Q185 342 185 276 L185 0 L87 0 L87 495 L168 495 L183 432 Q240 509 340 509 Z " />
<glyph glyph-name="ntilde" unicode="&#xf1;" horiz-adv-x="600" d="M416 294 Q416 362 388 389.5 Q360 417 310 417 Q257 417 221 379.5 Q185 342 185 276 L185 0 L87 0 L87 495 L168 495 L183 432 Q240 509 340 509 Q422 509 468 460 Q514 411 514 311 L514 0 L416 0 L416 294 Z M166 613 Q195 687 261 687 Q281 687 295.5 682 Q310 677 327 668 Q342 660 351.5 656.5 Q361 653 372 653 Q399 653 416 691 L473 653 Q460 616 434.5 597.5 Q409 579 377 579 Q358 579 344 583.5 Q330 588 311 598 Q301 603 290 607.5 Q279 612 268 612 Q239 612 223 577 L166 613 Z " />
<glyph glyph-name="o" unicode="o" horiz-adv-x="600" d="M556 247 Q556 178 524 118 Q492 58 433.5 22 Q375 -14 300 -14 Q225 -14 166.5 22 Q108 58 76.5 118 Q45 178 45 247 Q45 317 77 377 Q109 437 167.5 473 Q226 509 300 509 Q375 509 433.5 473 Q492 437 524 377 Q556 317 556 247 Z M143 247 Q143 198 163 159 Q183 120 219 98 Q255 76 300 76 Q345 76 381 98 Q417 120 437.5 159.5 Q458 199 458 247 Q458 296 437.5 335 Q417 374 381 396.5 Q345 419 300 419 Q255 419 219 396.5 Q183 374 163 335 Q143 296 143 247 Z " />
<glyph glyph-name="oacute" unicode="&#xf3;" horiz-adv-x="600" d="M556 247 Q556 178 524 118 Q492 58 433.5 22 Q375 -14 300 -14 Q225 -14 166.5 22 Q108 58 76.5 118 Q45 178 45 247 Q45 317 77 377 Q109 437 167.5 473 Q226 509 300 509 Q375 509 433.5 473 Q492 437 524 377 Q556 317 556 247 Z M143 247 Q143 198 163 159 Q183 120 219 98 Q255 76 300 76 Q345 76 381 98 Q417 120 437.5 159.5 Q458 199 458 247 Q458 296 437.5 335 Q417 374 381 396.5 Q345 419 300 419 Q255 419 219 396.5 Q183 374 163 335 Q143 296 143 247 Z M327 695 L454 695 L347 569 L260 569 L327 695 Z " />
<glyph glyph-name="obreve" unicode="&#x14f;" horiz-adv-x="600" d="M556 247 Q556 178 524 118 Q492 58 433.5 22 Q375 -14 300 -14 Q225 -14 166.5 22 Q108 58 76.5 118 Q45 178 45 247 Q45 317 77 377 Q109 437 167.5 473 Q226 509 300 509 Q375 509 433.5 473 Q492 437 524 377 Q556 317 556 247 Z M143 247 Q143 198 163 159 Q183 120 219 98 Q255 76 300 76 Q345 76 381 98 Q417 120 437.5 159.5 Q458 199 458 247 Q458 296 437.5 335 Q417 374 381 396.5 Q345 419 300 419 Q255 419 219 396.5 Q183 374 163 335 Q143 296 143 247 Z M431 696 Q429 641 392.5 605.5 Q356 570 299 570 Q243 570 206.5 605.5 Q170 641 167 696 L239 696 Q241 670 257 654 Q273 638 299 638 Q325 638 341.5 654 Q358 670 360 696 L431 696 Z " />
<glyph glyph-name="ocircumflex" unicode="&#xf4;" horiz-adv-x="600" d="M556 247 Q556 178 524 118 Q492 58 433.5 22 Q375 -14 300 -14 Q225 -14 166.5 22 Q108 58 76.5 118 Q45 178 45 247 Q45 317 77 377 Q109 437 167.5 473 Q226 509 300 509 Q375 509 433.5 473 Q492 437 524 377 Q556 317 556 247 Z M143 247 Q143 198 163 159 Q183 120 219 98 Q255 76 300 76 Q345 76 381 98 Q417 120 437.5 159.5 Q458 199 458 247 Q458 296 437.5 335 Q417 374 381 396.5 Q345 419 300 419 Q255 419 219 396.5 Q183 374 163 335 Q143 296 143 247 Z M356 569 L300 632 L244 569 L158 569 L248 695 L351 695 L441 569 L356 569 Z " />
<glyph glyph-name="odieresis" unicode="&#xf6;" horiz-adv-x="600" d="M556 247 Q556 178 524 118 Q492 58 433.5 22 Q375 -14 300 -14 Q225 -14 166.5 22 Q108 58 76.5 118 Q45 178 45 247 Q45 317 77 377 Q109 437 167.5 473 Q226 509 300 509 Q375 509 433.5 473 Q492 437 524 377 Q556 317 556 247 Z M143 247 Q143 198 163 159 Q183 120 219 98 Q255 76 300 76 Q345 76 381 98 Q417 120 437.5 159.5 Q458 199 458 247 Q458 296 437.5 335 Q417 374 381 396.5 Q345 419 300 419 Q255 419 219 396.5 Q183 374 163 335 Q143 296 143 247 Z M214 568 Q187 568 168 587 Q149 606 149 632 Q149 658 168 677 Q187 696 214 696 Q240 696 259 677 Q278 658 278 632 Q278 606 259 587 Q240 568 214 568 Z M382 568 Q356 568 336.5 587 Q317 606 317 632 Q317 658 336.5 677 Q356 696 382 696 Q408 696 426.5 677 Q445 658 445 632 Q445 606 426.5 587 Q408 568 382 568 Z " />
<glyph glyph-name="ograve" unicode="&#xf2;" horiz-adv-x="600" d="M556 247 Q556 178 524 118 Q492 58 433.5 22 Q375 -14 300 -14 Q225 -14 166.5 22 Q108 58 76.5 118 Q45 178 45 247 Q45 317 77 377 Q109 437 167.5 473 Q226 509 300 509 Q375 509 433.5 473 Q492 437 524 377 Q556 317 556 247 Z M143 247 Q143 198 163 159 Q183 120 219 98 Q255 76 300 76 Q345 76 381 98 Q417 120 437.5 159.5 Q458 199 458 247 Q458 296 437.5 335 Q417 374 381 396.5 Q345 419 300 419 Q255 419 219 396.5 Q183 374 163 335 Q143 296 143 247 Z M255 569 L148 695 L275 695 L342 569 L255 569 Z " />
<glyph glyph-name="ohungarumlaut" unicode="&#x151;" horiz-adv-x="600" d="M556 247 Q556 178 524 118 Q492 58 433.5 22 Q375 -14 300 -14 Q225 -14 166.5 22 Q108 58 76.5 118 Q45 178 45 247 Q45 317 77 377 Q109 437 167.5 473 Q226 509 300 509 Q375 509 433.5 473 Q492 437 524 377 Q556 317 556 247 Z M143 247 Q143 198 163 159 Q183 120 219 98 Q255 76 300 76 Q345 76 381 98 Q417 120 437.5 159.5 Q458 199 458 247 Q458 296 437.5 335 Q417 374 381 396.5 Q345 419 300 419 Q255 419 219 396.5 Q183 374 163 335 Q143 296 143 247 Z M183 569 L240 695 L354 695 L256 569 L183 569 Z M329 569 L386 695 L500 695 L402 569 L329 569 Z " />
<glyph glyph-name="omacron" unicode="&#x14d;" horiz-adv-x="600" d="M556 247 Q556 178 524 118 Q492 58 433.5 22 Q375 -14 300 -14 Q225 -14 166.5 22 Q108 58 76.5 118 Q45 178 45 247 Q45 317 77 377 Q109 437 167.5 473 Q226 509 300 509 Q375 509 433.5 473 Q492 437 524 377 Q556 317 556 247 Z M143 247 Q143 198 163 159 Q183 120 219 98 Q255 76 300 76 Q345 76 381 98 Q417 120 437.5 159.5 Q458 199 458 247 Q458 296 437.5 335 Q417 374 381 396.5 Q345 419 300 419 Q255 419 219 396.5 Q183 374 163 335 Q143 296 143 247 Z M194 670 L406 670 L406 594 L194 594 L194 670 Z " />
<glyph glyph-name="oslash" unicode="&#xf8;" horiz-adv-x="600" d="M478 438 Q515 401 535.5 351.5 Q556 302 556 247 Q556 178 524 118 Q492 58 433.5 22 Q375 -14 300 -14 Q239 -14 187 11 L148 -46 L84 -2 L123 56 Q86 92 65.5 142 Q45 192 45 247 Q45 317 77 377 Q109 437 167.5 473 Q226 509 300 509 Q365 509 415 483 L452 537 L515 492 L478 438 Z M143 247 Q143 182 178 136 L363 406 Q336 419 300 419 Q255 419 219 396.5 Q183 374 163 335 Q143 296 143 247 Z M300 76 Q345 76 381 98 Q417 120 437.5 159.5 Q458 199 458 247 Q458 311 424 358 L239 88 Q268 76 300 76 Z " />
<glyph glyph-name="oslashacute" unicode="&#x1ff;" horiz-adv-x="600" d="M478 438 Q515 401 535.5 351.5 Q556 302 556 247 Q556 178 524 118 Q492 58 433.5 22 Q375 -14 300 -14 Q239 -14 187 11 L148 -46 L84 -2 L123 56 Q86 92 65.5 142 Q45 192 45 247 Q45 317 77 377 Q109 437 167.5 473 Q226 509 300 509 Q365 509 415 483 L452 537 L515 492 L478 438 Z M143 247 Q143 182 178 136 L363 406 Q336 419 300 419 Q255 419 219 396.5 Q183 374 163 335 Q143 296 143 247 Z M300 76 Q345 76 381 98 Q417 120 437.5 159.5 Q458 199 458 247 Q458 311 424 358 L239 88 Q268 76 300 76 Z M327 695 L454 695 L347 569 L260 569 L327 695 Z " />
<glyph glyph-name="otilde" unicode="&#xf5;" horiz-adv-x="600" d="M556 247 Q556 178 524 118 Q492 58 433.5 22 Q375 -14 300 -14 Q225 -14 166.5 22 Q108 58 76.5 118 Q45 178 45 247 Q45 317 77 377 Q109 437 167.5 473 Q226 509 300 509 Q375 509 433.5 473 Q492 437 524 377 Q556 317 556 247 Z M143 247 Q143 198 163 159 Q183 120 219 98 Q255 76 300 76 Q345 76 381 98 Q417 120 437.5 159.5 Q458 199 458 247 Q458 296 437.5 335 Q417 374 381 396.5 Q345 419 300 419 Q255 419 219 396.5 Q183 374 163 335 Q143 296 143 247 Z M146 613 Q175 687 241 687 Q261 687 275.5 682 Q290 677 307 668 Q322 660 331.5 656.5 Q341 653 352 653 Q379 653 396 691 L453 653 Q440 616 414.5 597.5 Q389 579 357 579 Q338 579 324 583.5 Q310 588 291 598 Q281 603 270 607.5 Q259 612 248 612 Q219 612 203 577 L146 613 Z " />
<glyph glyph-name="oe" unicode="&#x153;" horiz-adv-x="600" d="M339 219 L339 214 Q343 68 406 68 Q434 68 447.5 91.5 Q461 115 466 155 L551 138 Q542 70 507.5 28 Q473 -14 407 -14 Q331 -14 293 45 Q255 -14 190 -14 Q110 -14 76 53 Q42 120 42 248 Q42 509 196 509 Q264 509 301 448 Q342 509 413 509 Q561 509 561 259 L561 219 L339 219 Z M195 68 Q230 68 240.5 110 Q251 152 251 248 Q251 340 239.5 384 Q228 428 195 428 Q160 428 147 383.5 Q134 339 134 248 Q134 151 146.5 109.5 Q159 68 195 68 Z M406 428 Q372 428 356 391.5 Q340 355 339 293 L470 293 Q470 358 454 393 Q438 428 406 428 Z " />
<glyph glyph-name="p" unicode="p" horiz-adv-x="600" d="M57 495 L138 495 L151 428 Q176 462 218 485 Q260 508 318 508 Q387 508 441.5 471.5 Q496 435 526 375 Q556 315 556 247 Q556 177 527.5 117.5 Q499 58 445 22 Q391 -14 319 -14 Q264 -14 222 8 Q180 30 155 64 L155 -205 L57 -205 L57 495 Z M154 247 Q154 171 196.5 122.5 Q239 74 306 74 Q349 74 384 96 Q419 118 438.5 157.5 Q458 197 458 247 Q458 296 438.5 335.5 Q419 375 384 397.5 Q349 420 306 420 Q239 420 196.5 371 Q154 322 154 247 Z " />
<glyph glyph-name="thorn" unicode="&#xfe;" horiz-adv-x="600" d="M57 700 L156 700 L154 430 Q181 466 222.5 487 Q264 508 318 508 Q387 508 441 471.5 Q495 435 525 375 Q555 315 555 247 Q555 177 526.5 117.5 Q498 58 444 22 Q390 -14 318 -14 Q217 -14 155 64 L155 -205 L57 -205 L57 700 Z M154 247 Q154 172 196 124 Q238 76 305 76 Q349 76 384 98 Q419 120 438.5 159 Q458 198 458 247 Q458 295 438.5 334.5 Q419 374 384 396 Q349 418 305 418 Q261 418 226.5 396 Q192 374 173 335 Q154 296 154 247 Z " />
<glyph glyph-name="q" unicode="q" horiz-adv-x="600" d="M446 -205 L446 64 Q421 30 379 8 Q337 -14 282 -14 Q210 -14 156 22 Q102 58 73.5 117.5 Q45 177 45 247 Q45 315 75 375 Q105 435 159.5 471.5 Q214 508 283 508 Q341 508 383 485 Q425 462 450 428 L463 495 L544 495 L544 -205 L446 -205 Z M447 247 Q447 322 404.5 371 Q362 420 295 420 Q252 420 217 397.5 Q182 375 162.5 335.5 Q143 296 143 247 Q143 197 162.5 157.5 Q182 118 217 96 Q252 74 295 74 Q362 74 404.5 122.5 Q447 171 447 247 Z " />
<glyph glyph-name="r" unicode="r" horiz-adv-x="600" d="M395 509 Q444 509 479.5 488 Q515 467 535.5 435 Q556 403 561 371 L473 341 Q470 371 447 395.5 Q424 420 383 420 Q332 420 302 384.5 Q272 349 272 281 L272 87 L396 87 L396 0 L59 0 L59 87 L177 87 L177 407 L59 407 L59 495 L241 495 L249 444 Q267 469 305.5 489 Q344 509 395 509 Z " />
<glyph glyph-name="racute" unicode="&#x155;" horiz-adv-x="600" d="M395 509 Q444 509 479.5 488 Q515 467 535.5 435 Q556 403 561 371 L473 341 Q470 371 447 395.5 Q424 420 383 420 Q332 420 302 384.5 Q272 349 272 281 L272 87 L396 87 L396 0 L59 0 L59 87 L177 87 L177 407 L59 407 L59 495 L241 495 L249 444 Q267 469 305.5 489 Q344 509 395 509 Z M348 695 L475 695 L368 569 L281 569 L348 695 Z " />
<glyph glyph-name="rcaron" unicode="&#x159;" horiz-adv-x="600" d="M395 509 Q444 509 479.5 488 Q515 467 535.5 435 Q556 403 561 371 L473 341 Q470 371 447 395.5 Q424 420 383 420 Q332 420 302 384.5 Q272 349 272 281 L272 87 L396 87 L396 0 L59 0 L59 87 L177 87 L177 407 L59 407 L59 495 L241 495 L249 444 Q267 469 305.5 489 Q344 509 395 509 Z M462 695 L372 569 L269 569 L179 695 L265 695 L321 632 L377 695 L462 695 Z " />
<glyph glyph-name="rcommaaccent" unicode="&#x157;" horiz-adv-x="600" d="M395 509 Q444 509 479.5 488 Q515 467 535.5 435 Q556 403 561 371 L473 341 Q470 371 447 395.5 Q424 420 383 420 Q332 420 302 384.5 Q272 349 272 281 L272 87 L396 87 L396 0 L59 0 L59 87 L177 87 L177 407 L59 407 L59 495 L241 495 L249 444 Q267 469 305.5 489 Q344 509 395 509 Z M228 -46 Q254 -46 271.5 -63.5 Q289 -81 289 -112 Q289 -139 272 -170.5 Q255 -202 228 -226 L192 -200 Q211 -175 217 -155 Q195 -151 183 -137.5 Q171 -124 171 -104 Q171 -79 187.5 -62.5 Q204 -46 228 -46 Z " />
<glyph glyph-name="s" unicode="s" horiz-adv-x="600" d="M415 338 Q407 377 380.5 401.5 Q354 426 305 426 Q251 426 225.5 407 Q200 388 200 362 Q200 333 230 318.5 Q260 304 323 293 Q415 278 463 243 Q511 208 511 139 Q511 95 484.5 60 Q458 25 411 5.5 Q364 -14 305 -14 Q220 -14 164 26 Q108 66 88 140 L176 166 Q189 123 217.5 96 Q246 69 305 69 Q356 69 387 87 Q418 105 418 137 Q418 161 394.5 179 Q371 197 304 207 Q210 223 158.5 256 Q107 289 107 359 Q107 403 132 437 Q157 471 202 490 Q247 509 305 509 Q384 509 434.5 470 Q485 431 502 361 L415 338 Z " />
<glyph glyph-name="sacute" unicode="&#x15b;" horiz-adv-x="600" d="M415 338 Q407 377 380.5 401.5 Q354 426 305 426 Q251 426 225.5 407 Q200 388 200 362 Q200 333 230 318.5 Q260 304 323 293 Q415 278 463 243 Q511 208 511 139 Q511 95 484.5 60 Q458 25 411 5.5 Q364 -14 305 -14 Q220 -14 164 26 Q108 66 88 140 L176 166 Q189 123 217.5 96 Q246 69 305 69 Q356 69 387 87 Q418 105 418 137 Q418 161 394.5 179 Q371 197 304 207 Q210 223 158.5 256 Q107 289 107 359 Q107 403 132 437 Q157 471 202 490 Q247 509 305 509 Q384 509 434.5 470 Q485 431 502 361 L415 338 Z M332 695 L459 695 L352 569 L265 569 L332 695 Z " />
<glyph glyph-name="scaron" unicode="&#x161;" horiz-adv-x="600" d="M415 338 Q407 377 380.5 401.5 Q354 426 305 426 Q251 426 225.5 407 Q200 388 200 362 Q200 333 230 318.5 Q260 304 323 293 Q415 278 463 243 Q511 208 511 139 Q511 95 484.5 60 Q458 25 411 5.5 Q364 -14 305 -14 Q220 -14 164 26 Q108 66 88 140 L176 166 Q189 123 217.5 96 Q246 69 305 69 Q356 69 387 87 Q418 105 418 137 Q418 161 394.5 179 Q371 197 304 207 Q210 223 158.5 256 Q107 289 107 359 Q107 403 132 437 Q157 471 202 490 Q247 509 305 509 Q384 509 434.5 470 Q485 431 502 361 L415 338 Z M446 695 L356 569 L253 569 L163 695 L249 695 L305 632 L361 695 L446 695 Z " />
<glyph glyph-name="scedilla" unicode="&#x15f;" horiz-adv-x="600" d="M511 139 Q511 79 463.5 37.5 Q416 -4 339 -12 L323 -42 Q362 -44 385 -65.5 Q408 -87 408 -126 Q408 -167 382 -192 Q356 -217 313 -217 Q276 -217 250 -196.5 Q224 -176 221 -146 L277 -127 Q277 -143 286.5 -152.5 Q296 -162 313 -162 Q328 -162 338 -152.5 Q348 -143 348 -127 Q348 -113 338 -103.5 Q328 -94 313 -94 Q298 -94 290 -101 L245 -69 L276 -13 Q203 -6 155 33 Q107 72 88 140 L176 166 Q189 123 217.5 96 Q246 69 305 69 Q356 69 387 87 Q418 105 418 137 Q418 161 394.5 179 Q371 197 304 207 Q210 223 158.5 256 Q107 289 107 359 Q107 403 132 437 Q157 471 202 490 Q247 509 305 509 Q384 509 434.5 470 Q485 431 502 361 L415 338 Q407 377 380.5 401.5 Q354 426 305 426 Q251 426 225.5 407 Q200 388 200 362 Q200 333 230 318.5 Q260 304 323 293 Q415 278 463 243 Q511 208 511 139 Z " />
<glyph glyph-name="scircumflex" unicode="&#x15d;" horiz-adv-x="600" d="M415 338 Q407 377 380.5 401.5 Q354 426 305 426 Q251 426 225.5 407 Q200 388 200 362 Q200 333 230 318.5 Q260 304 323 293 Q415 278 463 243 Q511 208 511 139 Q511 95 484.5 60 Q458 25 411 5.5 Q364 -14 305 -14 Q220 -14 164 26 Q108 66 88 140 L176 166 Q189 123 217.5 96 Q246 69 305 69 Q356 69 387 87 Q418 105 418 137 Q418 161 394.5 179 Q371 197 304 207 Q210 223 158.5 256 Q107 289 107 359 Q107 403 132 437 Q157 471 202 490 Q247 509 305 509 Q384 509 434.5 470 Q485 431 502 361 L415 338 Z M361 569 L305 632 L249 569 L163 569 L253 695 L356 695 L446 569 L361 569 Z " />
<glyph glyph-name="scommaaccent" unicode="&#x219;" horiz-adv-x="600" d="M415 338 Q407 377 380.5 401.5 Q354 426 305 426 Q251 426 225.5 407 Q200 388 200 362 Q200 333 230 318.5 Q260 304 323 293 Q415 278 463 243 Q511 208 511 139 Q511 95 484.5 60 Q458 25 411 5.5 Q364 -14 305 -14 Q220 -14 164 26 Q108 66 88 140 L176 166 Q189 123 217.5 96 Q246 69 305 69 Q356 69 387 87 Q418 105 418 137 Q418 161 394.5 179 Q371 197 304 207 Q210 223 158.5 256 Q107 289 107 359 Q107 403 132 437 Q157 471 202 490 Q247 509 305 509 Q384 509 434.5 470 Q485 431 502 361 L415 338 Z M313 -46 Q339 -46 356.5 -63.5 Q374 -81 374 -112 Q374 -139 357 -170.5 Q340 -202 313 -226 L277 -200 Q296 -175 302 -155 Q280 -151 268 -137.5 Q256 -124 256 -104 Q256 -79 272.5 -62.5 Q289 -46 313 -46 Z " />
<glyph glyph-name="germandbls" unicode="&#xdf;" horiz-adv-x="600" d="M89 521 Q89 610 143.5 662.5 Q198 715 290 715 Q342 715 384.5 692.5 Q427 670 452.5 627.5 Q478 585 478 528 Q478 478 455 444 Q432 410 403 391 L403 389 Q445 374 484 333.5 Q523 293 523 208 Q523 147 496 98 Q469 49 419 20.5 Q369 -8 302 -8 Q266 -8 241 -1 L251 83 Q269 78 293 78 Q349 78 388 110.5 Q427 143 427 207 Q427 271 388.5 303.5 Q350 336 287 336 L262 336 L262 420 L287 420 Q330 420 361.5 448 Q393 476 393 525 Q393 575 365 604 Q337 633 285 633 Q240 633 212 603 Q184 573 184 519 L184 0 L89 0 L89 521 Z " />
<glyph glyph-name="longs" unicode="&#x17f;" horiz-adv-x="600" d="M363 628 Q297 628 297 562 L297 88 L420 88 L420 0 L86 0 L86 88 L199 88 L199 409 L79 409 L79 495 L199 495 L199 570 Q199 638 243 678 Q287 718 362 718 Q432 718 466.5 680.5 Q501 643 515 602 L430 570 Q422 594 408 611 Q394 628 363 628 Z " />
<glyph glyph-name="t" unicode="t" horiz-adv-x="600" d="M526 98 Q482 -14 361 -14 Q281 -14 231.5 31.5 Q182 77 182 156 L182 408 L54 408 L54 495 L182 495 L182 617 L280 617 L280 495 L505 495 L505 408 L280 408 L280 160 Q280 119 301.5 98 Q323 77 362 77 Q424 77 442 132 L526 98 Z " />
<glyph glyph-name="tbar" unicode="&#x167;" horiz-adv-x="600" d="M526 98 Q482 -14 361 -14 Q281 -14 231.5 31.5 Q182 77 182 156 L182 226 L93 226 L93 306 L182 306 L182 408 L54 408 L54 495 L182 495 L182 617 L280 617 L280 495 L505 495 L505 408 L280 408 L280 306 L428 306 L428 226 L280 226 L280 160 Q280 119 301.5 98 Q323 77 362 77 Q424 77 442 132 L526 98 Z " />
<glyph glyph-name="tcaron" unicode="&#x165;" horiz-adv-x="600" d="M377 574 L314 574 L327 700 L423 700 L377 574 Z M526 98 Q482 -14 361 -14 Q281 -14 231.5 31.5 Q182 77 182 156 L182 408 L54 408 L54 495 L182 495 L182 617 L280 617 L280 495 L505 495 L505 408 L280 408 L280 160 Q280 119 301.5 98 Q323 77 362 77 Q424 77 442 132 L526 98 Z " />
<glyph glyph-name="uni0163" unicode="&#x163;" horiz-adv-x="600" d="M526 98 Q486 -4 382 -13 L366 -42 Q405 -44 428 -65.5 Q451 -87 451 -126 Q451 -167 425 -192 Q399 -217 356 -217 Q319 -217 293 -196.5 Q267 -176 264 -146 L320 -127 Q320 -143 329.5 -152.5 Q339 -162 356 -162 Q371 -162 381 -152.5 Q391 -143 391 -127 Q391 -113 381 -103.5 Q371 -94 356 -94 Q341 -94 333 -101 L288 -69 L320 -11 Q257 1 219.5 44.5 Q182 88 182 156 L182 408 L54 408 L54 495 L182 495 L182 617 L280 617 L280 495 L505 495 L505 408 L280 408 L280 160 Q280 119 301.5 98 Q323 77 362 77 Q424 77 442 132 L526 98 Z " />
<glyph glyph-name="uni021B" unicode="&#x21b;" horiz-adv-x="600" d="M526 98 Q482 -14 361 -14 Q281 -14 231.5 31.5 Q182 77 182 156 L182 408 L54 408 L54 495 L182 495 L182 617 L280 617 L280 495 L505 495 L505 408 L280 408 L280 160 Q280 119 301.5 98 Q323 77 362 77 Q424 77 442 132 L526 98 Z M356 -46 Q382 -46 399.5 -63.5 Q417 -81 417 -112 Q417 -139 400 -170.5 Q383 -202 356 -226 L320 -200 Q339 -175 345 -155 Q323 -151 311 -137.5 Q299 -124 299 -104 Q299 -79 315.5 -62.5 Q332 -46 356 -46 Z " />
<glyph glyph-name="u" unicode="u" horiz-adv-x="600" d="M184 201 Q184 133 212 105.5 Q240 78 290 78 Q343 78 379 115.5 Q415 153 415 219 L415 495 L513 495 L513 0 L432 0 L417 63 Q360 -14 260 -14 Q178 -14 132 35 Q86 84 86 184 L86 495 L184 495 L184 201 Z " />
<glyph glyph-name="uacute" unicode="&#xfa;" horiz-adv-x="600" d="M184 201 Q184 133 212 105.5 Q240 78 290 78 Q343 78 379 115.5 Q415 153 415 219 L415 495 L513 495 L513 0 L432 0 L417 63 Q360 -14 260 -14 Q178 -14 132 35 Q86 84 86 184 L86 495 L184 495 L184 201 Z M331 695 L458 695 L351 569 L264 569 L331 695 Z " />
<glyph glyph-name="ubreve" unicode="&#x16d;" horiz-adv-x="600" d="M184 201 Q184 133 212 105.5 Q240 78 290 78 Q343 78 379 115.5 Q415 153 415 219 L415 495 L513 495 L513 0 L432 0 L417 63 Q360 -14 260 -14 Q178 -14 132 35 Q86 84 86 184 L86 495 L184 495 L184 201 Z M435 696 Q433 641 396.5 605.5 Q360 570 303 570 Q247 570 210.5 605.5 Q174 641 171 696 L243 696 Q245 670 261 654 Q277 638 303 638 Q329 638 345.5 654 Q362 670 364 696 L435 696 Z " />
<glyph glyph-name="ucircumflex" unicode="&#xfb;" horiz-adv-x="600" d="M184 201 Q184 133 212 105.5 Q240 78 290 78 Q343 78 379 115.5 Q415 153 415 219 L415 495 L513 495 L513 0 L432 0 L417 63 Q360 -14 260 -14 Q178 -14 132 35 Q86 84 86 184 L86 495 L184 495 L184 201 Z M360 569 L304 632 L248 569 L162 569 L252 695 L355 695 L445 569 L360 569 Z " />
<glyph glyph-name="udieresis" unicode="&#xfc;" horiz-adv-x="600" d="M184 201 Q184 133 212 105.5 Q240 78 290 78 Q343 78 379 115.5 Q415 153 415 219 L415 495 L513 495 L513 0 L432 0 L417 63 Q360 -14 260 -14 Q178 -14 132 35 Q86 84 86 184 L86 495 L184 495 L184 201 Z M218 568 Q191 568 172 587 Q153 606 153 632 Q153 658 172 677 Q191 696 218 696 Q244 696 263 677 Q282 658 282 632 Q282 606 263 587 Q244 568 218 568 Z M386 568 Q360 568 340.5 587 Q321 606 321 632 Q321 658 340.5 677 Q360 696 386 696 Q412 696 430.5 677 Q449 658 449 632 Q449 606 430.5 587 Q412 568 386 568 Z " />
<glyph glyph-name="ugrave" unicode="&#xf9;" horiz-adv-x="600" d="M184 201 Q184 133 212 105.5 Q240 78 290 78 Q343 78 379 115.5 Q415 153 415 219 L415 495 L513 495 L513 0 L432 0 L417 63 Q360 -14 260 -14 Q178 -14 132 35 Q86 84 86 184 L86 495 L184 495 L184 201 Z M259 569 L152 695 L279 695 L346 569 L259 569 Z " />
<glyph glyph-name="uhungarumlaut" unicode="&#x171;" horiz-adv-x="600" d="M184 201 Q184 133 212 105.5 Q240 78 290 78 Q343 78 379 115.5 Q415 153 415 219 L415 495 L513 495 L513 0 L432 0 L417 63 Q360 -14 260 -14 Q178 -14 132 35 Q86 84 86 184 L86 495 L184 495 L184 201 Z M187 569 L244 695 L358 695 L260 569 L187 569 Z M333 569 L390 695 L504 695 L406 569 L333 569 Z " />
<glyph glyph-name="umacron" unicode="&#x16b;" horiz-adv-x="600" d="M184 201 Q184 133 212 105.5 Q240 78 290 78 Q343 78 379 115.5 Q415 153 415 219 L415 495 L513 495 L513 0 L432 0 L417 63 Q360 -14 260 -14 Q178 -14 132 35 Q86 84 86 184 L86 495 L184 495 L184 201 Z M198 670 L410 670 L410 594 L198 594 L198 670 Z " />
<glyph glyph-name="uogonek" unicode="&#x173;" horiz-adv-x="600" d="M513 0 Q452 -33 452 -74 Q452 -92 464.5 -103.5 Q477 -115 500 -115 L507 -115 L506 -183 L485 -185 Q433 -185 403 -159.5 Q373 -134 373 -94 Q373 -34 430 8 L417 63 Q360 -14 260 -14 Q178 -14 132 35 Q86 84 86 184 L86 495 L184 495 L184 201 Q184 133 212 105.5 Q240 78 290 78 Q343 78 379 115.5 Q415 153 415 219 L415 495 L513 495 L513 0 Z " />
<glyph glyph-name="uring" unicode="&#x16f;" horiz-adv-x="600" d="M184 201 Q184 133 212 105.5 Q240 78 290 78 Q343 78 379 115.5 Q415 153 415 219 L415 495 L513 495 L513 0 L432 0 L417 63 Q360 -14 260 -14 Q178 -14 132 35 Q86 84 86 184 L86 495 L184 495 L184 201 Z M212 649 Q212 686 239 713 Q266 740 303 740 Q341 740 368 713 Q395 686 395 649 Q395 612 367.5 584.5 Q340 557 303 557 Q266 557 239 584 Q212 611 212 649 Z M269 649 Q269 635 279 624.5 Q289 614 303 614 Q318 614 327.5 624 Q337 634 337 649 Q337 663 327.5 673 Q318 683 303 683 Q289 683 279 673 Q269 663 269 649 Z " />
<glyph glyph-name="utilde" unicode="&#x169;" horiz-adv-x="600" d="M184 201 Q184 133 212 105.5 Q240 78 290 78 Q343 78 379 115.5 Q415 153 415 219 L415 495 L513 495 L513 0 L432 0 L417 63 Q360 -14 260 -14 Q178 -14 132 35 Q86 84 86 184 L86 495 L184 495 L184 201 Z M150 613 Q179 687 245 687 Q265 687 279.5 682 Q294 677 311 668 Q326 660 335.5 656.5 Q345 653 356 653 Q383 653 400 691 L457 653 Q444 616 418.5 597.5 Q393 579 361 579 Q342 579 328 583.5 Q314 588 295 598 Q285 603 274 607.5 Q263 612 252 612 Q223 612 207 577 L150 613 Z " />
<glyph glyph-name="v" unicode="v" horiz-adv-x="600" d="M540 495 L352 0 L248 0 L59 495 L160 495 L300 111 L440 495 L540 495 Z " />
<glyph glyph-name="w" unicode="w" horiz-adv-x="600" d="M566 495 L466 0 L380 0 L300 338 L221 0 L135 0 L35 495 L125 495 L184 176 L259 495 L341 495 L417 178 L476 495 L566 495 Z " />
<glyph glyph-name="wacute" unicode="&#x1e83;" horiz-adv-x="600" d="M566 495 L466 0 L380 0 L300 338 L221 0 L135 0 L35 495 L125 495 L184 176 L259 495 L341 495 L417 178 L476 495 L566 495 Z M326 695 L453 695 L346 569 L259 569 L326 695 Z " />
<glyph glyph-name="wcircumflex" unicode="&#x175;" horiz-adv-x="600" d="M566 495 L466 0 L380 0 L300 338 L221 0 L135 0 L35 495 L125 495 L184 176 L259 495 L341 495 L417 178 L476 495 L566 495 Z M355 569 L299 632 L243 569 L157 569 L247 695 L350 695 L440 569 L355 569 Z " />
<glyph glyph-name="wdieresis" unicode="&#x1e85;" horiz-adv-x="600" d="M566 495 L466 0 L380 0 L300 338 L221 0 L135 0 L35 495 L125 495 L184 176 L259 495 L341 495 L417 178 L476 495 L566 495 Z M213 568 Q186 568 167 587 Q148 606 148 632 Q148 658 167 677 Q186 696 213 696 Q239 696 258 677 Q277 658 277 632 Q277 606 258 587 Q239 568 213 568 Z M381 568 Q355 568 335.5 587 Q316 606 316 632 Q316 658 335.5 677 Q355 696 381 696 Q407 696 425.5 677 Q444 658 444 632 Q444 606 425.5 587 Q407 568 381 568 Z " />
<glyph glyph-name="wgrave" unicode="&#x1e81;" horiz-adv-x="600" d="M566 495 L466 0 L380 0 L300 338 L221 0 L135 0 L35 495 L125 495 L184 176 L259 495 L341 495 L417 178 L476 495 L566 495 Z M254 569 L147 695 L274 695 L341 569 L254 569 Z " />
<glyph glyph-name="x" unicode="x" horiz-adv-x="600" d="M427 0 L299 178 L172 0 L64 0 L243 250 L67 495 L177 495 L299 322 L422 495 L531 495 L356 250 L536 0 L427 0 Z " />
<glyph glyph-name="uni1E8B" unicode="&#x1e8b;" horiz-adv-x="600" d="M427 0 L299 178 L172 0 L64 0 L243 250 L67 495 L177 495 L299 322 L422 495 L531 495 L356 250 L536 0 L427 0 Z M243 632 Q243 660 262.5 679.5 Q282 699 310 699 Q337 699 356.5 679.5 Q376 660 376 632 Q376 604 356.5 584.5 Q337 565 310 565 Q282 565 262.5 584.5 Q243 604 243 632 Z " />
<glyph glyph-name="y" unicode="y" horiz-adv-x="600" d="M520 495 L520 9 Q520 -55 495 -106.5 Q470 -158 419.5 -188 Q369 -218 294 -218 Q206 -218 153 -175.5 Q100 -133 81 -60 L173 -40 Q194 -133 294 -133 Q356 -133 389 -96 Q422 -59 422 7 L422 71 L421 75 Q391 37 354 19 Q317 1 261 1 Q182 1 132 49.5 Q82 98 82 196 L82 495 L180 495 L180 218 Q180 150 209 121 Q238 92 291 92 Q348 92 385 129.5 Q422 167 422 234 L422 495 L520 495 Z " />
<glyph glyph-name="yacute" unicode="&#xfd;" horiz-adv-x="600" d="M520 495 L520 9 Q520 -55 495 -106.5 Q470 -158 419.5 -188 Q369 -218 294 -218 Q206 -218 153 -175.5 Q100 -133 81 -60 L173 -40 Q194 -133 294 -133 Q356 -133 389 -96 Q422 -59 422 7 L422 71 L421 75 Q391 37 354 19 Q317 1 261 1 Q182 1 132 49.5 Q82 98 82 196 L82 495 L180 495 L180 218 Q180 150 209 121 Q238 92 291 92 Q348 92 385 129.5 Q422 167 422 234 L422 495 L520 495 Z M325 695 L452 695 L345 569 L258 569 L325 695 Z " />
<glyph glyph-name="ycircumflex" unicode="&#x177;" horiz-adv-x="600" d="M520 495 L520 9 Q520 -55 495 -106.5 Q470 -158 419.5 -188 Q369 -218 294 -218 Q206 -218 153 -175.5 Q100 -133 81 -60 L173 -40 Q194 -133 294 -133 Q356 -133 389 -96 Q422 -59 422 7 L422 71 L421 75 Q391 37 354 19 Q317 1 261 1 Q182 1 132 49.5 Q82 98 82 196 L82 495 L180 495 L180 218 Q180 150 209 121 Q238 92 291 92 Q348 92 385 129.5 Q422 167 422 234 L422 495 L520 495 Z M354 569 L298 632 L242 569 L156 569 L246 695 L349 695 L439 569 L354 569 Z " />
<glyph glyph-name="ydieresis" unicode="&#xff;" horiz-adv-x="600" d="M520 495 L520 9 Q520 -55 495 -106.5 Q470 -158 419.5 -188 Q369 -218 294 -218 Q206 -218 153 -175.5 Q100 -133 81 -60 L173 -40 Q194 -133 294 -133 Q356 -133 389 -96 Q422 -59 422 7 L422 71 L421 75 Q391 37 354 19 Q317 1 261 1 Q182 1 132 49.5 Q82 98 82 196 L82 495 L180 495 L180 218 Q180 150 209 121 Q238 92 291 92 Q348 92 385 129.5 Q422 167 422 234 L422 495 L520 495 Z M212 568 Q185 568 166 587 Q147 606 147 632 Q147 658 166 677 Q185 696 212 696 Q238 696 257 677 Q276 658 276 632 Q276 606 257 587 Q238 568 212 568 Z M380 568 Q354 568 334.5 587 Q315 606 315 632 Q315 658 334.5 677 Q354 696 380 696 Q406 696 424.5 677 Q443 658 443 632 Q443 606 424.5 587 Q406 568 380 568 Z " />
<glyph glyph-name="ygrave" unicode="&#x1ef3;" horiz-adv-x="600" d="M520 495 L520 9 Q520 -55 495 -106.5 Q470 -158 419.5 -188 Q369 -218 294 -218 Q206 -218 153 -175.5 Q100 -133 81 -60 L173 -40 Q194 -133 294 -133 Q356 -133 389 -96 Q422 -59 422 7 L422 71 L421 75 Q391 37 354 19 Q317 1 261 1 Q182 1 132 49.5 Q82 98 82 196 L82 495 L180 495 L180 218 Q180 150 209 121 Q238 92 291 92 Q348 92 385 129.5 Q422 167 422 234 L422 495 L520 495 Z M253 569 L146 695 L273 695 L340 569 L253 569 Z " />
<glyph glyph-name="z" unicode="z" horiz-adv-x="600" d="M80 77 L394 411 L88 411 L88 495 L517 495 L517 418 L203 83 L520 83 L519 0 L80 0 L80 77 Z " />
<glyph glyph-name="zacute" unicode="&#x17a;" horiz-adv-x="600" d="M80 77 L394 411 L88 411 L88 495 L517 495 L517 418 L203 83 L520 83 L519 0 L80 0 L80 77 Z M328 695 L455 695 L348 569 L261 569 L328 695 Z " />
<glyph glyph-name="zcaron" unicode="&#x17e;" horiz-adv-x="600" d="M80 77 L394 411 L88 411 L88 495 L517 495 L517 418 L203 83 L520 83 L519 0 L80 0 L80 77 Z M442 695 L352 569 L249 569 L159 695 L245 695 L301 632 L357 695 L442 695 Z " />
<glyph glyph-name="zdotaccent" unicode="&#x17c;" horiz-adv-x="600" d="M80 77 L394 411 L88 411 L88 495 L517 495 L517 418 L203 83 L520 83 L519 0 L80 0 L80 77 Z M234 632 Q234 660 253.5 679.5 Q273 699 301 699 Q328 699 347.5 679.5 Q367 660 367 632 Q367 604 347.5 584.5 Q328 565 301 565 Q273 565 253.5 584.5 Q234 604 234 632 Z " />
<glyph glyph-name="uni01B6" unicode="&#x1b6;" horiz-adv-x="600" d="M520 83 L519 0 L80 0 L80 77 L204 209 L131 209 L131 287 L277 287 L394 411 L88 411 L88 495 L517 495 L517 418 L394 287 L462 287 L462 209 L321 209 L203 83 L520 83 Z " />
<glyph glyph-name="fi" unicode="&#xfb01;" horiz-adv-x="600" d="M30 88 L101 88 L101 409 L30 409 L30 495 L101 495 L101 531 Q101 620 154.5 669 Q208 718 297 718 Q374 718 425.5 688 Q477 658 496 602 L405 570 Q391 598 366.5 613.5 Q342 629 296 629 Q199 629 199 527 L199 495 L514 495 L514 87 L577 87 L577 0 L339 0 L339 87 L416 87 L416 409 L199 409 L199 88 L275 88 L275 0 L30 0 L30 88 Z " />
<glyph glyph-name="fl" unicode="&#xfb02;" horiz-adv-x="600" d="M577 87 L577 0 L339 0 L339 87 L416 87 L416 520 Q416 569 383.5 593 Q351 617 296 617 Q199 617 199 517 L199 495 L316 495 L316 409 L199 409 L199 88 L275 88 L275 0 L30 0 L30 88 L101 88 L101 409 L30 409 L30 495 L101 495 L101 518 Q101 608 152.5 656 Q204 704 294 704 Q370 704 416 673 L416 700 L514 700 L514 87 L577 87 Z " />
<glyph glyph-name="ordfeminine" unicode="&#xaa;" horiz-adv-x="600" d="M161 637 Q174 689 208.5 715 Q243 741 303 741 Q365 741 404.5 709 Q444 677 444 614 L445 387 L382 387 L373 419 Q343 377 275 377 Q222 377 188.5 406.5 Q155 436 155 484 Q155 526 185.5 554.5 Q216 583 291 594 L370 606 L370 614 Q370 680 301 680 Q238 680 228 621 L161 637 Z M370 553 L296 543 Q261 538 244.5 525 Q228 512 228 488 Q228 466 246 452.5 Q264 439 294 439 Q326 439 348 457 Q370 475 370 509 L370 553 Z " />
<glyph glyph-name="ordmasculine" unicode="&#xba;" horiz-adv-x="600" d="M478 563 Q478 515 456 473 Q434 431 393.5 406 Q353 381 300 381 Q247 381 206.5 406 Q166 431 144 473 Q122 515 122 563 Q122 611 144.5 653 Q167 695 207.5 720 Q248 745 300 745 Q353 745 393.5 720 Q434 695 456 653 Q478 611 478 563 Z M189 563 Q189 511 220 477 Q251 443 300 443 Q348 443 379.5 477 Q411 511 411 563 Q411 615 379.5 649.5 Q348 684 300 684 Q251 684 220 650 Q189 616 189 563 Z " />
<glyph glyph-name="uni0394" unicode="&#x394;" horiz-adv-x="600" d="M243 700 L357 700 L563 0 L37 0 L243 700 Z M300 573 L170 90 L429 90 L300 573 Z " />
<glyph glyph-name="uni03A9" unicode="&#x3a9;" horiz-adv-x="600" d="M548 358 Q548 172 474 88 L548 88 L548 0 L349 0 L349 88 Q450 128 450 357 Q450 484 412 553.5 Q374 623 300 623 Q150 623 150 355 Q150 242 175 176 Q200 110 251 88 L251 0 L52 0 L52 88 L127 88 Q52 173 52 351 Q52 527 115.5 621 Q179 715 300 715 Q423 715 485.5 622.5 Q548 530 548 358 Z " />
<glyph glyph-name="uni03BC" unicode="&#x3bc;" horiz-adv-x="600" d="M513 495 L513 0 L432 0 L417 63 Q360 -14 260 -14 Q216 -14 184 -1 L184 -205 L86 -205 L86 495 L184 495 L184 201 Q184 133 212 105.5 Q240 78 290 78 Q343 78 379 115.5 Q415 153 415 219 L415 495 L513 495 Z " />
<glyph glyph-name="pi" unicode="&#x3c0;" horiz-adv-x="600" d="M551 24 Q513 -14 447 -14 Q394 -14 359.5 19.5 Q325 53 325 113 L325 410 L234 410 L234 0 L136 0 L136 410 L49 410 L49 495 L522 495 L522 410 L423 410 L423 121 Q423 97 435 85.5 Q447 74 466 74 Q480 74 489.5 79.5 Q499 85 503 90 L551 24 Z " />
<glyph glyph-name="zero" unicode="0" horiz-adv-x="600" d="M301 714 Q386 714 443.5 666.5 Q501 619 529 537.5 Q557 456 557 353 Q557 191 493 88.5 Q429 -14 301 -14 Q172 -14 107 88 Q42 190 42 353 Q42 456 70 537.5 Q98 619 156.5 666.5 Q215 714 301 714 Z M301 622 Q221 622 181.5 546 Q142 470 142 350 Q142 286 152 237 L397 577 Q360 622 301 622 Z M301 78 Q380 78 418.5 153 Q457 228 457 350 Q457 426 443 479 L195 133 Q234 78 301 78 Z " />
<glyph glyph-name="one" unicode="1" horiz-adv-x="600" d="M523 92 L523 0 L77 0 L77 92 L253 92 L253 590 Q226 573 184 558.5 Q142 544 108 539 L108 637 Q141 643 181 660.5 Q221 678 253 700 L353 700 L353 92 L523 92 Z " />
<glyph glyph-name="two" unicode="2" horiz-adv-x="600" d="M157 473 Q157 540 198 581 Q239 622 301 622 Q361 622 398 585.5 Q435 549 435 495 Q435 444 409 403 Q383 362 315 301 L78 93 L78 0 L536 0 L536 92 L219 92 L383 237 Q465 309 500 364.5 Q535 420 535 496 Q535 558 504.5 608 Q474 658 420.5 686 Q367 714 301 714 Q239 714 186 687.5 Q133 661 100.5 612.5 Q68 564 65 500 L157 473 Z " />
<glyph glyph-name="three" unicode="3" horiz-adv-x="600" d="M296 -14 Q367 -14 424 16.5 Q481 47 513.5 100.5 Q546 154 546 220 Q546 318 489 378 Q432 438 341 443 L500 608 L500 700 L76 700 L76 608 L381 608 L193 417 L244 355 Q269 363 296 363 Q365 363 405.5 323 Q446 283 446 220 Q446 159 404 118.5 Q362 78 296 78 Q233 78 190.5 118 Q148 158 145 217 L54 190 Q56 135 87 88 Q118 41 172.5 13.5 Q227 -14 296 -14 Z " />
<glyph glyph-name="four" unicode="4" horiz-adv-x="600" d="M463 183 L553 183 L553 269 L463 269 L462 700 L357 700 L46 259 L46 183 L363 183 L362 0 L462 0 L463 183 Z M362 560 L363 268 L154 268 L362 560 Z " />
<glyph glyph-name="five" unicode="5" horiz-adv-x="600" d="M54 180 Q58 129 90 84.5 Q122 40 177 13 Q232 -14 298 -14 Q367 -14 424 16 Q481 46 513.5 100 Q546 154 546 224 Q546 292 515.5 345 Q485 398 429.5 427 Q374 456 303 456 Q273 456 245 449 Q217 442 197 431 L214 608 L496 608 L496 700 L127 700 L96 357 L183 325 Q205 344 235 356.5 Q265 369 297 369 Q362 369 404 328 Q446 287 446 224 Q446 160 404.5 119 Q363 78 298 78 Q237 78 194.5 114 Q152 150 147 208 L54 180 Z " />
<glyph glyph-name="six" unicode="6" horiz-adv-x="600" d="M441 515 Q410 622 310 622 Q228 622 194 561.5 Q160 501 156 389 Q176 414 217 435 Q258 456 312 456 Q379 456 432.5 427 Q486 398 517 345 Q548 292 548 222 Q548 153 516 99 Q484 45 428.5 15.5 Q373 -14 303 -14 Q179 -14 115 70.5 Q51 155 51 312 Q51 506 111 610 Q171 714 310 714 Q399 714 453.5 667.5 Q508 621 529 542 L441 515 Z M303 78 Q368 78 408 118.5 Q448 159 448 223 Q448 287 408 326.5 Q368 366 303 366 Q240 366 199.5 326 Q159 286 159 223 Q159 183 177 150 Q195 117 228 97.5 Q261 78 303 78 Z " />
<glyph glyph-name="seven" unicode="7" horiz-adv-x="600" d="M72 700 L527 700 L527 608 Q456 497 384.5 319.5 Q313 142 287 0 L187 0 Q213 141 281 318.5 Q349 496 415 608 L72 608 L72 700 Z " />
<glyph glyph-name="eight" unicode="8" horiz-adv-x="600" d="M445 378 Q491 351 516.5 305.5 Q542 260 542 204 Q542 140 511 90 Q480 40 424.5 12.5 Q369 -15 300 -15 Q230 -15 174.5 12.5 Q119 40 88 90 Q57 140 57 204 Q57 260 82.5 305 Q108 350 155 378 Q122 403 104 439.5 Q86 476 86 519 Q86 575 113.5 619.5 Q141 664 190 688.5 Q239 713 300 713 Q360 713 409 688 Q458 663 486 619 Q514 575 514 519 Q514 476 496 439.5 Q478 403 445 378 Z M184 521 Q184 473 217 444.5 Q250 416 300 416 Q349 416 382.5 444.5 Q416 473 416 521 Q416 569 383 598 Q350 627 300 627 Q250 627 217 598 Q184 569 184 521 Z M300 75 Q360 75 401 110.5 Q442 146 442 204 Q442 264 401 299 Q360 334 300 334 Q240 334 198.5 298.5 Q157 263 157 204 Q157 146 199 110.5 Q241 75 300 75 Z " />
<glyph glyph-name="nine" unicode="9" horiz-adv-x="600" d="M166 185 Q197 78 297 78 Q379 78 413 138.5 Q447 199 451 311 Q431 286 390 265 Q349 244 295 244 Q228 244 174.5 273 Q121 302 90 355 Q59 408 59 478 Q59 547 91 601 Q123 655 178.5 684.5 Q234 714 304 714 Q428 714 492 629.5 Q556 545 556 388 Q556 194 496 90 Q436 -14 297 -14 Q208 -14 153.5 32.5 Q99 79 78 158 L166 185 Z M304 622 Q240 622 199.5 582 Q159 542 159 477 Q159 413 199 373.5 Q239 334 304 334 Q367 334 407.5 374 Q448 414 448 477 Q448 517 430 550 Q412 583 379 602.5 Q346 622 304 622 Z " />
<glyph glyph-name="uni2080" unicode="&#x2080;" horiz-adv-x="600" d="M301 237 Q365 237 398.5 186.5 Q432 136 432 55 Q432 -26 398.5 -76.5 Q365 -127 301 -127 Q236 -127 202.5 -77 Q169 -27 169 55 Q169 136 202.5 186.5 Q236 237 301 237 Z M301 172 Q269 172 253 140.5 Q237 109 237 55 Q237 41 239 21 L337 156 Q323 172 301 172 Z M301 -64 Q332 -64 347.5 -32 Q363 0 363 55 Q363 71 361 93 L261 -45 Q277 -64 301 -64 Z " />
<glyph glyph-name="uni2081" unicode="&#x2081;" horiz-adv-x="600" d="M416 -56 L416 -120 L190 -120 L190 -56 L271 -56 L271 153 Q258 145 237.5 138 Q217 131 202 129 L202 197 Q216 200 237.5 210 Q259 220 271 230 L339 230 L339 -56 L416 -56 Z " />
<glyph glyph-name="uni2082" unicode="&#x2082;" horiz-adv-x="600" d="M242 110 Q242 139 257.5 156 Q273 173 300 173 Q323 173 337.5 158.5 Q352 144 352 124 Q352 103 340 85 Q328 67 303 45 L186 -55 L186 -120 L421 -120 L421 -55 L285 -55 L351 1 Q387 32 404 59.5 Q421 87 421 125 Q421 173 386 205 Q351 237 300 237 Q250 237 215.5 207 Q181 177 179 128 L242 110 Z " />
<glyph glyph-name="uni2083" unicode="&#x2083;" horiz-adv-x="600" d="M298 -127 Q354 -127 390 -92.5 Q426 -58 426 -6 Q426 42 402 70 Q378 98 342 104 L403 166 L403 230 L186 230 L186 166 L323 166 L242 89 L277 48 Q286 51 298 51 Q325 51 341.5 35 Q358 19 358 -6 Q358 -31 341 -46.5 Q324 -62 298 -62 Q272 -62 255 -45.5 Q238 -29 237 -4 L174 -22 Q175 -66 209 -96.5 Q243 -127 298 -127 Z " />
<glyph glyph-name="uni2084" unicode="&#x2084;" horiz-adv-x="600" d="M394 -33 L431 -33 L431 25 L394 25 L394 230 L320 230 L169 17 L169 -33 L324 -33 L324 -120 L394 -120 L394 -33 Z M324 136 L324 25 L245 25 L324 136 Z " />
<glyph glyph-name="uni2085" unicode="&#x2085;" horiz-adv-x="600" d="M176 -27 Q178 -68 213 -97.5 Q248 -127 299 -127 Q355 -127 390.5 -93.5 Q426 -60 426 -5 Q426 48 392.5 79.5 Q359 111 305 111 Q282 111 264 103 L269 165 L401 165 L401 230 L210 230 L193 54 L253 33 Q270 51 299 51 Q324 51 341 35.5 Q358 20 358 -5 Q358 -31 341 -46.5 Q324 -62 299 -62 Q274 -62 257.5 -47.5 Q241 -33 240 -8 L176 -27 Z " />
<glyph glyph-name="uni2086" unicode="&#x2086;" horiz-adv-x="600" d="M359 130 Q352 152 340 162.5 Q328 173 306 173 Q274 173 260 151 Q246 129 245 88 Q249 95 267 103.5 Q285 112 311 112 Q361 112 394.5 79.5 Q428 47 428 -6 Q428 -60 392 -93.5 Q356 -127 302 -127 Q236 -127 204 -83 Q172 -39 172 41 Q172 136 203.5 186.5 Q235 237 306 237 Q353 237 381.5 213 Q410 189 420 148 L359 130 Z M302 -63 Q327 -63 343 -47 Q359 -31 359 -6 Q359 19 343.5 34.5 Q328 50 302 50 Q277 50 261 34.5 Q245 19 245 -6 Q245 -30 261 -46.5 Q277 -63 302 -63 Z " />
<glyph glyph-name="uni2087" unicode="&#x2087;" horiz-adv-x="600" d="M185 230 L416 230 L416 166 Q383 114 351.5 31 Q320 -52 310 -120 L241 -120 Q251 -52 280 31.5 Q309 115 339 166 L185 166 L185 230 Z " />
<glyph glyph-name="uni2088" unicode="&#x2088;" horiz-adv-x="600" d="M384 69 Q426 37 426 -15 Q426 -64 390 -95.5 Q354 -127 300 -127 Q247 -127 210.5 -95.5 Q174 -64 174 -15 Q174 11 185 32 Q196 53 216 68 Q187 95 187 136 Q187 180 219.5 208.5 Q252 237 300 237 Q348 237 380.5 208.5 Q413 180 413 136 Q413 95 384 69 Z M254 136 Q254 117 267.5 105.5 Q281 94 300 94 Q319 94 332.5 105.5 Q346 117 346 136 Q346 155 333 166.5 Q320 178 300 178 Q281 178 267.5 166.5 Q254 155 254 136 Z M300 -65 Q324 -65 340.5 -51 Q357 -37 357 -14 Q357 9 340.5 23.5 Q324 38 300 38 Q277 38 260.5 23.5 Q244 9 244 -14 Q244 -37 260.5 -51 Q277 -65 300 -65 Z " />
<glyph glyph-name="uni2089" unicode="&#x2089;" horiz-adv-x="600" d="M241 -20 Q248 -42 260.5 -52.5 Q273 -63 295 -63 Q353 -63 356 23 Q350 15 333 6.5 Q316 -2 290 -2 Q239 -2 205.5 30.5 Q172 63 172 117 Q172 171 208 204 Q244 237 299 237 Q365 237 396.5 193 Q428 149 428 69 Q428 -26 397 -76.5 Q366 -127 295 -127 Q248 -127 219.5 -103 Q191 -79 181 -38 L241 -20 Z M299 173 Q274 173 257.5 157 Q241 141 241 116 Q241 91 257.5 75.5 Q274 60 299 60 Q324 60 340 76 Q356 92 356 116 Q356 140 340 156.5 Q324 173 299 173 Z " />
<glyph glyph-name="uni2070" unicode="&#x2070;" horiz-adv-x="600" d="M301 801 Q365 801 398.5 750.5 Q432 700 432 619 Q432 538 398.5 487.5 Q365 437 301 437 Q236 437 202.5 487 Q169 537 169 619 Q169 700 202.5 750.5 Q236 801 301 801 Z M301 736 Q269 736 253 704.5 Q237 673 237 619 Q237 605 239 585 L337 720 Q323 736 301 736 Z M301 500 Q332 500 347.5 532 Q363 564 363 619 Q363 635 361 657 L261 519 Q277 500 301 500 Z " />
<glyph glyph-name="uni00B9" unicode="&#xb9;" horiz-adv-x="600" d="M416 508 L416 444 L190 444 L190 508 L271 508 L271 717 Q258 709 237.5 702 Q217 695 202 693 L202 761 Q216 764 237.5 774 Q259 784 271 794 L339 794 L339 508 L416 508 Z " />
<glyph glyph-name="uni00B2" unicode="&#xb2;" horiz-adv-x="600" d="M242 674 Q242 703 257.5 720 Q273 737 300 737 Q323 737 337.5 722.5 Q352 708 352 688 Q352 667 340 649 Q328 631 303 609 L186 509 L186 444 L421 444 L421 509 L285 509 L351 565 Q387 596 404 623.5 Q421 651 421 689 Q421 737 386 769 Q351 801 300 801 Q250 801 215.5 771 Q181 741 179 692 L242 674 Z " />
<glyph glyph-name="uni00B3" unicode="&#xb3;" horiz-adv-x="600" d="M298 437 Q354 437 390 471.5 Q426 506 426 558 Q426 606 402 634 Q378 662 342 668 L403 730 L403 794 L186 794 L186 730 L323 730 L242 653 L277 612 Q286 615 298 615 Q325 615 341.5 599 Q358 583 358 558 Q358 533 341 517.5 Q324 502 298 502 Q272 502 255 518.5 Q238 535 237 560 L174 542 Q175 498 209 467.5 Q243 437 298 437 Z " />
<glyph glyph-name="uni2074" unicode="&#x2074;" horiz-adv-x="600" d="M394 531 L431 531 L431 589 L394 589 L394 794 L320 794 L169 581 L169 531 L324 531 L324 444 L394 444 L394 531 Z M324 700 L324 589 L245 589 L324 700 Z " />
<glyph glyph-name="uni2075" unicode="&#x2075;" horiz-adv-x="600" d="M176 537 Q178 496 213 466.5 Q248 437 299 437 Q355 437 390.5 470.5 Q426 504 426 559 Q426 612 392.5 643.5 Q359 675 305 675 Q282 675 264 667 L269 729 L401 729 L401 794 L210 794 L193 618 L253 597 Q270 615 299 615 Q324 615 341 599.5 Q358 584 358 559 Q358 533 341 517.5 Q324 502 299 502 Q274 502 257.5 516.5 Q241 531 240 556 L176 537 Z " />
<glyph glyph-name="uni2076" unicode="&#x2076;" horiz-adv-x="600" d="M359 694 Q352 716 340 726.5 Q328 737 306 737 Q274 737 260 715 Q246 693 245 652 Q249 659 267 667.5 Q285 676 311 676 Q361 676 394.5 643.5 Q428 611 428 558 Q428 504 392 470.5 Q356 437 302 437 Q236 437 204 481 Q172 525 172 605 Q172 700 203.5 750.5 Q235 801 306 801 Q353 801 381.5 777 Q410 753 420 712 L359 694 Z M302 501 Q327 501 343 517 Q359 533 359 558 Q359 583 343.5 598.5 Q328 614 302 614 Q277 614 261 598.5 Q245 583 245 558 Q245 534 261 517.5 Q277 501 302 501 Z " />
<glyph glyph-name="uni2077" unicode="&#x2077;" horiz-adv-x="600" d="M185 794 L416 794 L416 730 Q383 678 351.5 595 Q320 512 310 444 L241 444 Q251 512 280 595.5 Q309 679 339 730 L185 730 L185 794 Z " />
<glyph glyph-name="uni2078" unicode="&#x2078;" horiz-adv-x="600" d="M384 633 Q426 601 426 549 Q426 500 390 468.5 Q354 437 300 437 Q247 437 210.5 468.5 Q174 500 174 549 Q174 575 185 596 Q196 617 216 632 Q187 659 187 700 Q187 744 219.5 772.5 Q252 801 300 801 Q348 801 380.5 772.5 Q413 744 413 700 Q413 659 384 633 Z M254 700 Q254 681 267.5 669.5 Q281 658 300 658 Q319 658 332.5 669.5 Q346 681 346 700 Q346 719 333 730.5 Q320 742 300 742 Q281 742 267.5 730.5 Q254 719 254 700 Z M300 499 Q324 499 340.5 513 Q357 527 357 550 Q357 573 340.5 587.5 Q324 602 300 602 Q277 602 260.5 587.5 Q244 573 244 550 Q244 527 260.5 513 Q277 499 300 499 Z " />
<glyph glyph-name="uni2079" unicode="&#x2079;" horiz-adv-x="600" d="M241 544 Q248 522 260.5 511.5 Q273 501 295 501 Q353 501 356 587 Q350 579 333 570.5 Q316 562 290 562 Q239 562 205.5 594.5 Q172 627 172 681 Q172 735 208 768 Q244 801 299 801 Q365 801 396.5 757 Q428 713 428 633 Q428 538 397 487.5 Q366 437 295 437 Q248 437 219.5 461 Q191 485 181 526 L241 544 Z M299 737 Q274 737 257.5 721 Q241 705 241 680 Q241 655 257.5 639.5 Q274 624 299 624 Q324 624 340 640 Q356 656 356 680 Q356 704 340 720.5 Q324 737 299 737 Z " />
<glyph glyph-name="fraction" unicode="&#x2044;" horiz-adv-x="600" d="M537 596 L584 541 L63 104 L16 161 L537 596 Z " />
<glyph glyph-name="onehalf" unicode="&#xbd;" horiz-adv-x="600" d="M11 441 L85 441 L85 631 Q74 623 55 617 Q36 611 22 609 L22 671 Q35 673 54.5 682 Q74 691 85 701 L147 701 L147 441 L217 441 L217 383 L11 383 L11 441 Z M583 542 L63 106 L18 161 L538 594 L583 542 Z M564 222 Q564 187 549 162.5 Q534 138 501 110 L441 59 L564 59 L564 0 L351 0 L351 59 L457 150 Q479 170 490.5 186 Q502 202 502 221 Q502 240 488.5 253 Q475 266 454 266 Q430 266 416 250.5 Q402 235 402 209 L344 225 Q346 269 377 296.5 Q408 324 454 324 Q500 324 532 295 Q564 266 564 222 Z " />
<glyph glyph-name="uni2153" unicode="&#x2153;" horiz-adv-x="600" d="M20 441 L94 441 L94 631 Q83 623 64 617 Q45 611 31 609 L31 671 Q44 673 63.5 682 Q83 691 94 701 L156 701 L156 441 L226 441 L226 383 L20 383 L20 441 Z M573 538 L65 111 L22 164 L530 588 L573 538 Z M499 203 Q532 198 554 172.5 Q576 147 576 103 Q576 56 543 25 Q510 -6 459 -6 Q409 -6 378.5 21.5 Q348 49 347 89 L404 105 Q405 83 420 68 Q435 53 459 53 Q483 53 498.5 67 Q514 81 514 103 Q514 126 499 140.5 Q484 155 459 155 Q449 155 440 152 L409 190 L482 260 L358 260 L358 318 L555 318 L555 260 L499 203 Z " />
<glyph glyph-name="uni2154" unicode="&#x2154;" horiz-adv-x="600" d="M81 592 Q81 618 95 633.5 Q109 649 133 649 Q154 649 167.5 636 Q181 623 181 604 Q181 585 169.5 569 Q158 553 136 533 L30 442 L30 383 L243 383 L243 442 L120 442 L180 493 Q213 521 228 545.5 Q243 570 243 605 Q243 649 211 678 Q179 707 133 707 Q87 707 56 679.5 Q25 652 23 608 L81 592 Z M536 588 L579 538 L71 111 L28 164 L536 588 Z M457 -6 Q508 -6 541 25 Q574 56 574 103 Q574 147 552 172.5 Q530 198 497 203 L553 260 L553 318 L356 318 L356 260 L480 260 L407 190 L438 152 Q447 155 457 155 Q482 155 497 140.5 Q512 126 512 103 Q512 81 496.5 67 Q481 53 457 53 Q433 53 418 68 Q403 83 402 105 L345 89 Q346 49 376.5 21.5 Q407 -6 457 -6 Z " />
<glyph glyph-name="onequarter" unicode="&#xbc;" horiz-adv-x="600" d="M20 441 L94 441 L94 631 Q83 623 64 617 Q45 611 31 609 L31 671 Q44 673 63.5 682 Q83 691 94 701 L156 701 L156 441 L226 441 L226 383 L20 383 L20 441 Z M577 538 L69 111 L25 164 L533 588 L577 538 Z M524 132 L558 132 L558 79 L524 79 L524 0 L461 0 L461 79 L320 79 L320 124 L457 317 L524 317 L524 132 Z M461 232 L389 132 L461 132 L461 232 Z " />
<glyph glyph-name="threequarters" unicode="&#xbe;" horiz-adv-x="600" d="M148 377 Q199 377 232 408 Q265 439 265 486 Q265 530 243 555.5 Q221 581 188 586 L244 643 L244 701 L47 701 L47 643 L171 643 L98 573 L129 535 Q138 538 148 538 Q173 538 188 523.5 Q203 509 203 486 Q203 464 187.5 450 Q172 436 148 436 Q124 436 109 451 Q94 466 93 488 L36 472 Q37 432 67.5 404.5 Q98 377 148 377 Z M532 588 L576 538 L68 111 L24 164 L532 588 Z M491 79 L524 79 L524 132 L491 132 L491 318 L423 318 L286 124 L286 79 L427 79 L427 0 L491 0 L491 79 Z M427 232 L427 132 L355 132 L427 232 Z " />
<glyph glyph-name="asterisk" unicode="&#x2a;" horiz-adv-x="600" d="M360 538 L436 433 L376 389 L300 493 L224 389 L164 433 L240 538 L118 577 L140 647 L263 607 L263 736 L337 736 L337 609 L459 647 L482 577 L360 538 Z " />
<glyph glyph-name="backslash" unicode="&#x5c;" horiz-adv-x="600" d="M116 700 L215 700 L484 0 L384 0 L116 700 Z " />
<glyph glyph-name="middot" unicode="&#xb7;" horiz-adv-x="600" d="M233 300 Q233 328 253 347.5 Q273 367 301 367 Q329 367 348 347.5 Q367 328 367 300 Q367 272 348 252.5 Q329 233 301 233 Q273 233 253 252.5 Q233 272 233 300 Z " />
<glyph glyph-name="bullet" unicode="&#x2022;" horiz-adv-x="600" d="M205 300 Q205 339 233 367 Q261 395 301 395 Q339 395 367 367 Q395 339 395 300 Q395 260 367.5 232.5 Q340 205 301 205 Q260 205 232.5 232.5 Q205 260 205 300 Z " />
<glyph glyph-name="colon" unicode="&#x3a;" horiz-adv-x="600" d="M233 362 Q233 389 252.5 408.5 Q272 428 300 428 Q328 428 347.5 408.5 Q367 389 367 362 Q367 334 347.5 314 Q328 294 300 294 Q272 294 252.5 314 Q233 334 233 362 Z M233 60 Q233 88 252.5 107.5 Q272 127 300 127 Q328 127 347.5 107.5 Q367 88 367 60 Q367 32 347.5 12.5 Q328 -7 300 -7 Q272 -7 252.5 12.5 Q233 32 233 60 Z " />
<glyph glyph-name="comma" unicode="&#x2c;" horiz-adv-x="600" d="M243 -98 Q260 -76 271 -48.5 Q282 -21 283 -2 Q260 6 246.5 22.5 Q233 39 233 61 Q233 88 251.5 107 Q270 126 298 126 Q328 126 347.5 106 Q367 86 367 49 Q367 11 346 -40.5 Q325 -92 286 -130 L243 -98 Z " />
<glyph glyph-name="ellipsis" unicode="&#x2026;" horiz-adv-x="600" d="M43 60 Q43 88 62.5 107.5 Q82 127 110 127 Q138 127 157.5 107.5 Q177 88 177 60 Q177 33 157.5 13 Q138 -7 110 -7 Q82 -7 62.5 13 Q43 33 43 60 Z M233 60 Q233 88 252.5 107.5 Q272 127 300 127 Q328 127 347.5 107.5 Q367 88 367 60 Q367 33 347.5 13 Q328 -7 300 -7 Q272 -7 252.5 13 Q233 33 233 60 Z M423 60 Q423 88 442.5 107.5 Q462 127 489 127 Q517 127 537 107.5 Q557 88 557 60 Q557 33 537 13 Q517 -7 489 -7 Q462 -7 442.5 13 Q423 33 423 60 Z " />
<glyph glyph-name="exclam" unicode="&#x21;" horiz-adv-x="600" d="M351 700 L351 190 L251 190 L251 700 L351 700 Z M233 61 Q233 87 252.5 107 Q272 127 300 127 Q327 127 347 106.5 Q367 86 367 59 Q367 32 347 12.5 Q327 -7 300 -7 Q272 -7 252.5 13.5 Q233 34 233 61 Z " />
<glyph glyph-name="exclamdown" unicode="&#xa1;" horiz-adv-x="600" d="M232 434 Q232 461 251.5 481.5 Q271 502 299 502 Q326 502 346 482.5 Q366 463 366 436 Q366 409 346 388.5 Q326 368 299 368 Q271 368 251.5 388 Q232 408 232 434 Z M250 305 L350 305 L350 -205 L250 -205 L250 305 Z " />
<glyph glyph-name="numbersign" unicode="&#x23;" horiz-adv-x="600" d="M463 438 L440 262 L536 262 L536 178 L428 178 L404 0 L315 0 L340 178 L215 178 L191 0 L103 0 L127 178 L32 178 L32 262 L139 262 L162 438 L63 438 L63 521 L174 521 L198 700 L286 700 L262 521 L387 521 L412 700 L499 700 L475 521 L568 521 L568 438 L463 438 Z M376 438 L250 438 L227 262 L351 262 L376 438 Z " />
<glyph glyph-name="period" unicode="&#x2e;" horiz-adv-x="600" d="M233 60 Q233 88 252.5 107.5 Q272 127 300 127 Q328 127 347.5 107.5 Q367 88 367 60 Q367 32 347.5 12.5 Q328 -7 300 -7 Q272 -7 252.5 12.5 Q233 32 233 60 Z " />
<glyph glyph-name="question" unicode="&#x3f;" horiz-adv-x="600" d="M299 714 Q366 714 418.5 687 Q471 660 499.5 611.5 Q528 563 528 502 Q528 419 483 357.5 Q438 296 353 275 L353 186 L253 186 L253 349 L270 349 Q345 349 387 391 Q429 433 429 498 Q429 552 392.5 587 Q356 622 299 622 Q236 622 199.5 585 Q163 548 162 486 L72 511 Q75 570 105 616.5 Q135 663 185.5 688.5 Q236 714 299 714 Z M304 127 Q332 127 351.5 107.5 Q371 88 371 60 Q371 32 351.5 12.5 Q332 -7 304 -7 Q276 -7 256.5 12.5 Q237 32 237 60 Q237 88 256.5 107.5 Q276 127 304 127 Z " />
<glyph glyph-name="questiondown" unicode="&#xbf;" horiz-adv-x="600" d="M296 368 Q268 368 248.5 387.5 Q229 407 229 435 Q229 463 248.5 482.5 Q268 502 296 502 Q324 502 343.5 482.5 Q363 463 363 435 Q363 407 343.5 387.5 Q324 368 296 368 Z M528 -16 Q525 -75 495 -121.5 Q465 -168 414.5 -193.5 Q364 -219 301 -219 Q234 -219 181.5 -192 Q129 -165 100.5 -116.5 Q72 -68 72 -7 Q72 76 117 137.5 Q162 199 247 220 L247 309 L347 309 L347 146 L330 146 Q255 146 213 104 Q171 62 171 -3 Q171 -57 207.5 -92 Q244 -127 301 -127 Q364 -127 400.5 -90 Q437 -53 438 9 L528 -16 Z " />
<glyph glyph-name="quotedbl" unicode="&#x22;" horiz-adv-x="600" d="M433 736 L433 513 L335 513 L335 736 L433 736 Z M265 736 L265 513 L167 513 L167 736 L265 736 Z " />
<glyph glyph-name="quotesingle" unicode="&#x27;" horiz-adv-x="600" d="M349 736 L349 513 L251 513 L251 736 L349 736 Z " />
<glyph glyph-name="semicolon" unicode="&#x3b;" horiz-adv-x="600" d="M233 361 Q233 390 252.5 409 Q272 428 300 428 Q328 428 347.5 408.5 Q367 389 367 361 Q367 333 347.5 313.5 Q328 294 300 294 Q272 294 252.5 313.5 Q233 333 233 361 Z M243 -101 Q260 -79 271 -51.5 Q282 -24 283 -5 Q260 3 246.5 19.5 Q233 36 233 58 Q233 85 251.5 104 Q270 123 298 123 Q328 123 347.5 103 Q367 83 367 46 Q367 8 346 -43.5 Q325 -95 286 -133 L243 -101 Z " />
<glyph glyph-name="slash" unicode="&#x2f;" horiz-adv-x="600" d="M116 0 L385 700 L484 700 L216 0 L116 0 Z " />
<glyph glyph-name="underscore" unicode="&#x5f;" horiz-adv-x="600" d="M50 -50 L550 -50 L550 -136 L50 -136 L50 -50 Z " />
<glyph glyph-name="braceleft" unicode="&#x7b;" horiz-adv-x="600" d="M196 349 Q250 349 250 405 L250 661 Q250 712 282.5 740.5 Q315 769 358 769 L403 769 L403 681 L381 681 Q365 681 355.5 667.5 Q346 654 346 627 L346 378 Q346 329 315 300 Q346 274 346 224 L346 -28 Q346 -55 355.5 -69 Q365 -83 381 -83 L403 -83 L403 -171 L358 -171 Q314 -171 282 -142 Q250 -113 250 -62 L250 198 Q250 255 196 255 L196 349 Z " />
<glyph glyph-name="braceright" unicode="&#x7d;" horiz-adv-x="600" d="M404 255 Q379 255 364.5 241 Q350 227 350 198 L350 -62 Q350 -114 318 -142.5 Q286 -171 242 -171 L197 -171 L197 -83 L219 -83 Q235 -83 244.5 -69.5 Q254 -56 254 -28 L254 224 Q254 272 285 300 Q254 328 254 377 L254 626 Q254 654 244.5 667.5 Q235 681 219 681 L197 681 L197 769 L242 769 Q285 769 317.5 740.5 Q350 712 350 660 L350 405 Q350 376 364.5 362 Q379 348 404 348 L404 255 Z " />
<glyph glyph-name="bracketleft" unicode="&#x5b;" horiz-adv-x="600" d="M380 769 L380 681 L313 681 L313 -83 L380 -83 L380 -171 L221 -171 L221 769 L380 769 Z " />
<glyph glyph-name="bracketright" unicode="&#x5d;" horiz-adv-x="600" d="M380 -171 L221 -171 L221 -83 L288 -83 L288 681 L221 681 L221 769 L380 769 L380 -171 Z " />
<glyph glyph-name="parenleft" unicode="&#x28;" horiz-adv-x="600" d="M325 -171 Q195 36 195 300 Q195 465 235.5 579 Q276 693 326 769 L404 718 Q357 652 324 543.5 Q291 435 291 298 Q291 164 324.5 56.5 Q358 -51 404 -119 L325 -171 Z " />
<glyph glyph-name="parenright" unicode="&#x29;" horiz-adv-x="600" d="M196 -119 Q242 -51 275.5 56.5 Q309 164 309 298 Q309 435 276 543.5 Q243 652 196 718 L274 769 Q324 693 364.5 579 Q405 465 405 300 Q405 36 275 -171 L196 -119 Z " />
<glyph glyph-name="emdash" unicode="&#x2014;" horiz-adv-x="600" d="M-67 345 L667 345 L667 255 L-67 255 L-67 345 Z " />
<glyph glyph-name="endash" unicode="&#x2013;" horiz-adv-x="600" d="M70 345 L530 345 L530 255 L70 255 L70 345 Z " />
<glyph glyph-name="hyphen" unicode="&#x2d;" horiz-adv-x="600" d="M168 345 L432 345 L432 255 L168 255 L168 345 Z " />
<glyph glyph-name="uni00AD" unicode="&#xad;" horiz-adv-x="600" d="M168 345 L432 345 L432 255 L168 255 L168 345 Z " />
<glyph glyph-name="guillemotleft" unicode="&#xab;" horiz-adv-x="600" d="M295 485 L202 301 L295 115 L194 115 L101 301 L194 485 L295 485 Z M406 301 L499 115 L398 115 L305 301 L398 485 L499 485 L406 301 Z " />
<glyph glyph-name="guillemotright" unicode="&#xbb;" horiz-adv-x="600" d="M499 301 L406 115 L305 115 L398 301 L305 485 L406 485 L499 301 Z M295 301 L202 115 L101 115 L194 301 L101 485 L202 485 L295 301 Z " />
<glyph glyph-name="guilsinglleft" unicode="&#x2039;" horiz-adv-x="600" d="M304 301 L397 115 L296 115 L203 301 L296 485 L397 485 L304 301 Z " />
<glyph glyph-name="guilsinglright" unicode="&#x203a;" horiz-adv-x="600" d="M397 301 L304 115 L203 115 L296 301 L203 485 L304 485 L397 301 Z " />
<glyph glyph-name="quotedblbase" unicode="&#x201e;" horiz-adv-x="600" d="M147 -76 Q164 -54 175 -26.5 Q186 1 187 20 Q164 28 150.5 44.5 Q137 61 137 83 Q137 110 155.5 129 Q174 148 202 148 Q232 148 251.5 128 Q271 108 271 71 Q271 33 250 -18.5 Q229 -70 190 -108 L147 -76 Z M333 -76 Q350 -54 361 -26.5 Q372 1 373 20 Q350 28 336.5 44.5 Q323 61 323 83 Q323 110 341.5 129 Q360 148 388 148 Q418 148 437.5 128 Q457 108 457 71 Q457 33 436 -18.5 Q415 -70 376 -108 L333 -76 Z " />
<glyph glyph-name="quotedblleft" unicode="&#x201c;" horiz-adv-x="600" d="M266 733 Q249 711 238 683.5 Q227 656 226 637 Q249 629 262.5 612.5 Q276 596 276 574 Q276 547 257.5 528 Q239 509 211 509 Q181 509 161.5 529 Q142 549 142 586 Q142 624 163 675.5 Q184 727 223 765 L266 733 Z M452 733 Q435 711 424 683.5 Q413 656 412 637 Q435 629 448.5 612.5 Q462 596 462 574 Q462 547 443.5 528 Q425 509 397 509 Q367 509 347.5 529 Q328 549 328 586 Q328 624 349 675.5 Q370 727 409 765 L452 733 Z " />
<glyph glyph-name="quotedblright" unicode="&#x201d;" horiz-adv-x="600" d="M148 539 Q165 561 176 588.5 Q187 616 188 635 Q165 643 151.5 659.5 Q138 676 138 698 Q138 725 156.5 744 Q175 763 203 763 Q233 763 252.5 743 Q272 723 272 686 Q272 648 251 596.5 Q230 545 191 507 L148 539 Z M334 539 Q351 561 362 588.5 Q373 616 374 635 Q351 643 337.5 659.5 Q324 676 324 698 Q324 725 342.5 744 Q361 763 389 763 Q419 763 438.5 743 Q458 723 458 686 Q458 648 437 596.5 Q416 545 377 507 L334 539 Z " />
<glyph glyph-name="quoteleft" unicode="&#x2018;" horiz-adv-x="600" d="M358 733 Q341 711 330 683.5 Q319 656 318 637 Q341 629 354.5 612.5 Q368 596 368 574 Q368 547 349.5 528 Q331 509 303 509 Q273 509 253.5 529 Q234 549 234 586 Q234 624 255 675.5 Q276 727 315 765 L358 733 Z " />
<glyph glyph-name="quoteright" unicode="&#x2019;" horiz-adv-x="600" d="M243 538 Q260 560 271 587.5 Q282 615 283 634 Q260 642 246.5 658.5 Q233 675 233 697 Q233 724 251.5 743 Q270 762 298 762 Q328 762 347.5 742 Q367 722 367 685 Q367 647 346 595.5 Q325 544 286 506 L243 538 Z " />
<glyph glyph-name="quotesinglbase" unicode="&#x201a;" horiz-adv-x="600" d="M242 -98 Q259 -76 270 -48.5 Q281 -21 282 -2 Q259 6 245.5 22.5 Q232 39 232 61 Q232 88 250.5 107 Q269 126 297 126 Q327 126 346.5 106 Q366 86 366 49 Q366 11 345 -40.5 Q324 -92 285 -130 L242 -98 Z " />
<glyph glyph-name="uni00A0" unicode="&#xa0;" horiz-adv-x="600" d="" />
<glyph glyph-name="cent" unicode="&#xa2;" horiz-adv-x="600" d="M317 176 Q363 176 397 201 Q431 226 446 269 L535 239 Q513 180 468 140 Q423 100 360 90 L360 7 L261 7 L261 92 Q201 104 156.5 141 Q112 178 88 232 Q64 286 64 347 Q64 409 88 463 Q112 517 156.5 554 Q201 591 261 603 L261 690 L360 690 L360 606 Q426 595 471.5 554.5 Q517 514 536 455 L447 425 Q432 469 398 494 Q364 519 317 519 Q272 519 237 497 Q202 475 182 435.5 Q162 396 162 347 Q162 298 182 259 Q202 220 237 198 Q272 176 317 176 Z " />
<glyph glyph-name="currency" unicode="&#xa4;" horiz-adv-x="600" d="M522 340 Q522 274 485 217 L554 147 L491 85 L422 153 Q368 118 301 118 Q231 118 179 153 L110 85 L47 147 L116 217 Q81 272 81 340 Q81 406 116 459 L47 528 L110 591 L178 524 Q233 561 301 561 Q371 561 425 526 L491 591 L554 528 L488 461 Q522 407 522 340 Z M301 206 Q358 206 394 243.5 Q430 281 430 340 Q430 399 394.5 436 Q359 473 301 473 Q244 473 208.5 436 Q173 399 173 340 Q173 281 209 243.5 Q245 206 301 206 Z " />
<glyph glyph-name="dollar" unicode="&#x24;" horiz-adv-x="600" d="M550 193 Q550 111 494.5 56.5 Q439 2 352 -10 L352 -74 L262 -74 L262 -10 Q181 0 127.5 48.5 Q74 97 51 180 L144 207 Q159 154 187.5 122.5 Q216 91 262 81 L262 319 Q168 343 120 389.5 Q72 436 72 513 Q72 593 124.5 647 Q177 701 262 712 L262 777 L352 777 L352 711 Q423 700 469.5 653.5 Q516 607 536 530 L444 504 Q432 550 410 579 Q388 608 352 619 L352 398 Q454 372 502 324 Q550 276 550 193 Z M171 513 Q171 477 193.5 455.5 Q216 434 262 420 L262 621 Q219 611 195 583.5 Q171 556 171 513 Z M352 81 Q397 90 424 118.5 Q451 147 451 193 Q451 229 430.5 254.5 Q410 280 352 298 L352 81 Z " />
<glyph glyph-name="Euro" unicode="&#x20ac;" horiz-adv-x="600" d="M334 78 Q397 78 432.5 116 Q468 154 485 221 L572 190 Q517 -14 328 -14 Q236 -14 171.5 49 Q107 112 85 226 L24 226 L24 306 L74 306 Q73 320 73 350 Q73 380 74 394 L24 394 L24 474 L85 474 Q110 586 176 650 Q242 714 335 714 Q426 714 487.5 657.5 Q549 601 575 497 L487 465 Q469 542 432.5 582 Q396 622 335 622 Q279 622 240 583.5 Q201 545 183 474 L383 474 L360 394 L171 394 Q169 366 169 350 Q169 320 170 306 L336 306 L313 226 L183 226 Q200 155 239.5 116.5 Q279 78 334 78 Z " />
<glyph glyph-name="florin" unicode="&#x192;" horiz-adv-x="600" d="M354 495 L466 495 L466 407 L354 407 L354 -33 Q354 -96 316.5 -133.5 Q279 -171 221 -171 Q173 -171 145.5 -157.5 Q118 -144 106 -131 L153 -62 Q171 -80 202 -80 Q254 -80 254 -22 L254 407 L145 407 L145 495 L254 495 L254 631 Q254 694 291 731.5 Q328 769 386 769 Q461 769 501 729 L454 660 Q436 678 405 678 Q354 678 354 620 L354 495 Z " />
<glyph glyph-name="sterling" unicode="&#xa3;" horiz-adv-x="600" d="M234 90 L537 90 L537 0 L61 0 L61 90 L134 90 L134 303 L60 303 L60 391 L134 391 L134 496 Q134 602 191.5 658 Q249 714 341 714 Q427 714 478.5 670.5 Q530 627 540 557 L450 539 Q443 573 416 597.5 Q389 622 341 622 Q293 622 263.5 590 Q234 558 234 500 L234 391 L464 391 L464 303 L234 303 L234 90 Z " />
<glyph glyph-name="yen" unicode="&#xa5;" horiz-adv-x="600" d="M393 358 L521 358 L521 276 L350 276 L350 204 L521 204 L521 122 L350 122 L350 0 L250 0 L250 122 L79 122 L79 204 L250 204 L250 276 L79 276 L79 358 L207 358 L23 700 L132 700 L300 386 L468 700 L577 700 L393 358 Z " />
<glyph glyph-name="uni2219" unicode="&#x2219;" horiz-adv-x="600" d="M232 317 Q232 345 252 364.5 Q272 384 300 384 Q328 384 347 364.5 Q366 345 366 317 Q366 289 347 269.5 Q328 250 300 250 Q272 250 252 269.5 Q232 289 232 317 Z " />
<glyph glyph-name="plus" unicode="&#x2b;" horiz-adv-x="600" d="M254 272 L50 272 L50 362 L254 362 L254 567 L346 567 L346 362 L550 362 L550 272 L346 272 L346 67 L254 67 L254 272 Z " />
<glyph glyph-name="minus" unicode="&#x2212;" horiz-adv-x="600" d="M50 362 L550 362 L550 272 L50 272 L50 362 Z " />
<glyph glyph-name="multiply" unicode="&#xd7;" horiz-adv-x="600" d="M353 317 L524 146 L461 83 L290 254 L119 83 L56 146 L227 317 L56 487 L119 550 L290 379 L461 550 L524 487 L353 317 Z " />
<glyph glyph-name="divide" unicode="&#xf7;" horiz-adv-x="600" d="M233 530 Q233 558 252.5 577.5 Q272 597 300 597 Q328 597 347.5 577.5 Q367 558 367 530 Q367 502 347.5 482.5 Q328 463 300 463 Q272 463 252.5 482.5 Q233 502 233 530 Z M40 360 L560 360 L560 274 L40 274 L40 360 Z M233 117 Q233 145 252.5 164.5 Q272 184 300 184 Q328 184 347.5 164.5 Q367 145 367 117 Q367 89 347.5 69.5 Q328 50 300 50 Q272 50 252.5 69.5 Q233 89 233 117 Z " />
<glyph glyph-name="equal" unicode="&#x3d;" horiz-adv-x="600" d="M50 477 L550 477 L550 387 L50 387 L50 477 Z M50 245 L550 245 L550 155 L50 155 L50 245 Z " />
<glyph glyph-name="notequal" unicode="&#x2260;" horiz-adv-x="600" d="M383 387 L317 245 L550 245 L550 155 L275 155 L216 28 L134 67 L175 155 L50 155 L50 245 L217 245 L283 387 L50 387 L50 477 L325 477 L384 604 L466 565 L425 477 L550 477 L550 387 L383 387 Z " />
<glyph glyph-name="greater" unicode="&#x3e;" horiz-adv-x="600" d="M550 367 L550 267 L50 58 L50 158 L430 317 L50 476 L50 576 L550 367 Z " />
<glyph glyph-name="less" unicode="&#x3c;" horiz-adv-x="600" d="M550 476 L170 317 L550 158 L550 58 L50 267 L50 367 L550 576 L550 476 Z " />
<glyph glyph-name="greaterequal" unicode="&#x2265;" horiz-adv-x="600" d="M549 356 L49 150 L49 250 L427 406 L49 561 L49 662 L549 456 L549 356 Z M551 91 L551 1 L51 1 L51 91 L551 91 Z " />
<glyph glyph-name="lessequal" unicode="&#x2264;" horiz-adv-x="600" d="M551 561 L172 406 L551 250 L551 150 L50 356 L50 456 L551 662 L551 561 Z M50 91 L550 91 L550 1 L50 1 L50 91 Z " />
<glyph glyph-name="plusminus" unicode="&#xb1;" horiz-adv-x="600" d="M253 371 L49 371 L49 461 L253 461 L253 666 L345 666 L345 461 L549 461 L549 371 L345 371 L345 166 L253 166 L253 371 Z M51 91 L551 91 L551 2 L51 2 L51 91 Z " />
<glyph glyph-name="approxequal" unicode="&#x2248;" horiz-adv-x="600" d="M544 218 Q514 173 479.5 152 Q445 131 402 131 Q373 131 345 138.5 Q317 146 277 160 Q247 172 225.5 178 Q204 184 185 184 Q161 184 141.5 172 Q122 160 102 132 L39 185 Q69 231 103 251.5 Q137 272 180 272 Q210 272 239 264 Q268 256 304 242 Q339 229 358.5 223.5 Q378 218 398 218 Q420 218 438 230 Q456 242 476 270 L544 218 Z M544 446 Q514 401 479.5 380 Q445 359 402 359 Q373 359 345 366.5 Q317 374 277 388 Q247 400 225.5 406 Q204 412 185 412 Q161 412 141.5 400 Q122 388 102 360 L39 413 Q69 459 103 479.5 Q137 500 180 500 Q210 500 239 492 Q268 484 304 470 Q339 457 358.5 451.5 Q378 446 398 446 Q420 446 438 458 Q456 470 476 498 L544 446 Z " />
<glyph glyph-name="asciitilde" unicode="&#x7e;" horiz-adv-x="600" d="M553 334 Q523 289 488.5 268 Q454 247 411 247 Q382 247 354 254.5 Q326 262 286 276 Q256 288 234.5 294 Q213 300 194 300 Q170 300 150.5 288 Q131 276 111 248 L48 301 Q78 347 112 367.5 Q146 388 189 388 Q219 388 248 380 Q277 372 313 358 Q348 345 367.5 339.5 Q387 334 407 334 Q429 334 447 346 Q465 358 485 386 L553 334 Z " />
<glyph glyph-name="logicalnot" unicode="&#xac;" horiz-adv-x="600" d="M552 197 L455 197 L455 346 L49 346 L49 436 L552 436 L552 197 Z " />
<glyph glyph-name="infinity" unicode="&#x221e;" horiz-adv-x="600" d="M434 182 Q491 182 528.5 220.5 Q566 259 566 317 Q566 375 530 413.5 Q494 452 436 452 Q398 452 366 433 Q334 414 300 373 Q237 452 167 452 Q110 452 72 413.5 Q34 375 34 317 Q34 257 70.5 219.5 Q107 182 166 182 Q202 182 234.5 200.5 Q267 219 300 261 Q334 220 365 201 Q396 182 434 182 Z M167 376 Q191 376 210.5 361.5 Q230 347 256 317 Q231 287 211.5 272.5 Q192 258 167 258 Q144 258 128 275 Q112 292 112 317 Q112 342 128 359 Q144 376 167 376 Z M345 317 Q368 348 389.5 362 Q411 376 434 376 Q457 376 473 359.5 Q489 343 489 318 Q489 292 473 275 Q457 258 434 258 Q412 258 390.5 272 Q369 286 345 317 Z " />
<glyph glyph-name="emptyset" unicode="&#x2205;" horiz-adv-x="600" d="M502 462 Q549 398 549 317 Q549 250 515.5 192.5 Q482 135 424.5 101.5 Q367 68 300 68 Q220 68 156 115 L106 65 L50 122 L99 171 Q52 237 52 317 Q52 384 85.5 441.5 Q119 499 176 532.5 Q233 566 300 566 Q380 566 446 519 L495 568 L551 511 L502 462 Z M135 317 Q135 269 157 230 L388 461 Q348 485 300 485 Q253 485 215.5 463 Q178 441 156.5 402.5 Q135 364 135 317 Z M466 317 Q466 365 444 404 L213 172 Q251 149 300 149 Q347 149 385 171 Q423 193 444.5 231.5 Q466 270 466 317 Z " />
<glyph glyph-name="integral" unicode="&#x222b;" horiz-adv-x="600" d="M383 769 Q458 769 498 729 L451 660 Q433 678 402 678 Q351 678 351 620 L351 -33 Q351 -96 313.5 -133.5 Q276 -171 218 -171 Q170 -171 142.5 -157.5 Q115 -144 103 -131 L150 -62 Q168 -80 199 -80 Q251 -80 251 -22 L251 631 Q251 694 288 731.5 Q325 769 383 769 Z " />
<glyph glyph-name="product" unicode="&#x220f;" horiz-adv-x="600" d="M529 0 L430 0 L430 608 L170 608 L170 0 L72 0 L72 700 L529 700 L529 0 Z " />
<glyph glyph-name="summation" unicode="&#x2211;" horiz-adv-x="600" d="M537 610 L199 610 L437 350 L199 90 L537 90 L537 0 L63 0 L63 79 L309 350 L63 621 L63 700 L537 700 L537 610 Z " />
<glyph glyph-name="radical" unicode="&#x221a;" horiz-adv-x="600" d="M579 700 L312 0 L204 0 L91 305 L21 305 L21 395 L150 395 L258 111 L474 700 L579 700 Z " />
<glyph glyph-name="partialdiff" unicode="&#x2202;" horiz-adv-x="600" d="M71 542 Q92 621 146.5 667.5 Q201 714 290 714 Q429 714 489 610 Q549 506 549 312 Q549 155 485 70.5 Q421 -14 297 -14 Q227 -14 171.5 15.5 Q116 45 84 99 Q52 153 52 222 Q52 292 83 345 Q114 398 167.5 427 Q221 456 288 456 Q342 456 383 435 Q424 414 444 389 Q440 501 406 561.5 Q372 622 290 622 Q190 622 159 515 L71 542 Z M297 78 Q339 78 372 97.5 Q405 117 423 150 Q441 183 441 223 Q441 286 400.5 326 Q360 366 297 366 Q232 366 192 326.5 Q152 287 152 223 Q152 159 192.5 118.5 Q233 78 297 78 Z " />
<glyph glyph-name="uni00B5" unicode="&#xb5;" horiz-adv-x="600" d="M513 495 L513 0 L432 0 L417 63 Q360 -14 260 -14 Q216 -14 184 -1 L184 -205 L86 -205 L86 495 L184 495 L184 201 Q184 133 212 105.5 Q240 78 290 78 Q343 78 379 115.5 Q415 153 415 219 L415 495 L513 495 Z " />
<glyph glyph-name="percent" unicode="&#x25;" horiz-adv-x="600" d="M184 412 Q143 412 109 431.5 Q75 451 55 485 Q35 519 35 560 Q35 600 55 634 Q75 668 108.5 687.5 Q142 707 182 707 Q222 707 256 687.5 Q290 668 310 634.5 Q330 601 330 560 Q330 519 310.5 485 Q291 451 257.5 431.5 Q224 412 184 412 Z M184 480 Q216 480 238.5 503 Q261 526 261 560 Q261 594 238 616.5 Q215 639 182 639 Q150 639 127 616 Q104 593 104 560 Q104 526 127.5 503 Q151 480 184 480 Z M537 596 L584 541 L63 104 L16 161 L537 596 Z M415 -7 Q374 -7 340.5 12.5 Q307 32 287 66 Q267 100 267 141 Q267 182 287 215.5 Q307 249 341 268.5 Q375 288 415 288 Q455 288 488.5 268.5 Q522 249 542 215.5 Q562 182 562 141 Q562 100 542 66 Q522 32 488.5 12.5 Q455 -7 415 -7 Z M416 61 Q448 61 471 84.5 Q494 108 494 141 Q494 174 471 197 Q448 220 415 220 Q382 220 359 197 Q336 174 336 141 Q336 107 359.5 84 Q383 61 416 61 Z " />
<glyph glyph-name="perthousand" unicode="&#x2030;" horiz-adv-x="600" d="M173 428 Q135 428 103 446.5 Q71 465 52 497 Q33 529 33 568 Q33 606 51.5 638 Q70 670 102 688.5 Q134 707 172 707 Q210 707 242 688.5 Q274 670 293 638.5 Q312 607 312 568 Q312 529 293.5 497 Q275 465 243 446.5 Q211 428 173 428 Z M173 493 Q204 493 225.5 515 Q247 537 247 568 Q247 600 225.5 621 Q204 642 172 642 Q141 642 120 620.5 Q99 599 99 568 Q99 536 120.5 514.5 Q142 493 173 493 Z M31 230 L529 584 L566 532 L68 175 L31 230 Z M227 -8 Q184 -8 153.5 22.5 Q123 53 123 97 Q123 142 153.5 172 Q184 202 227 202 Q271 202 302 172 Q333 142 333 97 Q333 53 302 22.5 Q271 -8 227 -8 Z M463 -8 Q420 -8 389.5 22.5 Q359 53 359 97 Q359 142 389.5 172 Q420 202 463 202 Q507 202 537.5 172 Q568 142 568 97 Q568 53 537.5 22.5 Q507 -8 463 -8 Z M228 47 Q249 47 264 61.5 Q279 76 279 97 Q279 118 264 133 Q249 148 228 148 Q206 148 192 133.5 Q178 119 178 97 Q178 76 192 61.5 Q206 47 228 47 Z M464 47 Q484 47 499 61.5 Q514 76 514 97 Q514 119 499.5 133.5 Q485 148 464 148 Q442 148 427.5 133.5 Q413 119 413 97 Q413 76 427.5 61.5 Q442 47 464 47 Z " />
<glyph glyph-name="arrowup" unicode="&#x2191;" horiz-adv-x="600" d="M511 248 L339 418 L339 30 L259 30 L259 416 L90 247 L33 304 L300 570 L567 304 L511 248 Z " />
<glyph glyph-name="uni2197" unicode="&#x2197;" horiz-adv-x="600" d="M519 507 L519 130 L439 130 L439 369 L160 90 L103 147 L383 427 L143 428 L143 508 L519 507 Z " />
<glyph glyph-name="arrowright" unicode="&#x2192;" horiz-adv-x="600" d="M570 299 L303 33 L247 90 L416 258 L30 258 L30 340 L417 339 L248 510 L304 567 L570 299 Z " />
<glyph glyph-name="uni2198" unicode="&#x2198;" horiz-adv-x="600" d="M508 469 L508 92 L132 91 L132 171 L372 172 L92 452 L149 509 L428 230 L428 469 L508 469 Z " />
<glyph glyph-name="arrowdown" unicode="&#x2193;" horiz-adv-x="600" d="M567 296 L300 30 L33 296 L90 353 L259 184 L259 570 L339 570 L339 182 L511 352 L567 296 Z " />
<glyph glyph-name="uni2199" unicode="&#x2199;" horiz-adv-x="600" d="M228 172 L468 171 L468 91 L92 92 L92 469 L172 469 L172 230 L451 509 L508 452 L228 172 Z " />
<glyph glyph-name="arrowleft" unicode="&#x2190;" horiz-adv-x="600" d="M570 258 L184 258 L353 90 L297 33 L30 299 L296 567 L352 510 L183 339 L570 340 L570 258 Z " />
<glyph glyph-name="uni2196" unicode="&#x2196;" horiz-adv-x="600" d="M451 90 L172 369 L172 130 L92 130 L92 507 L468 508 L468 428 L228 427 L508 147 L451 90 Z " />
<glyph glyph-name="arrowboth" unicode="&#x2194;" horiz-adv-x="600" d="M579 299 L374 94 L323 146 L439 262 L161 262 L277 146 L226 94 L21 299 L225 506 L276 454 L160 336 L440 336 L324 454 L375 506 L579 299 Z " />
<glyph glyph-name="arrowupdn" unicode="&#x2195;" horiz-adv-x="600" d="M454 276 L506 225 L299 21 L94 226 L146 277 L262 161 L262 439 L146 323 L94 374 L299 579 L506 375 L454 324 L336 440 L336 160 L454 276 Z " />
<glyph glyph-name="uni21A9" unicode="&#x21a9;" horiz-adv-x="600" d="M374 635 Q425 634 467 608.5 Q509 583 533 541 Q557 499 557 448 Q557 397 532.5 354.5 Q508 312 465.5 286.5 Q423 261 372 260 L196 260 L315 141 L259 84 L44 299 L258 515 L315 459 L197 339 L372 339 Q416 341 447 372.5 Q478 404 478 448 Q478 491 447.5 522.5 Q417 554 374 555 L374 635 Z " />
<glyph glyph-name="uni21B0" unicode="&#x21b0;" horiz-adv-x="600" d="M551 343 L551 8 L473 8 L473 261 L229 262 L384 106 L328 49 L77 301 L329 553 L385 497 L231 342 L551 343 Z " />
<glyph glyph-name="uni21B1" unicode="&#x21b1;" horiz-adv-x="600" d="M530 301 L279 49 L223 106 L378 262 L134 261 L134 8 L56 8 L56 343 L376 342 L222 497 L278 553 L530 301 Z " />
<glyph glyph-name="uni21B2" unicode="&#x21b2;" horiz-adv-x="600" d="M544 593 L544 258 L224 259 L378 104 L322 48 L70 300 L321 552 L377 495 L222 339 L466 340 L466 593 L544 593 Z " />
<glyph glyph-name="uni21B3" unicode="&#x21b3;" horiz-adv-x="600" d="M537 300 L285 48 L229 104 L383 259 L63 258 L63 593 L141 593 L141 340 L385 339 L230 495 L286 552 L537 300 Z " />
<glyph glyph-name="uni21B4" unicode="&#x21b4;" horiz-adv-x="600" d="M554 323 L302 71 L50 322 L106 378 L262 224 L262 469 L46 469 L46 547 L343 547 L343 225 L497 379 L554 323 Z " />
<glyph glyph-name="uni258A" unicode="&#x258a;" horiz-adv-x="600" d="M525 700 L525 0 L75 0 L75 700 L525 700 Z " />
<glyph glyph-name="uni25D0" unicode="&#x25d0;" horiz-adv-x="600" d="M299 550 Q367 550 424.5 516 Q482 482 516 424.5 Q550 367 550 300 Q550 233 516 175.5 Q482 118 424.5 84 Q367 50 299 50 Q232 50 175 84 Q118 118 84.5 175.5 Q51 233 51 300 Q51 367 84.5 424.5 Q118 482 175 516 Q232 550 299 550 Z M302 104 Q355 105 399 130.5 Q443 156 468.5 200 Q494 244 494 300 Q494 355 468.5 399.5 Q443 444 399 469.5 Q355 495 302 496 L302 104 Z " />
<glyph glyph-name="lozenge" unicode="&#x25ca;" horiz-adv-x="600" d="M552 350 L551 350 L342 1 L232 1 L23 350 L22 350 L22 351 L23 351 L232 700 L342 700 L551 351 L552 351 L552 350 Z M441 351 L287 608 L133 351 L287 93 L441 351 Z " />
<glyph glyph-name="smileface" unicode="&#x263a;" horiz-adv-x="600" d="M300 50 Q368 50 425.5 83.5 Q483 117 516.5 174.5 Q550 232 550 300 Q550 368 516.5 425.5 Q483 483 425.5 516.5 Q368 550 300 550 Q233 550 175.5 516.5 Q118 483 84 425.5 Q50 368 50 300 Q50 232 84 174.5 Q118 117 175.5 83.5 Q233 50 300 50 Z M300 505 Q356 505 403 477.5 Q450 450 478 403 Q506 356 506 300 Q506 244 478 197 Q450 150 403 122.5 Q356 95 300 95 Q244 95 197 122.5 Q150 150 122.5 197 Q95 244 95 300 Q95 356 122.5 403 Q150 450 197 477.5 Q244 505 300 505 Z M265 342 Q265 359 252.5 371.5 Q240 384 223 384 Q206 384 193 371.5 Q180 359 180 342 Q180 325 193 312.5 Q206 300 223 300 Q240 300 252.5 312.5 Q265 325 265 342 Z M420 342 Q420 359 407 371.5 Q394 384 377 384 Q360 384 347.5 371.5 Q335 359 335 342 Q335 325 347.5 312.5 Q360 300 377 300 Q394 300 407 312.5 Q420 325 420 342 Z " />
<glyph glyph-name="at" unicode="&#x40;" horiz-adv-x="600" d="M370 509 Q413 509 451 490 L451 622 L149 622 L149 78 L533 78 L533 0 L67 0 L67 700 L533 700 L533 192 L466 192 L455 212 Q418 189 370 189 Q298 189 253 234 Q208 279 208 351 Q208 422 252.5 465.5 Q297 509 370 509 Z M370 264 Q406 264 428 288 Q450 312 451 347 L451 351 Q450 388 429 411 Q408 434 370 434 Q328 434 307.5 411 Q287 388 287 351 Q287 313 308 288.5 Q329 264 370 264 Z " />
<glyph glyph-name="ampersand" unicode="&#x26;" horiz-adv-x="600" d="M45 204 Q45 261 72.5 307 Q100 353 148 381 Q117 405 100 441 Q83 477 83 519 Q83 575 110.5 619 Q138 663 185.5 688 Q233 713 292 713 Q373 713 424.5 673.5 Q476 634 490 567 L401 545 Q393 583 363.5 605 Q334 627 293 627 Q243 627 210 598 Q177 569 177 521 Q177 473 209.5 444.5 Q242 416 292 416 L404 416 L404 483 L498 483 L498 416 L556 416 L556 334 L498 334 L498 204 Q498 140 469 90 Q440 40 390 12.5 Q340 -15 278 -15 Q211 -15 158 12.5 Q105 40 75 89.5 Q45 139 45 204 Z M145 204 Q145 146 184.5 110.5 Q224 75 279 75 Q332 75 368 110.5 Q404 146 404 204 L404 334 L286 334 Q227 334 186 298.5 Q145 263 145 204 Z " />
<glyph glyph-name="paragraph" unicode="&#xb6;" horiz-adv-x="600" d="M223 324 Q172 324 129 349.5 Q86 375 61 418 Q36 461 36 512 Q36 563 62 606 Q88 649 135 674.5 Q182 700 242 700 L565 700 L565 622 L484 622 L484 -205 L396 -205 L396 622 L311 622 L311 -205 L223 -205 L223 324 Z " />
<glyph glyph-name="section" unicode="&#xa7;" horiz-adv-x="600" d="M453 244 Q501 207 501 139 Q501 95 475.5 60 Q450 25 405 5.5 Q360 -14 304 -14 Q225 -14 171 23 Q117 60 99 126 L183 153 Q210 65 304 65 Q351 65 379 84 Q407 103 407 136 Q407 161 385 179 Q363 197 303 207 Q213 223 163.5 256 Q114 289 114 358 Q114 421 162 463 Q114 498 114 564 Q114 608 138.5 642 Q163 676 206 695 Q249 714 304 714 Q377 714 425.5 678.5 Q474 643 491 579 L408 557 Q398 593 372 613.5 Q346 634 304 634 Q254 634 231 615 Q208 596 208 568 Q208 539 235.5 524 Q263 509 320 499 Q409 482 455 447.5 Q501 413 501 344 Q501 314 488.5 288.5 Q476 263 453 244 Z M208 363 Q208 334 235.5 319 Q263 304 320 293 Q352 287 367 283 Q407 301 407 342 Q407 366 385 384.5 Q363 403 303 413 L257 422 Q231 414 219.5 398 Q208 382 208 363 Z " />
<glyph glyph-name="copyright" unicode="&#xa9;" horiz-adv-x="600" d="M300 50 Q232 50 174.5 83.5 Q117 117 83.5 174.5 Q50 232 50 300 Q50 368 83.5 425.5 Q117 483 174.5 516.5 Q232 550 300 550 Q368 550 425.5 516.5 Q483 483 516.5 425.5 Q550 368 550 300 Q550 232 516.5 174.5 Q483 117 425.5 83.5 Q368 50 300 50 Z M300 97 Q355 97 401.5 124.5 Q448 152 475.5 198.5 Q503 245 503 300 Q503 355 475.5 401.5 Q448 448 401.5 475.5 Q355 503 300 503 Q245 503 198.5 475.5 Q152 448 124.5 401.5 Q97 355 97 300 Q97 245 124.5 198.5 Q152 152 198.5 124.5 Q245 97 300 97 Z M369 339 Q362 363 344 377.5 Q326 392 299 392 Q263 392 239.5 365.5 Q216 339 216 300 Q216 259 240 233.5 Q264 208 300 208 Q327 208 344.5 221.5 Q362 235 369 256 L413 241 Q399 204 370.5 184.5 Q342 165 299 165 Q242 165 205.5 202 Q169 239 169 300 Q169 359 205 397 Q241 435 299 435 Q340 435 371 414.5 Q402 394 415 355 L369 339 Z " />
<glyph glyph-name="registered" unicode="&#xae;" horiz-adv-x="600" d="M300 344 Q251 344 209 368.5 Q167 393 142.5 434.5 Q118 476 118 526 Q118 575 142.5 617 Q167 659 209 683.5 Q251 708 300 708 Q349 708 391 683.5 Q433 659 457.5 617 Q482 575 482 526 Q482 476 457.5 434.5 Q433 393 391 368.5 Q349 344 300 344 Z M300 386 Q338 386 370 405 Q402 424 420.5 456 Q439 488 439 526 Q439 564 420.5 596 Q402 628 370 646.5 Q338 665 300 665 Q262 665 230 646.5 Q198 628 179 596 Q160 564 160 526 Q160 488 179 456 Q198 424 230 405 Q262 386 300 386 Z M299 501 L279 501 L279 433 L238 433 L238 618 L311 618 Q338 618 354.5 602 Q371 586 371 563 Q371 522 339 507 L374 433 L329 433 L299 501 Z M306 537 Q318 537 324.5 543.5 Q331 550 331 559 Q331 569 325 575 Q319 581 306 581 L279 581 L279 537 L306 537 Z " />
<glyph glyph-name="trademark" unicode="&#x2122;" horiz-adv-x="600" d="M45 704 L244 704 L244 651 L173 651 L173 444 L117 444 L117 651 L45 651 L45 704 Z M555 444 L498 444 L498 589 L436 444 L397 444 L335 589 L335 444 L279 444 L279 704 L339 704 L417 523 L494 704 L555 704 L555 444 Z " />
<glyph glyph-name="degree" unicode="&#xb0;" horiz-adv-x="600" d="M152 559 Q152 600 171.5 634 Q191 668 225 688 Q259 708 300 708 Q341 708 375 688 Q409 668 428.5 634 Q448 600 448 559 Q448 519 428.5 485 Q409 451 375 431 Q341 411 300 411 Q259 411 225 431 Q191 451 171.5 485 Q152 519 152 559 Z M220 559 Q220 526 243.5 503 Q267 480 300 480 Q333 480 356.5 503 Q380 526 380 559 Q380 592 356.5 615 Q333 638 300 638 Q267 638 243.5 615 Q220 592 220 559 Z " />
<glyph glyph-name="bar" unicode="&#x7c;" horiz-adv-x="600" d="M350 769 L350 -171 L250 -171 L250 769 L350 769 Z " />
<glyph glyph-name="brokenbar" unicode="&#xa6;" horiz-adv-x="600" d="M350 769 L350 360 L250 360 L250 769 L350 769 Z M350 240 L350 -171 L250 -171 L250 240 L350 240 Z " />
<glyph glyph-name="dagger" unicode="&#x2020;" horiz-adv-x="600" d="M423 536 L337 536 L337 350 L264 350 L264 536 L177 536 L177 603 L264 603 L264 700 L337 700 L337 603 L423 603 L423 536 Z " />
<glyph glyph-name="daggerdbl" unicode="&#x2021;" horiz-adv-x="600" d="M337 536 L337 487 L423 487 L423 420 L337 420 L337 323 L264 323 L264 420 L177 420 L177 487 L264 487 L264 536 L177 536 L177 603 L264 603 L264 700 L337 700 L337 603 L423 603 L423 536 L337 536 Z " />
<glyph glyph-name="asciicircum" unicode="&#x5e;" horiz-adv-x="600" d="M454 350 L300 608 L146 350 L35 350 L245 700 L355 700 L565 350 L454 350 Z " />
<glyph glyph-name="uni0308" unicode="&#x308;" d="M-289 568 Q-316 568 -335 587 Q-354 606 -354 632 Q-354 658 -335 677 Q-316 696 -289 696 Q-263 696 -244 677 Q-225 658 -225 632 Q-225 606 -244 587 Q-263 568 -289 568 Z M-121 568 Q-147 568 -166.5 587 Q-186 606 -186 632 Q-186 658 -166.5 677 Q-147 696 -121 696 Q-95 696 -76.5 677 Q-58 658 -58 632 Q-58 606 -76.5 587 Q-95 568 -121 568 Z " />
<glyph glyph-name="uni0307" unicode="&#x307;" d="M-230 632 Q-230 660 -210.5 679.5 Q-191 699 -163 699 Q-136 699 -116.5 679.5 Q-97 660 -97 632 Q-97 604 -116.5 584.5 Q-136 565 -163 565 Q-191 565 -210.5 584.5 Q-230 604 -230 632 Z " />
<glyph glyph-name="gravecomb" unicode="&#x300;" d="M-178 569 L-285 695 L-158 695 L-91 569 L-178 569 Z " />
<glyph glyph-name="acutecomb" unicode="&#x301;" d="M-176 695 L-49 695 L-156 569 L-243 569 L-176 695 Z " />
<glyph glyph-name="uni030B" unicode="&#x30b;" d="M-383 569 L-326 695 L-212 695 L-310 569 L-383 569 Z M-237 569 L-180 695 L-66 695 L-164 569 L-237 569 Z " />
<glyph glyph-name="uni0302" unicode="&#x302;" d="M-162 569 L-218 632 L-274 569 L-360 569 L-270 695 L-167 695 L-77 569 L-162 569 Z " />
<glyph glyph-name="uni030C" unicode="&#x30c;" d="M-77 695 L-167 569 L-270 569 L-360 695 L-274 695 L-218 632 L-162 695 L-77 695 Z " />
<glyph glyph-name="uni0306" unicode="&#x306;" d="M-71 696 Q-73 641 -109.5 605.5 Q-146 570 -203 570 Q-259 570 -295.5 605.5 Q-332 641 -335 696 L-263 696 Q-261 670 -245 654 Q-229 638 -203 638 Q-177 638 -160.5 654 Q-144 670 -142 696 L-71 696 Z " />
<glyph glyph-name="uni030A" unicode="&#x30a;" d="M-277 649 Q-277 686 -250 713 Q-223 740 -186 740 Q-148 740 -121 713 Q-94 686 -94 649 Q-94 612 -121.5 584.5 Q-149 557 -186 557 Q-223 557 -250 584 Q-277 611 -277 649 Z M-220 649 Q-220 635 -210 624.5 Q-200 614 -186 614 Q-171 614 -161.5 624 Q-152 634 -152 649 Q-152 663 -161.5 673 Q-171 683 -186 683 Q-200 683 -210 673 Q-220 663 -220 649 Z " />
<glyph glyph-name="tildecomb" unicode="&#x303;" d="M-387 613 Q-358 687 -292 687 Q-272 687 -257.5 682 Q-243 677 -226 668 Q-211 660 -201.5 656.5 Q-192 653 -181 653 Q-154 653 -137 691 L-80 653 Q-93 616 -118.5 597.5 Q-144 579 -176 579 Q-195 579 -209 583.5 Q-223 588 -242 598 Q-252 603 -263 607.5 Q-274 612 -285 612 Q-314 612 -330 577 L-387 613 Z " />
<glyph glyph-name="uni0304" unicode="&#x304;" d="M-296 670 L-84 670 L-84 594 L-296 594 L-296 670 Z " />
<glyph glyph-name="uni0312" unicode="&#x312;" d="M-129 566 Q-155 566 -172.5 583.5 Q-190 601 -190 632 Q-190 659 -173 690.5 Q-156 722 -129 746 L-93 720 Q-112 695 -118 675 Q-96 671 -84 657.5 Q-72 644 -72 624 Q-72 599 -88.5 582.5 Q-105 566 -129 566 Z " />
<glyph glyph-name="uni0326" unicode="&#x326;" d="M-137 -46 Q-111 -46 -93.5 -63.5 Q-76 -81 -76 -112 Q-76 -139 -93 -170.5 Q-110 -202 -137 -226 L-173 -200 Q-154 -175 -148 -155 Q-170 -151 -182 -137.5 Q-194 -124 -194 -104 Q-194 -79 -177.5 -62.5 Q-161 -46 -137 -46 Z " />
<glyph glyph-name="uni0327" unicode="&#x327;" d="M-183 8 L-124 0 L-147 -42 Q-108 -44 -85 -65.5 Q-62 -87 -62 -126 Q-62 -167 -88 -192 Q-114 -217 -157 -217 Q-194 -217 -220 -196.5 Q-246 -176 -249 -146 L-193 -127 Q-193 -143 -183.5 -152.5 Q-174 -162 -157 -162 Q-142 -162 -132 -152.5 Q-122 -143 -122 -127 Q-122 -113 -132 -103.5 Q-142 -94 -157 -94 Q-172 -94 -180 -101 L-225 -69 L-183 8 Z " />
<glyph glyph-name="uni0328" unicode="&#x328;" d="M-121 -185 Q-173 -185 -203 -159.5 Q-233 -134 -233 -94 Q-233 -24 -156 21 L-93 0 Q-154 -33 -154 -74 Q-154 -92 -141.5 -103.5 Q-129 -115 -106 -115 L-99 -115 L-100 -183 L-121 -185 Z " />
<glyph glyph-name="uni0335" unicode="&#x335;" d="M-473 395 L-120 395 L-120 324 L-473 324 L-473 395 Z " />
<glyph glyph-name="uni0336" unicode="&#x336;" d="M-428 389 L-88 389 L-88 311 L-428 311 L-428 389 Z " />
<glyph glyph-name="uni0337" unicode="&#x337;" d="M-160 489 L-112 425 L-384 221 L-430 286 L-160 489 Z " />
<glyph glyph-name="uni0338" unicode="&#x338;" d="M-169 525 L-104 480 L-470 -31 L-535 15 L-169 525 Z " />
<glyph glyph-name="acute" unicode="&#xb4;" horiz-adv-x="600" d="M308 695 L435 695 L328 569 L241 569 L308 695 Z " />
<glyph glyph-name="breve" unicode="&#x2d8;" horiz-adv-x="600" d="M432 696 Q430 641 393.5 605.5 Q357 570 300 570 Q244 570 207.5 605.5 Q171 641 168 696 L240 696 Q242 670 258 654 Q274 638 300 638 Q326 638 342.5 654 Q359 670 361 696 L432 696 Z " />
<glyph glyph-name="caron" unicode="&#x2c7;" horiz-adv-x="600" d="M442 695 L352 569 L249 569 L159 695 L245 695 L301 632 L357 695 L442 695 Z " />
<glyph glyph-name="cedilla" unicode="&#xb8;" horiz-adv-x="600" d="M262 8 L321 0 L298 -42 Q337 -44 360 -65.5 Q383 -87 383 -126 Q383 -167 357 -192 Q331 -217 288 -217 Q251 -217 225 -196.5 Q199 -176 196 -146 L252 -127 Q252 -143 261.5 -152.5 Q271 -162 288 -162 Q303 -162 313 -152.5 Q323 -143 323 -127 Q323 -113 313 -103.5 Q303 -94 288 -94 Q273 -94 265 -101 L220 -69 L262 8 Z " />
<glyph glyph-name="circumflex" unicode="&#x2c6;" horiz-adv-x="600" d="M357 569 L301 632 L245 569 L159 569 L249 695 L352 695 L442 569 L357 569 Z " />
<glyph glyph-name="dieresis" unicode="&#xa8;" horiz-adv-x="600" d="M217 568 Q190 568 171 587 Q152 606 152 632 Q152 658 171 677 Q190 696 217 696 Q243 696 262 677 Q281 658 281 632 Q281 606 262 587 Q243 568 217 568 Z M385 568 Q359 568 339.5 587 Q320 606 320 632 Q320 658 339.5 677 Q359 696 385 696 Q411 696 429.5 677 Q448 658 448 632 Q448 606 429.5 587 Q411 568 385 568 Z " />
<glyph glyph-name="dotaccent" unicode="&#x2d9;" horiz-adv-x="600" d="M233 632 Q233 660 252.5 679.5 Q272 699 300 699 Q327 699 346.5 679.5 Q366 660 366 632 Q366 604 346.5 584.5 Q327 565 300 565 Q272 565 252.5 584.5 Q233 604 233 632 Z " />
<glyph glyph-name="grave" unicode="&#x60;" horiz-adv-x="600" d="M253 569 L146 695 L273 695 L340 569 L253 569 Z " />
<glyph glyph-name="hungarumlaut" unicode="&#x2dd;" horiz-adv-x="600" d="M172 569 L229 695 L343 695 L245 569 L172 569 Z M318 569 L375 695 L489 695 L391 569 L318 569 Z " />
<glyph glyph-name="overscore" unicode="&#xaf;" horiz-adv-x="600" d="M194 670 L406 670 L406 594 L194 594 L194 670 Z " />
<glyph glyph-name="ogonek" unicode="&#x2db;" horiz-adv-x="600" d="M328 -185 Q276 -185 246 -159.5 Q216 -134 216 -94 Q216 -24 293 21 L356 0 Q295 -33 295 -74 Q295 -92 307.5 -103.5 Q320 -115 343 -115 L350 -115 L349 -183 L328 -185 Z " />
<glyph glyph-name="ring" unicode="&#x2da;" horiz-adv-x="600" d="M214 649 Q214 686 241 713 Q268 740 305 740 Q343 740 370 713 Q397 686 397 649 Q397 612 369.5 584.5 Q342 557 305 557 Q268 557 241 584 Q214 611 214 649 Z M271 649 Q271 635 281 624.5 Q291 614 305 614 Q320 614 329.5 624 Q339 634 339 649 Q339 663 329.5 673 Q320 683 305 683 Q291 683 281 673 Q271 663 271 649 Z " />
<glyph glyph-name="tilde" unicode="&#x2dc;" horiz-adv-x="600" d="M146 613 Q175 687 241 687 Q261 687 275.5 682 Q290 677 307 668 Q322 660 331.5 656.5 Q341 653 352 653 Q379 653 396 691 L453 653 Q440 616 414.5 597.5 Q389 579 357 579 Q338 579 324 583.5 Q310 588 291 598 Q281 603 270 607.5 Q259 612 248 612 Q219 612 203 577 L146 613 Z " />
<glyph glyph-name="uni20BF" unicode="&#x20bf;" horiz-adv-x="600" d="M523 211 Q523 143 484.5 95 Q446 47 378 31 L378 -50 L304 -50 L304 24 L249 24 L249 -50 L176 -50 L176 24 L78 24 L78 678 L176 678 L176 740 L249 740 L249 678 L304 678 L304 740 L378 740 L378 669 Q438 652 469 608.5 Q500 565 500 505 Q500 455 478 420 Q456 385 419 365 L419 363 Q461 349 492 312 Q523 275 523 211 Z M171 396 L303 396 Q354 396 381 424 Q408 452 408 499 Q408 544 380 569.5 Q352 595 303 595 L171 595 L171 396 Z M316 106 Q371 106 400.5 136.5 Q430 167 430 213 Q430 259 399.5 288 Q369 317 308 317 L171 317 L171 106 L316 106 Z " />
</font>
</svg>
