<?xml version="1.0" encoding="UTF-8"?>
<svg xmlns="http://www.w3.org/2000/svg" xmlns:xlink="http://www.w3.org/1999/xlink" version="1.2" >
<font id="Modern Era Mono Regular">
<font-face  font-family="Modern Era Mono" units-per-em="1000" ascent="785" descent="-215" font-style="normal" font-weight="400" font-stretch="normal" cap-height="700" x-height="490" underline-position="-50" underline-thickness="68" />
<missing-glyph  horiz-adv-x="600" d="M300 50 Q368 50 425.5 83.5 Q483 117 516.5 174.5 Q550 232 550 300 Q550 368 516.5 425.5 Q483 483 425.5 516.5 Q368 550 300 550 Q233 550 175.5 516.5 Q118 483 84 425.5 Q50 368 50 300 Q50 232 84 174.5 Q118 117 175.5 83.5 Q233 50 300 50 Z M300 505 Q356 505 403 477.5 Q450 450 478 403 Q506 356 506 300 Q506 244 478 197 Q450 150 403 122.5 Q356 95 300 95 Q244 95 197 122.5 Q150 150 122.5 197 Q95 244 95 300 Q95 356 122.5 403 Q150 450 197 477.5 Q244 505 300 505 Z M265 342 Q265 359 252.5 371.5 Q240 384 223 384 Q206 384 193 371.5 Q180 359 180 342 Q180 325 193 312.5 Q206 300 223 300 Q240 300 252.5 312.5 Q265 325 265 342 Z M420 342 Q420 359 407 371.5 Q394 384 377 384 Q360 384 347.5 371.5 Q335 359 335 342 Q335 325 347.5 312.5 Q360 300 377 300 Q394 300 407 312.5 Q420 325 420 342 Z " />
<glyph glyph-name="nonmarkingreturn" unicode="&#xd;" horiz-adv-x="600" d="" />
<glyph glyph-name="space" unicode="&#x20;" horiz-adv-x="600" d="" />
<glyph glyph-name="A" unicode="A" horiz-adv-x="600" d="M420 196 L178 196 L119 0 L40 0 L258 700 L338 700 L560 0 L480 0 L420 196 Z M399 266 L298 597 L199 266 L399 266 Z " />
<glyph glyph-name="Aacute" unicode="&#xc1;" horiz-adv-x="600" d="M420 196 L178 196 L119 0 L40 0 L258 700 L338 700 L560 0 L480 0 L420 196 Z M399 266 L298 597 L199 266 L399 266 Z M329 891 L435 891 L336 773 L263 773 L329 891 Z " />
<glyph glyph-name="Abreve" unicode="&#x102;" horiz-adv-x="600" d="M420 196 L178 196 L119 0 L40 0 L258 700 L338 700 L560 0 L480 0 L420 196 Z M399 266 L298 597 L199 266 L399 266 Z M421 896 Q419 845 386 811.5 Q353 778 300 778 Q247 778 214 811.5 Q181 845 179 896 L241 896 Q243 870 258.5 854 Q274 838 300 838 Q326 838 342 854 Q358 870 360 896 L421 896 Z " />
<glyph glyph-name="Acircumflex" unicode="&#xc2;" horiz-adv-x="600" d="M420 196 L178 196 L119 0 L40 0 L258 700 L338 700 L560 0 L480 0 L420 196 Z M399 266 L298 597 L199 266 L399 266 Z M358 773 L299 837 L241 773 L167 773 L252 891 L347 891 L431 773 L358 773 Z " />
<glyph glyph-name="Adieresis" unicode="&#xc4;" horiz-adv-x="600" d="M420 196 L178 196 L119 0 L40 0 L258 700 L338 700 L560 0 L480 0 L420 196 Z M399 266 L298 597 L199 266 L399 266 Z M220 775 Q196 775 179 791.5 Q162 808 162 832 Q162 856 179 872.5 Q196 889 220 889 Q243 889 260 872.5 Q277 856 277 832 Q277 808 260 791.5 Q243 775 220 775 Z M380 775 Q357 775 340 791.5 Q323 808 323 832 Q323 856 340 872.5 Q357 889 380 889 Q404 889 420.5 872.5 Q437 856 437 832 Q437 808 420.5 791.5 Q404 775 380 775 Z " />
<glyph glyph-name="Agrave" unicode="&#xc0;" horiz-adv-x="600" d="M420 196 L178 196 L119 0 L40 0 L258 700 L338 700 L560 0 L480 0 L420 196 Z M399 266 L298 597 L199 266 L399 266 Z M263 773 L164 891 L270 891 L336 773 L263 773 Z " />
<glyph glyph-name="Amacron" unicode="&#x100;" horiz-adv-x="600" d="M420 196 L178 196 L119 0 L40 0 L258 700 L338 700 L560 0 L480 0 L420 196 Z M399 266 L298 597 L199 266 L399 266 Z M203 863 L399 863 L399 801 L203 801 L203 863 Z " />
<glyph glyph-name="Aogonek" unicode="&#x104;" horiz-adv-x="600" d="M498 -78 Q498 -96 512 -109 Q526 -122 550 -122 L556 -122 L555 -179 Q549 -180 541 -180 Q492 -180 462.5 -156 Q433 -132 433 -93 Q433 -42 480 0 L420 196 L178 196 L119 0 L40 0 L258 700 L338 700 L560 0 Q498 -34 498 -78 Z M399 266 L298 597 L199 266 L399 266 Z " />
<glyph glyph-name="Aring" unicode="&#xc5;" horiz-adv-x="600" d="M420 196 L178 196 L119 0 L40 0 L258 700 L338 700 L560 0 L480 0 L420 196 Z M399 266 L298 597 L199 266 L399 266 Z M215 842 Q215 877 240 902 Q265 927 300 927 Q335 927 360.5 902 Q386 877 386 842 Q386 807 360.5 782 Q335 757 300 757 Q265 757 240 782 Q215 807 215 842 Z M268 842 Q268 828 277.5 818.5 Q287 809 300 809 Q314 809 323.5 818.5 Q333 828 333 842 Q333 855 323.5 865 Q314 875 300 875 Q287 875 277.5 865 Q268 855 268 842 Z " />
<glyph glyph-name="Atilde" unicode="&#xc3;" horiz-adv-x="600" d="M420 196 L178 196 L119 0 L40 0 L258 700 L338 700 L560 0 L480 0 L420 196 Z M399 266 L298 597 L199 266 L399 266 Z M156 814 Q170 848 193 864 Q216 880 242 880 Q261 880 274 875.5 Q287 871 308 860 Q322 852 332 848 Q342 844 354 844 Q381 844 399 883 L445 850 Q420 783 356 783 Q337 783 323 788 Q309 793 291 803 Q276 811 267 814.5 Q258 818 247 818 Q219 818 202 783 L156 814 Z " />
<glyph glyph-name="AE" unicode="&#xc6;" horiz-adv-x="600" d="M395 630 L395 388 L527 388 L527 319 L395 319 L395 70 L550 70 L550 0 L317 0 L317 167 L184 167 L125 0 L50 0 L304 700 L550 700 L550 630 L395 630 Z M317 236 L317 540 L209 236 L317 236 Z " />
<glyph glyph-name="AEacute" unicode="&#x1fc;" horiz-adv-x="600" d="M395 630 L395 388 L527 388 L527 319 L395 319 L395 70 L550 70 L550 0 L317 0 L317 167 L184 167 L125 0 L50 0 L304 700 L550 700 L550 630 L395 630 Z M317 236 L317 540 L209 236 L317 236 Z M427 891 L533 891 L434 773 L361 773 L427 891 Z " />
<glyph glyph-name="B" unicode="B" horiz-adv-x="600" d="M63 700 L311 700 Q409 700 459.5 648.5 Q510 597 510 516 Q510 464 487 425.5 Q464 387 425 365 L425 363 Q469 347 503 307.5 Q537 268 537 198 Q537 142 511.5 97 Q486 52 438 26 Q390 0 324 0 L63 0 L63 700 Z M309 390 Q369 390 401 424 Q433 458 433 515 Q433 568 399.5 599.5 Q366 631 309 631 L141 631 L141 390 L309 390 Z M325 69 Q389 69 424 106 Q459 143 459 198 Q459 254 422.5 288.5 Q386 323 311 323 L141 323 L141 69 L325 69 Z " />
<glyph glyph-name="C" unicode="C" horiz-adv-x="600" d="M480 472 Q460 557 420.5 600 Q381 643 317 643 Q227 643 177.5 565.5 Q128 488 128 350 Q128 209 177.5 133 Q227 57 319 57 Q384 57 421.5 98 Q459 139 478 214 L547 190 Q521 93 465 39.5 Q409 -14 319 -14 Q237 -14 176 29.5 Q115 73 82.5 155 Q50 237 50 350 Q50 460 83.5 542.5 Q117 625 177.5 669.5 Q238 714 317 714 Q407 714 465.5 657 Q524 600 550 497 L480 472 Z " />
<glyph glyph-name="Cacute" unicode="&#x106;" horiz-adv-x="600" d="M480 472 Q460 557 420.5 600 Q381 643 317 643 Q227 643 177.5 565.5 Q128 488 128 350 Q128 209 177.5 133 Q227 57 319 57 Q384 57 421.5 98 Q459 139 478 214 L547 190 Q521 93 465 39.5 Q409 -14 319 -14 Q237 -14 176 29.5 Q115 73 82.5 155 Q50 237 50 350 Q50 460 83.5 542.5 Q117 625 177.5 669.5 Q238 714 317 714 Q407 714 465.5 657 Q524 600 550 497 L480 472 Z M346 891 L452 891 L353 773 L280 773 L346 891 Z " />
<glyph glyph-name="Ccaron" unicode="&#x10c;" horiz-adv-x="600" d="M480 472 Q460 557 420.5 600 Q381 643 317 643 Q227 643 177.5 565.5 Q128 488 128 350 Q128 209 177.5 133 Q227 57 319 57 Q384 57 421.5 98 Q459 139 478 214 L547 190 Q521 93 465 39.5 Q409 -14 319 -14 Q237 -14 176 29.5 Q115 73 82.5 155 Q50 237 50 350 Q50 460 83.5 542.5 Q117 625 177.5 669.5 Q238 714 317 714 Q407 714 465.5 657 Q524 600 550 497 L480 472 Z M449 895 L365 777 L270 777 L185 895 L259 895 L317 831 L376 895 L449 895 Z " />
<glyph glyph-name="Ccedilla" unicode="&#xc7;" horiz-adv-x="600" d="M319 57 Q384 57 421.5 98 Q459 139 478 214 L547 190 Q496 0 342 -13 L327 -41 Q364 -43 386 -63.5 Q408 -84 408 -123 Q408 -161 383 -184.5 Q358 -208 318 -208 Q283 -208 258 -188 Q233 -168 231 -139 L281 -122 Q281 -139 291 -148.5 Q301 -158 318 -158 Q334 -158 344 -148 Q354 -138 354 -122 Q354 -107 344 -97.5 Q334 -88 318 -88 Q304 -88 295 -94 L254 -66 L284 -12 Q175 2 112.5 97 Q50 192 50 350 Q50 460 83.5 542.5 Q117 625 177.5 669.5 Q238 714 317 714 Q407 714 465.5 657 Q524 600 550 497 L480 472 Q460 557 420.5 600 Q381 643 317 643 Q227 643 177.5 565.5 Q128 488 128 350 Q128 209 177.5 133 Q227 57 319 57 Z " />
<glyph glyph-name="Ccircumflex" unicode="&#x108;" horiz-adv-x="600" d="M480 472 Q460 557 420.5 600 Q381 643 317 643 Q227 643 177.5 565.5 Q128 488 128 350 Q128 209 177.5 133 Q227 57 319 57 Q384 57 421.5 98 Q459 139 478 214 L547 190 Q521 93 465 39.5 Q409 -14 319 -14 Q237 -14 176 29.5 Q115 73 82.5 155 Q50 237 50 350 Q50 460 83.5 542.5 Q117 625 177.5 669.5 Q238 714 317 714 Q407 714 465.5 657 Q524 600 550 497 L480 472 Z M375 773 L316 837 L258 773 L184 773 L269 891 L364 891 L448 773 L375 773 Z " />
<glyph glyph-name="Cdotaccent" unicode="&#x10a;" horiz-adv-x="600" d="M480 472 Q460 557 420.5 600 Q381 643 317 643 Q227 643 177.5 565.5 Q128 488 128 350 Q128 209 177.5 133 Q227 57 319 57 Q384 57 421.5 98 Q459 139 478 214 L547 190 Q521 93 465 39.5 Q409 -14 319 -14 Q237 -14 176 29.5 Q115 73 82.5 155 Q50 237 50 350 Q50 460 83.5 542.5 Q117 625 177.5 669.5 Q238 714 317 714 Q407 714 465.5 657 Q524 600 550 497 L480 472 Z M259 833 Q259 857 275.5 873.5 Q292 890 317 890 Q340 890 356.5 873.5 Q373 857 373 833 Q373 809 356.5 792.5 Q340 776 317 776 Q292 776 275.5 792.5 Q259 809 259 833 Z " />
<glyph glyph-name="D" unicode="D" horiz-adv-x="600" d="M80 700 L254 700 Q407 700 470 600 Q533 500 533 354 Q533 259 506.5 179 Q480 99 420.5 49.5 Q361 0 267 0 L80 0 L80 700 Z M261 70 Q365 70 410 151.5 Q455 233 455 355 Q455 477 410.5 553.5 Q366 630 252 630 L158 630 L158 70 L261 70 Z " />
<glyph glyph-name="Eth" unicode="&#xd0;" horiz-adv-x="600" d="M254 700 Q407 700 470 600 Q533 500 533 354 Q533 259 506.5 179 Q480 99 420.5 49.5 Q361 0 267 0 L80 0 L80 315 L21 315 L21 385 L80 385 L80 700 L254 700 Z M261 70 Q365 70 410 151.5 Q455 233 455 355 Q455 477 410.5 553.5 Q366 630 252 630 L158 630 L158 385 L281 385 L281 315 L158 315 L158 70 L261 70 Z " />
<glyph glyph-name="Dcaron" unicode="&#x10e;" horiz-adv-x="600" d="M80 700 L254 700 Q407 700 470 600 Q533 500 533 354 Q533 259 506.5 179 Q480 99 420.5 49.5 Q361 0 267 0 L80 0 L80 700 Z M261 70 Q365 70 410 151.5 Q455 233 455 355 Q455 477 410.5 553.5 Q366 630 252 630 L158 630 L158 70 L261 70 Z M415 895 L331 777 L236 777 L151 895 L225 895 L283 831 L342 895 L415 895 Z " />
<glyph glyph-name="Dcroat" unicode="&#x110;" horiz-adv-x="600" d="M254 700 Q407 700 470 600 Q533 500 533 354 Q533 259 506.5 179 Q480 99 420.5 49.5 Q361 0 267 0 L80 0 L80 315 L21 315 L21 385 L80 385 L80 700 L254 700 Z M261 70 Q365 70 410 151.5 Q455 233 455 355 Q455 477 410.5 553.5 Q366 630 252 630 L158 630 L158 385 L281 385 L281 315 L158 315 L158 70 L261 70 Z " />
<glyph glyph-name="E" unicode="E" horiz-adv-x="600" d="M88 700 L512 700 L512 630 L166 630 L166 388 L471 388 L471 319 L166 319 L166 70 L512 70 L512 0 L88 0 L88 700 Z " />
<glyph glyph-name="Eacute" unicode="&#xc9;" horiz-adv-x="600" d="M88 700 L512 700 L512 630 L166 630 L166 388 L471 388 L471 319 L166 319 L166 70 L512 70 L512 0 L88 0 L88 700 Z M333 891 L439 891 L340 773 L267 773 L333 891 Z " />
<glyph glyph-name="Ebreve" unicode="&#x114;" horiz-adv-x="600" d="M88 700 L512 700 L512 630 L166 630 L166 388 L471 388 L471 319 L166 319 L166 70 L512 70 L512 0 L88 0 L88 700 Z M425 886 Q423 835 390 801.5 Q357 768 304 768 Q251 768 218 801.5 Q185 835 183 886 L245 886 Q247 860 262.5 844 Q278 828 304 828 Q330 828 346 844 Q362 860 364 886 L425 886 Z " />
<glyph glyph-name="Ecaron" unicode="&#x11a;" horiz-adv-x="600" d="M88 700 L512 700 L512 630 L166 630 L166 388 L471 388 L471 319 L166 319 L166 70 L512 70 L512 0 L88 0 L88 700 Z M436 895 L352 777 L257 777 L172 895 L246 895 L304 831 L363 895 L436 895 Z " />
<glyph glyph-name="Ecircumflex" unicode="&#xca;" horiz-adv-x="600" d="M88 700 L512 700 L512 630 L166 630 L166 388 L471 388 L471 319 L166 319 L166 70 L512 70 L512 0 L88 0 L88 700 Z M362 773 L303 837 L245 773 L171 773 L256 891 L351 891 L435 773 L362 773 Z " />
<glyph glyph-name="Edieresis" unicode="&#xcb;" horiz-adv-x="600" d="M88 700 L512 700 L512 630 L166 630 L166 388 L471 388 L471 319 L166 319 L166 70 L512 70 L512 0 L88 0 L88 700 Z M224 775 Q200 775 183 791.5 Q166 808 166 832 Q166 856 183 872.5 Q200 889 224 889 Q247 889 264 872.5 Q281 856 281 832 Q281 808 264 791.5 Q247 775 224 775 Z M384 775 Q361 775 344 791.5 Q327 808 327 832 Q327 856 344 872.5 Q361 889 384 889 Q408 889 424.5 872.5 Q441 856 441 832 Q441 808 424.5 791.5 Q408 775 384 775 Z " />
<glyph glyph-name="Edotaccent" unicode="&#x116;" horiz-adv-x="600" d="M88 700 L512 700 L512 630 L166 630 L166 388 L471 388 L471 319 L166 319 L166 70 L512 70 L512 0 L88 0 L88 700 Z M246 833 Q246 857 262.5 873.5 Q279 890 304 890 Q327 890 343.5 873.5 Q360 857 360 833 Q360 809 343.5 792.5 Q327 776 304 776 Q279 776 262.5 792.5 Q246 809 246 833 Z " />
<glyph glyph-name="Egrave" unicode="&#xc8;" horiz-adv-x="600" d="M88 700 L512 700 L512 630 L166 630 L166 388 L471 388 L471 319 L166 319 L166 70 L512 70 L512 0 L88 0 L88 700 Z M267 773 L168 891 L274 891 L340 773 L267 773 Z " />
<glyph glyph-name="Emacron" unicode="&#x112;" horiz-adv-x="600" d="M88 700 L512 700 L512 630 L166 630 L166 388 L471 388 L471 319 L166 319 L166 70 L512 70 L512 0 L88 0 L88 700 Z M207 863 L403 863 L403 801 L207 801 L207 863 Z " />
<glyph glyph-name="Eogonek" unicode="&#x118;" horiz-adv-x="600" d="M166 630 L166 388 L471 388 L471 319 L166 319 L166 70 L512 70 L512 0 Q450 -34 450 -78 Q450 -96 464 -109 Q478 -122 502 -122 L508 -122 L507 -179 Q501 -180 493 -180 Q444 -180 414.5 -156 Q385 -132 385 -93 Q385 -39 433 0 L88 0 L88 700 L512 700 L512 630 L166 630 Z " />
<glyph glyph-name="F" unicode="F" horiz-adv-x="600" d="M88 700 L512 700 L512 630 L166 630 L166 371 L472 371 L472 302 L166 302 L166 0 L88 0 L88 700 Z " />
<glyph glyph-name="G" unicode="G" horiz-adv-x="600" d="M489 0 L477 67 Q462 36 417 11 Q372 -14 306 -14 Q226 -14 168 31.5 Q110 77 80 159.5 Q50 242 50 350 Q50 513 114.5 613.5 Q179 714 306 714 Q394 714 452.5 662.5 Q511 611 535 523 L463 497 Q448 563 409.5 603 Q371 643 308 643 Q221 643 174.5 560.5 Q128 478 128 350 Q128 213 170.5 135 Q213 57 306 57 Q395 57 433.5 126.5 Q472 196 474 303 L308 303 L308 371 L550 371 L550 0 L489 0 Z " />
<glyph glyph-name="Gbreve" unicode="&#x11e;" horiz-adv-x="600" d="M489 0 L477 67 Q462 36 417 11 Q372 -14 306 -14 Q226 -14 168 31.5 Q110 77 80 159.5 Q50 242 50 350 Q50 513 114.5 613.5 Q179 714 306 714 Q394 714 452.5 662.5 Q511 611 535 523 L463 497 Q448 563 409.5 603 Q371 643 308 643 Q221 643 174.5 560.5 Q128 478 128 350 Q128 213 170.5 135 Q213 57 306 57 Q395 57 433.5 126.5 Q472 196 474 303 L308 303 L308 371 L550 371 L550 0 L489 0 Z M427 886 Q425 835 392 801.5 Q359 768 306 768 Q253 768 220 801.5 Q187 835 185 886 L247 886 Q249 860 264.5 844 Q280 828 306 828 Q332 828 348 844 Q364 860 366 886 L427 886 Z " />
<glyph glyph-name="Gcircumflex" unicode="&#x11c;" horiz-adv-x="600" d="M489 0 L477 67 Q462 36 417 11 Q372 -14 306 -14 Q226 -14 168 31.5 Q110 77 80 159.5 Q50 242 50 350 Q50 513 114.5 613.5 Q179 714 306 714 Q394 714 452.5 662.5 Q511 611 535 523 L463 497 Q448 563 409.5 603 Q371 643 308 643 Q221 643 174.5 560.5 Q128 478 128 350 Q128 213 170.5 135 Q213 57 306 57 Q395 57 433.5 126.5 Q472 196 474 303 L308 303 L308 371 L550 371 L550 0 L489 0 Z M364 773 L305 837 L247 773 L173 773 L258 891 L353 891 L437 773 L364 773 Z " />
<glyph glyph-name="Gcommaaccent" unicode="&#x122;" horiz-adv-x="600" d="M489 0 L477 67 Q462 36 417 11 Q372 -14 306 -14 Q226 -14 168 31.5 Q110 77 80 159.5 Q50 242 50 350 Q50 513 114.5 613.5 Q179 714 306 714 Q394 714 452.5 662.5 Q511 611 535 523 L463 497 Q448 563 409.5 603 Q371 643 308 643 Q221 643 174.5 560.5 Q128 478 128 350 Q128 213 170.5 135 Q213 57 306 57 Q395 57 433.5 126.5 Q472 196 474 303 L308 303 L308 371 L550 371 L550 0 L489 0 Z M310 -45 Q333 -45 348.5 -60 Q364 -75 364 -103 Q364 -128 349 -157 Q334 -186 309 -209 L279 -186 Q298 -162 303 -142 Q282 -138 271 -126 Q260 -114 260 -96 Q260 -74 273.5 -59.5 Q287 -45 310 -45 Z " />
<glyph glyph-name="Gdotaccent" unicode="&#x120;" horiz-adv-x="600" d="M489 0 L477 67 Q462 36 417 11 Q372 -14 306 -14 Q226 -14 168 31.5 Q110 77 80 159.5 Q50 242 50 350 Q50 513 114.5 613.5 Q179 714 306 714 Q394 714 452.5 662.5 Q511 611 535 523 L463 497 Q448 563 409.5 603 Q371 643 308 643 Q221 643 174.5 560.5 Q128 478 128 350 Q128 213 170.5 135 Q213 57 306 57 Q395 57 433.5 126.5 Q472 196 474 303 L308 303 L308 371 L550 371 L550 0 L489 0 Z M248 833 Q248 857 264.5 873.5 Q281 890 306 890 Q329 890 345.5 873.5 Q362 857 362 833 Q362 809 345.5 792.5 Q329 776 306 776 Q281 776 264.5 792.5 Q248 809 248 833 Z " />
<glyph glyph-name="H" unicode="H" horiz-adv-x="600" d="M75 700 L153 700 L153 394 L447 394 L447 700 L525 700 L525 0 L447 0 L447 323 L153 323 L153 0 L75 0 L75 700 Z " />
<glyph glyph-name="Hbar" unicode="&#x126;" horiz-adv-x="600" d="M573 517 L526 517 L526 0 L448 0 L448 323 L154 323 L154 0 L76 0 L76 517 L28 517 L28 587 L76 587 L76 700 L154 700 L154 587 L448 587 L448 700 L526 700 L526 587 L573 587 L573 517 Z M448 517 L154 517 L154 394 L448 394 L448 517 Z " />
<glyph glyph-name="Hcircumflex" unicode="&#x124;" horiz-adv-x="600" d="M75 700 L153 700 L153 394 L447 394 L447 700 L525 700 L525 0 L447 0 L447 323 L153 323 L153 0 L75 0 L75 700 Z M358 773 L299 837 L241 773 L167 773 L252 891 L347 891 L431 773 L358 773 Z " />
<glyph glyph-name="I" unicode="I" horiz-adv-x="600" d="M339 630 L339 70 L525 70 L525 0 L75 0 L75 70 L261 70 L261 630 L75 630 L75 700 L525 700 L525 630 L339 630 Z " />
<glyph glyph-name="Iacute" unicode="&#xcd;" horiz-adv-x="600" d="M339 630 L339 70 L525 70 L525 0 L75 0 L75 70 L261 70 L261 630 L75 630 L75 700 L525 700 L525 630 L339 630 Z M329 891 L435 891 L336 773 L263 773 L329 891 Z " />
<glyph glyph-name="Ibreve" unicode="&#x12c;" horiz-adv-x="600" d="M339 630 L339 70 L525 70 L525 0 L75 0 L75 70 L261 70 L261 630 L75 630 L75 700 L525 700 L525 630 L339 630 Z M421 886 Q419 835 386 801.5 Q353 768 300 768 Q247 768 214 801.5 Q181 835 179 886 L241 886 Q243 860 258.5 844 Q274 828 300 828 Q326 828 342 844 Q358 860 360 886 L421 886 Z " />
<glyph glyph-name="Icircumflex" unicode="&#xce;" horiz-adv-x="600" d="M339 630 L339 70 L525 70 L525 0 L75 0 L75 70 L261 70 L261 630 L75 630 L75 700 L525 700 L525 630 L339 630 Z M358 773 L299 837 L241 773 L167 773 L252 891 L347 891 L431 773 L358 773 Z " />
<glyph glyph-name="Idieresis" unicode="&#xcf;" horiz-adv-x="600" d="M339 630 L339 70 L525 70 L525 0 L75 0 L75 70 L261 70 L261 630 L75 630 L75 700 L525 700 L525 630 L339 630 Z M220 779 Q196 779 179 796 Q162 813 162 836 Q162 859 179 876 Q196 893 220 893 Q243 893 260 876 Q277 859 277 836 Q277 813 260 796 Q243 779 220 779 Z M377 779 Q354 779 337 796 Q320 813 320 836 Q320 859 337 876 Q354 893 377 893 Q401 893 417.5 876 Q434 859 434 836 Q434 813 417.5 796 Q401 779 377 779 Z " />
<glyph glyph-name="Idot" unicode="&#x130;" horiz-adv-x="600" d="M339 630 L339 70 L525 70 L525 0 L75 0 L75 70 L261 70 L261 630 L75 630 L75 700 L525 700 L525 630 L339 630 Z M242 833 Q242 857 258.5 873.5 Q275 890 300 890 Q323 890 339.5 873.5 Q356 857 356 833 Q356 809 339.5 792.5 Q323 776 300 776 Q275 776 258.5 792.5 Q242 809 242 833 Z " />
<glyph glyph-name="Igrave" unicode="&#xcc;" horiz-adv-x="600" d="M339 630 L339 70 L525 70 L525 0 L75 0 L75 70 L261 70 L261 630 L75 630 L75 700 L525 700 L525 630 L339 630 Z M263 773 L164 891 L270 891 L336 773 L263 773 Z " />
<glyph glyph-name="Imacron" unicode="&#x12a;" horiz-adv-x="600" d="M339 630 L339 70 L525 70 L525 0 L75 0 L75 70 L261 70 L261 630 L75 630 L75 700 L525 700 L525 630 L339 630 Z M203 863 L399 863 L399 801 L203 801 L203 863 Z " />
<glyph glyph-name="Iogonek" unicode="&#x12e;" horiz-adv-x="600" d="M339 630 L339 70 L525 70 L525 0 L336 0 Q274 -34 274 -78 Q274 -96 288 -109 Q302 -122 326 -122 L332 -122 L331 -179 Q325 -180 317 -180 Q268 -180 238.5 -156 Q209 -132 209 -93 Q209 -39 257 0 L75 0 L75 70 L261 70 L261 630 L75 630 L75 700 L525 700 L525 630 L339 630 Z " />
<glyph glyph-name="Itilde" unicode="&#x128;" horiz-adv-x="600" d="M339 630 L339 70 L525 70 L525 0 L75 0 L75 70 L261 70 L261 630 L75 630 L75 700 L525 700 L525 630 L339 630 Z M156 814 Q170 848 193 864 Q216 880 242 880 Q261 880 274 875.5 Q287 871 308 860 Q322 852 332 848 Q342 844 354 844 Q381 844 399 883 L445 850 Q420 783 356 783 Q337 783 323 788 Q309 793 291 803 Q276 811 267 814.5 Q258 818 247 818 Q219 818 202 783 L156 814 Z " />
<glyph glyph-name="J" unicode="J" horiz-adv-x="600" d="M497 194 Q497 94 444.5 40 Q392 -14 301 -14 Q213 -14 160 36.5 Q107 87 106 171 L106 197 L183 184 L183 174 Q183 121 214 89 Q245 57 300 57 Q357 57 388 92 Q419 127 419 191 L419 630 L142 630 L142 700 L497 700 L497 194 Z " />
<glyph glyph-name="Jcircumflex" unicode="&#x134;" horiz-adv-x="600" d="M497 194 Q497 94 444.5 40 Q392 -14 301 -14 Q213 -14 160 36.5 Q107 87 106 171 L106 197 L183 184 L183 174 Q183 121 214 89 Q245 57 300 57 Q357 57 388 92 Q419 127 419 191 L419 630 L142 630 L142 700 L497 700 L497 194 Z M395 773 L336 837 L278 773 L204 773 L289 891 L384 891 L468 773 L395 773 Z " />
<glyph glyph-name="K" unicode="K" horiz-adv-x="600" d="M217 353 L145 275 L145 0 L67 0 L67 700 L145 700 L145 380 L439 700 L535 700 L269 410 L545 0 L453 0 L217 353 Z " />
<glyph glyph-name="Kcommaaccent" unicode="&#x136;" horiz-adv-x="600" d="M217 353 L145 275 L145 0 L67 0 L67 700 L145 700 L145 380 L439 700 L535 700 L269 410 L545 0 L453 0 L217 353 Z M301 -45 Q324 -45 339.5 -60 Q355 -75 355 -103 Q355 -128 340 -157 Q325 -186 300 -209 L270 -186 Q289 -162 294 -142 Q273 -138 262 -126 Q251 -114 251 -96 Q251 -74 264.5 -59.5 Q278 -45 301 -45 Z " />
<glyph glyph-name="L" unicode="L" horiz-adv-x="600" d="M90 700 L168 700 L168 71 L510 71 L510 0 L90 0 L90 700 Z " />
<glyph glyph-name="Lacute" unicode="&#x139;" horiz-adv-x="600" d="M90 700 L168 700 L168 71 L510 71 L510 0 L90 0 L90 700 Z M158 891 L264 891 L165 773 L92 773 L158 891 Z " />
<glyph glyph-name="Lcaron" unicode="&#x13d;" horiz-adv-x="600" d="M90 700 L168 700 L168 71 L510 71 L510 0 L90 0 L90 700 Z M259 700 L347 700 L296 582 L238 582 L259 700 Z " />
<glyph glyph-name="Lcommaaccent" unicode="&#x13b;" horiz-adv-x="600" d="M90 700 L168 700 L168 71 L510 71 L510 0 L90 0 L90 700 Z M302 -45 Q325 -45 340.5 -60 Q356 -75 356 -103 Q356 -128 341 -157 Q326 -186 301 -209 L271 -186 Q290 -162 295 -142 Q274 -138 263 -126 Q252 -114 252 -96 Q252 -74 265.5 -59.5 Q279 -45 302 -45 Z " />
<glyph glyph-name="Ldot" unicode="&#x13f;" horiz-adv-x="600" d="M90 700 L168 700 L168 71 L510 71 L510 0 L90 0 L90 700 Z M370 387 Q370 411 387 428 Q404 445 429 445 Q454 445 470.5 428 Q487 411 487 387 Q487 362 470.5 345 Q454 328 429 328 Q404 328 387 345 Q370 362 370 387 Z " />
<glyph glyph-name="Lslash" unicode="&#x141;" horiz-adv-x="600" d="M524 71 L524 0 L149 0 L149 285 L90 254 L60 314 L149 361 L149 700 L227 700 L227 403 L356 471 L386 412 L227 327 L227 71 L524 71 Z " />
<glyph glyph-name="M" unicode="M" horiz-adv-x="600" d="M548 0 L472 0 L472 586 L341 283 L259 283 L127 589 L127 0 L51 0 L51 700 L158 700 L301 375 L442 700 L548 700 L548 0 Z " />
<glyph glyph-name="N" unicode="N" horiz-adv-x="600" d="M75 700 L152 700 L449 147 L449 700 L525 700 L525 0 L449 0 L151 553 L151 0 L75 0 L75 700 Z " />
<glyph glyph-name="Nacute" unicode="&#x143;" horiz-adv-x="600" d="M75 700 L152 700 L449 147 L449 700 L525 700 L525 0 L449 0 L151 553 L151 0 L75 0 L75 700 Z M329 891 L435 891 L336 773 L263 773 L329 891 Z " />
<glyph glyph-name="Ncaron" unicode="&#x147;" horiz-adv-x="600" d="M75 700 L152 700 L449 147 L449 700 L525 700 L525 0 L449 0 L151 553 L151 0 L75 0 L75 700 Z M432 895 L348 777 L253 777 L168 895 L242 895 L300 831 L359 895 L432 895 Z " />
<glyph glyph-name="Ncommaaccent" unicode="&#x145;" horiz-adv-x="600" d="M75 700 L152 700 L449 147 L449 700 L525 700 L525 0 L449 0 L151 553 L151 0 L75 0 L75 700 Z M302 -45 Q325 -45 340.5 -60 Q356 -75 356 -103 Q356 -128 341 -157 Q326 -186 301 -209 L271 -186 Q290 -162 295 -142 Q274 -138 263 -126 Q252 -114 252 -96 Q252 -74 265.5 -59.5 Q279 -45 302 -45 Z " />
<glyph glyph-name="Eng" unicode="&#x14a;" horiz-adv-x="600" d="M525 700 L525 -58 Q525 -135 477.5 -179.5 Q430 -224 353 -224 Q237 -224 196 -123 L261 -95 Q281 -156 353 -156 Q399 -156 424 -131 Q449 -106 449 -57 L449 0 L151 553 L151 0 L75 0 L75 700 L152 700 L449 147 L449 700 L525 700 Z " />
<glyph glyph-name="Ntilde" unicode="&#xd1;" horiz-adv-x="600" d="M75 700 L152 700 L449 147 L449 700 L525 700 L525 0 L449 0 L151 553 L151 0 L75 0 L75 700 Z M156 814 Q170 848 193 864 Q216 880 242 880 Q261 880 274 875.5 Q287 871 308 860 Q322 852 332 848 Q342 844 354 844 Q381 844 399 883 L445 850 Q420 783 356 783 Q337 783 323 788 Q309 793 291 803 Q276 811 267 814.5 Q258 818 247 818 Q219 818 202 783 L156 814 Z " />
<glyph glyph-name="O" unicode="O" horiz-adv-x="600" d="M60 351 Q60 534 122.5 624.5 Q185 715 300 715 Q416 715 478 625 Q540 535 540 351 Q540 173 477.5 80 Q415 -13 300 -13 Q186 -13 123 80 Q60 173 60 351 Z M462 351 Q462 495 420.5 569.5 Q379 644 300 644 Q138 644 138 351 Q138 199 179 128.5 Q220 58 300 58 Q381 58 421.5 128.5 Q462 199 462 351 Z " />
<glyph glyph-name="Oacute" unicode="&#xd3;" horiz-adv-x="600" d="M60 351 Q60 534 122.5 624.5 Q185 715 300 715 Q416 715 478 625 Q540 535 540 351 Q540 173 477.5 80 Q415 -13 300 -13 Q186 -13 123 80 Q60 173 60 351 Z M462 351 Q462 495 420.5 569.5 Q379 644 300 644 Q138 644 138 351 Q138 199 179 128.5 Q220 58 300 58 Q381 58 421.5 128.5 Q462 199 462 351 Z M329 891 L435 891 L336 773 L263 773 L329 891 Z " />
<glyph glyph-name="Obreve" unicode="&#x14e;" horiz-adv-x="600" d="M60 351 Q60 534 122.5 624.5 Q185 715 300 715 Q416 715 478 625 Q540 535 540 351 Q540 173 477.5 80 Q415 -13 300 -13 Q186 -13 123 80 Q60 173 60 351 Z M462 351 Q462 495 420.5 569.5 Q379 644 300 644 Q138 644 138 351 Q138 199 179 128.5 Q220 58 300 58 Q381 58 421.5 128.5 Q462 199 462 351 Z M421 886 Q419 835 386 801.5 Q353 768 300 768 Q247 768 214 801.5 Q181 835 179 886 L241 886 Q243 860 258.5 844 Q274 828 300 828 Q326 828 342 844 Q358 860 360 886 L421 886 Z " />
<glyph glyph-name="Ocircumflex" unicode="&#xd4;" horiz-adv-x="600" d="M60 351 Q60 534 122.5 624.5 Q185 715 300 715 Q416 715 478 625 Q540 535 540 351 Q540 173 477.5 80 Q415 -13 300 -13 Q186 -13 123 80 Q60 173 60 351 Z M462 351 Q462 495 420.5 569.5 Q379 644 300 644 Q138 644 138 351 Q138 199 179 128.5 Q220 58 300 58 Q381 58 421.5 128.5 Q462 199 462 351 Z M358 773 L299 837 L241 773 L167 773 L252 891 L347 891 L431 773 L358 773 Z " />
<glyph glyph-name="Odieresis" unicode="&#xd6;" horiz-adv-x="600" d="M60 351 Q60 534 122.5 624.5 Q185 715 300 715 Q416 715 478 625 Q540 535 540 351 Q540 173 477.5 80 Q415 -13 300 -13 Q186 -13 123 80 Q60 173 60 351 Z M462 351 Q462 495 420.5 569.5 Q379 644 300 644 Q138 644 138 351 Q138 199 179 128.5 Q220 58 300 58 Q381 58 421.5 128.5 Q462 199 462 351 Z M220 775 Q196 775 179 791.5 Q162 808 162 832 Q162 856 179 872.5 Q196 889 220 889 Q243 889 260 872.5 Q277 856 277 832 Q277 808 260 791.5 Q243 775 220 775 Z M380 775 Q357 775 340 791.5 Q323 808 323 832 Q323 856 340 872.5 Q357 889 380 889 Q404 889 420.5 872.5 Q437 856 437 832 Q437 808 420.5 791.5 Q404 775 380 775 Z " />
<glyph glyph-name="Ograve" unicode="&#xd2;" horiz-adv-x="600" d="M60 351 Q60 534 122.5 624.5 Q185 715 300 715 Q416 715 478 625 Q540 535 540 351 Q540 173 477.5 80 Q415 -13 300 -13 Q186 -13 123 80 Q60 173 60 351 Z M462 351 Q462 495 420.5 569.5 Q379 644 300 644 Q138 644 138 351 Q138 199 179 128.5 Q220 58 300 58 Q381 58 421.5 128.5 Q462 199 462 351 Z M263 773 L164 891 L270 891 L336 773 L263 773 Z " />
<glyph glyph-name="Ohungarumlaut" unicode="&#x150;" horiz-adv-x="600" d="M60 351 Q60 534 122.5 624.5 Q185 715 300 715 Q416 715 478 625 Q540 535 540 351 Q540 173 477.5 80 Q415 -13 300 -13 Q186 -13 123 80 Q60 173 60 351 Z M462 351 Q462 495 420.5 569.5 Q379 644 300 644 Q138 644 138 351 Q138 199 179 128.5 Q220 58 300 58 Q381 58 421.5 128.5 Q462 199 462 351 Z M200 773 L255 891 L351 891 L262 773 L200 773 Z M328 773 L383 891 L479 891 L390 773 L328 773 Z " />
<glyph glyph-name="Omacron" unicode="&#x14c;" horiz-adv-x="600" d="M60 351 Q60 534 122.5 624.5 Q185 715 300 715 Q416 715 478 625 Q540 535 540 351 Q540 173 477.5 80 Q415 -13 300 -13 Q186 -13 123 80 Q60 173 60 351 Z M462 351 Q462 495 420.5 569.5 Q379 644 300 644 Q138 644 138 351 Q138 199 179 128.5 Q220 58 300 58 Q381 58 421.5 128.5 Q462 199 462 351 Z M203 863 L399 863 L399 801 L203 801 L203 863 Z " />
<glyph glyph-name="Oslash" unicode="&#xd8;" horiz-adv-x="600" d="M487 611 Q540 517 540 351 Q540 173 477.5 80 Q415 -13 300 -13 Q222 -13 169 30 L138 -26 L77 5 L120 84 Q60 178 60 351 Q60 534 122.5 624.5 Q185 715 300 715 Q384 715 439 669 L470 726 L531 691 L487 611 Z M138 351 Q138 235 163 163 L400 598 Q363 644 300 644 Q138 644 138 351 Z M300 58 Q381 58 421.5 128.5 Q462 199 462 351 Q462 453 440 524 L204 95 Q241 58 300 58 Z " />
<glyph glyph-name="Oslashacute" unicode="&#x1fe;" horiz-adv-x="600" d="M487 611 Q540 517 540 351 Q540 173 477.5 80 Q415 -13 300 -13 Q222 -13 169 30 L138 -26 L77 5 L120 84 Q60 178 60 351 Q60 534 122.5 624.5 Q185 715 300 715 Q384 715 439 669 L470 726 L531 691 L487 611 Z M138 351 Q138 235 163 163 L400 598 Q363 644 300 644 Q138 644 138 351 Z M300 58 Q381 58 421.5 128.5 Q462 199 462 351 Q462 453 440 524 L204 95 Q241 58 300 58 Z M329 891 L435 891 L336 773 L263 773 L329 891 Z " />
<glyph glyph-name="Otilde" unicode="&#xd5;" horiz-adv-x="600" d="M60 351 Q60 534 122.5 624.5 Q185 715 300 715 Q416 715 478 625 Q540 535 540 351 Q540 173 477.5 80 Q415 -13 300 -13 Q186 -13 123 80 Q60 173 60 351 Z M462 351 Q462 495 420.5 569.5 Q379 644 300 644 Q138 644 138 351 Q138 199 179 128.5 Q220 58 300 58 Q381 58 421.5 128.5 Q462 199 462 351 Z M156 814 Q170 848 193 864 Q216 880 242 880 Q261 880 274 875.5 Q287 871 308 860 Q322 852 332 848 Q342 844 354 844 Q381 844 399 883 L445 850 Q420 783 356 783 Q337 783 323 788 Q309 793 291 803 Q276 811 267 814.5 Q258 818 247 818 Q219 818 202 783 L156 814 Z " />
<glyph glyph-name="OE" unicode="&#x152;" horiz-adv-x="600" d="M390 630 L390 388 L519 388 L519 319 L390 319 L390 70 L542 70 L542 0 L312 0 L312 78 Q273 -7 196 -7 Q120 -7 81.5 80 Q43 167 43 350 Q43 537 82 622 Q121 707 199 707 Q276 707 312 634 L312 700 L542 700 L542 630 L390 630 Z M199 70 Q241 70 261.5 137 Q282 204 282 350 Q282 630 199 630 Q159 630 140 563 Q121 496 121 350 Q121 203 139.5 136.5 Q158 70 199 70 Z " />
<glyph glyph-name="P" unicode="P" horiz-adv-x="600" d="M85 700 L298 700 Q402 700 462.5 644.5 Q523 589 523 489 Q523 390 461.5 333.5 Q400 277 299 277 L163 277 L163 0 L85 0 L85 700 Z M292 347 Q363 347 404 381.5 Q445 416 445 489 Q445 562 404 596 Q363 630 292 630 L163 630 L163 347 L292 347 Z " />
<glyph glyph-name="Thorn" unicode="&#xde;" horiz-adv-x="600" d="M96 700 L174 700 L174 566 L309 566 Q413 566 473.5 510.5 Q534 455 534 355 Q534 256 472.5 199.5 Q411 143 310 143 L174 143 L174 0 L96 0 L96 700 Z M303 213 Q374 213 415 247.5 Q456 282 456 355 Q456 428 415 462 Q374 496 303 496 L174 496 L174 213 L303 213 Z " />
<glyph glyph-name="Q" unicode="Q" horiz-adv-x="600" d="M493 -29 L433 31 Q378 -13 300 -13 Q186 -13 123 80 Q60 173 60 351 Q60 534 122.5 624.5 Q185 715 300 715 Q416 715 478 625 Q540 535 540 351 Q540 180 482 87 L546 22 L493 -29 Z M300 58 Q348 58 382 83 L322 143 L375 194 L428 141 Q462 214 462 351 Q462 495 420.5 569.5 Q379 644 300 644 Q138 644 138 351 Q138 199 179 128.5 Q220 58 300 58 Z " />
<glyph glyph-name="R" unicode="R" horiz-adv-x="600" d="M285 297 L152 297 L152 0 L74 0 L74 700 L293 700 Q399 700 454.5 644.5 Q510 589 510 499 Q510 419 467.5 369 Q425 319 366 306 L534 0 L450 0 L285 297 Z M297 366 Q358 366 395 399 Q432 432 432 499 Q432 566 393.5 598 Q355 630 293 630 L152 630 L152 366 L297 366 Z " />
<glyph glyph-name="Racute" unicode="&#x154;" horiz-adv-x="600" d="M285 297 L152 297 L152 0 L74 0 L74 700 L293 700 Q399 700 454.5 644.5 Q510 589 510 499 Q510 419 467.5 369 Q425 319 366 306 L534 0 L450 0 L285 297 Z M297 366 Q358 366 395 399 Q432 432 432 499 Q432 566 393.5 598 Q355 630 293 630 L152 630 L152 366 L297 366 Z M310 891 L416 891 L317 773 L244 773 L310 891 Z " />
<glyph glyph-name="Rcaron" unicode="&#x158;" horiz-adv-x="600" d="M285 297 L152 297 L152 0 L74 0 L74 700 L293 700 Q399 700 454.5 644.5 Q510 589 510 499 Q510 419 467.5 369 Q425 319 366 306 L534 0 L450 0 L285 297 Z M297 366 Q358 366 395 399 Q432 432 432 499 Q432 566 393.5 598 Q355 630 293 630 L152 630 L152 366 L297 366 Z M413 895 L329 777 L234 777 L149 895 L223 895 L281 831 L340 895 L413 895 Z " />
<glyph glyph-name="Rcommaaccent" unicode="&#x156;" horiz-adv-x="600" d="M285 297 L152 297 L152 0 L74 0 L74 700 L293 700 Q399 700 454.5 644.5 Q510 589 510 499 Q510 419 467.5 369 Q425 319 366 306 L534 0 L450 0 L285 297 Z M297 366 Q358 366 395 399 Q432 432 432 499 Q432 566 393.5 598 Q355 630 293 630 L152 630 L152 366 L297 366 Z M295 -45 Q318 -45 333.5 -60 Q349 -75 349 -103 Q349 -128 334 -157 Q319 -186 294 -209 L264 -186 Q283 -162 288 -142 Q267 -138 256 -126 Q245 -114 245 -96 Q245 -74 258.5 -59.5 Q272 -45 295 -45 Z " />
<glyph glyph-name="S" unicode="S" horiz-adv-x="600" d="M307 -13 Q114 -13 59 177 L131 199 Q150 128 192.5 92.5 Q235 57 307 57 Q376 57 420 91 Q464 125 464 188 Q464 217 454 240 Q444 263 410 284 Q376 305 308 319 Q196 342 138.5 387 Q81 432 81 518 Q81 578 111 622.5 Q141 667 192 691 Q243 715 305 715 Q477 715 527 533 L456 513 Q441 576 405 610.5 Q369 645 305 645 Q239 645 198 611 Q157 577 157 518 Q157 465 196 439 Q235 413 323 394 Q436 369 488 322 Q540 275 540 188 Q540 128 509 82.5 Q478 37 425 12 Q372 -13 307 -13 Z " />
<glyph glyph-name="Sacute" unicode="&#x15a;" horiz-adv-x="600" d="M307 -13 Q114 -13 59 177 L131 199 Q150 128 192.5 92.5 Q235 57 307 57 Q376 57 420 91 Q464 125 464 188 Q464 217 454 240 Q444 263 410 284 Q376 305 308 319 Q196 342 138.5 387 Q81 432 81 518 Q81 578 111 622.5 Q141 667 192 691 Q243 715 305 715 Q477 715 527 533 L456 513 Q441 576 405 610.5 Q369 645 305 645 Q239 645 198 611 Q157 577 157 518 Q157 465 196 439 Q235 413 323 394 Q436 369 488 322 Q540 275 540 188 Q540 128 509 82.5 Q478 37 425 12 Q372 -13 307 -13 Z M329 891 L435 891 L336 773 L263 773 L329 891 Z " />
<glyph glyph-name="Scaron" unicode="&#x160;" horiz-adv-x="600" d="M307 -13 Q114 -13 59 177 L131 199 Q150 128 192.5 92.5 Q235 57 307 57 Q376 57 420 91 Q464 125 464 188 Q464 217 454 240 Q444 263 410 284 Q376 305 308 319 Q196 342 138.5 387 Q81 432 81 518 Q81 578 111 622.5 Q141 667 192 691 Q243 715 305 715 Q477 715 527 533 L456 513 Q441 576 405 610.5 Q369 645 305 645 Q239 645 198 611 Q157 577 157 518 Q157 465 196 439 Q235 413 323 394 Q436 369 488 322 Q540 275 540 188 Q540 128 509 82.5 Q478 37 425 12 Q372 -13 307 -13 Z M432 895 L348 777 L253 777 L168 895 L242 895 L300 831 L359 895 L432 895 Z " />
<glyph glyph-name="Scedilla" unicode="&#x15e;" horiz-adv-x="600" d="M540 188 Q540 130 511.5 86 Q483 42 433.5 16.5 Q384 -9 323 -13 L308 -41 Q345 -43 367 -63.5 Q389 -84 389 -123 Q389 -161 364 -184.5 Q339 -208 299 -208 Q264 -208 239 -188 Q214 -168 212 -139 L262 -122 Q262 -139 272 -148.5 Q282 -158 299 -158 Q315 -158 325 -148 Q335 -138 335 -122 Q335 -107 325 -97.5 Q315 -88 299 -88 Q285 -88 276 -94 L235 -66 L266 -11 Q108 8 59 177 L131 199 Q150 128 192.5 92.5 Q235 57 307 57 Q376 57 420 91 Q464 125 464 188 Q464 217 454 240 Q444 263 410 284 Q376 305 308 319 Q196 342 138.5 387 Q81 432 81 518 Q81 578 111 622.5 Q141 667 192 691 Q243 715 305 715 Q477 715 527 533 L456 513 Q441 576 405 610.5 Q369 645 305 645 Q239 645 198 611 Q157 577 157 518 Q157 465 196 439 Q235 413 323 394 Q436 369 488 322 Q540 275 540 188 Z " />
<glyph glyph-name="Scircumflex" unicode="&#x15c;" horiz-adv-x="600" d="M307 -13 Q114 -13 59 177 L131 199 Q150 128 192.5 92.5 Q235 57 307 57 Q376 57 420 91 Q464 125 464 188 Q464 217 454 240 Q444 263 410 284 Q376 305 308 319 Q196 342 138.5 387 Q81 432 81 518 Q81 578 111 622.5 Q141 667 192 691 Q243 715 305 715 Q477 715 527 533 L456 513 Q441 576 405 610.5 Q369 645 305 645 Q239 645 198 611 Q157 577 157 518 Q157 465 196 439 Q235 413 323 394 Q436 369 488 322 Q540 275 540 188 Q540 128 509 82.5 Q478 37 425 12 Q372 -13 307 -13 Z M358 773 L299 837 L241 773 L167 773 L252 891 L347 891 L431 773 L358 773 Z " />
<glyph glyph-name="Scommaaccent" unicode="&#x218;" horiz-adv-x="600" d="M307 -13 Q114 -13 59 177 L131 199 Q150 128 192.5 92.5 Q235 57 307 57 Q376 57 420 91 Q464 125 464 188 Q464 217 454 240 Q444 263 410 284 Q376 305 308 319 Q196 342 138.5 387 Q81 432 81 518 Q81 578 111 622.5 Q141 667 192 691 Q243 715 305 715 Q477 715 527 533 L456 513 Q441 576 405 610.5 Q369 645 305 645 Q239 645 198 611 Q157 577 157 518 Q157 465 196 439 Q235 413 323 394 Q436 369 488 322 Q540 275 540 188 Q540 128 509 82.5 Q478 37 425 12 Q372 -13 307 -13 Z M302 -45 Q325 -45 340.5 -60 Q356 -75 356 -103 Q356 -128 341 -157 Q326 -186 301 -209 L271 -186 Q290 -162 295 -142 Q274 -138 263 -126 Q252 -114 252 -96 Q252 -74 265.5 -59.5 Q279 -45 302 -45 Z " />
<glyph glyph-name="T" unicode="T" horiz-adv-x="600" d="M261 629 L60 629 L60 700 L540 700 L540 629 L339 629 L339 0 L261 0 L261 629 Z " />
<glyph glyph-name="Tbar" unicode="&#x166;" horiz-adv-x="600" d="M339 629 L339 385 L456 385 L456 315 L339 315 L339 0 L261 0 L261 315 L145 315 L145 385 L261 385 L261 629 L60 629 L60 700 L540 700 L540 629 L339 629 Z " />
<glyph glyph-name="Tcaron" unicode="&#x164;" horiz-adv-x="600" d="M261 629 L60 629 L60 700 L540 700 L540 629 L339 629 L339 0 L261 0 L261 629 Z M433 895 L349 777 L254 777 L169 895 L243 895 L301 831 L360 895 L433 895 Z " />
<glyph glyph-name="uni0162" unicode="&#x162;" horiz-adv-x="600" d="M331 0 L309 -41 Q346 -43 368 -63.5 Q390 -84 390 -123 Q390 -161 365 -184.5 Q340 -208 300 -208 Q265 -208 240 -188 Q215 -168 213 -139 L263 -122 Q263 -139 273 -148.5 Q283 -158 300 -158 Q316 -158 326 -148 Q336 -138 336 -122 Q336 -107 326 -97.5 Q316 -88 300 -88 Q286 -88 277 -94 L236 -66 L273 0 L261 0 L261 629 L60 629 L60 700 L540 700 L540 629 L339 629 L339 0 L331 0 Z " />
<glyph glyph-name="uni021A" unicode="&#x21a;" horiz-adv-x="600" d="M261 629 L60 629 L60 700 L540 700 L540 629 L339 629 L339 0 L261 0 L261 629 Z M303 -45 Q326 -45 341.5 -60 Q357 -75 357 -103 Q357 -128 342 -157 Q327 -186 302 -209 L272 -186 Q291 -162 296 -142 Q275 -138 264 -126 Q253 -114 253 -96 Q253 -74 266.5 -59.5 Q280 -45 303 -45 Z " />
<glyph glyph-name="U" unicode="U" horiz-adv-x="600" d="M71 700 L149 700 L149 236 Q149 143 189 100 Q229 57 299 57 Q369 57 410 100 Q451 143 451 236 L451 700 L529 700 L529 231 Q529 109 466 47.5 Q403 -14 299 -14 Q195 -14 133 48.5 Q71 111 71 232 L71 700 Z " />
<glyph glyph-name="Uacute" unicode="&#xda;" horiz-adv-x="600" d="M71 700 L149 700 L149 236 Q149 143 189 100 Q229 57 299 57 Q369 57 410 100 Q451 143 451 236 L451 700 L529 700 L529 231 Q529 109 466 47.5 Q403 -14 299 -14 Q195 -14 133 48.5 Q71 111 71 232 L71 700 Z M332 891 L438 891 L339 773 L266 773 L332 891 Z " />
<glyph glyph-name="Ubreve" unicode="&#x16c;" horiz-adv-x="600" d="M71 700 L149 700 L149 236 Q149 143 189 100 Q229 57 299 57 Q369 57 410 100 Q451 143 451 236 L451 700 L529 700 L529 231 Q529 109 466 47.5 Q403 -14 299 -14 Q195 -14 133 48.5 Q71 111 71 232 L71 700 Z M424 886 Q422 835 389 801.5 Q356 768 303 768 Q250 768 217 801.5 Q184 835 182 886 L244 886 Q246 860 261.5 844 Q277 828 303 828 Q329 828 345 844 Q361 860 363 886 L424 886 Z " />
<glyph glyph-name="Ucircumflex" unicode="&#xdb;" horiz-adv-x="600" d="M71 700 L149 700 L149 236 Q149 143 189 100 Q229 57 299 57 Q369 57 410 100 Q451 143 451 236 L451 700 L529 700 L529 231 Q529 109 466 47.5 Q403 -14 299 -14 Q195 -14 133 48.5 Q71 111 71 232 L71 700 Z M361 773 L302 837 L244 773 L170 773 L255 891 L350 891 L434 773 L361 773 Z " />
<glyph glyph-name="Udieresis" unicode="&#xdc;" horiz-adv-x="600" d="M71 700 L149 700 L149 236 Q149 143 189 100 Q229 57 299 57 Q369 57 410 100 Q451 143 451 236 L451 700 L529 700 L529 231 Q529 109 466 47.5 Q403 -14 299 -14 Q195 -14 133 48.5 Q71 111 71 232 L71 700 Z M223 775 Q199 775 182 791.5 Q165 808 165 832 Q165 856 182 872.5 Q199 889 223 889 Q246 889 263 872.5 Q280 856 280 832 Q280 808 263 791.5 Q246 775 223 775 Z M383 775 Q360 775 343 791.5 Q326 808 326 832 Q326 856 343 872.5 Q360 889 383 889 Q407 889 423.5 872.5 Q440 856 440 832 Q440 808 423.5 791.5 Q407 775 383 775 Z " />
<glyph glyph-name="Ugrave" unicode="&#xd9;" horiz-adv-x="600" d="M71 700 L149 700 L149 236 Q149 143 189 100 Q229 57 299 57 Q369 57 410 100 Q451 143 451 236 L451 700 L529 700 L529 231 Q529 109 466 47.5 Q403 -14 299 -14 Q195 -14 133 48.5 Q71 111 71 232 L71 700 Z M266 773 L167 891 L273 891 L339 773 L266 773 Z " />
<glyph glyph-name="Uhungarumlaut" unicode="&#x170;" horiz-adv-x="600" d="M71 700 L149 700 L149 236 Q149 143 189 100 Q229 57 299 57 Q369 57 410 100 Q451 143 451 236 L451 700 L529 700 L529 231 Q529 109 466 47.5 Q403 -14 299 -14 Q195 -14 133 48.5 Q71 111 71 232 L71 700 Z M203 773 L258 891 L354 891 L265 773 L203 773 Z M331 773 L386 891 L482 891 L393 773 L331 773 Z " />
<glyph glyph-name="Umacron" unicode="&#x16a;" horiz-adv-x="600" d="M71 700 L149 700 L149 236 Q149 143 189 100 Q229 57 299 57 Q369 57 410 100 Q451 143 451 236 L451 700 L529 700 L529 231 Q529 109 466 47.5 Q403 -14 299 -14 Q195 -14 133 48.5 Q71 111 71 232 L71 700 Z M206 863 L402 863 L402 801 L206 801 L206 863 Z " />
<glyph glyph-name="Uogonek" unicode="&#x172;" horiz-adv-x="600" d="M369 -180 Q320 -180 290.5 -156 Q261 -132 261 -93 Q261 -49 294 -14 Q193 -12 132 50.5 Q71 113 71 232 L71 700 L149 700 L149 236 Q149 143 189 100 Q229 57 299 57 Q369 57 410 100 Q451 143 451 236 L451 700 L529 700 L529 231 Q529 140 496 87 Q463 34 404 7 Q360 -13 343 -33.5 Q326 -54 326 -78 Q326 -96 340 -109 Q354 -122 378 -122 L384 -122 L383 -179 Q377 -180 369 -180 Z " />
<glyph glyph-name="Uring" unicode="&#x16e;" horiz-adv-x="600" d="M71 700 L149 700 L149 236 Q149 143 189 100 Q229 57 299 57 Q369 57 410 100 Q451 143 451 236 L451 700 L529 700 L529 231 Q529 109 466 47.5 Q403 -14 299 -14 Q195 -14 133 48.5 Q71 111 71 232 L71 700 Z M218 842 Q218 877 243 902 Q268 927 303 927 Q338 927 363.5 902 Q389 877 389 842 Q389 807 363.5 782 Q338 757 303 757 Q268 757 243 782 Q218 807 218 842 Z M271 842 Q271 828 280.5 818.5 Q290 809 303 809 Q317 809 326.5 818.5 Q336 828 336 842 Q336 855 326.5 865 Q317 875 303 875 Q290 875 280.5 865 Q271 855 271 842 Z " />
<glyph glyph-name="Utilde" unicode="&#x168;" horiz-adv-x="600" d="M71 700 L149 700 L149 236 Q149 143 189 100 Q229 57 299 57 Q369 57 410 100 Q451 143 451 236 L451 700 L529 700 L529 231 Q529 109 466 47.5 Q403 -14 299 -14 Q195 -14 133 48.5 Q71 111 71 232 L71 700 Z M159 814 Q173 848 196 864 Q219 880 245 880 Q264 880 277 875.5 Q290 871 311 860 Q325 852 335 848 Q345 844 357 844 Q384 844 402 883 L448 850 Q423 783 359 783 Q340 783 326 788 Q312 793 294 803 Q279 811 270 814.5 Q261 818 250 818 Q222 818 205 783 L159 814 Z " />
<glyph glyph-name="V" unicode="V" horiz-adv-x="600" d="M567 700 L340 0 L259 0 L32 700 L112 700 L300 109 L488 700 L567 700 Z " />
<glyph glyph-name="W" unicode="W" horiz-adv-x="600" d="M563 700 L493 0 L394 0 L301 297 L207 0 L108 0 L37 700 L112 700 L169 99 L267 417 L333 417 L432 99 L488 700 L563 700 Z " />
<glyph glyph-name="Wacute" unicode="&#x1e82;" horiz-adv-x="600" d="M563 700 L493 0 L394 0 L301 297 L207 0 L108 0 L37 700 L112 700 L169 99 L267 417 L333 417 L432 99 L488 700 L563 700 Z M330 891 L436 891 L337 773 L264 773 L330 891 Z " />
<glyph glyph-name="Wcircumflex" unicode="&#x174;" horiz-adv-x="600" d="M563 700 L493 0 L394 0 L301 297 L207 0 L108 0 L37 700 L112 700 L169 99 L267 417 L333 417 L432 99 L488 700 L563 700 Z M359 773 L300 837 L242 773 L168 773 L253 891 L348 891 L432 773 L359 773 Z " />
<glyph glyph-name="Wdieresis" unicode="&#x1e84;" horiz-adv-x="600" d="M563 700 L493 0 L394 0 L301 297 L207 0 L108 0 L37 700 L112 700 L169 99 L267 417 L333 417 L432 99 L488 700 L563 700 Z M221 775 Q197 775 180 791.5 Q163 808 163 832 Q163 856 180 872.5 Q197 889 221 889 Q244 889 261 872.5 Q278 856 278 832 Q278 808 261 791.5 Q244 775 221 775 Z M381 775 Q358 775 341 791.5 Q324 808 324 832 Q324 856 341 872.5 Q358 889 381 889 Q405 889 421.5 872.5 Q438 856 438 832 Q438 808 421.5 791.5 Q405 775 381 775 Z " />
<glyph glyph-name="Wgrave" unicode="&#x1e80;" horiz-adv-x="600" d="M563 700 L493 0 L394 0 L301 297 L207 0 L108 0 L37 700 L112 700 L169 99 L267 417 L333 417 L432 99 L488 700 L563 700 Z M264 773 L165 891 L271 891 L337 773 L264 773 Z " />
<glyph glyph-name="X" unicode="X" horiz-adv-x="600" d="M483 0 L300 295 L119 0 L30 0 L252 356 L39 700 L127 700 L300 418 L474 700 L561 700 L350 357 L570 0 L483 0 Z " />
<glyph glyph-name="uni1E8A" unicode="&#x1e8a;" horiz-adv-x="600" d="M483 0 L300 295 L119 0 L30 0 L252 356 L39 700 L127 700 L300 418 L474 700 L561 700 L350 357 L570 0 L483 0 Z M241 833 Q241 857 257.5 873.5 Q274 890 299 890 Q322 890 338.5 873.5 Q355 857 355 833 Q355 809 338.5 792.5 Q322 776 299 776 Q274 776 257.5 792.5 Q241 809 241 833 Z " />
<glyph glyph-name="Y" unicode="Y" horiz-adv-x="600" d="M339 0 L261 0 L261 284 L25 700 L110 700 L300 360 L491 700 L575 700 L339 284 L339 0 Z " />
<glyph glyph-name="Yacute" unicode="&#xdd;" horiz-adv-x="600" d="M339 0 L261 0 L261 284 L25 700 L110 700 L300 360 L491 700 L575 700 L339 284 L339 0 Z M329 891 L435 891 L336 773 L263 773 L329 891 Z " />
<glyph glyph-name="Ycircumflex" unicode="&#x176;" horiz-adv-x="600" d="M339 0 L261 0 L261 284 L25 700 L110 700 L300 360 L491 700 L575 700 L339 284 L339 0 Z M358 773 L299 837 L241 773 L167 773 L252 891 L347 891 L431 773 L358 773 Z " />
<glyph glyph-name="Ydieresis" unicode="&#x178;" horiz-adv-x="600" d="M339 0 L261 0 L261 284 L25 700 L110 700 L300 360 L491 700 L575 700 L339 284 L339 0 Z M220 775 Q196 775 179 791.5 Q162 808 162 832 Q162 856 179 872.5 Q196 889 220 889 Q243 889 260 872.5 Q277 856 277 832 Q277 808 260 791.5 Q243 775 220 775 Z M380 775 Q357 775 340 791.5 Q323 808 323 832 Q323 856 340 872.5 Q357 889 380 889 Q404 889 420.5 872.5 Q437 856 437 832 Q437 808 420.5 791.5 Q404 775 380 775 Z " />
<glyph glyph-name="Ygrave" unicode="&#x1ef2;" horiz-adv-x="600" d="M339 0 L261 0 L261 284 L25 700 L110 700 L300 360 L491 700 L575 700 L339 284 L339 0 Z M263 773 L164 891 L270 891 L336 773 L263 773 Z " />
<glyph glyph-name="Z" unicode="Z" horiz-adv-x="600" d="M60 69 L452 630 L88 630 L88 700 L540 700 L540 631 L148 70 L534 70 L534 0 L60 0 L60 69 Z " />
<glyph glyph-name="Zacute" unicode="&#x179;" horiz-adv-x="600" d="M60 69 L452 630 L88 630 L88 700 L540 700 L540 631 L148 70 L534 70 L534 0 L60 0 L60 69 Z M329 891 L435 891 L336 773 L263 773 L329 891 Z " />
<glyph glyph-name="Zcaron" unicode="&#x17d;" horiz-adv-x="600" d="M60 69 L452 630 L88 630 L88 700 L540 700 L540 631 L148 70 L534 70 L534 0 L60 0 L60 69 Z M432 895 L348 777 L253 777 L168 895 L242 895 L300 831 L359 895 L432 895 Z " />
<glyph glyph-name="Zdotaccent" unicode="&#x17b;" horiz-adv-x="600" d="M60 69 L452 630 L88 630 L88 700 L540 700 L540 631 L148 70 L534 70 L534 0 L60 0 L60 69 Z M242 833 Q242 857 258.5 873.5 Q275 890 300 890 Q323 890 339.5 873.5 Q356 857 356 833 Q356 809 339.5 792.5 Q323 776 300 776 Q275 776 258.5 792.5 Q242 809 242 833 Z " />
<glyph glyph-name="uni01B5" unicode="&#x1b5;" horiz-adv-x="600" d="M540 631 L368 385 L495 385 L495 315 L319 315 L148 70 L534 70 L534 0 L60 0 L60 69 L232 315 L124 315 L124 385 L281 385 L452 630 L88 630 L88 700 L540 700 L540 631 Z " />
<glyph glyph-name="a" unicode="a" horiz-adv-x="600" d="M104 356 Q119 427 169.5 465.5 Q220 504 301 504 Q395 504 449 458.5 Q503 413 503 328 L503 0 L440 0 L430 52 Q383 -14 271 -14 Q215 -14 175.5 6 Q136 26 116 60 Q96 94 96 134 Q96 200 142.5 239 Q189 278 290 292 L427 311 L427 327 Q427 382 395.5 411 Q364 440 301 440 Q187 440 173 339 L104 356 Z M427 249 L299 231 Q235 222 202.5 201 Q170 180 170 138 Q170 98 201.5 75 Q233 52 287 52 Q346 52 386.5 83.5 Q427 115 427 177 L427 249 Z " />
<glyph glyph-name="aacute" unicode="&#xe1;" horiz-adv-x="600" d="M104 356 Q119 427 169.5 465.5 Q220 504 301 504 Q395 504 449 458.5 Q503 413 503 328 L503 0 L440 0 L430 52 Q383 -14 271 -14 Q215 -14 175.5 6 Q136 26 116 60 Q96 94 96 134 Q96 200 142.5 239 Q189 278 290 292 L427 311 L427 327 Q427 382 395.5 411 Q364 440 301 440 Q187 440 173 339 L104 356 Z M427 249 L299 231 Q235 222 202.5 201 Q170 180 170 138 Q170 98 201.5 75 Q233 52 287 52 Q346 52 386.5 83.5 Q427 115 427 177 L427 249 Z M340 685 L446 685 L347 567 L274 567 L340 685 Z " />
<glyph glyph-name="abreve" unicode="&#x103;" horiz-adv-x="600" d="M104 356 Q119 427 169.5 465.5 Q220 504 301 504 Q395 504 449 458.5 Q503 413 503 328 L503 0 L440 0 L430 52 Q383 -14 271 -14 Q215 -14 175.5 6 Q136 26 116 60 Q96 94 96 134 Q96 200 142.5 239 Q189 278 290 292 L427 311 L427 327 Q427 382 395.5 411 Q364 440 301 440 Q187 440 173 339 L104 356 Z M427 249 L299 231 Q235 222 202.5 201 Q170 180 170 138 Q170 98 201.5 75 Q233 52 287 52 Q346 52 386.5 83.5 Q427 115 427 177 L427 249 Z M422 686 Q420 635 387 601.5 Q354 568 301 568 Q248 568 215 601.5 Q182 635 180 686 L242 686 Q244 660 259.5 644 Q275 628 301 628 Q327 628 343 644 Q359 660 361 686 L422 686 Z " />
<glyph glyph-name="acircumflex" unicode="&#xe2;" horiz-adv-x="600" d="M104 356 Q119 427 169.5 465.5 Q220 504 301 504 Q395 504 449 458.5 Q503 413 503 328 L503 0 L440 0 L430 52 Q383 -14 271 -14 Q215 -14 175.5 6 Q136 26 116 60 Q96 94 96 134 Q96 200 142.5 239 Q189 278 290 292 L427 311 L427 327 Q427 382 395.5 411 Q364 440 301 440 Q187 440 173 339 L104 356 Z M427 249 L299 231 Q235 222 202.5 201 Q170 180 170 138 Q170 98 201.5 75 Q233 52 287 52 Q346 52 386.5 83.5 Q427 115 427 177 L427 249 Z M360 567 L301 631 L243 567 L169 567 L254 685 L349 685 L433 567 L360 567 Z " />
<glyph glyph-name="adieresis" unicode="&#xe4;" horiz-adv-x="600" d="M104 356 Q119 427 169.5 465.5 Q220 504 301 504 Q395 504 449 458.5 Q503 413 503 328 L503 0 L440 0 L430 52 Q383 -14 271 -14 Q215 -14 175.5 6 Q136 26 116 60 Q96 94 96 134 Q96 200 142.5 239 Q189 278 290 292 L427 311 L427 327 Q427 382 395.5 411 Q364 440 301 440 Q187 440 173 339 L104 356 Z M427 249 L299 231 Q235 222 202.5 201 Q170 180 170 138 Q170 98 201.5 75 Q233 52 287 52 Q346 52 386.5 83.5 Q427 115 427 177 L427 249 Z M221 569 Q197 569 180 586 Q163 603 163 626 Q163 649 180 666 Q197 683 221 683 Q244 683 261 666 Q278 649 278 626 Q278 603 261 586 Q244 569 221 569 Z M378 569 Q355 569 338 586 Q321 603 321 626 Q321 649 338 666 Q355 683 378 683 Q402 683 418.5 666 Q435 649 435 626 Q435 603 418.5 586 Q402 569 378 569 Z " />
<glyph glyph-name="agrave" unicode="&#xe0;" horiz-adv-x="600" d="M104 356 Q119 427 169.5 465.5 Q220 504 301 504 Q395 504 449 458.5 Q503 413 503 328 L503 0 L440 0 L430 52 Q383 -14 271 -14 Q215 -14 175.5 6 Q136 26 116 60 Q96 94 96 134 Q96 200 142.5 239 Q189 278 290 292 L427 311 L427 327 Q427 382 395.5 411 Q364 440 301 440 Q187 440 173 339 L104 356 Z M427 249 L299 231 Q235 222 202.5 201 Q170 180 170 138 Q170 98 201.5 75 Q233 52 287 52 Q346 52 386.5 83.5 Q427 115 427 177 L427 249 Z M265 567 L166 685 L272 685 L338 567 L265 567 Z " />
<glyph glyph-name="amacron" unicode="&#x101;" horiz-adv-x="600" d="M104 356 Q119 427 169.5 465.5 Q220 504 301 504 Q395 504 449 458.5 Q503 413 503 328 L503 0 L440 0 L430 52 Q383 -14 271 -14 Q215 -14 175.5 6 Q136 26 116 60 Q96 94 96 134 Q96 200 142.5 239 Q189 278 290 292 L427 311 L427 327 Q427 382 395.5 411 Q364 440 301 440 Q187 440 173 339 L104 356 Z M427 249 L299 231 Q235 222 202.5 201 Q170 180 170 138 Q170 98 201.5 75 Q233 52 287 52 Q346 52 386.5 83.5 Q427 115 427 177 L427 249 Z M204 657 L400 657 L400 595 L204 595 L204 657 Z " />
<glyph glyph-name="aogonek" unicode="&#x105;" horiz-adv-x="600" d="M301 504 Q395 504 449 458.5 Q503 413 503 328 L503 0 L497 0 Q435 -34 435 -78 Q435 -96 449 -109 Q463 -122 487 -122 L493 -122 L492 -179 Q486 -180 478 -180 Q429 -180 399.5 -156 Q370 -132 370 -93 Q370 -29 437 14 L430 52 Q383 -14 271 -14 Q215 -14 175.5 6 Q136 26 116 60 Q96 94 96 134 Q96 200 142.5 239 Q189 278 290 292 L427 311 L427 327 Q427 382 395.5 411 Q364 440 301 440 Q187 440 173 339 L104 356 Q119 427 169.5 465.5 Q220 504 301 504 Z M427 249 L299 231 Q235 222 202.5 201 Q170 180 170 138 Q170 98 201.5 75 Q233 52 287 52 Q346 52 386.5 83.5 Q427 115 427 177 L427 249 Z " />
<glyph glyph-name="aring" unicode="&#xe5;" horiz-adv-x="600" d="M104 356 Q119 427 169.5 465.5 Q220 504 301 504 Q395 504 449 458.5 Q503 413 503 328 L503 0 L440 0 L430 52 Q383 -14 271 -14 Q215 -14 175.5 6 Q136 26 116 60 Q96 94 96 134 Q96 200 142.5 239 Q189 278 290 292 L427 311 L427 327 Q427 382 395.5 411 Q364 440 301 440 Q187 440 173 339 L104 356 Z M427 249 L299 231 Q235 222 202.5 201 Q170 180 170 138 Q170 98 201.5 75 Q233 52 287 52 Q346 52 386.5 83.5 Q427 115 427 177 L427 249 Z M216 637 Q216 672 241 697 Q266 722 301 722 Q336 722 361.5 697 Q387 672 387 637 Q387 602 361.5 577 Q336 552 301 552 Q266 552 241 577 Q216 602 216 637 Z M269 637 Q269 623 278.5 613.5 Q288 604 301 604 Q315 604 324.5 613.5 Q334 623 334 637 Q334 650 324.5 660 Q315 670 301 670 Q288 670 278.5 660 Q269 650 269 637 Z " />
<glyph glyph-name="atilde" unicode="&#xe3;" horiz-adv-x="600" d="M104 356 Q119 427 169.5 465.5 Q220 504 301 504 Q395 504 449 458.5 Q503 413 503 328 L503 0 L440 0 L430 52 Q383 -14 271 -14 Q215 -14 175.5 6 Q136 26 116 60 Q96 94 96 134 Q96 200 142.5 239 Q189 278 290 292 L427 311 L427 327 Q427 382 395.5 411 Q364 440 301 440 Q187 440 173 339 L104 356 Z M427 249 L299 231 Q235 222 202.5 201 Q170 180 170 138 Q170 98 201.5 75 Q233 52 287 52 Q346 52 386.5 83.5 Q427 115 427 177 L427 249 Z M161 610 Q175 644 198 660 Q221 676 247 676 Q266 676 279 671.5 Q292 667 313 656 Q327 648 337 644 Q347 640 359 640 Q386 640 404 679 L450 646 Q438 613 414.5 596 Q391 579 361 579 Q342 579 328 584 Q314 589 296 599 Q281 607 272 610.5 Q263 614 252 614 Q224 614 207 579 L161 610 Z " />
<glyph glyph-name="ae" unicode="&#xe6;" horiz-adv-x="600" d="M551 224 L330 224 Q330 51 407 51 Q439 51 454 76.5 Q469 102 475 146 L541 131 Q533 67 500 26.5 Q467 -14 404 -14 Q324 -14 289 51 Q271 20 243.5 3 Q216 -14 180 -14 Q115 -14 82.5 27 Q50 68 50 133 Q50 190 86.5 231 Q123 272 201 281 L254 287 L254 315 Q254 375 240.5 407 Q227 439 193 439 Q159 439 143.5 412.5 Q128 386 126 339 L58 353 Q66 425 100 464.5 Q134 504 193 504 Q267 504 297 437 Q338 504 408 504 Q480 504 515.5 444 Q551 384 551 261 L551 224 Z M480 287 Q480 439 404 439 Q365 439 347 398 Q329 357 329 287 L480 287 Z M254 224 L201 217 Q163 212 143.5 194.5 Q124 177 124 137 Q124 51 184 51 Q216 51 235 75.5 Q254 100 254 152 L254 224 Z " />
<glyph glyph-name="aeacute" unicode="&#x1fd;" horiz-adv-x="600" d="M551 224 L330 224 Q330 51 407 51 Q439 51 454 76.5 Q469 102 475 146 L541 131 Q533 67 500 26.5 Q467 -14 404 -14 Q324 -14 289 51 Q271 20 243.5 3 Q216 -14 180 -14 Q115 -14 82.5 27 Q50 68 50 133 Q50 190 86.5 231 Q123 272 201 281 L254 287 L254 315 Q254 375 240.5 407 Q227 439 193 439 Q159 439 143.5 412.5 Q128 386 126 339 L58 353 Q66 425 100 464.5 Q134 504 193 504 Q267 504 297 437 Q338 504 408 504 Q480 504 515.5 444 Q551 384 551 261 L551 224 Z M480 287 Q480 439 404 439 Q365 439 347 398 Q329 357 329 287 L480 287 Z M254 224 L201 217 Q163 212 143.5 194.5 Q124 177 124 137 Q124 51 184 51 Q216 51 235 75.5 Q254 100 254 152 L254 224 Z M336 695 L442 695 L343 577 L270 577 L336 695 Z " />
<glyph glyph-name="b" unicode="b" horiz-adv-x="600" d="M137 700 L137 419 Q166 458 209 481 Q252 504 309 504 Q384 504 436.5 467 Q489 430 515.5 371 Q542 312 542 246 Q542 181 514 121.5 Q486 62 433 24.5 Q380 -13 309 -13 Q249 -13 205.5 10.5 Q162 34 135 72 L125 0 L61 0 L61 700 L137 700 Z M136 246 Q136 191 156.5 147.5 Q177 104 214.5 79.5 Q252 55 301 55 Q349 55 386.5 79.5 Q424 104 445 147.5 Q466 191 466 246 Q466 301 445 344 Q424 387 386.5 411.5 Q349 436 301 436 Q252 436 214.5 411.5 Q177 387 156.5 344 Q136 301 136 246 Z " />
<glyph glyph-name="c" unicode="c" horiz-adv-x="600" d="M530 139 Q505 71 450 28.5 Q395 -14 316 -14 Q239 -14 183 22.5 Q127 59 98 118.5 Q69 178 69 245 Q69 312 99 371.5 Q129 431 185 467.5 Q241 504 316 504 Q397 504 452 462.5 Q507 421 529 355 L460 331 Q443 380 405.5 407.5 Q368 435 316 435 Q266 435 227 410.5 Q188 386 166.5 342.5 Q145 299 145 245 Q145 191 166.5 147.5 Q188 104 227 79.5 Q266 55 316 55 Q368 55 406 84 Q444 113 461 163 L530 139 Z " />
<glyph glyph-name="cacute" unicode="&#x107;" horiz-adv-x="600" d="M530 139 Q505 71 450 28.5 Q395 -14 316 -14 Q239 -14 183 22.5 Q127 59 98 118.5 Q69 178 69 245 Q69 312 99 371.5 Q129 431 185 467.5 Q241 504 316 504 Q397 504 452 462.5 Q507 421 529 355 L460 331 Q443 380 405.5 407.5 Q368 435 316 435 Q266 435 227 410.5 Q188 386 166.5 342.5 Q145 299 145 245 Q145 191 166.5 147.5 Q188 104 227 79.5 Q266 55 316 55 Q368 55 406 84 Q444 113 461 163 L530 139 Z M355 685 L461 685 L362 567 L289 567 L355 685 Z " />
<glyph glyph-name="ccaron" unicode="&#x10d;" horiz-adv-x="600" d="M530 139 Q505 71 450 28.5 Q395 -14 316 -14 Q239 -14 183 22.5 Q127 59 98 118.5 Q69 178 69 245 Q69 312 99 371.5 Q129 431 185 467.5 Q241 504 316 504 Q397 504 452 462.5 Q507 421 529 355 L460 331 Q443 380 405.5 407.5 Q368 435 316 435 Q266 435 227 410.5 Q188 386 166.5 342.5 Q145 299 145 245 Q145 191 166.5 147.5 Q188 104 227 79.5 Q266 55 316 55 Q368 55 406 84 Q444 113 461 163 L530 139 Z M448 685 L364 567 L269 567 L184 685 L258 685 L316 621 L375 685 L448 685 Z " />
<glyph glyph-name="ccedilla" unicode="&#xe7;" horiz-adv-x="600" d="M530 139 Q507 76 458.5 34.5 Q410 -7 340 -13 L325 -41 Q362 -43 384 -63.5 Q406 -84 406 -123 Q406 -161 381 -184.5 Q356 -208 316 -208 Q281 -208 256 -188 Q231 -168 229 -139 L279 -122 Q279 -139 289 -148.5 Q299 -158 316 -158 Q332 -158 342 -148 Q352 -138 352 -122 Q352 -107 342 -97.5 Q332 -88 316 -88 Q302 -88 293 -94 L252 -66 L282 -12 Q216 -4 167.5 34 Q119 72 94 127.5 Q69 183 69 245 Q69 312 99 371.5 Q129 431 185 467.5 Q241 504 316 504 Q397 504 452 462.5 Q507 421 529 355 L460 331 Q443 380 405.5 407.5 Q368 435 316 435 Q266 435 227 410.5 Q188 386 166.5 342.5 Q145 299 145 245 Q145 191 166.5 147.5 Q188 104 227 79.5 Q266 55 316 55 Q368 55 406 84 Q444 113 461 163 L530 139 Z " />
<glyph glyph-name="ccircumflex" unicode="&#x109;" horiz-adv-x="600" d="M530 139 Q505 71 450 28.5 Q395 -14 316 -14 Q239 -14 183 22.5 Q127 59 98 118.5 Q69 178 69 245 Q69 312 99 371.5 Q129 431 185 467.5 Q241 504 316 504 Q397 504 452 462.5 Q507 421 529 355 L460 331 Q443 380 405.5 407.5 Q368 435 316 435 Q266 435 227 410.5 Q188 386 166.5 342.5 Q145 299 145 245 Q145 191 166.5 147.5 Q188 104 227 79.5 Q266 55 316 55 Q368 55 406 84 Q444 113 461 163 L530 139 Z M375 567 L316 631 L258 567 L184 567 L269 685 L364 685 L448 567 L375 567 Z " />
<glyph glyph-name="cdotaccent" unicode="&#x10b;" horiz-adv-x="600" d="M530 139 Q505 71 450 28.5 Q395 -14 316 -14 Q239 -14 183 22.5 Q127 59 98 118.5 Q69 178 69 245 Q69 312 99 371.5 Q129 431 185 467.5 Q241 504 316 504 Q397 504 452 462.5 Q507 421 529 355 L460 331 Q443 380 405.5 407.5 Q368 435 316 435 Q266 435 227 410.5 Q188 386 166.5 342.5 Q145 299 145 245 Q145 191 166.5 147.5 Q188 104 227 79.5 Q266 55 316 55 Q368 55 406 84 Q444 113 461 163 L530 139 Z M259 626 Q259 650 275.5 666.5 Q292 683 317 683 Q340 683 356.5 666.5 Q373 650 373 626 Q373 602 356.5 585.5 Q340 569 317 569 Q292 569 275.5 585.5 Q259 602 259 626 Z " />
<glyph glyph-name="d" unicode="d" horiz-adv-x="600" d="M530 0 L466 0 L456 72 Q429 34 385.5 10.5 Q342 -13 282 -13 Q211 -13 158 24.5 Q105 62 77 121.5 Q49 181 49 246 Q49 312 75.5 371 Q102 430 154.5 467 Q207 504 282 504 Q339 504 382 481 Q425 458 454 419 L454 700 L530 700 L530 0 Z M455 246 Q455 301 434.5 344 Q414 387 376.5 411.5 Q339 436 290 436 Q242 436 204.5 411.5 Q167 387 146 344 Q125 301 125 246 Q125 191 146 147.5 Q167 104 204.5 79.5 Q242 55 290 55 Q339 55 376.5 79.5 Q414 104 434.5 147.5 Q455 191 455 246 Z " />
<glyph glyph-name="eth" unicode="&#xf0;" horiz-adv-x="600" d="M414 629 Q550 478 550 277 Q550 192 521 126.5 Q492 61 435.5 23.5 Q379 -14 298 -14 Q217 -14 160.5 23 Q104 60 75.5 119 Q47 178 47 243 Q47 307 77.5 366 Q108 425 165.5 462 Q223 499 298 499 Q392 499 456 438 Q425 527 350 606 L217 557 L197 609 L304 648 Q258 687 206 717 L247 764 Q318 720 371 673 L484 714 L504 662 L414 629 Z M298 54 Q349 54 389 79.5 Q429 105 451 149.5 Q473 194 473 250 Q473 300 451 342 Q429 384 389 408 Q349 432 298 432 Q247 432 207 407.5 Q167 383 145 340 Q123 297 123 243 Q123 190 145 147 Q167 104 207 79 Q247 54 298 54 Z " />
<glyph glyph-name="dcaron" unicode="&#x10f;" horiz-adv-x="600" d="M516 0 L452 0 L442 72 Q382 -13 276 -13 Q207 -13 155.5 24.5 Q104 62 76.5 121.5 Q49 181 49 246 Q49 312 74.5 371 Q100 430 151.5 467 Q203 504 276 504 Q376 504 440 419 L440 700 L516 700 L516 0 Z M566 700 L653 700 L609 582 L552 582 L566 700 Z M441 246 Q441 300 421 343.5 Q401 387 365 411.5 Q329 436 284 436 Q211 436 168 383 Q125 330 125 246 Q125 162 168.5 108.5 Q212 55 284 55 Q329 55 364.5 80 Q400 105 420.5 148.5 Q441 192 441 246 Z " />
<glyph glyph-name="dslash" unicode="&#x111;" horiz-adv-x="600" d="M595 561 L530 561 L530 0 L466 0 L456 72 Q429 34 385.5 10.5 Q342 -13 282 -13 Q211 -13 158 24.5 Q105 62 77 121.5 Q49 181 49 246 Q49 312 75.5 371 Q102 430 154.5 467 Q207 504 282 504 Q339 504 382 481 Q425 458 454 419 L454 561 L310 561 L310 622 L454 622 L454 700 L530 700 L530 622 L595 622 L595 561 Z M290 55 Q339 55 376.5 79.5 Q414 104 434.5 147.5 Q455 191 455 246 Q455 301 434.5 344 Q414 387 376.5 411.5 Q339 436 290 436 Q242 436 204.5 411.5 Q167 387 146 344 Q125 301 125 246 Q125 191 146 147.5 Q167 104 204.5 79.5 Q242 55 290 55 Z " />
<glyph glyph-name="e" unicode="e" horiz-adv-x="600" d="M522 125 Q501 66 445.5 26 Q390 -14 307 -14 Q234 -14 178.5 20.5 Q123 55 93 114.5 Q63 174 63 245 Q63 315 94.5 374.5 Q126 434 182 469 Q238 504 306 504 Q374 504 426 473.5 Q478 443 507 387 Q536 331 536 257 L536 224 L138 224 Q140 176 162 136.5 Q184 97 221.5 74 Q259 51 307 51 Q363 51 402.5 78.5 Q442 106 455 146 L522 125 Z M465 287 Q460 352 416.5 395.5 Q373 439 307 439 Q237 439 192.5 396 Q148 353 139 287 L465 287 Z " />
<glyph glyph-name="eacute" unicode="&#xe9;" horiz-adv-x="600" d="M522 125 Q501 66 445.5 26 Q390 -14 307 -14 Q234 -14 178.5 20.5 Q123 55 93 114.5 Q63 174 63 245 Q63 315 94.5 374.5 Q126 434 182 469 Q238 504 306 504 Q374 504 426 473.5 Q478 443 507 387 Q536 331 536 257 L536 224 L138 224 Q140 176 162 136.5 Q184 97 221.5 74 Q259 51 307 51 Q363 51 402.5 78.5 Q442 106 455 146 L522 125 Z M465 287 Q460 352 416.5 395.5 Q373 439 307 439 Q237 439 192.5 396 Q148 353 139 287 L465 287 Z M345 685 L451 685 L352 567 L279 567 L345 685 Z " />
<glyph glyph-name="ebreve" unicode="&#x115;" horiz-adv-x="600" d="M522 125 Q501 66 445.5 26 Q390 -14 307 -14 Q234 -14 178.5 20.5 Q123 55 93 114.5 Q63 174 63 245 Q63 315 94.5 374.5 Q126 434 182 469 Q238 504 306 504 Q374 504 426 473.5 Q478 443 507 387 Q536 331 536 257 L536 224 L138 224 Q140 176 162 136.5 Q184 97 221.5 74 Q259 51 307 51 Q363 51 402.5 78.5 Q442 106 455 146 L522 125 Z M465 287 Q460 352 416.5 395.5 Q373 439 307 439 Q237 439 192.5 396 Q148 353 139 287 L465 287 Z M427 686 Q425 635 392 601.5 Q359 568 306 568 Q253 568 220 601.5 Q187 635 185 686 L247 686 Q249 660 264.5 644 Q280 628 306 628 Q332 628 348 644 Q364 660 366 686 L427 686 Z " />
<glyph glyph-name="ecaron" unicode="&#x11b;" horiz-adv-x="600" d="M522 125 Q501 66 445.5 26 Q390 -14 307 -14 Q234 -14 178.5 20.5 Q123 55 93 114.5 Q63 174 63 245 Q63 315 94.5 374.5 Q126 434 182 469 Q238 504 306 504 Q374 504 426 473.5 Q478 443 507 387 Q536 331 536 257 L536 224 L138 224 Q140 176 162 136.5 Q184 97 221.5 74 Q259 51 307 51 Q363 51 402.5 78.5 Q442 106 455 146 L522 125 Z M465 287 Q460 352 416.5 395.5 Q373 439 307 439 Q237 439 192.5 396 Q148 353 139 287 L465 287 Z M438 685 L354 567 L259 567 L174 685 L248 685 L306 621 L365 685 L438 685 Z " />
<glyph glyph-name="ecircumflex" unicode="&#xea;" horiz-adv-x="600" d="M522 125 Q501 66 445.5 26 Q390 -14 307 -14 Q234 -14 178.5 20.5 Q123 55 93 114.5 Q63 174 63 245 Q63 315 94.5 374.5 Q126 434 182 469 Q238 504 306 504 Q374 504 426 473.5 Q478 443 507 387 Q536 331 536 257 L536 224 L138 224 Q140 176 162 136.5 Q184 97 221.5 74 Q259 51 307 51 Q363 51 402.5 78.5 Q442 106 455 146 L522 125 Z M465 287 Q460 352 416.5 395.5 Q373 439 307 439 Q237 439 192.5 396 Q148 353 139 287 L465 287 Z M365 567 L306 631 L248 567 L174 567 L259 685 L354 685 L438 567 L365 567 Z " />
<glyph glyph-name="edieresis" unicode="&#xeb;" horiz-adv-x="600" d="M522 125 Q501 66 445.5 26 Q390 -14 307 -14 Q234 -14 178.5 20.5 Q123 55 93 114.5 Q63 174 63 245 Q63 315 94.5 374.5 Q126 434 182 469 Q238 504 306 504 Q374 504 426 473.5 Q478 443 507 387 Q536 331 536 257 L536 224 L138 224 Q140 176 162 136.5 Q184 97 221.5 74 Q259 51 307 51 Q363 51 402.5 78.5 Q442 106 455 146 L522 125 Z M465 287 Q460 352 416.5 395.5 Q373 439 307 439 Q237 439 192.5 396 Q148 353 139 287 L465 287 Z M226 569 Q202 569 185 586 Q168 603 168 626 Q168 649 185 666 Q202 683 226 683 Q249 683 266 666 Q283 649 283 626 Q283 603 266 586 Q249 569 226 569 Z M383 569 Q360 569 343 586 Q326 603 326 626 Q326 649 343 666 Q360 683 383 683 Q407 683 423.5 666 Q440 649 440 626 Q440 603 423.5 586 Q407 569 383 569 Z " />
<glyph glyph-name="edotaccent" unicode="&#x117;" horiz-adv-x="600" d="M522 125 Q501 66 445.5 26 Q390 -14 307 -14 Q234 -14 178.5 20.5 Q123 55 93 114.5 Q63 174 63 245 Q63 315 94.5 374.5 Q126 434 182 469 Q238 504 306 504 Q374 504 426 473.5 Q478 443 507 387 Q536 331 536 257 L536 224 L138 224 Q140 176 162 136.5 Q184 97 221.5 74 Q259 51 307 51 Q363 51 402.5 78.5 Q442 106 455 146 L522 125 Z M465 287 Q460 352 416.5 395.5 Q373 439 307 439 Q237 439 192.5 396 Q148 353 139 287 L465 287 Z M249 626 Q249 650 265.5 666.5 Q282 683 307 683 Q330 683 346.5 666.5 Q363 650 363 626 Q363 602 346.5 585.5 Q330 569 307 569 Q282 569 265.5 585.5 Q249 602 249 626 Z " />
<glyph glyph-name="egrave" unicode="&#xe8;" horiz-adv-x="600" d="M522 125 Q501 66 445.5 26 Q390 -14 307 -14 Q234 -14 178.5 20.5 Q123 55 93 114.5 Q63 174 63 245 Q63 315 94.5 374.5 Q126 434 182 469 Q238 504 306 504 Q374 504 426 473.5 Q478 443 507 387 Q536 331 536 257 L536 224 L138 224 Q140 176 162 136.5 Q184 97 221.5 74 Q259 51 307 51 Q363 51 402.5 78.5 Q442 106 455 146 L522 125 Z M465 287 Q460 352 416.5 395.5 Q373 439 307 439 Q237 439 192.5 396 Q148 353 139 287 L465 287 Z M270 567 L171 685 L277 685 L343 567 L270 567 Z " />
<glyph glyph-name="emacron" unicode="&#x113;" horiz-adv-x="600" d="M522 125 Q501 66 445.5 26 Q390 -14 307 -14 Q234 -14 178.5 20.5 Q123 55 93 114.5 Q63 174 63 245 Q63 315 94.5 374.5 Q126 434 182 469 Q238 504 306 504 Q374 504 426 473.5 Q478 443 507 387 Q536 331 536 257 L536 224 L138 224 Q140 176 162 136.5 Q184 97 221.5 74 Q259 51 307 51 Q363 51 402.5 78.5 Q442 106 455 146 L522 125 Z M465 287 Q460 352 416.5 395.5 Q373 439 307 439 Q237 439 192.5 396 Q148 353 139 287 L465 287 Z M209 657 L405 657 L405 595 L209 595 L209 657 Z " />
<glyph glyph-name="eogonek" unicode="&#x119;" horiz-adv-x="600" d="M63 245 Q63 315 94.5 374.5 Q126 434 182 469 Q238 504 306 504 Q374 504 426 473.5 Q478 443 507 387 Q536 331 536 257 L536 224 L138 224 Q140 176 162 136.5 Q184 97 221.5 74 Q259 51 307 51 Q363 51 402.5 78.5 Q442 106 455 146 L522 125 Q509 86 479 55 Q449 24 408 5 Q364 -14 348 -34.5 Q332 -55 332 -78 Q332 -96 346 -109 Q360 -122 384 -122 L390 -122 L389 -179 Q383 -180 375 -180 Q326 -180 296.5 -156 Q267 -132 267 -93 Q267 -49 300 -14 Q229 -12 175 23 Q121 58 92 116.5 Q63 175 63 245 Z M465 287 Q460 352 416.5 395.5 Q373 439 307 439 Q237 439 192.5 396 Q148 353 139 287 L465 287 Z " />
<glyph glyph-name="f" unicode="f" horiz-adv-x="600" d="M290 423 L290 70 L417 70 L417 0 L96 0 L96 70 L214 70 L214 423 L85 423 L85 490 L214 490 L214 580 Q214 642 253 678 Q292 714 362 714 Q427 714 457.5 678.5 Q488 643 501 607 L435 582 Q434 584 428.5 601.5 Q423 619 404.5 633 Q386 647 361 647 Q290 647 290 574 L290 490 L515 490 L515 423 L290 423 Z " />
<glyph glyph-name="g" unicode="g" horiz-adv-x="600" d="M293 -5 Q219 -5 166 31 Q113 67 86.5 125 Q60 183 60 248 Q60 312 87.5 371 Q115 430 168 467 Q221 504 292 504 Q352 504 394.5 481 Q437 458 463 420 L475 490 L539 490 L539 -1 Q539 -59 515 -109 Q491 -159 437.5 -190.5 Q384 -222 300 -222 Q210 -222 156.5 -179.5 Q103 -137 83 -65 L155 -48 Q183 -156 300 -156 Q382 -156 422.5 -115.5 Q463 -75 463 -3 L463 85 Q440 46 396 20.5 Q352 -5 293 -5 Z M302 63 Q373 63 418 114.5 Q463 166 463 248 Q463 303 442.5 345.5 Q422 388 384.5 412 Q347 436 300 436 Q226 436 181 384 Q136 332 136 248 Q136 166 182 114.5 Q228 63 302 63 Z " />
<glyph glyph-name="gbreve" unicode="&#x11f;" horiz-adv-x="600" d="M293 -5 Q219 -5 166 31 Q113 67 86.5 125 Q60 183 60 248 Q60 312 87.5 371 Q115 430 168 467 Q221 504 292 504 Q352 504 394.5 481 Q437 458 463 420 L475 490 L539 490 L539 -1 Q539 -59 515 -109 Q491 -159 437.5 -190.5 Q384 -222 300 -222 Q210 -222 156.5 -179.5 Q103 -137 83 -65 L155 -48 Q183 -156 300 -156 Q382 -156 422.5 -115.5 Q463 -75 463 -3 L463 85 Q440 46 396 20.5 Q352 -5 293 -5 Z M302 63 Q373 63 418 114.5 Q463 166 463 248 Q463 303 442.5 345.5 Q422 388 384.5 412 Q347 436 300 436 Q226 436 181 384 Q136 332 136 248 Q136 166 182 114.5 Q228 63 302 63 Z M420 686 Q418 635 385 601.5 Q352 568 299 568 Q246 568 213 601.5 Q180 635 178 686 L240 686 Q242 660 257.5 644 Q273 628 299 628 Q325 628 341 644 Q357 660 359 686 L420 686 Z " />
<glyph glyph-name="gcircumflex" unicode="&#x11d;" horiz-adv-x="600" d="M293 -5 Q219 -5 166 31 Q113 67 86.5 125 Q60 183 60 248 Q60 312 87.5 371 Q115 430 168 467 Q221 504 292 504 Q352 504 394.5 481 Q437 458 463 420 L475 490 L539 490 L539 -1 Q539 -59 515 -109 Q491 -159 437.5 -190.5 Q384 -222 300 -222 Q210 -222 156.5 -179.5 Q103 -137 83 -65 L155 -48 Q183 -156 300 -156 Q382 -156 422.5 -115.5 Q463 -75 463 -3 L463 85 Q440 46 396 20.5 Q352 -5 293 -5 Z M302 63 Q373 63 418 114.5 Q463 166 463 248 Q463 303 442.5 345.5 Q422 388 384.5 412 Q347 436 300 436 Q226 436 181 384 Q136 332 136 248 Q136 166 182 114.5 Q228 63 302 63 Z M358 567 L299 631 L241 567 L167 567 L252 685 L347 685 L431 567 L358 567 Z " />
<glyph glyph-name="gcommaaccent" unicode="&#x123;" horiz-adv-x="600" d="M293 -5 Q219 -5 166 31 Q113 67 86.5 125 Q60 183 60 248 Q60 312 87.5 371 Q115 430 168 467 Q221 504 292 504 Q352 504 394.5 481 Q437 458 463 420 L475 490 L539 490 L539 -1 Q539 -59 515 -109 Q491 -159 437.5 -190.5 Q384 -222 300 -222 Q210 -222 156.5 -179.5 Q103 -137 83 -65 L155 -48 Q183 -156 300 -156 Q382 -156 422.5 -115.5 Q463 -75 463 -3 L463 85 Q440 46 396 20.5 Q352 -5 293 -5 Z M302 63 Q373 63 418 114.5 Q463 166 463 248 Q463 303 442.5 345.5 Q422 388 384.5 412 Q347 436 300 436 Q226 436 181 384 Q136 332 136 248 Q136 166 182 114.5 Q228 63 302 63 Z M300 565 Q277 565 261.5 580 Q246 595 246 623 Q246 648 261 677 Q276 706 301 729 L331 706 Q312 682 307 662 Q328 658 339 646 Q350 634 350 616 Q350 594 336.5 579.5 Q323 565 300 565 Z " />
<glyph glyph-name="gdotaccent" unicode="&#x121;" horiz-adv-x="600" d="M293 -5 Q219 -5 166 31 Q113 67 86.5 125 Q60 183 60 248 Q60 312 87.5 371 Q115 430 168 467 Q221 504 292 504 Q352 504 394.5 481 Q437 458 463 420 L475 490 L539 490 L539 -1 Q539 -59 515 -109 Q491 -159 437.5 -190.5 Q384 -222 300 -222 Q210 -222 156.5 -179.5 Q103 -137 83 -65 L155 -48 Q183 -156 300 -156 Q382 -156 422.5 -115.5 Q463 -75 463 -3 L463 85 Q440 46 396 20.5 Q352 -5 293 -5 Z M302 63 Q373 63 418 114.5 Q463 166 463 248 Q463 303 442.5 345.5 Q422 388 384.5 412 Q347 436 300 436 Q226 436 181 384 Q136 332 136 248 Q136 166 182 114.5 Q228 63 302 63 Z M242 626 Q242 650 258.5 666.5 Q275 683 300 683 Q323 683 339.5 666.5 Q356 650 356 626 Q356 602 339.5 585.5 Q323 569 300 569 Q275 569 258.5 585.5 Q242 602 242 626 Z " />
<glyph glyph-name="h" unicode="h" horiz-adv-x="600" d="M427 303 Q427 376 396.5 404.5 Q366 433 312 433 Q275 433 243 414.5 Q211 396 191.5 360.5 Q172 325 172 278 L172 0 L96 0 L96 700 L172 700 L172 425 Q230 504 335 504 Q411 504 457 458.5 Q503 413 503 321 L503 0 L427 0 L427 303 Z " />
<glyph glyph-name="hbar" unicode="&#x127;" horiz-adv-x="600" d="M336 504 Q412 504 458 458.5 Q504 413 504 321 L504 0 L428 0 L428 303 Q428 376 397.5 404.5 Q367 433 313 433 Q276 433 244 414.5 Q212 396 192.5 360.5 Q173 325 173 278 L173 0 L97 0 L97 561 L41 561 L41 622 L97 622 L97 700 L173 700 L173 622 L326 622 L326 561 L173 561 L173 425 Q231 504 336 504 Z " />
<glyph glyph-name="hcircumflex" unicode="&#x125;" horiz-adv-x="600" d="M140 837 L82 773 L8 773 L93 891 L188 891 L272 773 L199 773 L140 837 Z M335 504 Q411 504 457 458.5 Q503 413 503 321 L503 0 L427 0 L427 303 Q427 376 396.5 404.5 Q366 433 312 433 Q275 433 243 414.5 Q211 396 191.5 360.5 Q172 325 172 278 L172 0 L96 0 L96 700 L172 700 L172 425 Q230 504 335 504 Z " />
<glyph glyph-name="i" unicode="i" horiz-adv-x="600" d="M519 69 L519 0 L82 0 L82 69 L264 69 L264 421 L125 421 L125 490 L340 490 L340 69 L519 69 Z M245 626 Q245 650 261.5 666.5 Q278 683 303 683 Q326 683 342.5 666.5 Q359 650 359 626 Q359 602 342.5 585.5 Q326 569 303 569 Q278 569 261.5 585.5 Q245 602 245 626 Z " />
<glyph glyph-name="dotlessi" unicode="&#x131;" horiz-adv-x="600" d="M519 69 L519 0 L82 0 L82 69 L264 69 L264 421 L125 421 L125 490 L340 490 L340 69 L519 69 Z " />
<glyph glyph-name="iacute" unicode="&#xed;" horiz-adv-x="600" d="M519 69 L519 0 L82 0 L82 69 L264 69 L264 421 L125 421 L125 490 L340 490 L340 69 L519 69 Z M341 685 L447 685 L348 567 L275 567 L341 685 Z " />
<glyph glyph-name="ibreve" unicode="&#x12d;" horiz-adv-x="600" d="M519 69 L519 0 L82 0 L82 69 L264 69 L264 421 L125 421 L125 490 L340 490 L340 69 L519 69 Z M423 686 Q421 635 388 601.5 Q355 568 302 568 Q249 568 216 601.5 Q183 635 181 686 L243 686 Q245 660 260.5 644 Q276 628 302 628 Q328 628 344 644 Q360 660 362 686 L423 686 Z " />
<glyph glyph-name="icircumflex" unicode="&#xee;" horiz-adv-x="600" d="M519 69 L519 0 L82 0 L82 69 L264 69 L264 421 L125 421 L125 490 L340 490 L340 69 L519 69 Z M361 567 L302 631 L244 567 L170 567 L255 685 L350 685 L434 567 L361 567 Z " />
<glyph glyph-name="idieresis" unicode="&#xef;" horiz-adv-x="600" d="M519 69 L519 0 L82 0 L82 69 L264 69 L264 421 L125 421 L125 490 L340 490 L340 69 L519 69 Z M222 569 Q198 569 181 586 Q164 603 164 626 Q164 649 181 666 Q198 683 222 683 Q245 683 262 666 Q279 649 279 626 Q279 603 262 586 Q245 569 222 569 Z M379 569 Q356 569 339 586 Q322 603 322 626 Q322 649 339 666 Q356 683 379 683 Q403 683 419.5 666 Q436 649 436 626 Q436 603 419.5 586 Q403 569 379 569 Z " />
<glyph glyph-name="igrave" unicode="&#xec;" horiz-adv-x="600" d="M519 69 L519 0 L82 0 L82 69 L264 69 L264 421 L125 421 L125 490 L340 490 L340 69 L519 69 Z M266 567 L167 685 L273 685 L339 567 L266 567 Z " />
<glyph glyph-name="ij" unicode="&#x133;" horiz-adv-x="600" d="M209 569 Q184 569 167.5 585.5 Q151 602 151 626 Q151 650 167.5 666.5 Q184 683 209 683 Q232 683 248.5 666.5 Q265 650 265 626 Q265 602 248.5 585.5 Q232 569 209 569 Z M479 569 Q454 569 437.5 585.5 Q421 602 421 626 Q421 650 437.5 666.5 Q454 683 479 683 Q502 683 518.5 666.5 Q535 650 535 626 Q535 602 518.5 585.5 Q502 569 479 569 Z M47 0 L47 69 L172 69 L172 421 L47 421 L47 490 L248 490 L248 69 L350 69 L350 0 L47 0 Z M527 490 L527 -58 Q527 -135 479.5 -179.5 Q432 -224 355 -224 Q239 -224 198 -123 L263 -95 Q283 -156 355 -156 Q401 -156 426 -131 Q451 -106 451 -57 L451 420 L327 420 L327 490 L527 490 Z " />
<glyph glyph-name="imacron" unicode="&#x12b;" horiz-adv-x="600" d="M519 69 L519 0 L82 0 L82 69 L264 69 L264 421 L125 421 L125 490 L340 490 L340 69 L519 69 Z M205 657 L401 657 L401 595 L205 595 L205 657 Z " />
<glyph glyph-name="iogonek" unicode="&#x12f;" horiz-adv-x="600" d="M303 569 Q278 569 261.5 585.5 Q245 602 245 626 Q245 650 261.5 666.5 Q278 683 303 683 Q326 683 342.5 666.5 Q359 650 359 626 Q359 602 342.5 585.5 Q326 569 303 569 Z M519 69 L519 0 L341 0 Q279 -34 279 -78 Q279 -96 293 -109 Q307 -122 331 -122 L337 -122 L336 -179 Q330 -180 322 -180 Q273 -180 243.5 -156 Q214 -132 214 -93 Q214 -39 262 0 L82 0 L82 69 L264 69 L264 421 L125 421 L125 490 L340 490 L340 69 L519 69 Z " />
<glyph glyph-name="itilde" unicode="&#x129;" horiz-adv-x="600" d="M519 69 L519 0 L82 0 L82 69 L264 69 L264 421 L125 421 L125 490 L340 490 L340 69 L519 69 Z M162 610 Q176 644 199 660 Q222 676 248 676 Q267 676 280 671.5 Q293 667 314 656 Q328 648 338 644 Q348 640 360 640 Q387 640 405 679 L451 646 Q439 613 415.5 596 Q392 579 362 579 Q343 579 329 584 Q315 589 297 599 Q282 607 273 610.5 Q264 614 253 614 Q225 614 208 579 L162 610 Z " />
<glyph glyph-name="j" unicode="j" horiz-adv-x="600" d="M456 -58 Q456 -135 408.5 -179.5 Q361 -224 284 -224 Q168 -224 127 -123 L192 -95 Q212 -156 284 -156 Q330 -156 355 -131 Q380 -106 380 -57 L380 420 L137 420 L137 490 L456 490 L456 -58 Z M362 626 Q362 650 378.5 666.5 Q395 683 420 683 Q443 683 459.5 666.5 Q476 650 476 626 Q476 602 459.5 585.5 Q443 569 420 569 Q395 569 378.5 585.5 Q362 602 362 626 Z " />
<glyph glyph-name="uni0237" unicode="&#x237;" horiz-adv-x="600" d="M456 -58 Q456 -135 408.5 -179.5 Q361 -224 284 -224 Q168 -224 127 -123 L192 -95 Q212 -156 284 -156 Q330 -156 355 -131 Q380 -106 380 -57 L380 420 L137 420 L137 490 L456 490 L456 -58 Z " />
<glyph glyph-name="jcircumflex" unicode="&#x135;" horiz-adv-x="600" d="M250 563 L176 563 L261 681 L356 681 L440 563 L367 563 L308 627 L250 563 Z M456 -58 Q456 -135 408.5 -179.5 Q361 -224 284 -224 Q168 -224 127 -123 L192 -95 Q212 -156 284 -156 Q330 -156 355 -131 Q380 -106 380 -57 L380 420 L137 420 L137 490 L456 490 L456 -58 Z " />
<glyph glyph-name="k" unicode="k" horiz-adv-x="600" d="M250 242 L172 163 L172 0 L96 0 L96 700 L172 700 L172 264 L399 491 L496 491 L303 295 L520 0 L430 0 L250 242 Z " />
<glyph glyph-name="kcommaaccent" unicode="&#x137;" horiz-adv-x="600" d="M250 242 L172 163 L172 0 L96 0 L96 700 L172 700 L172 264 L399 491 L496 491 L303 295 L520 0 L430 0 L250 242 Z M289 -45 Q312 -45 327.5 -60 Q343 -75 343 -103 Q343 -128 328 -157 Q313 -186 288 -209 L258 -186 Q277 -162 282 -142 Q261 -138 250 -126 Q239 -114 239 -96 Q239 -74 252.5 -59.5 Q266 -45 289 -45 Z " />
<glyph glyph-name="kgreenlandic" unicode="&#x138;" horiz-adv-x="600" d="M250 242 L172 163 L172 0 L96 0 L96 490 L172 490 L172 264 L399 491 L496 491 L303 295 L520 0 L430 0 L250 242 Z " />
<glyph glyph-name="l" unicode="l" horiz-adv-x="600" d="M532 87 Q491 -14 375 -14 Q298 -14 250.5 30.5 Q203 75 203 152 L203 632 L68 632 L68 700 L279 700 L279 153 Q279 104 304 79 Q329 54 375 54 Q447 54 467 115 L532 87 Z " />
<glyph glyph-name="lacute" unicode="&#x13a;" horiz-adv-x="600" d="M532 87 Q491 -14 375 -14 Q298 -14 250.5 30.5 Q203 75 203 152 L203 632 L68 632 L68 700 L279 700 L279 153 Q279 104 304 79 Q329 54 375 54 Q447 54 467 115 L532 87 Z M275 891 L381 891 L282 773 L209 773 L275 891 Z " />
<glyph glyph-name="lcaron" unicode="&#x13e;" horiz-adv-x="600" d="M532 87 Q491 -14 375 -14 Q298 -14 250.5 30.5 Q203 75 203 152 L203 632 L68 632 L68 700 L279 700 L279 153 Q279 104 304 79 Q329 54 375 54 Q447 54 467 115 L532 87 Z M372 582 L315 582 L329 700 L416 700 L372 582 Z " />
<glyph glyph-name="lcommaaccent" unicode="&#x13c;" horiz-adv-x="600" d="M532 87 Q491 -14 375 -14 Q298 -14 250.5 30.5 Q203 75 203 152 L203 632 L68 632 L68 700 L279 700 L279 153 Q279 104 304 79 Q329 54 375 54 Q447 54 467 115 L532 87 Z M349 -45 Q372 -45 387.5 -60 Q403 -75 403 -103 Q403 -128 388 -157 Q373 -186 348 -209 L318 -186 Q337 -162 342 -142 Q321 -138 310 -126 Q299 -114 299 -96 Q299 -74 312.5 -59.5 Q326 -45 349 -45 Z " />
<glyph glyph-name="ldot" unicode="&#x140;" horiz-adv-x="600" d="M532 87 Q491 -14 375 -14 Q298 -14 250.5 30.5 Q203 75 203 152 L203 632 L68 632 L68 700 L279 700 L279 153 Q279 104 304 79 Q329 54 375 54 Q447 54 467 115 L532 87 Z M481 391 Q481 415 498 432 Q515 449 540 449 Q565 449 581.5 432 Q598 415 598 391 Q598 366 581.5 349 Q565 332 540 332 Q515 332 498 349 Q481 366 481 391 Z " />
<glyph glyph-name="lslash" unicode="&#x142;" horiz-adv-x="600" d="M532 87 Q491 -14 375 -14 Q298 -14 250.5 30.5 Q203 75 203 152 L203 304 L106 255 L80 308 L203 371 L203 632 L68 632 L68 700 L279 700 L279 410 L378 460 L405 407 L279 343 L279 153 Q279 104 304 79 Q329 54 375 54 Q447 54 467 115 L532 87 Z " />
<glyph glyph-name="m" unicode="m" horiz-adv-x="600" d="M121 490 L131 449 Q138 468 162 486 Q186 504 222 504 Q260 504 283.5 484 Q307 464 315 433 Q327 463 355 483.5 Q383 504 425 504 Q478 504 509 470.5 Q540 437 540 373 L540 0 L464 0 L464 367 Q464 433 409 433 Q377 433 357.5 407.5 Q338 382 338 330 L338 0 L263 0 L263 367 Q263 400 247.5 416.5 Q232 433 205 433 Q175 433 155.5 407.5 Q136 382 136 330 L136 0 L60 0 L60 490 L121 490 Z " />
<glyph glyph-name="n" unicode="n" horiz-adv-x="600" d="M428 303 Q428 375 397 404 Q366 433 312 433 Q275 433 243 414.5 Q211 396 191.5 361 Q172 326 172 279 L172 0 L96 0 L96 490 L160 490 L171 424 Q230 504 335 504 Q412 504 458 458.5 Q504 413 504 321 L504 0 L428 0 L428 303 Z " />
<glyph glyph-name="nacute" unicode="&#x144;" horiz-adv-x="600" d="M428 303 Q428 375 397 404 Q366 433 312 433 Q275 433 243 414.5 Q211 396 191.5 361 Q172 326 172 279 L172 0 L96 0 L96 490 L160 490 L171 424 Q230 504 335 504 Q412 504 458 458.5 Q504 413 504 321 L504 0 L428 0 L428 303 Z M356 685 L462 685 L363 567 L290 567 L356 685 Z " />
<glyph glyph-name="napostrophe" unicode="&#x149;" horiz-adv-x="600" d="M96 701 Q119 701 134.5 686 Q150 671 150 643 Q150 618 135 589 Q120 560 95 537 L65 560 Q84 584 89 604 Q68 608 57 620 Q46 632 46 650 Q46 672 59.5 686.5 Q73 701 96 701 Z M428 303 Q428 375 397 404 Q366 433 312 433 Q275 433 243 414.5 Q211 396 191.5 361 Q172 326 172 279 L172 0 L96 0 L96 490 L160 490 L171 424 Q230 504 335 504 Q412 504 458 458.5 Q504 413 504 321 L504 0 L428 0 L428 303 Z " />
<glyph glyph-name="ncaron" unicode="&#x148;" horiz-adv-x="600" d="M428 303 Q428 375 397 404 Q366 433 312 433 Q275 433 243 414.5 Q211 396 191.5 361 Q172 326 172 279 L172 0 L96 0 L96 490 L160 490 L171 424 Q230 504 335 504 Q412 504 458 458.5 Q504 413 504 321 L504 0 L428 0 L428 303 Z M449 685 L365 567 L270 567 L185 685 L259 685 L317 621 L376 685 L449 685 Z " />
<glyph glyph-name="ncommaaccent" unicode="&#x146;" horiz-adv-x="600" d="M428 303 Q428 375 397 404 Q366 433 312 433 Q275 433 243 414.5 Q211 396 191.5 361 Q172 326 172 279 L172 0 L96 0 L96 490 L160 490 L171 424 Q230 504 335 504 Q412 504 458 458.5 Q504 413 504 321 L504 0 L428 0 L428 303 Z M302 -45 Q325 -45 340.5 -60 Q356 -75 356 -103 Q356 -128 341 -157 Q326 -186 301 -209 L271 -186 Q290 -162 295 -142 Q274 -138 263 -126 Q252 -114 252 -96 Q252 -74 265.5 -59.5 Q279 -45 302 -45 Z " />
<glyph glyph-name="eng" unicode="&#x14b;" horiz-adv-x="600" d="M335 504 Q412 504 458 458.5 Q504 413 504 321 L504 -94 Q504 -150 469 -187 Q434 -224 380 -224 Q320 -224 285 -189 L324 -136 Q342 -154 372 -154 Q428 -154 428 -88 L428 303 Q428 375 397 404 Q366 433 312 433 Q275 433 243 414.5 Q211 396 191.5 361 Q172 326 172 279 L172 0 L96 0 L96 490 L160 490 L171 424 Q230 504 335 504 Z " />
<glyph glyph-name="ntilde" unicode="&#xf1;" horiz-adv-x="600" d="M428 303 Q428 375 397 404 Q366 433 312 433 Q275 433 243 414.5 Q211 396 191.5 361 Q172 326 172 279 L172 0 L96 0 L96 490 L160 490 L171 424 Q230 504 335 504 Q412 504 458 458.5 Q504 413 504 321 L504 0 L428 0 L428 303 Z M177 610 Q191 644 214 660 Q237 676 263 676 Q282 676 295 671.5 Q308 667 329 656 Q343 648 353 644 Q363 640 375 640 Q402 640 420 679 L466 646 Q454 613 430.5 596 Q407 579 377 579 Q358 579 344 584 Q330 589 312 599 Q297 607 288 610.5 Q279 614 268 614 Q240 614 223 579 L177 610 Z " />
<glyph glyph-name="o" unicode="o" horiz-adv-x="600" d="M551 245 Q551 179 520.5 119.5 Q490 60 433 23 Q376 -14 299 -14 Q222 -14 165 23 Q108 60 78.5 119.5 Q49 179 49 245 Q49 311 79.5 370.5 Q110 430 167 467 Q224 504 299 504 Q376 504 433 467 Q490 430 520.5 370.5 Q551 311 551 245 Z M125 245 Q125 192 147 148.5 Q169 105 209 80 Q249 55 299 55 Q350 55 390 80 Q430 105 452.5 148.5 Q475 192 475 245 Q475 299 452.5 342 Q430 385 390 410 Q350 435 299 435 Q248 435 208.5 410 Q169 385 147 342 Q125 299 125 245 Z " />
<glyph glyph-name="oacute" unicode="&#xf3;" horiz-adv-x="600" d="M551 245 Q551 179 520.5 119.5 Q490 60 433 23 Q376 -14 299 -14 Q222 -14 165 23 Q108 60 78.5 119.5 Q49 179 49 245 Q49 311 79.5 370.5 Q110 430 167 467 Q224 504 299 504 Q376 504 433 467 Q490 430 520.5 370.5 Q551 311 551 245 Z M125 245 Q125 192 147 148.5 Q169 105 209 80 Q249 55 299 55 Q350 55 390 80 Q430 105 452.5 148.5 Q475 192 475 245 Q475 299 452.5 342 Q430 385 390 410 Q350 435 299 435 Q248 435 208.5 410 Q169 385 147 342 Q125 299 125 245 Z M339 685 L445 685 L346 567 L273 567 L339 685 Z " />
<glyph glyph-name="obreve" unicode="&#x14f;" horiz-adv-x="600" d="M551 245 Q551 179 520.5 119.5 Q490 60 433 23 Q376 -14 299 -14 Q222 -14 165 23 Q108 60 78.5 119.5 Q49 179 49 245 Q49 311 79.5 370.5 Q110 430 167 467 Q224 504 299 504 Q376 504 433 467 Q490 430 520.5 370.5 Q551 311 551 245 Z M125 245 Q125 192 147 148.5 Q169 105 209 80 Q249 55 299 55 Q350 55 390 80 Q430 105 452.5 148.5 Q475 192 475 245 Q475 299 452.5 342 Q430 385 390 410 Q350 435 299 435 Q248 435 208.5 410 Q169 385 147 342 Q125 299 125 245 Z M421 686 Q419 635 386 601.5 Q353 568 300 568 Q247 568 214 601.5 Q181 635 179 686 L241 686 Q243 660 258.5 644 Q274 628 300 628 Q326 628 342 644 Q358 660 360 686 L421 686 Z " />
<glyph glyph-name="ocircumflex" unicode="&#xf4;" horiz-adv-x="600" d="M551 245 Q551 179 520.5 119.5 Q490 60 433 23 Q376 -14 299 -14 Q222 -14 165 23 Q108 60 78.5 119.5 Q49 179 49 245 Q49 311 79.5 370.5 Q110 430 167 467 Q224 504 299 504 Q376 504 433 467 Q490 430 520.5 370.5 Q551 311 551 245 Z M125 245 Q125 192 147 148.5 Q169 105 209 80 Q249 55 299 55 Q350 55 390 80 Q430 105 452.5 148.5 Q475 192 475 245 Q475 299 452.5 342 Q430 385 390 410 Q350 435 299 435 Q248 435 208.5 410 Q169 385 147 342 Q125 299 125 245 Z M359 567 L300 631 L242 567 L168 567 L253 685 L348 685 L432 567 L359 567 Z " />
<glyph glyph-name="odieresis" unicode="&#xf6;" horiz-adv-x="600" d="M551 245 Q551 179 520.5 119.5 Q490 60 433 23 Q376 -14 299 -14 Q222 -14 165 23 Q108 60 78.5 119.5 Q49 179 49 245 Q49 311 79.5 370.5 Q110 430 167 467 Q224 504 299 504 Q376 504 433 467 Q490 430 520.5 370.5 Q551 311 551 245 Z M125 245 Q125 192 147 148.5 Q169 105 209 80 Q249 55 299 55 Q350 55 390 80 Q430 105 452.5 148.5 Q475 192 475 245 Q475 299 452.5 342 Q430 385 390 410 Q350 435 299 435 Q248 435 208.5 410 Q169 385 147 342 Q125 299 125 245 Z M220 569 Q196 569 179 586 Q162 603 162 626 Q162 649 179 666 Q196 683 220 683 Q243 683 260 666 Q277 649 277 626 Q277 603 260 586 Q243 569 220 569 Z M377 569 Q354 569 337 586 Q320 603 320 626 Q320 649 337 666 Q354 683 377 683 Q401 683 417.5 666 Q434 649 434 626 Q434 603 417.5 586 Q401 569 377 569 Z " />
<glyph glyph-name="ograve" unicode="&#xf2;" horiz-adv-x="600" d="M551 245 Q551 179 520.5 119.5 Q490 60 433 23 Q376 -14 299 -14 Q222 -14 165 23 Q108 60 78.5 119.5 Q49 179 49 245 Q49 311 79.5 370.5 Q110 430 167 467 Q224 504 299 504 Q376 504 433 467 Q490 430 520.5 370.5 Q551 311 551 245 Z M125 245 Q125 192 147 148.5 Q169 105 209 80 Q249 55 299 55 Q350 55 390 80 Q430 105 452.5 148.5 Q475 192 475 245 Q475 299 452.5 342 Q430 385 390 410 Q350 435 299 435 Q248 435 208.5 410 Q169 385 147 342 Q125 299 125 245 Z M264 567 L165 685 L271 685 L337 567 L264 567 Z " />
<glyph glyph-name="ohungarumlaut" unicode="&#x151;" horiz-adv-x="600" d="M551 245 Q551 179 520.5 119.5 Q490 60 433 23 Q376 -14 299 -14 Q222 -14 165 23 Q108 60 78.5 119.5 Q49 179 49 245 Q49 311 79.5 370.5 Q110 430 167 467 Q224 504 299 504 Q376 504 433 467 Q490 430 520.5 370.5 Q551 311 551 245 Z M125 245 Q125 192 147 148.5 Q169 105 209 80 Q249 55 299 55 Q350 55 390 80 Q430 105 452.5 148.5 Q475 192 475 245 Q475 299 452.5 342 Q430 385 390 410 Q350 435 299 435 Q248 435 208.5 410 Q169 385 147 342 Q125 299 125 245 Z M195 567 L250 685 L346 685 L257 567 L195 567 Z M323 567 L378 685 L474 685 L385 567 L323 567 Z " />
<glyph glyph-name="omacron" unicode="&#x14d;" horiz-adv-x="600" d="M551 245 Q551 179 520.5 119.5 Q490 60 433 23 Q376 -14 299 -14 Q222 -14 165 23 Q108 60 78.5 119.5 Q49 179 49 245 Q49 311 79.5 370.5 Q110 430 167 467 Q224 504 299 504 Q376 504 433 467 Q490 430 520.5 370.5 Q551 311 551 245 Z M125 245 Q125 192 147 148.5 Q169 105 209 80 Q249 55 299 55 Q350 55 390 80 Q430 105 452.5 148.5 Q475 192 475 245 Q475 299 452.5 342 Q430 385 390 410 Q350 435 299 435 Q248 435 208.5 410 Q169 385 147 342 Q125 299 125 245 Z M203 657 L399 657 L399 595 L203 595 L203 657 Z " />
<glyph glyph-name="oslash" unicode="&#xf8;" horiz-adv-x="600" d="M468 440 Q508 403 529.5 351.5 Q551 300 551 245 Q551 179 520.5 119.5 Q490 60 433 23 Q376 -14 299 -14 Q237 -14 185 12 L148 -43 L96 -8 L133 48 Q92 85 70.5 137 Q49 189 49 245 Q49 311 79.5 370.5 Q110 430 167 467 Q224 504 299 504 Q366 504 417 476 L451 527 L503 492 L468 440 Z M125 245 Q125 164 174 109 L378 417 Q343 435 299 435 Q248 435 208.5 410 Q169 385 147 342 Q125 299 125 245 Z M299 55 Q350 55 390 80 Q430 105 452.5 148.5 Q475 192 475 245 Q475 284 463 318.5 Q451 353 428 379 L224 72 Q258 55 299 55 Z " />
<glyph glyph-name="oslashacute" unicode="&#x1ff;" horiz-adv-x="600" d="M468 440 Q508 403 529.5 351.5 Q551 300 551 245 Q551 179 520.5 119.5 Q490 60 433 23 Q376 -14 299 -14 Q237 -14 185 12 L148 -43 L96 -8 L133 48 Q92 85 70.5 137 Q49 189 49 245 Q49 311 79.5 370.5 Q110 430 167 467 Q224 504 299 504 Q366 504 417 476 L451 527 L503 492 L468 440 Z M125 245 Q125 164 174 109 L378 417 Q343 435 299 435 Q248 435 208.5 410 Q169 385 147 342 Q125 299 125 245 Z M299 55 Q350 55 390 80 Q430 105 452.5 148.5 Q475 192 475 245 Q475 284 463 318.5 Q451 353 428 379 L224 72 Q258 55 299 55 Z M339 685 L445 685 L346 567 L273 567 L339 685 Z " />
<glyph glyph-name="otilde" unicode="&#xf5;" horiz-adv-x="600" d="M551 245 Q551 179 520.5 119.5 Q490 60 433 23 Q376 -14 299 -14 Q222 -14 165 23 Q108 60 78.5 119.5 Q49 179 49 245 Q49 311 79.5 370.5 Q110 430 167 467 Q224 504 299 504 Q376 504 433 467 Q490 430 520.5 370.5 Q551 311 551 245 Z M125 245 Q125 192 147 148.5 Q169 105 209 80 Q249 55 299 55 Q350 55 390 80 Q430 105 452.5 148.5 Q475 192 475 245 Q475 299 452.5 342 Q430 385 390 410 Q350 435 299 435 Q248 435 208.5 410 Q169 385 147 342 Q125 299 125 245 Z M160 610 Q174 644 197 660 Q220 676 246 676 Q265 676 278 671.5 Q291 667 312 656 Q326 648 336 644 Q346 640 358 640 Q385 640 403 679 L449 646 Q437 613 413.5 596 Q390 579 360 579 Q341 579 327 584 Q313 589 295 599 Q280 607 271 610.5 Q262 614 251 614 Q223 614 206 579 L160 610 Z " />
<glyph glyph-name="oe" unicode="&#x153;" horiz-adv-x="600" d="M553 224 L332 224 Q332 51 409 51 Q441 51 456 76.5 Q471 102 477 146 L543 131 Q535 67 502 26.5 Q469 -14 406 -14 Q327 -14 292 48 Q254 -14 189 -14 Q115 -14 83 51 Q51 116 51 245 Q51 364 83.5 434 Q116 504 197 504 Q265 504 299 438 Q338 504 410 504 Q553 504 553 257 L553 224 Z M191 51 Q232 51 244 96.5 Q256 142 256 245 Q256 345 243 392 Q230 439 193 439 Q154 439 139 391 Q124 343 124 245 Q124 144 137 97.5 Q150 51 191 51 Z M482 287 Q482 439 406 439 Q367 439 349 398 Q331 357 331 287 L482 287 Z " />
<glyph glyph-name="p" unicode="p" horiz-adv-x="600" d="M70 490 L134 490 L144 418 Q171 456 214.5 479.5 Q258 503 318 503 Q389 503 442 465.5 Q495 428 523 368.5 Q551 309 551 244 Q551 178 524.5 119 Q498 60 445.5 23 Q393 -14 318 -14 Q261 -14 218 9 Q175 32 146 71 L146 -210 L70 -210 L70 490 Z M145 244 Q145 189 165.5 146 Q186 103 223.5 78.5 Q261 54 310 54 Q358 54 395.5 78.5 Q433 103 454 146 Q475 189 475 244 Q475 299 454 342.5 Q433 386 395.5 410.5 Q358 435 310 435 Q261 435 223.5 410.5 Q186 386 165.5 342.5 Q145 299 145 244 Z " />
<glyph glyph-name="thorn" unicode="&#xfe;" horiz-adv-x="600" d="M70 700 L145 700 L145 419 Q173 458 216.5 480.5 Q260 503 318 503 Q388 503 441 465.5 Q494 428 522.5 368.5 Q551 309 551 244 Q551 178 524.5 119 Q498 60 445.5 23 Q393 -14 318 -14 Q211 -14 146 71 L146 -210 L70 -210 L70 700 Z M145 244 Q145 189 165.5 146 Q186 103 223.5 79 Q261 55 310 55 Q358 55 395.5 79 Q433 103 454 146 Q475 189 475 244 Q475 298 454 341.5 Q433 385 395.5 409.5 Q358 434 310 434 Q261 434 223.5 409.5 Q186 385 165.5 341.5 Q145 298 145 244 Z " />
<glyph glyph-name="q" unicode="q" horiz-adv-x="600" d="M454 -210 L454 71 Q425 32 382 9 Q339 -14 282 -14 Q207 -14 154.5 23 Q102 60 75.5 119 Q49 178 49 244 Q49 309 77 368.5 Q105 428 158 465.5 Q211 503 282 503 Q342 503 385.5 479.5 Q429 456 456 418 L466 490 L530 490 L530 -210 L454 -210 Z M455 244 Q455 299 434.5 342.5 Q414 386 376.5 410.5 Q339 435 290 435 Q242 435 204.5 410.5 Q167 386 146 342.5 Q125 299 125 244 Q125 189 146 146 Q167 103 204.5 78.5 Q242 54 290 54 Q339 54 376.5 78.5 Q414 103 434.5 146 Q455 189 455 244 Z " />
<glyph glyph-name="r" unicode="r" horiz-adv-x="600" d="M391 504 Q439 504 474 484 Q509 464 529.5 434 Q550 404 555 373 L484 348 Q480 380 453.5 406.5 Q427 433 380 433 Q323 433 288 392 Q253 351 253 275 L253 69 L379 69 L379 0 L59 0 L59 69 L177 69 L177 421 L59 421 L59 490 L241 490 L249 439 Q266 464 304 484 Q342 504 391 504 Z " />
<glyph glyph-name="racute" unicode="&#x155;" horiz-adv-x="600" d="M391 504 Q439 504 474 484 Q509 464 529.5 434 Q550 404 555 373 L484 348 Q480 380 453.5 406.5 Q427 433 380 433 Q323 433 288 392 Q253 351 253 275 L253 69 L379 69 L379 0 L59 0 L59 69 L177 69 L177 421 L59 421 L59 490 L241 490 L249 439 Q266 464 304 484 Q342 504 391 504 Z M353 685 L459 685 L360 567 L287 567 L353 685 Z " />
<glyph glyph-name="rcaron" unicode="&#x159;" horiz-adv-x="600" d="M391 504 Q439 504 474 484 Q509 464 529.5 434 Q550 404 555 373 L484 348 Q480 380 453.5 406.5 Q427 433 380 433 Q323 433 288 392 Q253 351 253 275 L253 69 L379 69 L379 0 L59 0 L59 69 L177 69 L177 421 L59 421 L59 490 L241 490 L249 439 Q266 464 304 484 Q342 504 391 504 Z M446 685 L362 567 L267 567 L182 685 L256 685 L314 621 L373 685 L446 685 Z " />
<glyph glyph-name="rcommaaccent" unicode="&#x157;" horiz-adv-x="600" d="M391 504 Q439 504 474 484 Q509 464 529.5 434 Q550 404 555 373 L484 348 Q480 380 453.5 406.5 Q427 433 380 433 Q323 433 288 392 Q253 351 253 275 L253 69 L379 69 L379 0 L59 0 L59 69 L177 69 L177 421 L59 421 L59 490 L241 490 L249 439 Q266 464 304 484 Q342 504 391 504 Z M214 -45 Q237 -45 252.5 -60 Q268 -75 268 -103 Q268 -128 253 -157 Q238 -186 213 -209 L183 -186 Q202 -162 207 -142 Q186 -138 175 -126 Q164 -114 164 -96 Q164 -74 177.5 -59.5 Q191 -45 214 -45 Z " />
<glyph glyph-name="s" unicode="s" horiz-adv-x="600" d="M429 340 Q420 383 390 410 Q360 437 306 437 Q244 437 217 414.5 Q190 392 190 361 Q190 327 223 310.5 Q256 294 322 283 Q410 268 457.5 234 Q505 200 505 133 Q505 89 478.5 55.5 Q452 22 406.5 4 Q361 -14 306 -14 Q140 -14 94 138 L164 159 Q179 112 209.5 82.5 Q240 53 306 53 Q362 53 396.5 73.5 Q431 94 431 132 Q431 150 423.5 164 Q416 178 389 191.5 Q362 205 308 213 Q218 228 167.5 260.5 Q117 293 117 360 Q117 428 171.5 466 Q226 504 306 504 Q384 504 433 466 Q482 428 499 358 L429 340 Z " />
<glyph glyph-name="sacute" unicode="&#x15b;" horiz-adv-x="600" d="M429 340 Q420 383 390 410 Q360 437 306 437 Q244 437 217 414.5 Q190 392 190 361 Q190 327 223 310.5 Q256 294 322 283 Q410 268 457.5 234 Q505 200 505 133 Q505 89 478.5 55.5 Q452 22 406.5 4 Q361 -14 306 -14 Q140 -14 94 138 L164 159 Q179 112 209.5 82.5 Q240 53 306 53 Q362 53 396.5 73.5 Q431 94 431 132 Q431 150 423.5 164 Q416 178 389 191.5 Q362 205 308 213 Q218 228 167.5 260.5 Q117 293 117 360 Q117 428 171.5 466 Q226 504 306 504 Q384 504 433 466 Q482 428 499 358 L429 340 Z M345 685 L451 685 L352 567 L279 567 L345 685 Z " />
<glyph glyph-name="scaron" unicode="&#x161;" horiz-adv-x="600" d="M429 340 Q420 383 390 410 Q360 437 306 437 Q244 437 217 414.5 Q190 392 190 361 Q190 327 223 310.5 Q256 294 322 283 Q410 268 457.5 234 Q505 200 505 133 Q505 89 478.5 55.5 Q452 22 406.5 4 Q361 -14 306 -14 Q140 -14 94 138 L164 159 Q179 112 209.5 82.5 Q240 53 306 53 Q362 53 396.5 73.5 Q431 94 431 132 Q431 150 423.5 164 Q416 178 389 191.5 Q362 205 308 213 Q218 228 167.5 260.5 Q117 293 117 360 Q117 428 171.5 466 Q226 504 306 504 Q384 504 433 466 Q482 428 499 358 L429 340 Z M438 685 L354 567 L259 567 L174 685 L248 685 L306 621 L365 685 L438 685 Z " />
<glyph glyph-name="scedilla" unicode="&#x15f;" horiz-adv-x="600" d="M505 133 Q505 75 459 36 Q413 -3 342 -12 L326 -41 Q363 -43 385 -63.5 Q407 -84 407 -123 Q407 -161 382 -184.5 Q357 -208 317 -208 Q282 -208 257 -188 Q232 -168 230 -139 L280 -122 Q280 -139 290 -148.5 Q300 -158 317 -158 Q333 -158 343 -148 Q353 -138 353 -122 Q353 -107 343 -97.5 Q333 -88 317 -88 Q303 -88 294 -94 L253 -66 L283 -13 Q137 -2 94 138 L164 159 Q179 112 209.5 82.5 Q240 53 306 53 Q362 53 396.5 73.5 Q431 94 431 132 Q431 150 423.5 164 Q416 178 389 191.5 Q362 205 308 213 Q218 228 167.5 260.5 Q117 293 117 360 Q117 428 171.5 466 Q226 504 306 504 Q384 504 433 466 Q482 428 499 358 L429 340 Q420 383 390 410 Q360 437 306 437 Q244 437 217 414.5 Q190 392 190 361 Q190 327 223 310.5 Q256 294 322 283 Q410 268 457.5 234 Q505 200 505 133 Z " />
<glyph glyph-name="scircumflex" unicode="&#x15d;" horiz-adv-x="600" d="M429 340 Q420 383 390 410 Q360 437 306 437 Q244 437 217 414.5 Q190 392 190 361 Q190 327 223 310.5 Q256 294 322 283 Q410 268 457.5 234 Q505 200 505 133 Q505 89 478.5 55.5 Q452 22 406.5 4 Q361 -14 306 -14 Q140 -14 94 138 L164 159 Q179 112 209.5 82.5 Q240 53 306 53 Q362 53 396.5 73.5 Q431 94 431 132 Q431 150 423.5 164 Q416 178 389 191.5 Q362 205 308 213 Q218 228 167.5 260.5 Q117 293 117 360 Q117 428 171.5 466 Q226 504 306 504 Q384 504 433 466 Q482 428 499 358 L429 340 Z M365 567 L306 631 L248 567 L174 567 L259 685 L354 685 L438 567 L365 567 Z " />
<glyph glyph-name="scommaaccent" unicode="&#x219;" horiz-adv-x="600" d="M429 340 Q420 383 390 410 Q360 437 306 437 Q244 437 217 414.5 Q190 392 190 361 Q190 327 223 310.5 Q256 294 322 283 Q410 268 457.5 234 Q505 200 505 133 Q505 89 478.5 55.5 Q452 22 406.5 4 Q361 -14 306 -14 Q140 -14 94 138 L164 159 Q179 112 209.5 82.5 Q240 53 306 53 Q362 53 396.5 73.5 Q431 94 431 132 Q431 150 423.5 164 Q416 178 389 191.5 Q362 205 308 213 Q218 228 167.5 260.5 Q117 293 117 360 Q117 428 171.5 466 Q226 504 306 504 Q384 504 433 466 Q482 428 499 358 L429 340 Z M319 -45 Q342 -45 357.5 -60 Q373 -75 373 -103 Q373 -128 358 -157 Q343 -186 318 -209 L288 -186 Q307 -162 312 -142 Q291 -138 280 -126 Q269 -114 269 -96 Q269 -74 282.5 -59.5 Q296 -45 319 -45 Z " />
<glyph glyph-name="germandbls" unicode="&#xdf;" horiz-adv-x="600" d="M98 524 Q98 615 151 665 Q204 715 289 715 Q334 715 375.5 695 Q417 675 443.5 634 Q470 593 470 533 Q470 480 444.5 444.5 Q419 409 389 392 L389 390 Q515 341 515 203 Q515 144 488 95.5 Q461 47 411.5 18.5 Q362 -10 298 -10 Q255 -10 233 -1 L247 64 Q264 58 293 58 Q351 58 395.5 93 Q440 128 440 203 Q440 275 395.5 311.5 Q351 348 286 348 L253 348 L253 415 L287 415 Q333 415 367 447 Q401 479 401 531 Q401 585 371 617 Q341 649 282 649 Q232 649 202 616 Q172 583 172 523 L172 0 L98 0 L98 524 Z " />
<glyph glyph-name="longs" unicode="&#x17f;" horiz-adv-x="600" d="M361 647 Q290 647 290 574 L290 70 L417 70 L417 0 L96 0 L96 70 L214 70 L214 423 L85 423 L85 490 L214 490 L214 580 Q214 642 253 678 Q292 714 362 714 Q427 714 457.5 678.5 Q488 643 501 607 L435 582 Q434 584 428.5 601.5 Q423 619 404.5 633 Q386 647 361 647 Z " />
<glyph glyph-name="t" unicode="t" horiz-adv-x="600" d="M520 87 Q479 -14 363 -14 Q286 -14 238.5 30.5 Q191 75 191 152 L191 422 L56 422 L56 490 L191 490 L191 608 L267 608 L267 490 L501 490 L501 422 L267 422 L267 153 Q267 104 292 79 Q317 54 363 54 Q435 54 455 115 L520 87 Z " />
<glyph glyph-name="tbar" unicode="&#x167;" horiz-adv-x="600" d="M520 87 Q479 -14 363 -14 Q286 -14 238.5 30.5 Q191 75 191 152 L191 233 L93 233 L93 294 L191 294 L191 422 L56 422 L56 490 L191 490 L191 608 L267 608 L267 490 L501 490 L501 422 L267 422 L267 294 L418 294 L418 233 L267 233 L267 153 Q267 104 292 79 Q317 54 363 54 Q435 54 455 115 L520 87 Z " />
<glyph glyph-name="tcaron" unicode="&#x165;" horiz-adv-x="600" d="M360 582 L303 582 L317 700 L404 700 L360 582 Z M520 87 Q479 -14 363 -14 Q286 -14 238.5 30.5 Q191 75 191 152 L191 422 L56 422 L56 490 L191 490 L191 608 L267 608 L267 490 L501 490 L501 422 L267 422 L267 153 Q267 104 292 79 Q317 54 363 54 Q435 54 455 115 L520 87 Z " />
<glyph glyph-name="uni0163" unicode="&#x163;" horiz-adv-x="600" d="M520 87 Q504 49 474 21 Q444 -7 387 -13 L372 -41 Q409 -43 431 -63.5 Q453 -84 453 -123 Q453 -161 428 -184.5 Q403 -208 363 -208 Q328 -208 303 -188 Q278 -168 276 -139 L326 -122 Q326 -139 336 -148.5 Q346 -158 363 -158 Q379 -158 389 -148 Q399 -138 399 -122 Q399 -107 389 -97.5 Q379 -88 363 -88 Q349 -88 340 -94 L299 -66 L330 -12 Q266 -2 228.5 41 Q191 84 191 152 L191 422 L56 422 L56 490 L191 490 L191 608 L267 608 L267 490 L501 490 L501 422 L267 422 L267 153 Q267 104 292 79 Q317 54 363 54 Q435 54 455 115 L520 87 Z " />
<glyph glyph-name="uni021B" unicode="&#x21b;" horiz-adv-x="600" d="M520 87 Q479 -14 363 -14 Q286 -14 238.5 30.5 Q191 75 191 152 L191 422 L56 422 L56 490 L191 490 L191 608 L267 608 L267 490 L501 490 L501 422 L267 422 L267 153 Q267 104 292 79 Q317 54 363 54 Q435 54 455 115 L520 87 Z M365 -45 Q388 -45 403.5 -60 Q419 -75 419 -103 Q419 -128 404 -157 Q389 -186 364 -209 L334 -186 Q353 -162 358 -142 Q337 -138 326 -126 Q315 -114 315 -96 Q315 -74 328.5 -59.5 Q342 -45 365 -45 Z " />
<glyph glyph-name="u" unicode="u" horiz-adv-x="600" d="M172 187 Q172 115 203 86 Q234 57 288 57 Q325 57 357 75.5 Q389 94 408.5 129 Q428 164 428 211 L428 490 L504 490 L504 0 L440 0 L429 66 Q370 -14 265 -14 Q188 -14 142 31.5 Q96 77 96 169 L96 490 L172 490 L172 187 Z " />
<glyph glyph-name="uacute" unicode="&#xfa;" horiz-adv-x="600" d="M172 187 Q172 115 203 86 Q234 57 288 57 Q325 57 357 75.5 Q389 94 408.5 129 Q428 164 428 211 L428 490 L504 490 L504 0 L440 0 L429 66 Q370 -14 265 -14 Q188 -14 142 31.5 Q96 77 96 169 L96 490 L172 490 L172 187 Z M345 685 L451 685 L352 567 L279 567 L345 685 Z " />
<glyph glyph-name="ubreve" unicode="&#x16d;" horiz-adv-x="600" d="M172 187 Q172 115 203 86 Q234 57 288 57 Q325 57 357 75.5 Q389 94 408.5 129 Q428 164 428 211 L428 490 L504 490 L504 0 L440 0 L429 66 Q370 -14 265 -14 Q188 -14 142 31.5 Q96 77 96 169 L96 490 L172 490 L172 187 Z M427 686 Q425 635 392 601.5 Q359 568 306 568 Q253 568 220 601.5 Q187 635 185 686 L247 686 Q249 660 264.5 644 Q280 628 306 628 Q332 628 348 644 Q364 660 366 686 L427 686 Z " />
<glyph glyph-name="ucircumflex" unicode="&#xfb;" horiz-adv-x="600" d="M172 187 Q172 115 203 86 Q234 57 288 57 Q325 57 357 75.5 Q389 94 408.5 129 Q428 164 428 211 L428 490 L504 490 L504 0 L440 0 L429 66 Q370 -14 265 -14 Q188 -14 142 31.5 Q96 77 96 169 L96 490 L172 490 L172 187 Z M365 567 L306 631 L248 567 L174 567 L259 685 L354 685 L438 567 L365 567 Z " />
<glyph glyph-name="udieresis" unicode="&#xfc;" horiz-adv-x="600" d="M172 187 Q172 115 203 86 Q234 57 288 57 Q325 57 357 75.5 Q389 94 408.5 129 Q428 164 428 211 L428 490 L504 490 L504 0 L440 0 L429 66 Q370 -14 265 -14 Q188 -14 142 31.5 Q96 77 96 169 L96 490 L172 490 L172 187 Z M226 569 Q202 569 185 586 Q168 603 168 626 Q168 649 185 666 Q202 683 226 683 Q249 683 266 666 Q283 649 283 626 Q283 603 266 586 Q249 569 226 569 Z M383 569 Q360 569 343 586 Q326 603 326 626 Q326 649 343 666 Q360 683 383 683 Q407 683 423.5 666 Q440 649 440 626 Q440 603 423.5 586 Q407 569 383 569 Z " />
<glyph glyph-name="ugrave" unicode="&#xf9;" horiz-adv-x="600" d="M172 187 Q172 115 203 86 Q234 57 288 57 Q325 57 357 75.5 Q389 94 408.5 129 Q428 164 428 211 L428 490 L504 490 L504 0 L440 0 L429 66 Q370 -14 265 -14 Q188 -14 142 31.5 Q96 77 96 169 L96 490 L172 490 L172 187 Z M270 567 L171 685 L277 685 L343 567 L270 567 Z " />
<glyph glyph-name="uhungarumlaut" unicode="&#x171;" horiz-adv-x="600" d="M172 187 Q172 115 203 86 Q234 57 288 57 Q325 57 357 75.5 Q389 94 408.5 129 Q428 164 428 211 L428 490 L504 490 L504 0 L440 0 L429 66 Q370 -14 265 -14 Q188 -14 142 31.5 Q96 77 96 169 L96 490 L172 490 L172 187 Z M201 567 L256 685 L352 685 L263 567 L201 567 Z M329 567 L384 685 L480 685 L391 567 L329 567 Z " />
<glyph glyph-name="umacron" unicode="&#x16b;" horiz-adv-x="600" d="M172 187 Q172 115 203 86 Q234 57 288 57 Q325 57 357 75.5 Q389 94 408.5 129 Q428 164 428 211 L428 490 L504 490 L504 0 L440 0 L429 66 Q370 -14 265 -14 Q188 -14 142 31.5 Q96 77 96 169 L96 490 L172 490 L172 187 Z M209 657 L405 657 L405 595 L209 595 L209 657 Z " />
<glyph glyph-name="uogonek" unicode="&#x173;" horiz-adv-x="600" d="M504 0 Q442 -34 442 -78 Q442 -96 456 -109 Q470 -122 494 -122 L500 -122 L499 -179 Q493 -180 485 -180 Q436 -180 406.5 -156 Q377 -132 377 -93 Q377 -32 438 10 L429 66 Q370 -14 265 -14 Q188 -14 142 31.5 Q96 77 96 169 L96 490 L172 490 L172 187 Q172 115 203 86 Q234 57 288 57 Q325 57 357 75.5 Q389 94 408.5 129 Q428 164 428 211 L428 490 L504 490 L504 0 Z " />
<glyph glyph-name="uring" unicode="&#x16f;" horiz-adv-x="600" d="M172 187 Q172 115 203 86 Q234 57 288 57 Q325 57 357 75.5 Q389 94 408.5 129 Q428 164 428 211 L428 490 L504 490 L504 0 L440 0 L429 66 Q370 -14 265 -14 Q188 -14 142 31.5 Q96 77 96 169 L96 490 L172 490 L172 187 Z M221 637 Q221 672 246 697 Q271 722 306 722 Q341 722 366.5 697 Q392 672 392 637 Q392 602 366.5 577 Q341 552 306 552 Q271 552 246 577 Q221 602 221 637 Z M274 637 Q274 623 283.5 613.5 Q293 604 306 604 Q320 604 329.5 613.5 Q339 623 339 637 Q339 650 329.5 660 Q320 670 306 670 Q293 670 283.5 660 Q274 650 274 637 Z " />
<glyph glyph-name="utilde" unicode="&#x169;" horiz-adv-x="600" d="M172 187 Q172 115 203 86 Q234 57 288 57 Q325 57 357 75.5 Q389 94 408.5 129 Q428 164 428 211 L428 490 L504 490 L504 0 L440 0 L429 66 Q370 -14 265 -14 Q188 -14 142 31.5 Q96 77 96 169 L96 490 L172 490 L172 187 Z M166 610 Q180 644 203 660 Q226 676 252 676 Q271 676 284 671.5 Q297 667 318 656 Q332 648 342 644 Q352 640 364 640 Q391 640 409 679 L455 646 Q443 613 419.5 596 Q396 579 366 579 Q347 579 333 584 Q319 589 301 599 Q286 607 277 610.5 Q268 614 257 614 Q229 614 212 579 L166 610 Z " />
<glyph glyph-name="v" unicode="v" horiz-adv-x="600" d="M528 490 L341 0 L259 0 L71 490 L149 490 L300 87 L451 490 L528 490 Z " />
<glyph glyph-name="w" unicode="w" horiz-adv-x="600" d="M559 490 L460 0 L388 0 L301 366 L214 0 L140 0 L42 490 L114 490 L181 131 L264 490 L335 490 L419 134 L487 490 L559 490 Z " />
<glyph glyph-name="wacute" unicode="&#x1e83;" horiz-adv-x="600" d="M559 490 L460 0 L388 0 L301 366 L214 0 L140 0 L42 490 L114 490 L181 131 L264 490 L335 490 L419 134 L487 490 L559 490 Z M338 685 L444 685 L345 567 L272 567 L338 685 Z " />
<glyph glyph-name="wcircumflex" unicode="&#x175;" horiz-adv-x="600" d="M559 490 L460 0 L388 0 L301 366 L214 0 L140 0 L42 490 L114 490 L181 131 L264 490 L335 490 L419 134 L487 490 L559 490 Z M358 567 L299 631 L241 567 L167 567 L252 685 L347 685 L431 567 L358 567 Z " />
<glyph glyph-name="wdieresis" unicode="&#x1e85;" horiz-adv-x="600" d="M559 490 L460 0 L388 0 L301 366 L214 0 L140 0 L42 490 L114 490 L181 131 L264 490 L335 490 L419 134 L487 490 L559 490 Z M219 569 Q195 569 178 586 Q161 603 161 626 Q161 649 178 666 Q195 683 219 683 Q242 683 259 666 Q276 649 276 626 Q276 603 259 586 Q242 569 219 569 Z M376 569 Q353 569 336 586 Q319 603 319 626 Q319 649 336 666 Q353 683 376 683 Q400 683 416.5 666 Q433 649 433 626 Q433 603 416.5 586 Q400 569 376 569 Z " />
<glyph glyph-name="wgrave" unicode="&#x1e81;" horiz-adv-x="600" d="M559 490 L460 0 L388 0 L301 366 L214 0 L140 0 L42 490 L114 490 L181 131 L264 490 L335 490 L419 134 L487 490 L559 490 Z M263 567 L164 685 L270 685 L336 567 L263 567 Z " />
<glyph glyph-name="x" unicode="x" horiz-adv-x="600" d="M437 0 L300 192 L162 0 L77 0 L256 248 L82 490 L168 490 L300 304 L432 490 L518 490 L345 248 L523 0 L437 0 Z " />
<glyph glyph-name="uni1E8B" unicode="&#x1e8b;" horiz-adv-x="600" d="M437 0 L300 192 L162 0 L77 0 L256 248 L82 490 L168 490 L300 304 L432 490 L518 490 L345 248 L523 0 L437 0 Z M256 626 Q256 650 272.5 666.5 Q289 683 314 683 Q337 683 353.5 666.5 Q370 650 370 626 Q370 602 353.5 585.5 Q337 569 314 569 Q289 569 272.5 585.5 Q256 602 256 626 Z " />
<glyph glyph-name="y" unicode="y" horiz-adv-x="600" d="M512 490 L512 -1 Q512 -59 490.5 -109 Q469 -159 420.5 -190.5 Q372 -222 297 -222 Q212 -222 160.5 -180 Q109 -138 89 -66 L162 -49 Q174 -101 207 -127.5 Q240 -154 297 -154 Q367 -154 401.5 -113.5 Q436 -73 436 -3 L436 71 L435 76 Q402 35 363.5 16 Q325 -3 266 -3 Q192 -3 141 42 Q90 87 90 177 L90 490 L166 490 L166 202 Q166 129 198 98.5 Q230 68 288 68 Q351 68 393.5 110 Q436 152 436 223 L436 490 L512 490 Z " />
<glyph glyph-name="yacute" unicode="&#xfd;" horiz-adv-x="600" d="M512 490 L512 -1 Q512 -59 490.5 -109 Q469 -159 420.5 -190.5 Q372 -222 297 -222 Q212 -222 160.5 -180 Q109 -138 89 -66 L162 -49 Q174 -101 207 -127.5 Q240 -154 297 -154 Q367 -154 401.5 -113.5 Q436 -73 436 -3 L436 71 L435 76 Q402 35 363.5 16 Q325 -3 266 -3 Q192 -3 141 42 Q90 87 90 177 L90 490 L166 490 L166 202 Q166 129 198 98.5 Q230 68 288 68 Q351 68 393.5 110 Q436 152 436 223 L436 490 L512 490 Z M339 685 L445 685 L346 567 L273 567 L339 685 Z " />
<glyph glyph-name="ycircumflex" unicode="&#x177;" horiz-adv-x="600" d="M512 490 L512 -1 Q512 -59 490.5 -109 Q469 -159 420.5 -190.5 Q372 -222 297 -222 Q212 -222 160.5 -180 Q109 -138 89 -66 L162 -49 Q174 -101 207 -127.5 Q240 -154 297 -154 Q367 -154 401.5 -113.5 Q436 -73 436 -3 L436 71 L435 76 Q402 35 363.5 16 Q325 -3 266 -3 Q192 -3 141 42 Q90 87 90 177 L90 490 L166 490 L166 202 Q166 129 198 98.5 Q230 68 288 68 Q351 68 393.5 110 Q436 152 436 223 L436 490 L512 490 Z M359 567 L300 631 L242 567 L168 567 L253 685 L348 685 L432 567 L359 567 Z " />
<glyph glyph-name="ydieresis" unicode="&#xff;" horiz-adv-x="600" d="M512 490 L512 -1 Q512 -59 490.5 -109 Q469 -159 420.5 -190.5 Q372 -222 297 -222 Q212 -222 160.5 -180 Q109 -138 89 -66 L162 -49 Q174 -101 207 -127.5 Q240 -154 297 -154 Q367 -154 401.5 -113.5 Q436 -73 436 -3 L436 71 L435 76 Q402 35 363.5 16 Q325 -3 266 -3 Q192 -3 141 42 Q90 87 90 177 L90 490 L166 490 L166 202 Q166 129 198 98.5 Q230 68 288 68 Q351 68 393.5 110 Q436 152 436 223 L436 490 L512 490 Z M220 569 Q196 569 179 586 Q162 603 162 626 Q162 649 179 666 Q196 683 220 683 Q243 683 260 666 Q277 649 277 626 Q277 603 260 586 Q243 569 220 569 Z M377 569 Q354 569 337 586 Q320 603 320 626 Q320 649 337 666 Q354 683 377 683 Q401 683 417.5 666 Q434 649 434 626 Q434 603 417.5 586 Q401 569 377 569 Z " />
<glyph glyph-name="ygrave" unicode="&#x1ef3;" horiz-adv-x="600" d="M512 490 L512 -1 Q512 -59 490.5 -109 Q469 -159 420.5 -190.5 Q372 -222 297 -222 Q212 -222 160.5 -180 Q109 -138 89 -66 L162 -49 Q174 -101 207 -127.5 Q240 -154 297 -154 Q367 -154 401.5 -113.5 Q436 -73 436 -3 L436 71 L435 76 Q402 35 363.5 16 Q325 -3 266 -3 Q192 -3 141 42 Q90 87 90 177 L90 490 L166 490 L166 202 Q166 129 198 98.5 Q230 68 288 68 Q351 68 393.5 110 Q436 152 436 223 L436 490 L512 490 Z M264 567 L165 685 L271 685 L337 567 L264 567 Z " />
<glyph glyph-name="z" unicode="z" horiz-adv-x="600" d="M82 64 L421 423 L90 423 L90 490 L516 490 L516 426 L177 67 L518 67 L517 0 L82 0 L82 64 Z " />
<glyph glyph-name="zacute" unicode="&#x17a;" horiz-adv-x="600" d="M82 64 L421 423 L90 423 L90 490 L516 490 L516 426 L177 67 L518 67 L517 0 L82 0 L82 64 Z M339 685 L445 685 L346 567 L273 567 L339 685 Z " />
<glyph glyph-name="zcaron" unicode="&#x17e;" horiz-adv-x="600" d="M82 64 L421 423 L90 423 L90 490 L516 490 L516 426 L177 67 L518 67 L517 0 L82 0 L82 64 Z M432 685 L348 567 L253 567 L168 685 L242 685 L300 621 L359 685 L432 685 Z " />
<glyph glyph-name="zdotaccent" unicode="&#x17c;" horiz-adv-x="600" d="M82 64 L421 423 L90 423 L90 490 L516 490 L516 426 L177 67 L518 67 L517 0 L82 0 L82 64 Z M243 626 Q243 650 259.5 666.5 Q276 683 301 683 Q324 683 340.5 666.5 Q357 650 357 626 Q357 602 340.5 585.5 Q324 569 301 569 Q276 569 259.5 585.5 Q243 602 243 626 Z " />
<glyph glyph-name="uni01B6" unicode="&#x1b6;" horiz-adv-x="600" d="M518 67 L517 0 L82 0 L82 64 L223 213 L136 213 L136 274 L280 274 L421 423 L90 423 L90 490 L516 490 L516 426 L372 274 L451 274 L451 213 L315 213 L177 67 L518 67 Z " />
<glyph glyph-name="fi" unicode="&#xfb01;" horiz-adv-x="600" d="M32 70 L109 70 L109 423 L32 423 L32 490 L109 490 L109 533 Q109 619 158.5 666.5 Q208 714 298 714 Q369 714 418.5 688 Q468 662 487 607 L417 582 Q403 612 375 629.5 Q347 647 294 647 Q239 647 212 617.5 Q185 588 185 533 L185 490 L508 490 L508 69 L575 69 L575 0 L346 0 L346 69 L432 69 L432 423 L185 423 L185 70 L271 70 L271 0 L32 0 L32 70 Z " />
<glyph glyph-name="fl" unicode="&#xfb02;" horiz-adv-x="600" d="M575 69 L575 0 L346 0 L346 69 L432 69 L432 528 Q432 588 394 614.5 Q356 641 295 641 Q185 641 185 520 L185 490 L316 490 L316 423 L185 423 L185 70 L271 70 L271 0 L32 0 L32 70 L109 70 L109 423 L32 423 L32 490 L109 490 L109 520 Q109 609 159 657.5 Q209 706 301 706 Q386 706 432 669 L432 700 L508 700 L508 69 L575 69 Z " />
<glyph glyph-name="ordfeminine" unicode="&#xaa;" horiz-adv-x="600" d="M163 633 Q186 737 302 737 Q365 737 403.5 705 Q442 673 442 611 L443 383 L386 383 L378 416 Q346 373 277 373 Q223 373 190 403 Q157 433 157 479 Q157 523 188 550.5 Q219 578 292 589 L375 601 L375 611 Q375 681 301 681 Q234 681 224 619 L163 633 Z M375 552 L297 541 Q260 535 241.5 521.5 Q223 508 223 482 Q223 459 242 444.5 Q261 430 293 430 Q328 430 351.5 449.5 Q375 469 375 505 L375 552 Z " />
<glyph glyph-name="ordmasculine" unicode="&#xba;" horiz-adv-x="600" d="M477 558 Q477 511 455.5 469 Q434 427 393.5 401.5 Q353 376 300 376 Q246 376 205.5 401.5 Q165 427 143.5 469 Q122 511 122 558 Q122 605 144 647 Q166 689 206.5 714.5 Q247 740 300 740 Q353 740 393.5 714.5 Q434 689 455.5 647 Q477 605 477 558 Z M182 558 Q182 503 215 467 Q248 431 300 431 Q351 431 384 467 Q417 503 417 558 Q417 613 384 649.5 Q351 686 300 686 Q248 686 215 649.5 Q182 613 182 558 Z " />
<glyph glyph-name="uni0394" unicode="&#x394;" horiz-adv-x="600" d="M258 700 L341 700 L546 0 L53 0 L258 700 Z M300 602 L155 70 L444 70 L300 602 Z " />
<glyph glyph-name="uni03A9" unicode="&#x3a9;" horiz-adv-x="600" d="M540 351 Q540 154 464 69 L540 69 L540 0 L357 0 L357 69 Q409 91 435.5 160 Q462 229 462 351 Q462 495 420.5 569.5 Q379 644 300 644 Q138 644 138 351 Q138 114 243 69 L243 0 L59 0 L59 69 L139 69 Q60 157 60 351 Q60 534 122.5 624.5 Q185 715 300 715 Q416 715 478 625 Q540 535 540 351 Z " />
<glyph glyph-name="uni03BC" unicode="&#x3bc;" horiz-adv-x="600" d="M504 490 L504 0 L440 0 L429 66 Q370 -14 265 -14 Q210 -14 172 8 L172 -209 L96 -209 L96 490 L172 490 L172 187 Q172 115 203 86 Q234 57 288 57 Q325 57 357 75.5 Q389 94 408.5 129 Q428 164 428 211 L428 490 L504 490 Z " />
<glyph glyph-name="pi" unicode="&#x3c0;" horiz-adv-x="600" d="M534 21 Q499 -14 438 -14 Q391 -14 359.5 16.5 Q328 47 328 99 L328 423 L229 423 L229 0 L153 0 L153 423 L65 423 L65 490 L500 490 L500 423 L404 423 L404 103 Q404 77 417 65.5 Q430 54 451 54 Q474 54 491 71 L534 21 Z " />
<glyph glyph-name="zero" unicode="0" horiz-adv-x="600" d="M301 714 Q385 714 441.5 666 Q498 618 525.5 536.5 Q553 455 553 353 Q553 191 490.5 88.5 Q428 -14 301 -14 Q174 -14 110 88.5 Q46 191 46 353 Q46 455 73.5 536.5 Q101 618 158 666 Q215 714 301 714 Z M301 643 Q212 643 167.5 559.5 Q123 476 123 350 Q123 271 141 205 L414 586 Q370 643 301 643 Z M301 57 Q389 57 432 139 Q475 221 475 350 Q475 441 453 510 L177 125 Q222 57 301 57 Z " />
<glyph glyph-name="one" unicode="1" horiz-adv-x="600" d="M523 71 L523 0 L77 0 L77 71 L263 71 L263 615 Q236 598 195 583.5 Q154 569 121 563 L121 638 Q154 645 193 662 Q232 679 263 700 L341 700 L341 71 L523 71 Z " />
<glyph glyph-name="two" unicode="2" horiz-adv-x="600" d="M141 481 Q141 530 163.5 567 Q186 604 222.5 623.5 Q259 643 302 643 Q369 643 411 602.5 Q453 562 453 500 Q453 443 424 396.5 Q395 350 318 282 L82 72 L82 0 L532 0 L532 71 L189 71 L369 231 Q430 285 463.5 324.5 Q497 364 514 405.5 Q531 447 531 500 Q531 561 501.5 609.5 Q472 658 420 686 Q368 714 302 714 Q241 714 188.5 688 Q136 662 103.5 613.5 Q71 565 69 502 L141 481 Z " />
<glyph glyph-name="three" unicode="3" horiz-adv-x="600" d="M296 -14 Q366 -14 422.5 16 Q479 46 510.5 99 Q542 152 542 216 Q542 281 514.5 331.5 Q487 382 436 410.5 Q385 439 317 441 L496 629 L496 700 L78 700 L78 629 L402 629 L199 416 L239 367 Q272 376 296 376 Q373 376 418.5 330.5 Q464 285 464 216 Q464 171 442.5 135 Q421 99 383 78 Q345 57 296 57 Q250 57 212.5 77.5 Q175 98 152.5 132.5 Q130 167 128 209 L57 188 Q60 133 91.5 87 Q123 41 176.5 13.5 Q230 -14 296 -14 Z " />
<glyph glyph-name="four" unicode="4" horiz-adv-x="600" d="M448 189 L548 189 L548 257 L448 257 L448 700 L367 700 L51 251 L51 189 L370 189 L370 0 L448 0 L448 189 Z M370 589 L370 256 L134 256 L370 589 Z " />
<glyph glyph-name="five" unicode="5" horiz-adv-x="600" d="M56 176 Q61 127 93.5 83 Q126 39 179.5 12.5 Q233 -14 299 -14 Q367 -14 423 16 Q479 46 511.5 99.5 Q544 153 544 221 Q544 288 513.5 341 Q483 394 427.5 423.5 Q372 453 301 453 Q269 453 238.5 445 Q208 437 185 425 L203 629 L493 629 L493 700 L135 700 L107 365 L176 340 Q200 360 233 372 Q266 384 298 384 Q347 384 385 363 Q423 342 444.5 304.5 Q466 267 466 221 Q466 149 419.5 103 Q373 57 299 57 Q232 57 184.5 96 Q137 135 130 198 L56 176 Z " />
<glyph glyph-name="six" unicode="6" horiz-adv-x="600" d="M454 523 Q439 576 404.5 609.5 Q370 643 310 643 Q216 643 179 574 Q142 505 137 373 Q160 404 205.5 428 Q251 452 306 452 Q373 452 427.5 423 Q482 394 513 341.5 Q544 289 544 220 Q544 151 513 98 Q482 45 427 15.5 Q372 -14 302 -14 Q182 -14 118.5 68.5 Q55 151 55 306 Q55 503 113.5 608.5 Q172 714 310 714 Q396 714 448.5 668 Q501 622 524 545 L454 523 Z M302 57 Q375 57 420.5 102 Q466 147 466 220 Q466 293 421 337.5 Q376 382 302 382 Q256 382 219.5 361.5 Q183 341 162 304 Q141 267 141 220 Q141 175 161 138 Q181 101 218 79 Q255 57 302 57 Z " />
<glyph glyph-name="seven" unicode="7" horiz-adv-x="600" d="M74 700 L525 700 L525 629 Q451 515 374 330.5 Q297 146 268 0 L190 0 Q219 145 293 329 Q367 513 438 629 L74 629 L74 700 Z " />
<glyph glyph-name="eight" unicode="8" horiz-adv-x="600" d="M430 380 Q480 353 508.5 306 Q537 259 537 200 Q537 137 507 88 Q477 39 423 12 Q369 -15 300 -15 Q230 -15 176 12 Q122 39 92 88 Q62 137 62 200 Q62 259 90.5 306 Q119 353 170 380 Q133 404 113 441.5 Q93 479 93 524 Q93 579 119.5 622 Q146 665 193.5 689 Q241 713 300 713 Q359 713 406.5 689 Q454 665 480.5 622 Q507 579 507 524 Q507 479 487 441.5 Q467 404 430 380 Z M170 527 Q170 473 207 442 Q244 411 300 411 Q356 411 393 442 Q430 473 430 527 Q430 581 393 613 Q356 645 300 645 Q244 645 207 613 Q170 581 170 527 Z M300 55 Q368 55 413.5 94.5 Q459 134 459 200 Q459 267 413.5 306 Q368 345 300 345 Q257 345 220.5 327.5 Q184 310 162 277 Q140 244 140 200 Q140 156 162 123 Q184 90 220.5 72.5 Q257 55 300 55 Z " />
<glyph glyph-name="nine" unicode="9" horiz-adv-x="600" d="M156 177 Q171 124 205.5 90.5 Q240 57 300 57 Q394 57 431 126 Q468 195 473 327 Q450 296 404.5 272 Q359 248 304 248 Q237 248 182.5 277 Q128 306 97 358.5 Q66 411 66 480 Q66 549 97 602 Q128 655 183 684.5 Q238 714 308 714 Q428 714 491.5 631.5 Q555 549 555 394 Q555 197 496.5 91.5 Q438 -14 300 -14 Q214 -14 161.5 32 Q109 78 86 155 L156 177 Z M308 643 Q235 643 189.5 598 Q144 553 144 480 Q144 407 189 362.5 Q234 318 308 318 Q354 318 390.5 338.5 Q427 359 448 396 Q469 433 469 480 Q469 525 449 562 Q429 599 392 621 Q355 643 308 643 Z " />
<glyph glyph-name="uni2080" unicode="&#x2080;" horiz-adv-x="600" d="M301 237 Q365 237 398 186.5 Q431 136 431 56 Q431 -25 398 -76 Q365 -127 301 -127 Q236 -127 203 -76.5 Q170 -26 170 56 Q170 136 203.5 186.5 Q237 237 301 237 Z M301 179 Q266 179 248.5 145 Q231 111 231 55 Q231 32 234 11 L342 161 Q324 179 301 179 Z M301 -71 Q335 -71 352 -37 Q369 -3 369 55 Q369 83 365 102 L256 -49 Q275 -71 301 -71 Z " />
<glyph glyph-name="uni2081" unicode="&#x2081;" horiz-adv-x="600" d="M418 -63 L418 -120 L192 -120 L192 -63 L276 -63 L276 162 Q264 154 243 147 Q222 140 207 137 L207 197 Q223 200 243.5 209.5 Q264 219 276 230 L337 230 L337 -63 L418 -63 Z " />
<glyph glyph-name="uni2082" unicode="&#x2082;" horiz-adv-x="600" d="M237 113 Q237 143 254.5 161.5 Q272 180 300 180 Q326 180 342 164 Q358 148 358 125 Q358 101 344 82 Q330 63 305 40 L187 -62 L187 -120 L420 -120 L420 -62 L275 -62 L348 1 Q384 33 402 60.5 Q420 88 420 126 Q420 174 385.5 205.5 Q351 237 300 237 Q251 237 216.5 207 Q182 177 180 128 L237 113 Z " />
<glyph glyph-name="uni2083" unicode="&#x2083;" horiz-adv-x="600" d="M298 -127 Q353 -127 389 -93 Q425 -59 425 -7 Q425 41 399.5 69.5 Q374 98 334 104 L402 173 L402 230 L187 230 L187 173 L330 173 L244 89 L276 52 Q290 56 298 56 Q327 56 345.5 38 Q364 20 364 -7 Q364 -34 345.5 -51.5 Q327 -69 298 -69 Q270 -69 251.5 -51 Q233 -33 232 -6 L175 -23 Q177 -67 211 -97 Q245 -127 298 -127 Z " />
<glyph glyph-name="uni2084" unicode="&#x2084;" horiz-adv-x="600" d="M389 -31 L429 -31 L429 21 L389 21 L389 230 L323 230 L171 14 L171 -31 L327 -31 L327 -120 L389 -120 L389 -31 Z M327 145 L327 21 L238 21 L327 145 Z " />
<glyph glyph-name="uni2085" unicode="&#x2085;" horiz-adv-x="600" d="M177 -28 Q179 -69 214 -98 Q249 -127 300 -127 Q355 -127 390.5 -93.5 Q426 -60 426 -6 Q426 47 392.5 78.5 Q359 110 305 110 Q281 110 261 101 L267 172 L398 172 L398 230 L214 230 L197 57 L251 38 Q269 56 300 56 Q328 56 346.5 38.5 Q365 21 365 -6 Q365 -34 346.5 -51.5 Q328 -69 300 -69 Q273 -69 254.5 -53.5 Q236 -38 234 -11 L177 -28 Z " />
<glyph glyph-name="uni2086" unicode="&#x2086;" horiz-adv-x="600" d="M364 133 Q357 156 343 168 Q329 180 306 180 Q270 180 255 155 Q240 130 239 83 Q245 92 264 101.5 Q283 111 309 111 Q360 111 393.5 78.5 Q427 46 427 -7 Q427 -61 391.5 -94 Q356 -127 302 -127 Q237 -127 205 -83.5 Q173 -40 173 39 Q173 135 204.5 186 Q236 237 306 237 Q352 237 380 213.5 Q408 190 418 149 L364 133 Z M302 -70 Q330 -70 347.5 -52 Q365 -34 365 -7 Q365 21 348 38 Q331 55 302 55 Q275 55 257 37.5 Q239 20 239 -7 Q239 -34 257 -52 Q275 -70 302 -70 Z " />
<glyph glyph-name="uni2087" unicode="&#x2087;" horiz-adv-x="600" d="M186 230 L415 230 L415 173 Q381 119 348 33.5 Q315 -52 304 -120 L242 -120 Q254 -51 285 34.5 Q316 120 347 173 L186 173 L186 230 Z " />
<glyph glyph-name="uni2088" unicode="&#x2088;" horiz-adv-x="600" d="M380 69 Q401 54 412.5 32 Q424 10 424 -16 Q424 -64 389 -95.5 Q354 -127 300 -127 Q247 -127 211.5 -95.5 Q176 -64 176 -16 Q176 10 187.5 32 Q199 54 220 69 Q190 94 190 137 Q190 180 221.5 208.5 Q253 237 300 237 Q347 237 379 208.5 Q411 180 411 137 Q411 97 380 69 Z M250 138 Q250 117 264.5 104.5 Q279 92 300 92 Q322 92 336.5 104.5 Q351 117 351 138 Q351 159 336.5 171.5 Q322 184 300 184 Q279 184 264.5 171 Q250 158 250 138 Z M300 -71 Q326 -71 344.5 -55.5 Q363 -40 363 -15 Q363 11 344.5 26.5 Q326 42 300 42 Q274 42 256 26 Q238 10 238 -15 Q238 -40 256 -55.5 Q274 -71 300 -71 Z " />
<glyph glyph-name="uni2089" unicode="&#x2089;" horiz-adv-x="600" d="M237 -23 Q244 -46 258 -58 Q272 -70 295 -70 Q330 -70 345 -45 Q360 -20 362 28 Q355 18 337 9 Q319 0 292 0 Q241 0 207.5 32.5 Q174 65 174 117 Q174 171 209.5 204 Q245 237 299 237 Q363 237 395 193.5 Q427 150 427 71 Q427 -24 396 -75.5 Q365 -127 295 -127 Q249 -127 221 -103.5 Q193 -80 183 -39 L237 -23 Z M299 180 Q271 180 253 162.5 Q235 145 235 117 Q235 89 253 72 Q271 55 299 55 Q326 55 344 72.5 Q362 90 362 117 Q362 144 344 162 Q326 180 299 180 Z " />
<glyph glyph-name="uni2070" unicode="&#x2070;" horiz-adv-x="600" d="M301 801 Q365 801 398 750.5 Q431 700 431 620 Q431 539 398 488 Q365 437 301 437 Q236 437 203 487.5 Q170 538 170 620 Q170 700 203.5 750.5 Q237 801 301 801 Z M301 743 Q266 743 248.5 709 Q231 675 231 619 Q231 596 234 575 L342 725 Q324 743 301 743 Z M301 493 Q335 493 352 527 Q369 561 369 619 Q369 647 365 666 L256 515 Q275 493 301 493 Z " />
<glyph glyph-name="uni00B9" unicode="&#xb9;" horiz-adv-x="600" d="M418 501 L418 444 L192 444 L192 501 L276 501 L276 726 Q264 718 243 711 Q222 704 207 701 L207 761 Q223 764 243.5 773.5 Q264 783 276 794 L337 794 L337 501 L418 501 Z " />
<glyph glyph-name="uni00B2" unicode="&#xb2;" horiz-adv-x="600" d="M237 677 Q237 707 254.5 725.5 Q272 744 300 744 Q326 744 342 728 Q358 712 358 689 Q358 665 344 646 Q330 627 305 604 L187 502 L187 444 L420 444 L420 502 L275 502 L348 565 Q384 597 402 624.5 Q420 652 420 690 Q420 738 385.5 769.5 Q351 801 300 801 Q251 801 216.5 771 Q182 741 180 692 L237 677 Z " />
<glyph glyph-name="uni00B3" unicode="&#xb3;" horiz-adv-x="600" d="M298 437 Q353 437 389 471 Q425 505 425 557 Q425 605 399.5 633.5 Q374 662 334 668 L402 737 L402 794 L187 794 L187 737 L330 737 L244 653 L276 616 Q290 620 298 620 Q327 620 345.5 602 Q364 584 364 557 Q364 530 345.5 512.5 Q327 495 298 495 Q270 495 251.5 513 Q233 531 232 558 L175 541 Q177 497 211 467 Q245 437 298 437 Z " />
<glyph glyph-name="uni2074" unicode="&#x2074;" horiz-adv-x="600" d="M389 533 L429 533 L429 585 L389 585 L389 794 L323 794 L171 578 L171 533 L327 533 L327 444 L389 444 L389 533 Z M327 709 L327 585 L238 585 L327 709 Z " />
<glyph glyph-name="uni2075" unicode="&#x2075;" horiz-adv-x="600" d="M177 536 Q179 495 214 466 Q249 437 300 437 Q355 437 390.5 470.5 Q426 504 426 558 Q426 611 392.5 642.5 Q359 674 305 674 Q281 674 261 665 L267 736 L398 736 L398 794 L214 794 L197 621 L251 602 Q269 620 300 620 Q328 620 346.5 602.5 Q365 585 365 558 Q365 530 346.5 512.5 Q328 495 300 495 Q273 495 254.5 510.5 Q236 526 234 553 L177 536 Z " />
<glyph glyph-name="uni2076" unicode="&#x2076;" horiz-adv-x="600" d="M364 697 Q357 720 343 732 Q329 744 306 744 Q270 744 255 719 Q240 694 239 647 Q245 656 264 665.5 Q283 675 309 675 Q360 675 393.5 642.5 Q427 610 427 557 Q427 503 391.5 470 Q356 437 302 437 Q237 437 205 480.5 Q173 524 173 603 Q173 699 204.5 750 Q236 801 306 801 Q352 801 380 777.5 Q408 754 418 713 L364 697 Z M302 494 Q330 494 347.5 512 Q365 530 365 557 Q365 585 348 602 Q331 619 302 619 Q275 619 257 601.5 Q239 584 239 557 Q239 530 257 512 Q275 494 302 494 Z " />
<glyph glyph-name="uni2077" unicode="&#x2077;" horiz-adv-x="600" d="M186 794 L415 794 L415 737 Q381 683 348 597.5 Q315 512 304 444 L242 444 Q254 513 285 598.5 Q316 684 347 737 L186 737 L186 794 Z " />
<glyph glyph-name="uni2078" unicode="&#x2078;" horiz-adv-x="600" d="M380 633 Q401 618 412.5 596 Q424 574 424 548 Q424 500 389 468.5 Q354 437 300 437 Q247 437 211.5 468.5 Q176 500 176 548 Q176 574 187.5 596 Q199 618 220 633 Q190 658 190 701 Q190 744 221.5 772.5 Q253 801 300 801 Q347 801 379 772.5 Q411 744 411 701 Q411 661 380 633 Z M250 702 Q250 681 264.5 668.5 Q279 656 300 656 Q322 656 336.5 668.5 Q351 681 351 702 Q351 723 336.5 735.5 Q322 748 300 748 Q279 748 264.5 735 Q250 722 250 702 Z M300 493 Q326 493 344.5 508.5 Q363 524 363 549 Q363 575 344.5 590.5 Q326 606 300 606 Q274 606 256 590 Q238 574 238 549 Q238 524 256 508.5 Q274 493 300 493 Z " />
<glyph glyph-name="uni2079" unicode="&#x2079;" horiz-adv-x="600" d="M237 541 Q244 518 258 506 Q272 494 295 494 Q330 494 345 519 Q360 544 362 592 Q355 582 337 573 Q319 564 292 564 Q241 564 207.5 596.5 Q174 629 174 681 Q174 735 209.5 768 Q245 801 299 801 Q363 801 395 757.5 Q427 714 427 635 Q427 540 396 488.5 Q365 437 295 437 Q249 437 221 460.5 Q193 484 183 525 L237 541 Z M299 744 Q271 744 253 726.5 Q235 709 235 681 Q235 653 253 636 Q271 619 299 619 Q326 619 344 636.5 Q362 654 362 681 Q362 708 344 726 Q326 744 299 744 Z " />
<glyph glyph-name="fraction" unicode="&#x2044;" horiz-adv-x="600" d="M541 592 L581 545 L60 108 L20 157 L541 592 Z " />
<glyph glyph-name="onehalf" unicode="&#xbd;" horiz-adv-x="600" d="M9 434 L85 434 L85 638 Q74 630 55.5 624 Q37 618 23 615 L23 670 Q36 672 55 680.5 Q74 689 85 699 L141 699 L141 434 L214 434 L214 382 L9 382 L9 434 Z M581 545 L60 108 L20 157 L541 592 L581 545 Z M565 223 Q565 188 549 163 Q533 138 500 110 L433 53 L565 53 L565 0 L354 0 L354 53 L461 145 Q484 167 496.5 184 Q509 201 509 222 Q509 243 494 257.5 Q479 272 456 272 Q431 272 415 255.5 Q399 239 399 211 L347 225 Q349 269 380.5 296.5 Q412 324 456 324 Q502 324 533.5 295 Q565 266 565 223 Z " />
<glyph glyph-name="uni2153" unicode="&#x2153;" horiz-adv-x="600" d="M23 434 L99 434 L99 638 Q88 630 69.5 624 Q51 618 37 615 L37 670 Q50 672 69 680.5 Q88 689 99 699 L155 699 L155 434 L228 434 L228 382 L23 382 L23 434 Z M567 539 L63 116 L25 162 L529 583 L567 539 Z M493 203 Q529 198 552 172 Q575 146 575 102 Q575 55 542.5 24.5 Q510 -6 460 -6 Q412 -6 381.5 21 Q351 48 349 88 L400 103 Q401 79 418 62.5 Q435 46 460 46 Q487 46 503.5 62 Q520 78 520 102 Q520 127 503.5 143.5 Q487 160 460 160 Q454 160 440 156 L411 190 L489 266 L360 266 L360 317 L555 317 L555 266 L493 203 Z " />
<glyph glyph-name="uni2154" unicode="&#x2154;" horiz-adv-x="600" d="M75 594 Q75 622 91 638.5 Q107 655 132 655 Q155 655 170 640.5 Q185 626 185 605 Q185 584 172.5 567 Q160 550 137 528 L30 436 L30 383 L241 383 L241 436 L109 436 L176 493 Q209 521 225 546 Q241 571 241 606 Q241 649 209.5 678 Q178 707 132 707 Q88 707 56.5 679.5 Q25 652 23 608 L75 594 Z M538 583 L576 539 L72 116 L34 162 L538 583 Z M458 -6 Q508 -6 540.5 24.5 Q573 55 573 102 Q573 146 550 172 Q527 198 491 203 L553 266 L553 317 L358 317 L358 266 L487 266 L409 190 L438 156 Q452 160 458 160 Q485 160 501.5 143.5 Q518 127 518 102 Q518 78 501.5 62 Q485 46 458 46 Q433 46 416 62.5 Q399 79 398 103 L347 88 Q349 48 379.5 21 Q410 -6 458 -6 Z " />
<glyph glyph-name="onequarter" unicode="&#xbc;" horiz-adv-x="600" d="M21 434 L97 434 L97 638 Q86 630 67.5 624 Q49 618 35 615 L35 670 Q48 672 67 680.5 Q86 689 97 699 L153 699 L153 434 L226 434 L226 382 L21 382 L21 434 Z M572 539 L68 116 L30 162 L534 583 L572 539 Z M527 128 L563 128 L563 81 L527 81 L527 0 L471 0 L471 81 L329 81 L329 122 L467 317 L527 317 L527 128 Z M471 240 L390 128 L471 128 L471 240 Z " />
<glyph glyph-name="threequarters" unicode="&#xbe;" horiz-adv-x="600" d="M147 376 Q197 376 229.5 406.5 Q262 437 262 484 Q262 528 239 554 Q216 580 180 585 L242 648 L242 699 L47 699 L47 648 L176 648 L98 572 L127 538 Q141 542 147 542 Q174 542 190.5 525.5 Q207 509 207 484 Q207 460 190.5 444 Q174 428 147 428 Q122 428 105 444.5 Q88 461 87 485 L36 470 Q38 430 68.5 403 Q99 376 147 376 Z M533 583 L571 539 L67 116 L29 162 L533 583 Z M483 81 L519 81 L519 128 L483 128 L483 317 L423 317 L285 122 L285 81 L427 81 L427 0 L483 0 L483 81 Z M427 240 L427 128 L346 128 L427 240 Z " />
<glyph glyph-name="asterisk" unicode="&#x2a;" horiz-adv-x="600" d="M349 543 L427 436 L377 400 L299 506 L222 400 L172 436 L250 543 L126 584 L144 642 L269 601 L269 732 L330 732 L330 603 L454 641 L474 584 L349 543 Z " />
<glyph glyph-name="backslash" unicode="&#x5c;" horiz-adv-x="600" d="M127 700 L206 700 L472 0 L393 0 L127 700 Z " />
<glyph glyph-name="middot" unicode="&#xb7;" horiz-adv-x="600" d="M242 300 Q242 324 259 341 Q276 358 301 358 Q326 358 342.5 341 Q359 324 359 300 Q359 275 342.5 258 Q326 241 301 241 Q276 241 259 258 Q242 275 242 300 Z " />
<glyph glyph-name="bullet" unicode="&#x2022;" horiz-adv-x="600" d="M215 300 Q215 335 240 360 Q265 385 301 385 Q336 385 360.5 360 Q385 335 385 300 Q385 264 360.5 239.5 Q336 215 301 215 Q265 215 240 239.5 Q215 264 215 300 Z " />
<glyph glyph-name="colon" unicode="&#x3a;" horiz-adv-x="600" d="M242 356 Q242 380 258.5 397 Q275 414 300 414 Q325 414 342 397 Q359 380 359 356 Q359 331 342 314 Q325 297 300 297 Q275 297 258.5 314 Q242 331 242 356 Z M242 51 Q242 76 258.5 93 Q275 110 300 110 Q325 110 342 93 Q359 76 359 51 Q359 27 342 10 Q325 -7 300 -7 Q275 -7 258.5 10 Q242 27 242 51 Z " />
<glyph glyph-name="comma" unicode="&#x2c;" horiz-adv-x="600" d="M247 -94 Q264 -73 275 -47 Q286 -21 286 -4 Q267 2 254.5 16.5 Q242 31 242 52 Q242 78 259 94 Q276 110 300 110 Q325 110 341.5 92.5 Q358 75 358 42 Q358 8 338 -39.5 Q318 -87 283 -121 L247 -94 Z " />
<glyph glyph-name="ellipsis" unicode="&#x2026;" horiz-adv-x="600" d="M58 52 Q58 76 75 93 Q92 110 116 110 Q141 110 158 93 Q175 76 175 52 Q175 28 158 10.5 Q141 -7 116 -7 Q92 -7 75 10.5 Q58 28 58 52 Z M242 52 Q242 76 259 93 Q276 110 300 110 Q325 110 342 93 Q359 76 359 52 Q359 28 342 10.5 Q325 -7 300 -7 Q276 -7 259 10.5 Q242 28 242 52 Z M425 52 Q425 76 442 93 Q459 110 483 110 Q508 110 525 93 Q542 76 542 52 Q542 28 525 10.5 Q508 -7 483 -7 Q459 -7 442 10.5 Q425 28 425 52 Z " />
<glyph glyph-name="exclam" unicode="&#x21;" horiz-adv-x="600" d="M340 700 L340 175 L262 175 L262 700 L340 700 Z M242 52 Q242 76 259 93 Q276 110 300 110 Q325 110 342 92.5 Q359 75 359 51 Q359 27 341.5 10 Q324 -7 300 -7 Q276 -7 259 10.5 Q242 28 242 52 Z " />
<glyph glyph-name="exclamdown" unicode="&#xa1;" horiz-adv-x="600" d="M241 438 Q241 462 258 479.5 Q275 497 299 497 Q323 497 340.5 480 Q358 463 358 439 Q358 415 341 397.5 Q324 380 299 380 Q275 380 258 397 Q241 414 241 438 Z M261 315 L339 315 L339 -210 L261 -210 L261 315 Z " />
<glyph glyph-name="numbersign" unicode="&#x23;" horiz-adv-x="600" d="M454 446 L427 254 L532 254 L532 188 L419 188 L393 0 L321 0 L347 188 L210 188 L184 0 L114 0 L140 188 L35 188 L35 254 L148 254 L175 446 L67 446 L67 512 L183 512 L209 700 L279 700 L253 512 L392 512 L418 700 L488 700 L462 512 L565 512 L565 446 L454 446 Z M383 446 L245 446 L218 254 L356 254 L383 446 Z " />
<glyph glyph-name="period" unicode="&#x2e;" horiz-adv-x="600" d="M242 51 Q242 76 258.5 93 Q275 110 300 110 Q325 110 342 93 Q359 76 359 51 Q359 27 342 10 Q325 -7 300 -7 Q275 -7 258.5 10 Q242 27 242 51 Z " />
<glyph glyph-name="question" unicode="&#x3f;" horiz-adv-x="600" d="M297 714 Q362 714 413 686.5 Q464 659 492.5 611.5 Q521 564 521 505 Q521 423 474 361.5 Q427 300 341 281 L341 173 L263 173 L263 339 L271 339 Q352 339 398 385 Q444 431 444 505 Q444 564 403 603.5 Q362 643 299 643 Q231 643 190.5 603.5 Q150 564 149 498 L79 517 Q82 574 111 619 Q140 664 188.5 689 Q237 714 297 714 Z M302 110 Q327 110 344 93 Q361 76 361 52 Q361 27 344 10 Q327 -7 302 -7 Q278 -7 261 10 Q244 27 244 52 Q244 76 261 93 Q278 110 302 110 Z " />
<glyph glyph-name="questiondown" unicode="&#xbf;" horiz-adv-x="600" d="M298 381 Q273 381 256 398 Q239 415 239 439 Q239 464 256 481 Q273 498 298 498 Q322 498 339 481 Q356 464 356 439 Q356 415 339 398 Q322 381 298 381 Z M521 -26 Q518 -83 489 -128 Q460 -173 411.5 -198 Q363 -223 303 -223 Q238 -223 187 -195.5 Q136 -168 107.5 -120.5 Q79 -73 79 -14 Q79 68 126 129.5 Q173 191 259 210 L259 318 L337 318 L337 152 L329 152 Q248 152 202 106 Q156 60 156 -14 Q156 -73 197 -112.5 Q238 -152 301 -152 Q369 -152 409.5 -112.5 Q450 -73 451 -7 L521 -26 Z " />
<glyph glyph-name="quotedbl" unicode="&#x22;" horiz-adv-x="600" d="M408 732 L408 528 L332 528 L332 732 L408 732 Z M268 732 L268 528 L192 528 L192 732 L268 732 Z " />
<glyph glyph-name="quotesingle" unicode="&#x27;" horiz-adv-x="600" d="M338 732 L338 528 L262 528 L262 732 L338 732 Z " />
<glyph glyph-name="semicolon" unicode="&#x3b;" horiz-adv-x="600" d="M241 356 Q241 381 257.5 397.5 Q274 414 299 414 Q324 414 341 397.5 Q358 381 358 356 Q358 331 341 314 Q324 297 299 297 Q274 297 257.5 314 Q241 331 241 356 Z M247 -96 Q264 -75 275 -49 Q286 -23 286 -6 Q267 0 254.5 14.5 Q242 29 242 50 Q242 76 259 92 Q276 108 300 108 Q325 108 341.5 90.5 Q358 73 358 40 Q358 6 338 -41.5 Q318 -89 283 -123 L247 -96 Z " />
<glyph glyph-name="slash" unicode="&#x2f;" horiz-adv-x="600" d="M128 0 L394 700 L473 700 L207 0 L128 0 Z " />
<glyph glyph-name="underscore" unicode="&#x5f;" horiz-adv-x="600" d="M50 -50 L550 -50 L550 -118 L50 -118 L50 -50 Z " />
<glyph glyph-name="braceleft" unicode="&#x7b;" horiz-adv-x="600" d="M211 337 Q235 337 246.5 349.5 Q258 362 258 391 L258 672 Q258 717 286 743 Q314 769 352 769 L388 769 L388 700 L363 700 Q353 700 343.5 689.5 Q334 679 334 655 L334 377 Q334 327 307 300 Q334 273 334 223 L334 -57 Q334 -81 343.5 -91.5 Q353 -102 363 -102 L388 -102 L388 -171 L352 -171 Q314 -171 286 -145 Q258 -119 258 -74 L258 210 Q258 239 246.5 252 Q235 265 211 265 L211 337 Z " />
<glyph glyph-name="braceright" unicode="&#x7d;" horiz-adv-x="600" d="M389 265 Q365 265 353.5 252 Q342 239 342 210 L342 -74 Q342 -119 314 -145 Q286 -171 248 -171 L212 -171 L212 -102 L237 -102 Q247 -102 256.5 -91.5 Q266 -81 266 -57 L266 223 Q266 273 293 300 Q266 327 266 377 L266 655 Q266 679 256.5 689.5 Q247 700 237 700 L212 700 L212 769 L248 769 Q286 769 314 743 Q342 717 342 672 L342 391 Q342 362 353.5 349.5 Q365 337 389 337 L389 265 Z " />
<glyph glyph-name="bracketleft" unicode="&#x5b;" horiz-adv-x="600" d="M371 769 L371 700 L304 700 L304 -102 L371 -102 L371 -171 L230 -171 L230 769 L371 769 Z " />
<glyph glyph-name="bracketright" unicode="&#x5d;" horiz-adv-x="600" d="M371 -171 L230 -171 L230 -102 L297 -102 L297 700 L230 700 L230 769 L371 769 L371 -171 Z " />
<glyph glyph-name="parenleft" unicode="&#x28;" horiz-adv-x="600" d="M334 -171 Q204 34 204 300 Q204 567 334 769 L396 728 Q350 661 315 548 Q280 435 280 297 Q280 162 314.5 51.5 Q349 -59 395 -129 L334 -171 Z " />
<glyph glyph-name="parenright" unicode="&#x29;" horiz-adv-x="600" d="M205 -129 Q251 -59 285.5 51.5 Q320 162 320 297 Q320 435 285 548 Q250 661 204 728 L266 769 Q396 567 396 300 Q396 34 266 -171 L205 -129 Z " />
<glyph glyph-name="emdash" unicode="&#x2014;" horiz-adv-x="600" d="M0 335 L600 335 L600 265 L0 265 L0 335 Z " />
<glyph glyph-name="endash" unicode="&#x2013;" horiz-adv-x="600" d="M80 335 L520 335 L520 265 L80 265 L80 335 Z " />
<glyph glyph-name="hyphen" unicode="&#x2d;" horiz-adv-x="600" d="M175 335 L425 335 L425 265 L175 265 L175 335 Z " />
<glyph glyph-name="uni00AD" unicode="&#xad;" horiz-adv-x="600" d="M175 335 L425 335 L425 265 L175 265 L175 335 Z " />
<glyph glyph-name="guillemotleft" unicode="&#xab;" horiz-adv-x="600" d="M201 301 L303 115 L223 115 L121 301 L223 485 L303 485 L201 301 Z M377 301 L479 115 L399 115 L297 301 L399 485 L479 485 L377 301 Z " />
<glyph glyph-name="guillemotright" unicode="&#xbb;" horiz-adv-x="600" d="M479 301 L377 115 L297 115 L399 301 L297 485 L377 485 L479 301 Z M303 301 L201 115 L121 115 L223 301 L121 485 L201 485 L303 301 Z " />
<glyph glyph-name="guilsinglleft" unicode="&#x2039;" horiz-adv-x="600" d="M289 301 L391 115 L311 115 L209 301 L311 485 L391 485 L289 301 Z " />
<glyph glyph-name="guilsinglright" unicode="&#x203a;" horiz-adv-x="600" d="M391 301 L289 115 L209 115 L311 301 L209 485 L289 485 L391 301 Z " />
<glyph glyph-name="quotedblbase" unicode="&#x201e;" horiz-adv-x="600" d="M160 -78 Q177 -57 188 -31 Q199 -5 199 12 Q180 18 167.5 32.5 Q155 47 155 68 Q155 94 172 110 Q189 126 213 126 Q238 126 254.5 108.5 Q271 91 271 58 Q271 24 251 -23.5 Q231 -71 196 -105 L160 -78 Z M327 -78 Q344 -57 355 -31 Q366 -5 366 12 Q347 18 334.5 32.5 Q322 47 322 68 Q322 94 339 110 Q356 126 380 126 Q405 126 421.5 108.5 Q438 91 438 58 Q438 24 418 -23.5 Q398 -71 363 -105 L327 -78 Z " />
<glyph glyph-name="quotedblleft" unicode="&#x201c;" horiz-adv-x="600" d="M272 728 Q255 707 244 681 Q233 655 233 638 Q252 632 264.5 617.5 Q277 603 277 582 Q277 556 260 540 Q243 524 219 524 Q194 524 177.5 541.5 Q161 559 161 592 Q161 626 181 673.5 Q201 721 236 755 L272 728 Z M439 728 Q422 707 411 681 Q400 655 400 638 Q419 632 431.5 617.5 Q444 603 444 582 Q444 556 427 540 Q410 524 386 524 Q361 524 344.5 541.5 Q328 559 328 592 Q328 626 348 673.5 Q368 721 403 755 L439 728 Z " />
<glyph glyph-name="quotedblright" unicode="&#x201d;" horiz-adv-x="600" d="M161 549 Q178 570 189 596 Q200 622 200 639 Q181 645 168.5 659.5 Q156 674 156 695 Q156 721 173 737 Q190 753 214 753 Q239 753 255.5 735.5 Q272 718 272 685 Q272 651 252 603.5 Q232 556 197 522 L161 549 Z M328 549 Q345 570 356 596 Q367 622 367 639 Q348 645 335.5 659.5 Q323 674 323 695 Q323 721 340 737 Q357 753 381 753 Q406 753 422.5 735.5 Q439 718 439 685 Q439 651 419 603.5 Q399 556 364 522 L328 549 Z " />
<glyph glyph-name="quoteleft" unicode="&#x2018;" horiz-adv-x="600" d="M354 728 Q337 707 326 681 Q315 655 315 638 Q334 632 346.5 617.5 Q359 603 359 582 Q359 556 342 540 Q325 524 301 524 Q276 524 259.5 541.5 Q243 559 243 592 Q243 626 263 673.5 Q283 721 318 755 L354 728 Z " />
<glyph glyph-name="quoteright" unicode="&#x2019;" horiz-adv-x="600" d="M247 548 Q264 569 275 595 Q286 621 286 638 Q267 644 254.5 658.5 Q242 673 242 694 Q242 720 259 736 Q276 752 300 752 Q325 752 341.5 734.5 Q358 717 358 684 Q358 650 338 602.5 Q318 555 283 521 L247 548 Z " />
<glyph glyph-name="quotesinglbase" unicode="&#x201a;" horiz-adv-x="600" d="M246 -94 Q263 -73 274 -47 Q285 -21 285 -4 Q266 2 253.5 16.5 Q241 31 241 52 Q241 78 258 94 Q275 110 299 110 Q324 110 340.5 92.5 Q357 75 357 42 Q357 8 337 -39.5 Q317 -87 282 -121 L246 -94 Z " />
<glyph glyph-name="uni00A0" unicode="&#xa0;" horiz-adv-x="600" d="" />
<glyph glyph-name="cent" unicode="&#xa2;" horiz-adv-x="600" d="M531 242 Q509 181 462 140 Q415 99 348 91 L348 9 L271 9 L271 93 Q208 104 162.5 141.5 Q117 179 93.5 233.5 Q70 288 70 348 Q70 408 94 462.5 Q118 517 163.5 554.5 Q209 592 271 603 L271 691 L348 691 L348 605 Q417 597 463.5 557 Q510 517 530 458 L461 434 Q444 483 406.5 510.5 Q369 538 317 538 Q267 538 228 513.5 Q189 489 167.5 445.5 Q146 402 146 348 Q146 294 167.5 250.5 Q189 207 228 182.5 Q267 158 317 158 Q369 158 407 187 Q445 216 462 266 L531 242 Z " />
<glyph glyph-name="currency" unicode="&#xa4;" horiz-adv-x="600" d="M516 338 Q516 270 476 212 L542 145 L492 95 L426 160 Q372 121 301 121 Q229 121 175 160 L109 95 L59 145 L125 212 Q87 268 87 338 Q87 406 125 461 L59 527 L109 577 L174 514 Q228 555 301 555 Q375 555 429 516 L492 577 L542 527 L479 463 Q516 406 516 338 Z M301 191 Q363 191 402.5 232.5 Q442 274 442 338 Q442 403 403 444 Q364 485 301 485 Q239 485 200 444 Q161 403 161 338 Q161 274 200 232.5 Q239 191 301 191 Z " />
<glyph glyph-name="dollar" unicode="&#x24;" horiz-adv-x="600" d="M541 188 Q541 107 486 53.5 Q431 0 345 -11 L345 -77 L269 -77 L269 -11 Q109 7 60 177 L132 199 Q164 77 269 60 L269 328 Q177 352 129.5 396 Q82 440 82 518 Q82 598 134.5 650 Q187 702 269 713 L269 777 L345 777 L345 712 Q483 694 528 533 L457 513 Q444 566 417.5 599 Q391 632 345 641 L345 389 Q447 364 494 317.5 Q541 271 541 188 Z M158 518 Q158 474 185 449 Q212 424 269 407 L269 642 Q218 633 188 600.5 Q158 568 158 518 Z M345 60 Q399 69 432 101.5 Q465 134 465 188 Q465 215 457.5 235.5 Q450 256 423.5 276 Q397 296 345 310 L345 60 Z " />
<glyph glyph-name="Euro" unicode="&#x20ac;" horiz-adv-x="600" d="M342 57 Q407 57 444.5 98 Q482 139 501 214 L570 190 Q516 -14 332 -14 Q239 -14 175 51 Q111 116 89 233 L28 233 L28 298 L81 298 Q79 332 79 350 Q79 369 81 403 L28 403 L28 468 L90 468 Q113 583 179.5 648.5 Q246 714 340 714 Q430 714 488.5 657 Q547 600 573 497 L503 472 Q483 557 443.5 600 Q404 643 340 643 Q275 643 230.5 597.5 Q186 552 168 468 L380 468 L361 403 L159 403 Q157 369 157 350 Q157 332 159 298 L334 298 L315 233 L167 233 Q184 147 229 102 Q274 57 342 57 Z " />
<glyph glyph-name="florin" unicode="&#x192;" horiz-adv-x="600" d="M457 490 L457 421 L341 421 L341 -43 Q341 -100 306.5 -135.5 Q272 -171 218 -171 Q173 -171 147 -158 Q121 -145 112 -134 L155 -81 Q159 -87 172.5 -93.5 Q186 -100 206 -100 Q263 -100 263 -36 L263 421 L149 421 L149 490 L263 490 L263 641 Q263 698 297 733.5 Q331 769 385 769 Q431 769 456 756.5 Q481 744 491 732 L449 679 Q445 684 431 691 Q417 698 398 698 Q341 698 341 634 L341 490 L457 490 Z " />
<glyph glyph-name="sterling" unicode="&#xa3;" horiz-adv-x="600" d="M222 70 L531 70 L531 0 L69 0 L69 70 L144 70 L144 315 L69 315 L69 384 L144 384 L144 506 Q144 572 170 619 Q196 666 240 690 Q284 714 340 714 Q426 714 472.5 673 Q519 632 531 570 L462 554 Q454 591 424 617 Q394 643 341 643 Q290 643 256 608.5 Q222 574 222 510 L222 384 L458 384 L458 315 L222 315 L222 70 Z " />
<glyph glyph-name="yen" unicode="&#xa5;" horiz-adv-x="600" d="M374 346 L513 346 L513 280 L339 280 L339 204 L513 204 L513 138 L339 138 L339 0 L261 0 L261 138 L87 138 L87 204 L261 204 L261 280 L87 280 L87 346 L226 346 L25 700 L110 700 L300 360 L491 700 L575 700 L374 346 Z " />
<glyph glyph-name="uni2219" unicode="&#x2219;" horiz-adv-x="600" d="M241 300 Q241 324 258 341 Q275 358 300 358 Q325 358 341.5 341 Q358 324 358 300 Q358 275 341.5 258 Q325 241 300 241 Q275 241 258 258 Q241 275 241 300 Z " />
<glyph glyph-name="plus" unicode="&#x2b;" horiz-adv-x="600" d="M263 265 L50 265 L50 335 L263 335 L263 550 L337 550 L337 335 L550 335 L550 265 L337 265 L337 50 L263 50 L263 265 Z " />
<glyph glyph-name="minus" unicode="&#x2212;" horiz-adv-x="600" d="M50 335 L550 335 L550 265 L50 265 L50 335 Z " />
<glyph glyph-name="multiply" unicode="&#xd7;" horiz-adv-x="600" d="M339 300 L518 121 L468 71 L289 250 L109 71 L59 121 L238 300 L59 479 L109 529 L289 350 L468 529 L518 479 L339 300 Z " />
<glyph glyph-name="divide" unicode="&#xf7;" horiz-adv-x="600" d="M242 510 Q242 535 258.5 552 Q275 569 300 569 Q325 569 342 552 Q359 535 359 510 Q359 486 342 469 Q325 452 300 452 Q275 452 258.5 469 Q242 486 242 510 Z M45 334 L555 334 L555 266 L45 266 L45 334 Z M242 105 Q242 130 258.5 147 Q275 164 300 164 Q325 164 342 147 Q359 130 359 105 Q359 81 342 64 Q325 47 300 47 Q275 47 258.5 64 Q242 81 242 105 Z " />
<glyph glyph-name="equal" unicode="&#x3d;" horiz-adv-x="600" d="M50 444 L550 444 L550 374 L50 374 L50 444 Z M50 225 L550 225 L550 155 L50 155 L50 225 Z " />
<glyph glyph-name="notequal" unicode="&#x2260;" horiz-adv-x="600" d="M376 374 L306 225 L550 225 L550 155 L273 155 L213 28 L149 58 L194 155 L50 155 L50 225 L227 225 L297 374 L50 374 L50 444 L330 444 L389 570 L453 539 L408 444 L550 444 L550 374 L376 374 Z " />
<glyph glyph-name="greater" unicode="&#x3e;" horiz-adv-x="600" d="M550 340 L550 262 L50 53 L50 130 L457 301 L50 470 L50 548 L550 340 Z " />
<glyph glyph-name="less" unicode="&#x3c;" horiz-adv-x="600" d="M550 470 L143 301 L550 130 L550 53 L50 262 L50 340 L550 548 L550 470 Z " />
<glyph glyph-name="greaterequal" unicode="&#x2265;" horiz-adv-x="600" d="M549 339 L49 130 L49 207 L456 378 L49 547 L49 625 L549 417 L549 339 Z M551 71 L551 1 L51 1 L51 71 L551 71 Z " />
<glyph glyph-name="lessequal" unicode="&#x2264;" horiz-adv-x="600" d="M551 547 L144 378 L551 207 L551 130 L51 339 L51 417 L551 625 L551 547 Z M49 71 L549 71 L549 1 L49 1 L49 71 Z " />
<glyph glyph-name="plusminus" unicode="&#xb1;" horiz-adv-x="600" d="M262 347 L49 347 L49 417 L262 417 L262 632 L336 632 L336 417 L549 417 L549 347 L336 347 L336 132 L262 132 L262 347 Z M51 71 L551 71 L551 2 L51 2 L51 71 Z " />
<glyph glyph-name="approxequal" unicode="&#x2248;" horiz-adv-x="600" d="M541 209 Q515 168 484 149 Q453 130 414 130 Q386 130 359 138 Q332 146 292 161 Q257 174 236 180.5 Q215 187 195 187 Q171 187 151.5 175 Q132 163 113 136 L62 176 Q89 217 120.5 236 Q152 255 192 255 Q221 255 249.5 247 Q278 239 316 224 Q347 211 369 204.5 Q391 198 411 198 Q433 198 451 209.5 Q469 221 488 248 L541 209 Z M541 422 Q515 381 484 362 Q453 343 414 343 Q386 343 359 351 Q332 359 292 374 Q257 387 236 393.5 Q215 400 195 400 Q171 400 151.5 388 Q132 376 113 349 L62 389 Q89 430 120.5 449 Q152 468 192 468 Q221 468 249.5 460 Q278 452 316 437 Q347 424 369 417.5 Q391 411 411 411 Q433 411 451 422.5 Q469 434 488 461 L541 422 Z " />
<glyph glyph-name="asciitilde" unicode="&#x7e;" horiz-adv-x="600" d="M540 317 Q514 276 483 257 Q452 238 413 238 Q385 238 358 246 Q331 254 291 269 Q256 282 235 288.5 Q214 295 194 295 Q170 295 150.5 283 Q131 271 112 244 L61 284 Q88 325 119.5 344 Q151 363 191 363 Q220 363 248.5 355 Q277 347 315 332 Q346 319 368 312.5 Q390 306 410 306 Q432 306 450 317.5 Q468 329 487 356 L540 317 Z " />
<glyph glyph-name="logicalnot" unicode="&#xac;" horiz-adv-x="600" d="M551 190 L478 190 L478 340 L50 340 L50 410 L551 410 L551 190 Z " />
<glyph glyph-name="infinity" unicode="&#x221e;" horiz-adv-x="600" d="M431 174 Q486 174 521.5 209.5 Q557 245 557 300 Q557 355 521.5 390.5 Q486 426 431 426 Q395 426 364 407 Q333 388 300 349 Q267 389 235 407.5 Q203 426 170 426 Q115 426 79.5 390 Q44 354 44 300 Q44 246 79.5 210 Q115 174 170 174 Q203 174 234.5 192.5 Q266 211 300 252 Q336 212 365.5 193 Q395 174 431 174 Z M170 361 Q195 361 215 346 Q235 331 262 300 Q235 269 215 254 Q195 239 170 239 Q144 239 127 256.5 Q110 274 110 300 Q110 326 127 343.5 Q144 361 170 361 Z M339 300 Q365 332 387 346.5 Q409 361 431 361 Q457 361 474 343.5 Q491 326 491 300 Q491 274 474 256.5 Q457 239 431 239 Q409 239 387 253.5 Q365 268 339 300 Z " />
<glyph glyph-name="emptyset" unicode="&#x2205;" horiz-adv-x="600" d="M498 450 Q549 383 549 300 Q549 233 515.5 175.5 Q482 118 424.5 84.5 Q367 51 300 51 Q259 51 220.5 64.5 Q182 78 151 102 L99 50 L51 98 L103 150 Q52 217 52 300 Q52 367 85.5 424.5 Q119 482 176 515.5 Q233 549 300 549 Q383 549 450 498 L502 550 L550 502 L498 450 Z M120 300 Q120 243 150 197 L404 452 Q359 483 300 483 Q249 483 208 459 Q167 435 143.5 393 Q120 351 120 300 Z M481 300 Q481 356 452 403 L197 148 Q242 117 300 117 Q352 117 393 141 Q434 165 457.5 207 Q481 249 481 300 Z " />
<glyph glyph-name="integral" unicode="&#x222b;" horiz-adv-x="600" d="M384 769 Q430 769 455 756.5 Q480 744 490 732 L448 679 Q444 684 430 691 Q416 698 397 698 Q340 698 340 634 L340 -43 Q340 -100 305.5 -135.5 Q271 -171 217 -171 Q172 -171 146 -158 Q120 -145 111 -134 L154 -81 Q158 -87 171.5 -93.5 Q185 -100 205 -100 Q262 -100 262 -36 L262 641 Q262 698 296 733.5 Q330 769 384 769 Z " />
<glyph glyph-name="product" unicode="&#x220f;" horiz-adv-x="600" d="M522 0 L445 0 L445 629 L156 629 L156 0 L79 0 L79 700 L522 700 L522 0 Z " />
<glyph glyph-name="summation" unicode="&#x2211;" horiz-adv-x="600" d="M530 630 L174 630 L427 350 L174 70 L530 70 L530 0 L70 0 L70 63 L328 350 L70 637 L70 700 L530 700 L530 630 Z " />
<glyph glyph-name="radical" unicode="&#x221a;" horiz-adv-x="600" d="M577 700 L302 0 L217 0 L92 315 L23 315 L23 385 L139 385 L259 84 L495 700 L577 700 Z " />
<glyph glyph-name="partialdiff" unicode="&#x2202;" horiz-adv-x="600" d="M76 545 Q99 622 151.5 668 Q204 714 290 714 Q428 714 486.5 608.5 Q545 503 545 306 Q545 151 481.5 68.5 Q418 -14 298 -14 Q228 -14 173 15.5 Q118 45 87 98 Q56 151 56 220 Q56 289 87 341.5 Q118 394 172.5 423 Q227 452 294 452 Q349 452 394.5 428 Q440 404 463 373 Q458 505 421 574 Q384 643 290 643 Q230 643 195.5 609.5 Q161 576 146 523 L76 545 Z M298 57 Q345 57 382 79 Q419 101 439 138 Q459 175 459 220 Q459 267 438 304 Q417 341 380.5 361.5 Q344 382 298 382 Q224 382 179 337.5 Q134 293 134 220 Q134 147 179.5 102 Q225 57 298 57 Z " />
<glyph glyph-name="uni00B5" unicode="&#xb5;" horiz-adv-x="600" d="M504 490 L504 0 L440 0 L429 66 Q370 -14 265 -14 Q210 -14 172 8 L172 -209 L96 -209 L96 490 L172 490 L172 187 Q172 115 203 86 Q234 57 288 57 Q325 57 357 75.5 Q389 94 408.5 129 Q428 164 428 211 L428 490 L504 490 Z " />
<glyph glyph-name="percent" unicode="&#x25;" horiz-adv-x="600" d="M185 416 Q146 416 112.5 435.5 Q79 455 59.5 488.5 Q40 522 40 562 Q40 601 59.5 634.5 Q79 668 112.5 687.5 Q146 707 185 707 Q224 707 257.5 687.5 Q291 668 310.5 634.5 Q330 601 330 562 Q330 522 310.5 488.5 Q291 455 257.5 435.5 Q224 416 185 416 Z M185 475 Q220 475 245.5 500.5 Q271 526 271 562 Q271 597 245.5 622.5 Q220 648 185 648 Q150 648 124.5 622.5 Q99 597 99 562 Q99 526 124.5 500.5 Q150 475 185 475 Z M541 592 L581 545 L60 108 L20 157 L541 592 Z M412 -7 Q373 -7 339.5 12.5 Q306 32 286.5 65.5 Q267 99 267 139 Q267 178 286.5 211.5 Q306 245 339.5 264.5 Q373 284 412 284 Q451 284 484.5 264.5 Q518 245 537.5 211.5 Q557 178 557 139 Q557 99 537.5 65.5 Q518 32 484.5 12.5 Q451 -7 412 -7 Z M412 52 Q447 52 472.5 77.5 Q498 103 498 139 Q498 174 472.5 199.5 Q447 225 412 225 Q377 225 351.5 199.5 Q326 174 326 139 Q326 103 351.5 77.5 Q377 52 412 52 Z " />
<glyph glyph-name="perthousand" unicode="&#x2030;" horiz-adv-x="600" d="M178 428 Q140 428 108 446.5 Q76 465 57.5 497.5 Q39 530 39 568 Q39 606 57.5 638 Q76 670 108 688.5 Q140 707 178 707 Q216 707 248 688.5 Q280 670 298.5 638 Q317 606 317 568 Q317 530 298.5 497.5 Q280 465 248 446.5 Q216 428 178 428 Z M178 485 Q212 485 236 509.5 Q260 534 260 568 Q260 602 236 626 Q212 650 178 650 Q144 650 120 626 Q96 602 96 568 Q96 534 120 509.5 Q144 485 178 485 Z M37 202 L522 603 L563 556 L77 153 L37 202 Z M242 -7 Q201 -7 172 22 Q143 51 143 92 Q143 133 172 162 Q201 191 242 191 Q283 191 312 162 Q341 133 341 92 Q341 51 312 22 Q283 -7 242 -7 Z M463 -7 Q422 -7 393 22 Q364 51 364 92 Q364 133 393 162 Q422 191 463 191 Q504 191 533 162 Q562 133 562 92 Q562 51 533 22 Q504 -7 463 -7 Z M242 39 Q263 39 279 54.5 Q295 70 295 92 Q295 113 279 129 Q263 145 242 145 Q220 145 204.5 129 Q189 113 189 92 Q189 70 204.5 54.5 Q220 39 242 39 Z M463 39 Q484 39 500 54.5 Q516 70 516 92 Q516 113 500 129 Q484 145 463 145 Q441 145 425.5 129 Q410 113 410 92 Q410 70 425.5 54.5 Q441 39 463 39 Z " />
<glyph glyph-name="arrowup" unicode="&#x2191;" horiz-adv-x="600" d="M524 251 L332 441 L332 35 L266 35 L266 439 L77 250 L31 297 L300 565 L569 297 L524 251 Z " />
<glyph glyph-name="uni2197" unicode="&#x2197;" horiz-adv-x="600" d="M504 503 L504 123 L439 123 L439 390 L143 94 L96 141 L393 438 L124 439 L124 504 L504 503 Z " />
<glyph glyph-name="arrowright" unicode="&#x2192;" horiz-adv-x="600" d="M565 299 L296 30 L251 77 L439 265 L35 265 L35 332 L440 332 L251 523 L297 570 L565 299 Z " />
<glyph glyph-name="uni2198" unicode="&#x2198;" horiz-adv-x="600" d="M504 476 L504 96 L124 95 L124 160 L393 161 L96 458 L143 505 L439 209 L439 476 L504 476 Z " />
<glyph glyph-name="arrowdown" unicode="&#x2193;" horiz-adv-x="600" d="M569 303 L300 35 L31 303 L77 350 L266 161 L266 565 L332 565 L332 159 L524 349 L569 303 Z " />
<glyph glyph-name="uni2199" unicode="&#x2199;" horiz-adv-x="600" d="M207 161 L476 160 L476 95 L96 96 L96 476 L161 476 L161 209 L457 505 L504 458 L207 161 Z " />
<glyph glyph-name="arrowleft" unicode="&#x2190;" horiz-adv-x="600" d="M565 265 L161 265 L349 77 L304 30 L35 299 L303 570 L349 523 L160 332 L565 332 L565 265 Z " />
<glyph glyph-name="uni2196" unicode="&#x2196;" horiz-adv-x="600" d="M457 94 L161 390 L161 123 L96 123 L96 503 L476 504 L476 439 L207 438 L504 141 L457 94 Z " />
<glyph glyph-name="arrowboth" unicode="&#x2194;" horiz-adv-x="600" d="M579 299 L376 96 L331 143 L453 265 L147 265 L269 143 L224 96 L21 299 L223 504 L269 457 L146 332 L454 332 L331 457 L377 504 L579 299 Z " />
<glyph glyph-name="arrowupdn" unicode="&#x2195;" horiz-adv-x="600" d="M457 269 L504 223 L299 21 L96 224 L143 269 L265 147 L265 453 L143 331 L96 376 L299 579 L504 377 L457 331 L332 454 L332 146 L457 269 Z " />
<glyph glyph-name="uni21A9" unicode="&#x21a9;" horiz-adv-x="600" d="M370 617 Q417 616 456 592.5 Q495 569 517.5 529.5 Q540 490 540 442 Q540 395 517 355.5 Q494 316 455 292 Q416 268 369 267 L186 267 L305 148 L259 101 L61 300 L258 498 L305 453 L186 333 L369 333 Q413 335 444 366.5 Q475 398 475 442 Q475 485 444 517.5 Q413 550 370 552 L370 617 Z " />
<glyph glyph-name="uni21B0" unicode="&#x21b0;" horiz-adv-x="600" d="M521 11 L457 11 L457 269 L203 269 L371 100 L325 54 L79 301 L326 548 L371 502 L205 335 L521 335 L521 11 Z " />
<glyph glyph-name="uni21B1" unicode="&#x21b1;" horiz-adv-x="600" d="M521 301 L275 54 L229 100 L397 269 L143 269 L143 11 L79 11 L79 335 L395 335 L229 502 L274 548 L521 301 Z " />
<glyph glyph-name="uni21B2" unicode="&#x21b2;" horiz-adv-x="600" d="M521 590 L521 266 L205 266 L371 99 L326 53 L79 300 L325 547 L371 501 L203 332 L457 332 L457 590 L521 590 Z " />
<glyph glyph-name="uni21B3" unicode="&#x21b3;" horiz-adv-x="600" d="M521 300 L274 53 L229 99 L395 266 L79 266 L79 590 L143 590 L143 332 L397 332 L229 501 L275 547 L521 300 Z " />
<glyph glyph-name="uni21B4" unicode="&#x21b4;" horiz-adv-x="600" d="M547 326 L300 79 L53 325 L99 371 L268 203 L268 457 L53 457 L53 521 L334 521 L334 205 L501 371 L547 326 Z " />
<glyph glyph-name="uni258A" unicode="&#x258a;" horiz-adv-x="600" d="M525 700 L525 0 L75 0 L75 700 L525 700 Z " />
<glyph glyph-name="uni25D0" unicode="&#x25d0;" horiz-adv-x="600" d="M299 550 Q367 550 424.5 516 Q482 482 516 424.5 Q550 367 550 300 Q550 233 516 175.5 Q482 118 424.5 84 Q367 50 299 50 Q232 50 174.5 84 Q117 118 83.5 175.5 Q50 233 50 300 Q50 367 83.5 424.5 Q117 482 174.5 516 Q232 550 299 550 Z M300 103 Q355 103 399.5 128.5 Q444 154 469.5 199 Q495 244 495 300 Q495 356 469.5 400.5 Q444 445 399.5 471 Q355 497 300 497 L300 103 Z " />
<glyph glyph-name="lozenge" unicode="&#x25ca;" horiz-adv-x="600" d="M553 350 L552 350 L343 1 L257 1 L48 350 L47 350 L47 351 L48 351 L257 700 L343 700 L552 351 L553 351 L553 350 Z M466 351 L300 628 L134 351 L300 73 L466 351 Z " />
<glyph glyph-name="smileface" unicode="&#x263a;" horiz-adv-x="600" d="M300 50 Q368 50 425.5 83.5 Q483 117 516.5 174.5 Q550 232 550 300 Q550 368 516.5 425.5 Q483 483 425.5 516.5 Q368 550 300 550 Q233 550 175.5 516.5 Q118 483 84 425.5 Q50 368 50 300 Q50 232 84 174.5 Q118 117 175.5 83.5 Q233 50 300 50 Z M300 505 Q356 505 403 477.5 Q450 450 478 403 Q506 356 506 300 Q506 244 478 197 Q450 150 403 122.5 Q356 95 300 95 Q244 95 197 122.5 Q150 150 122.5 197 Q95 244 95 300 Q95 356 122.5 403 Q150 450 197 477.5 Q244 505 300 505 Z M265 342 Q265 359 252.5 371.5 Q240 384 223 384 Q206 384 193 371.5 Q180 359 180 342 Q180 325 193 312.5 Q206 300 223 300 Q240 300 252.5 312.5 Q265 325 265 342 Z M420 342 Q420 359 407 371.5 Q394 384 377 384 Q360 384 347.5 371.5 Q335 359 335 342 Q335 325 347.5 312.5 Q360 300 377 300 Q394 300 407 312.5 Q420 325 420 342 Z " />
<glyph glyph-name="at" unicode="&#x40;" horiz-adv-x="600" d="M525 700 L525 198 L466 198 L458 220 Q420 194 370 194 Q300 194 256.5 238 Q213 282 213 351 Q213 420 256 462 Q299 504 370 504 Q419 504 456 481 L456 635 L144 635 L144 65 L525 65 L525 0 L75 0 L75 700 L525 700 Z M370 259 Q409 259 432 284.5 Q455 310 456 347 L456 351 Q455 390 433 414.5 Q411 439 370 439 Q326 439 304 415 Q282 391 282 351 Q282 310 304 284.5 Q326 259 370 259 Z " />
<glyph glyph-name="ampersand" unicode="&#x26;" horiz-adv-x="600" d="M50 200 Q50 261 80 308.5 Q110 356 162 383 Q128 407 109 443.5 Q90 480 90 524 Q90 579 116.5 622 Q143 665 190 689 Q237 713 295 713 Q373 713 424.5 674 Q476 635 488 570 L417 552 Q409 596 375.5 620.5 Q342 645 295 645 Q239 645 202.5 613 Q166 581 166 527 Q166 473 202.5 442 Q239 411 295 411 L421 410 L421 484 L495 484 L495 410 L551 410 L551 344 L495 344 L495 200 Q495 137 467 88 Q439 39 389.5 12 Q340 -15 279 -15 Q213 -15 160.5 12 Q108 39 79 87.5 Q50 136 50 200 Z M128 200 Q128 156 149 123 Q170 90 204.5 72.5 Q239 55 279 55 Q340 55 380.5 94.5 Q421 134 421 200 L421 344 L288 345 Q245 345 208.5 327.5 Q172 310 150 277 Q128 244 128 200 Z " />
<glyph glyph-name="paragraph" unicode="&#xb6;" horiz-adv-x="600" d="M229 336 Q179 336 137.5 360.5 Q96 385 71.5 427 Q47 469 47 518 Q47 568 72.5 609.5 Q98 651 143.5 675.5 Q189 700 247 700 L553 700 L553 636 L467 636 L467 -210 L395 -210 L395 636 L300 636 L300 -210 L229 -210 L229 336 Z " />
<glyph glyph-name="section" unicode="&#xa7;" horiz-adv-x="600" d="M442 239 Q495 202 495 133 Q495 89 469.5 55.5 Q444 22 400.5 4 Q357 -14 305 -14 Q229 -14 176.5 21.5 Q124 57 105 124 L172 145 Q186 104 214.5 77.5 Q243 51 305 51 Q357 51 389 72 Q421 93 421 132 Q421 160 399 180.5 Q377 201 306 213 Q220 228 171.5 260.5 Q123 293 123 360 Q123 427 178 466 Q123 503 123 570 Q123 638 175.5 676 Q228 714 305 714 Q378 714 424 679.5 Q470 645 488 582 L421 564 Q410 604 381 626.5 Q352 649 305 649 Q247 649 222 626.5 Q197 604 197 572 Q197 538 228 521 Q259 504 319 493 Q404 478 449.5 444 Q495 410 495 343 Q495 312 481 285 Q467 258 442 239 Z M197 362 Q197 328 227.5 311 Q258 294 319 283 Q342 279 368 272 Q393 281 407 299 Q421 317 421 342 Q421 370 399 390.5 Q377 411 306 423 Q275 428 257 433 Q225 424 211 404.5 Q197 385 197 362 Z " />
<glyph glyph-name="copyright" unicode="&#xa9;" horiz-adv-x="600" d="M300 50 Q232 50 174.5 83.5 Q117 117 83.5 174.5 Q50 232 50 300 Q50 368 83.5 425.5 Q117 483 174.5 516.5 Q232 550 300 550 Q368 550 425.5 516.5 Q483 483 516.5 425.5 Q550 368 550 300 Q550 232 516.5 174.5 Q483 117 425.5 83.5 Q368 50 300 50 Z M300 91 Q357 91 405 119 Q453 147 481 195 Q509 243 509 300 Q509 357 481 405 Q453 453 405 481 Q357 509 300 509 Q243 509 195 481 Q147 453 119 405 Q91 357 91 300 Q91 243 119 195 Q147 147 195 119 Q243 91 300 91 Z M373 341 Q365 367 346.5 382 Q328 397 299 397 Q261 397 236 369 Q211 341 211 300 Q211 257 235.5 230 Q260 203 299 203 Q355 203 373 254 L413 241 Q399 204 370.5 184 Q342 164 299 164 Q241 164 204.5 201.5 Q168 239 168 300 Q168 359 204.5 397.5 Q241 436 299 436 Q341 436 371.5 415 Q402 394 415 355 L373 341 Z " />
<glyph glyph-name="registered" unicode="&#xae;" horiz-adv-x="600" d="M300 344 Q251 344 209 368.5 Q167 393 142.5 434.5 Q118 476 118 526 Q118 575 142.5 617 Q167 659 209 683.5 Q251 708 300 708 Q349 708 391 683.5 Q433 659 457.5 617 Q482 575 482 526 Q482 476 457.5 434.5 Q433 393 391 368.5 Q349 344 300 344 Z M300 385 Q338 385 370.5 404 Q403 423 422 455.5 Q441 488 441 526 Q441 564 422 596.5 Q403 629 370.5 648 Q338 667 300 667 Q262 667 229.5 648 Q197 629 178 596.5 Q159 564 159 526 Q159 488 178 455.5 Q197 423 229.5 404 Q262 385 300 385 Z M300 501 L279 501 L279 433 L239 433 L239 618 L311 618 Q338 618 354 602 Q370 586 370 563 Q370 521 339 508 L373 433 L329 433 L300 501 Z M306 536 Q319 536 325.5 543 Q332 550 332 559 Q332 569 325.5 575.5 Q319 582 306 582 L279 582 L279 536 L306 536 Z " />
<glyph glyph-name="trademark" unicode="&#x2122;" horiz-adv-x="600" d="M39 706 L245 706 L245 653 L170 653 L170 435 L114 435 L114 653 L39 653 L39 706 Z M561 435 L504 435 L504 587 L439 435 L400 435 L335 588 L334 435 L279 435 L279 706 L338 706 L420 515 L501 706 L561 706 L561 435 Z " />
<glyph glyph-name="degree" unicode="&#xb0;" horiz-adv-x="600" d="M156 564 Q156 603 175.5 636 Q195 669 228 688.5 Q261 708 300 708 Q339 708 372 688.5 Q405 669 424.5 636 Q444 603 444 564 Q444 525 424.5 492 Q405 459 372 439.5 Q339 420 300 420 Q261 420 228 439.5 Q195 459 175.5 492 Q156 525 156 564 Z M215 564 Q215 529 240 504.5 Q265 480 300 480 Q335 480 360 504.5 Q385 529 385 564 Q385 599 360 623.5 Q335 648 300 648 Q265 648 240 623.5 Q215 599 215 564 Z " />
<glyph glyph-name="bar" unicode="&#x7c;" horiz-adv-x="600" d="M339 769 L339 -171 L261 -171 L261 769 L339 769 Z " />
<glyph glyph-name="brokenbar" unicode="&#xa6;" horiz-adv-x="600" d="M339 769 L339 360 L261 360 L261 769 L339 769 Z M339 240 L339 -171 L261 -171 L261 240 L339 240 Z " />
<glyph glyph-name="dagger" unicode="&#x2020;" horiz-adv-x="600" d="M420 542 L333 542 L333 350 L268 350 L268 542 L180 542 L180 601 L268 601 L268 700 L333 700 L333 601 L420 601 L420 542 Z " />
<glyph glyph-name="daggerdbl" unicode="&#x2021;" horiz-adv-x="600" d="M333 542 L333 495 L420 495 L420 436 L333 436 L333 337 L268 337 L268 436 L180 436 L180 495 L268 495 L268 542 L180 542 L180 601 L268 601 L268 700 L333 700 L333 601 L420 601 L420 542 L333 542 Z " />
<glyph glyph-name="asciicircum" unicode="&#x5e;" horiz-adv-x="600" d="M466 350 L300 628 L134 350 L47 350 L257 700 L343 700 L553 350 L466 350 Z " />
<glyph glyph-name="uni0308" unicode="&#x308;" d="M-269 569 Q-293 569 -310 586 Q-327 603 -327 626 Q-327 649 -310 666 Q-293 683 -269 683 Q-246 683 -229 666 Q-212 649 -212 626 Q-212 603 -229 586 Q-246 569 -269 569 Z M-112 569 Q-135 569 -152 586 Q-169 603 -169 626 Q-169 649 -152 666 Q-135 683 -112 683 Q-88 683 -71.5 666 Q-55 649 -55 626 Q-55 603 -71.5 586 Q-88 569 -112 569 Z " />
<glyph glyph-name="uni0307" unicode="&#x307;" d="M-228 626 Q-228 650 -211.5 666.5 Q-195 683 -170 683 Q-147 683 -130.5 666.5 Q-114 650 -114 626 Q-114 602 -130.5 585.5 Q-147 569 -170 569 Q-195 569 -211.5 585.5 Q-228 602 -228 626 Z " />
<glyph glyph-name="gravecomb" unicode="&#x300;" d="M-174 567 L-273 685 L-167 685 L-101 567 L-174 567 Z " />
<glyph glyph-name="acutecomb" unicode="&#x301;" d="M-159 685 L-53 685 L-152 567 L-225 567 L-159 685 Z " />
<glyph glyph-name="uni030B" unicode="&#x30b;" d="M-351 567 L-296 685 L-200 685 L-289 567 L-351 567 Z M-223 567 L-168 685 L-72 685 L-161 567 L-223 567 Z " />
<glyph glyph-name="uni0302" unicode="&#x302;" d="M-161 567 L-220 631 L-278 567 L-352 567 L-267 685 L-172 685 L-88 567 L-161 567 Z " />
<glyph glyph-name="uni030C" unicode="&#x30c;" d="M-88 685 L-172 567 L-267 567 L-352 685 L-278 685 L-220 621 L-161 685 L-88 685 Z " />
<glyph glyph-name="uni0306" unicode="&#x306;" d="M-73 686 Q-75 635 -108 601.5 Q-141 568 -194 568 Q-247 568 -280 601.5 Q-313 635 -315 686 L-253 686 Q-251 660 -235.5 644 Q-220 628 -194 628 Q-168 628 -152 644 Q-136 660 -134 686 L-73 686 Z " />
<glyph glyph-name="uni030A" unicode="&#x30a;" d="M-256 637 Q-256 672 -231 697 Q-206 722 -171 722 Q-136 722 -110.5 697 Q-85 672 -85 637 Q-85 602 -110.5 577 Q-136 552 -171 552 Q-206 552 -231 577 Q-256 602 -256 637 Z M-203 637 Q-203 623 -193.5 613.5 Q-184 604 -171 604 Q-157 604 -147.5 613.5 Q-138 623 -138 637 Q-138 650 -147.5 660 Q-157 670 -171 670 Q-184 670 -193.5 660 Q-203 650 -203 637 Z " />
<glyph glyph-name="tildecomb" unicode="&#x303;" d="M-385 610 Q-371 644 -348 660 Q-325 676 -299 676 Q-280 676 -267 671.5 Q-254 667 -233 656 Q-219 648 -209 644 Q-199 640 -187 640 Q-160 640 -142 679 L-96 646 Q-108 613 -131.5 596 Q-155 579 -185 579 Q-204 579 -218 584 Q-232 589 -250 599 Q-265 607 -274 610.5 Q-283 614 -294 614 Q-322 614 -339 579 L-385 610 Z " />
<glyph glyph-name="uni0304" unicode="&#x304;" d="M-286 657 L-90 657 L-90 595 L-286 595 L-286 657 Z " />
<glyph glyph-name="uni0312" unicode="&#x312;" d="M-119 565 Q-142 565 -157.5 580 Q-173 595 -173 623 Q-173 648 -158 677 Q-143 706 -118 729 L-88 706 Q-107 682 -112 662 Q-91 658 -80 646 Q-69 634 -69 616 Q-69 594 -82.5 579.5 Q-96 565 -119 565 Z " />
<glyph glyph-name="uni0326" unicode="&#x326;" d="M-133 -45 Q-110 -45 -94.5 -60 Q-79 -75 -79 -103 Q-79 -128 -94 -157 Q-109 -186 -134 -209 L-164 -186 Q-145 -162 -140 -142 Q-161 -138 -172 -126 Q-183 -114 -183 -96 Q-183 -74 -169.5 -59.5 Q-156 -45 -133 -45 Z " />
<glyph glyph-name="uni0327" unicode="&#x327;" d="M-179 7 L-125 0 L-147 -41 Q-110 -43 -88 -63.5 Q-66 -84 -66 -123 Q-66 -161 -91 -184.5 Q-116 -208 -156 -208 Q-191 -208 -216 -188 Q-241 -168 -243 -139 L-193 -122 Q-193 -139 -183 -148.5 Q-173 -158 -156 -158 Q-140 -158 -130 -148 Q-120 -138 -120 -122 Q-120 -107 -130 -97.5 Q-140 -88 -156 -88 Q-170 -88 -179 -94 L-220 -66 L-179 7 Z " />
<glyph glyph-name="uni0328" unicode="&#x328;" d="M-107 -179 Q-113 -180 -121 -180 Q-170 -180 -199.5 -156 Q-229 -132 -229 -93 Q-229 -55 -206 -26 Q-183 3 -149 22 L-102 0 Q-164 -34 -164 -78 Q-164 -96 -150 -109 Q-136 -122 -112 -122 L-106 -122 L-107 -179 Z " />
<glyph glyph-name="uni0335" unicode="&#x335;" d="M-435 371 L-127 371 L-127 310 L-435 310 L-435 371 Z " />
<glyph glyph-name="uni0336" unicode="&#x336;" d="M-408 382 L-88 382 L-88 318 L-408 318 L-408 382 Z " />
<glyph glyph-name="uni0337" unicode="&#x337;" d="M-158 474 L-118 421 L-361 231 L-400 285 L-158 474 Z " />
<glyph glyph-name="uni0338" unicode="&#x338;" d="M-172 521 L-118 482 L-484 -29 L-538 11 L-172 521 Z " />
<glyph glyph-name="acute" unicode="&#xb4;" horiz-adv-x="600" d="M314 685 L420 685 L321 567 L248 567 L314 685 Z " />
<glyph glyph-name="breve" unicode="&#x2d8;" horiz-adv-x="600" d="M421 686 Q419 635 386 601.5 Q353 568 300 568 Q247 568 214 601.5 Q181 635 179 686 L241 686 Q243 660 258.5 644 Q274 628 300 628 Q326 628 342 644 Q358 660 360 686 L421 686 Z " />
<glyph glyph-name="caron" unicode="&#x2c7;" horiz-adv-x="600" d="M432 685 L348 567 L253 567 L168 685 L242 685 L300 621 L359 685 L432 685 Z " />
<glyph glyph-name="cedilla" unicode="&#xb8;" horiz-adv-x="600" d="M260 7 L314 0 L292 -41 Q329 -43 351 -63.5 Q373 -84 373 -123 Q373 -161 348 -184.5 Q323 -208 283 -208 Q248 -208 223 -188 Q198 -168 196 -139 L246 -122 Q246 -139 256 -148.5 Q266 -158 283 -158 Q299 -158 309 -148 Q319 -138 319 -122 Q319 -107 309 -97.5 Q299 -88 283 -88 Q269 -88 260 -94 L219 -66 L260 7 Z " />
<glyph glyph-name="circumflex" unicode="&#x2c6;" horiz-adv-x="600" d="M359 567 L300 631 L242 567 L168 567 L253 685 L348 685 L432 567 L359 567 Z " />
<glyph glyph-name="dieresis" unicode="&#xa8;" horiz-adv-x="600" d="M222 569 Q198 569 181 586 Q164 603 164 626 Q164 649 181 666 Q198 683 222 683 Q245 683 262 666 Q279 649 279 626 Q279 603 262 586 Q245 569 222 569 Z M379 569 Q356 569 339 586 Q322 603 322 626 Q322 649 339 666 Q356 683 379 683 Q403 683 419.5 666 Q436 649 436 626 Q436 603 419.5 586 Q403 569 379 569 Z " />
<glyph glyph-name="dotaccent" unicode="&#x2d9;" horiz-adv-x="600" d="M243 626 Q243 650 259.5 666.5 Q276 683 301 683 Q324 683 340.5 666.5 Q357 650 357 626 Q357 602 340.5 585.5 Q324 569 301 569 Q276 569 259.5 585.5 Q243 602 243 626 Z " />
<glyph glyph-name="grave" unicode="&#x60;" horiz-adv-x="600" d="M260 567 L161 685 L267 685 L333 567 L260 567 Z " />
<glyph glyph-name="hungarumlaut" unicode="&#x2dd;" horiz-adv-x="600" d="M187 567 L242 685 L338 685 L249 567 L187 567 Z M315 567 L370 685 L466 685 L377 567 L315 567 Z " />
<glyph glyph-name="overscore" unicode="&#xaf;" horiz-adv-x="600" d="M202 657 L398 657 L398 595 L202 595 L202 657 Z " />
<glyph glyph-name="ogonek" unicode="&#x2db;" horiz-adv-x="600" d="M350 -179 Q344 -180 336 -180 Q287 -180 257.5 -156 Q228 -132 228 -93 Q228 -55 251 -26 Q274 3 308 22 L355 0 Q293 -34 293 -78 Q293 -96 307 -109 Q321 -122 345 -122 L351 -122 L350 -179 Z " />
<glyph glyph-name="ring" unicode="&#x2da;" horiz-adv-x="600" d="M224 637 Q224 672 249 697 Q274 722 309 722 Q344 722 369.5 697 Q395 672 395 637 Q395 602 369.5 577 Q344 552 309 552 Q274 552 249 577 Q224 602 224 637 Z M277 637 Q277 623 286.5 613.5 Q296 604 309 604 Q323 604 332.5 613.5 Q342 623 342 637 Q342 650 332.5 660 Q323 670 309 670 Q296 670 286.5 660 Q277 650 277 637 Z " />
<glyph glyph-name="tilde" unicode="&#x2dc;" horiz-adv-x="600" d="M155 610 Q169 644 192 660 Q215 676 241 676 Q260 676 273 671.5 Q286 667 307 656 Q321 648 331 644 Q341 640 353 640 Q380 640 398 679 L444 646 Q432 613 408.5 596 Q385 579 355 579 Q336 579 322 584 Q308 589 290 599 Q275 607 266 610.5 Q257 614 246 614 Q218 614 201 579 L155 610 Z " />
<glyph glyph-name="uni20BF" unicode="&#x20bf;" horiz-adv-x="600" d="M527 209 Q527 140 486.5 90 Q446 40 374 28 L374 -50 L310 -50 L310 24 L254 24 L254 -50 L190 -50 L190 24 L85 24 L85 678 L190 678 L190 740 L254 740 L254 678 L310 678 L310 740 L374 740 L374 672 Q437 658 469.5 613 Q502 568 502 506 Q502 458 480.5 421.5 Q459 385 423 365 L423 363 Q464 348 495.5 311.5 Q527 275 527 209 Z M158 388 L315 388 Q371 388 400.5 420 Q430 452 430 505 Q430 554 399 583.5 Q368 613 315 613 L158 613 L158 388 Z M329 88 Q389 88 422 122.5 Q455 157 455 209 Q455 261 420.5 293.5 Q386 326 316 326 L158 326 L158 88 L329 88 Z " />
</font>
</svg>
